<?xml version="1.0" encoding="utf-8" standalone="no"?>
<!DOCTYPE svg PUBLIC "-//W3C//DTD SVG 1.1//EN"
  "http://www.w3.org/Graphics/SVG/1.1/DTD/svg11.dtd">
<svg height="280.512pt" version="1.1" viewBox="0 0 357.052317 280.512" width="357.052317pt" xmlns="http://www.w3.org/2000/svg" xmlns:xlink="http://www.w3.org/1999/xlink">
 <metadata>
  <rdf:RDF xmlns:cc="http://creativecommons.org/ns#" xmlns:dc="http://purl.org/dc/elements/1.1/" xmlns:rdf="http://www.w3.org/1999/02/22-rdf-syntax-ns#">
   <cc:Work>
    <dc:type rdf:resource="http://purl.org/dc/dcmitype/StillImage"/>
    <dc:date>2022-11-22T17:11:08.047536</dc:date>
    <dc:format>image/svg+xml</dc:format>
    <dc:creator>
     <cc:Agent>
      <dc:title>Matplotlib v3.4.2, https://matplotlib.org/</dc:title>
     </cc:Agent>
    </dc:creator>
   </cc:Work>
  </rdf:RDF>
 </metadata>
 <defs>
  <style type="text/css">*{stroke-linecap:butt;stroke-linejoin:round;}</style>
 </defs>
 <g id="figure_1">
  <g id="patch_1">
   <path d="M 0 280.512 
L 357.052317 280.512 
L 357.052317 0 
L 0 0 
z
" style="fill:none;"/>
  </g>
  <g id="axes_1">
   <g id="PolyCollection_1">
    <path clip-path="url(#p819e52f713)" d="M 141.571342 39.491709 
L 141.571342 39.491709 
L 141.636835 40.52006 
L 141.698114 41.548671 
L 141.759679 42.577264 
L 141.826006 43.605561 
L 141.901525 44.633225 
L 141.990598 45.659802 
L 142.097498 46.684676 
L 142.226381 47.707018 
L 142.381256 48.725747 
L 142.565953 49.739494 
L 142.784088 50.746575 
L 143.039017 51.744976 
L 143.333799 52.732346 
L 143.671147 53.705994 
L 144.053389 54.662909 
L 144.482416 55.599781 
L 144.959648 56.513042 
L 145.485996 57.398904 
L 146.061832 58.253426 
L 146.686969 59.072571 
L 147.360652 59.85228 
L 148.081558 60.588547 
L 148.847807 61.277501 
L 149.656993 61.915477 
L 150.506218 62.499096 
L 151.392146 63.025333 
L 152.311064 63.491579 
L 153.25895 63.89569 
L 154.231556 64.236032 
L 155.224486 64.511504 
L 156.233284 64.721556 
L 157.253518 64.866186 
L 158.280861 64.945932 
L 159.311173 64.961845 
L 160.340562 64.915457 
L 161.365455 64.808733 
L 162.382641 64.644028 
L 163.389315 64.424026 
L 164.38311 64.151689 
L 165.362107 63.830194 
L 166.32485 63.462878 
L 167.270339 63.053189 
L 168.198021 62.604635 
L 169.107768 62.120739 
L 169.999853 61.605008 
L 170.87492 61.0609 
L 171.733945 60.491803 
L 172.5782 59.901017 
L 173.409213 59.291747 
L 174.228728 58.667095 
L 175.03866 58.030066 
L 175.841055 57.383571 
L 176.638052 56.730432 
L 177.43184 56.073396 
L 178.224622 55.415147 
L 179.018577 54.758314 
L 179.815827 54.105484 
L 180.618404 53.459214 
L 181.428218 52.822035 
L 182.247029 52.196461 
L 183.076422 51.584985 
L 183.917783 50.990086 
L 184.772283 50.414216 
L 185.640853 49.859798 
L 186.524182 49.329208 
L 187.422699 48.824767 
L 188.336576 48.348716 
L 189.265722 47.903204 
L 190.209794 47.490259 
L 191.1682 47.111772 
L 192.140119 46.769472 
L 193.124514 46.464907 
L 194.120161 46.199422 
L 195.125668 45.974143 
L 196.139508 45.789962 
L 197.160051 45.647528 
L 198.185593 45.547236 
L 199.214393 45.489228 
L 200.244706 45.473391 
L 201.274812 45.499364 
L 202.303054 45.566544 
L 203.32786 45.674101 
L 204.34777 45.820995 
L 205.361462 46.005989 
L 206.367768 46.227674 
L 207.365686 46.484488 
L 208.354398 46.774737 
L 209.333267 47.096621 
L 210.301848 47.448253 
L 211.259882 47.827683 
L 212.20729 48.232913 
L 213.144172 48.661921 
L 214.070788 49.112674 
L 214.98755 49.583142 
L 215.895009 50.071316 
L 216.793832 50.575212 
L 217.684792 51.092885 
L 218.568746 51.622432 
L 219.446617 52.162003 
L 220.319377 52.709803 
L 221.188029 53.264095 
L 222.053588 53.823203 
L 222.917066 54.38552 
L 223.779458 54.949501 
L 224.641723 55.513676 
L 225.504776 56.076645 
L 226.369475 56.637084 
L 227.236607 57.193749 
L 228.106888 57.745478 
L 228.980949 58.2912 
L 229.859335 58.829933 
L 230.7425 59.360795 
L 231.630808 59.883006 
L 232.52453 60.395895 
L 233.423849 60.898907 
L 234.328859 61.391605 
L 235.239573 61.873677 
L 236.155927 62.344942 
L 237.077783 62.80535 
L 238.004941 63.254988 
L 238.937138 63.69408 
L 239.874065 64.12299 
L 240.815362 64.542221 
L 241.760634 64.952411 
L 242.709449 65.354337 
L 243.661348 65.748903 
L 244.615845 66.137144 
L 245.572429 66.520213 
L 246.530567 66.899376 
L 247.489704 67.276008 
L 248.449258 67.651576 
L 249.408618 68.027638 
L 250.367143 68.405825 
L 251.324151 68.787832 
L 252.278919 69.175406 
L 253.23067 69.570331 
L 254.178568 69.974414 
L 255.121713 70.389471 
L 256.05913 70.817308 
L 256.989762 71.259709 
L 257.912467 71.718414 
L 258.82601 72.195104 
L 259.729063 72.69138 
L 260.620199 73.208749 
L 261.497898 73.748602 
L 262.360544 74.312194 
L 263.206436 74.900633 
L 264.033797 75.514856 
L 264.840779 76.155617 
L 265.625484 76.823473 
L 266.385978 77.518775 
L 267.120309 78.241652 
L 267.826535 78.992013 
L 268.502737 79.769537 
L 269.147056 80.573681 
L 269.75771 81.403679 
L 270.333023 82.258553 
L 270.871453 83.137125 
L 271.371614 84.038032 
L 271.832298 84.95975 
L 272.252503 85.900613 
L 272.631441 86.858841 
L 272.968563 87.832568 
L 273.263565 88.819871 
L 273.516396 89.818806 
L 273.727264 90.827434 
L 273.896635 91.843853 
L 274.02523 92.866232 
L 274.114019 93.892834 
L 274.164207 94.922045 
L 274.177227 95.952397 
L 274.15472 96.982585 
L 274.098522 98.011486 
L 274.010647 99.038166 
L 273.893266 100.061893 
L 273.748694 101.082135 
L 273.579371 102.098562 
L 273.387847 103.111041 
L 273.176769 104.119625 
L 272.948868 105.124541 
L 272.706947 106.126174 
L 272.453878 107.125048 
L 272.192587 108.121804 
L 271.926059 109.117172 
L 271.657325 110.111947 
L 271.389469 111.106958 
L 271.125616 112.103039 
L 270.86894 113.100993 
L 270.622654 114.101562 
L 270.390012 115.10539 
L 270.174298 116.112993 
L 269.978828 117.124717 
L 269.806928 118.140712 
L 269.66193 119.160893 
L 269.547151 120.184915 
L 269.465871 121.212139 
L 269.421306 122.241609 
L 269.416582 123.272032 
L 269.454699 124.301761 
L 269.53849 125.328783 
L 269.670585 126.350715 
L 269.853361 127.36481 
L 270.088902 128.367962 
L 270.378951 129.356732 
L 270.724864 130.327371 
L 271.127567 131.275857 
L 271.587519 132.197941 
L 272.104678 133.089199 
L 272.678472 133.945093 
L 273.307783 134.761036 
L 273.990936 135.532461 
L 274.725701 136.254898 
L 275.509306 136.924045 
L 276.338458 137.535847 
L 277.209381 138.086563 
L 278.117861 138.572834 
L 279.059302 138.991741 
L 280.028791 139.340862 
L 281.021172 139.618305 
L 282.031122 139.822744 
L 283.053235 139.953434 
L 284.082104 140.010218 
L 285.112403 139.993519 
L 286.138969 139.904322 
L 287.156877 139.744142 
L 288.161508 139.514988 
L 289.148609 139.219308 
L 290.114347 138.85994 
L 291.055349 138.440048 
L 291.968737 137.963061 
L 292.852145 137.432604 
L 293.703734 136.852439 
L 294.522191 136.226402 
L 295.306726 135.558345 
L 296.057052 134.852083 
L 296.773368 134.111349 
L 297.456332 133.339757 
L 298.107029 132.540765 
L 298.726938 131.717656 
L 299.317894 130.87352 
L 299.882057 130.011247 
L 300.42187 129.133525 
L 300.940026 128.242846 
L 301.439431 127.341519 
L 301.923171 126.43169 
L 302.394482 125.515359 
L 302.856715 124.594417 
L 303.313309 123.670666 
L 303.767764 122.74586 
L 304.223608 121.821738 
L 304.684372 120.90006 
L 305.153562 119.982642 
L 305.634627 119.071395 
L 306.130929 118.168356 
L 306.645709 117.275721 
L 307.182053 116.395875 
L 307.742855 115.531412 
L 308.330772 114.685157 
L 308.948187 113.860176 
L 309.597162 113.059784 
L 310.279389 112.287541 
L 310.996149 111.547237 
L 311.748262 110.842879 
L 312.536044 110.178654 
L 313.359263 109.558891 
L 314.217105 108.988014 
L 315.108144 108.470477 
L 316.030316 108.0107 
L 316.980908 107.612996 
L 317.956559 107.281484 
L 318.953266 107.02001 
L 319.966414 106.832056 
L 320.990809 106.720659 
L 322.020736 106.688323 
L 323.050023 106.736946 
L 324.072121 106.867748 
L 325.080201 107.08122 
L 326.067249 107.377076 
L 327.026181 107.754228 
L 327.949955 108.210776 
L 328.83169 108.74401 
L 329.664776 109.350444 
L 330.442988 110.025856 
L 331.160588 110.765345 
L 331.812415 111.563416 
L 332.393963 112.41406 
L 332.901446 113.310863 
L 333.331842 114.247108 
L 333.682919 115.215891 
L 333.953248 116.210233 
L 334.142196 117.223196 
L 334.249896 118.247987 
L 334.277212 119.278059 
L 334.225684 120.307204 
L 334.097463 121.329629 
L 333.89524 122.340026 
L 333.622166 123.333618 
L 333.281768 124.306204 
L 332.87787 125.254181 
L 332.414509 126.174557 
L 331.895857 127.064948 
L 331.326152 127.923569 
L 330.709624 128.749213 
L 330.050445 129.541222 
L 329.352676 130.299452 
L 328.620224 131.024233 
L 327.856811 131.716328 
L 327.065951 132.376885 
L 326.250933 133.007394 
L 325.414816 133.609641 
L 324.560421 134.185667 
L 323.690345 134.737718 
L 322.806961 135.268216 
L 321.912441 135.779712 
L 321.008767 136.274858 
L 320.097757 136.75637 
L 319.181078 137.227003 
L 318.260277 137.689518 
L 317.336799 138.146665 
L 316.41201 138.601154 
L 315.487217 139.055634 
L 314.563688 139.512679 
L 313.642671 139.974763 
L 312.725404 140.444247 
L 311.81313 140.923363 
L 310.907109 141.414199 
L 310.008617 141.918685 
L 309.118953 142.438583 
L 308.23944 142.975472 
L 307.371416 143.530746 
L 306.516233 144.105601 
L 305.675246 144.70103 
L 304.849801 145.317824 
L 304.041221 145.956567 
L 303.250792 146.61764 
L 302.479747 147.301222 
L 301.72925 148.007301 
L 301.000375 148.73568 
L 300.294095 149.485989 
L 299.611262 150.257698 
L 298.952594 151.050132 
L 298.318663 151.86249 
L 297.709882 152.693863 
L 297.126496 153.543248 
L 296.568579 154.409575 
L 296.036023 155.29172 
L 295.528545 156.188526 
L 295.045681 157.098821 
L 294.586793 158.021435 
L 294.15107 158.955212 
L 293.73754 159.899028 
L 293.345078 160.851796 
L 292.972411 161.812481 
L 292.618137 162.780099 
L 292.280733 163.753728 
L 291.958568 164.732505 
L 291.649918 165.715627 
L 291.352982 166.702351 
L 291.065891 167.691984 
L 290.786725 168.683882 
L 290.51353 169.67744 
L 290.244324 170.672088 
L 289.977121 171.667275 
L 289.709935 172.662466 
L 289.440801 173.657133 
L 289.167782 174.65074 
L 288.888988 175.642743 
L 288.602584 176.632575 
L 288.306804 177.619646 
L 287.999965 178.603335 
L 287.680476 179.582989 
L 287.34685 180.557918 
L 286.997715 181.527403 
L 286.631824 182.490688 
L 286.248064 183.446995 
L 285.84546 184.395523 
L 285.423188 185.335459 
L 284.980573 186.265989 
L 284.517097 187.186307 
L 284.032399 188.095627 
L 283.526274 188.993197 
L 282.998673 189.878314 
L 282.449697 190.750335 
L 281.879593 191.608692 
L 281.288748 192.452905 
L 280.677677 193.282596 
L 280.047016 194.097496 
L 279.397513 194.897458 
L 278.730011 195.682466 
L 278.045442 196.452635 
L 277.344813 197.208223 
L 276.629194 197.94963 
L 275.899706 198.677395 
L 275.157515 199.3922 
L 274.403817 200.094862 
L 273.639834 200.786328 
L 272.866805 201.467666 
L 272.085985 202.140061 
L 271.298635 202.804797 
L 270.506022 203.46325 
L 269.709421 204.116872 
L 268.910111 204.767177 
L 268.109376 205.415729 
L 267.308511 206.064119 
L 266.50882 206.713956 
L 265.711618 207.366845 
L 264.918238 208.024373 
L 264.130027 208.688089 
L 263.348351 209.359489 
L 262.574594 210.039999 
L 261.810154 210.730959 
L 261.056442 211.433606 
L 260.314879 212.149064 
L 259.586886 212.878323 
L 258.873874 213.622239 
L 258.177241 214.381513 
L 257.49835 215.156691 
L 256.838519 215.948157 
L 256.199009 216.756131 
L 255.581001 217.580667 
L 254.98558 218.42166 
L 254.413721 219.278848 
L 253.866266 220.151825 
L 253.34391 221.040047 
L 252.847183 221.942852 
L 252.376434 222.859471 
L 251.931822 223.789049 
L 251.513297 224.73066 
L 251.120601 225.683332 
L 250.753251 226.646062 
L 250.410544 227.617837 
L 250.091549 228.597652 
L 249.795111 229.584525 
L 249.519853 230.577515 
L 249.264184 231.575727 
L 249.026302 232.578327 
L 248.804206 233.584542 
L 248.595703 234.593661 
L 248.398424 235.605034 
L 248.209829 236.618063 
L 248.027227 237.632188 
L 247.847785 238.646878 
L 247.668544 239.661603 
L 247.486433 240.675818 
L 247.29829 241.68893 
L 247.100873 242.700276 
L 246.890886 243.709088 
L 246.665 244.714458 
L 246.419875 245.715312 
L 246.152194 246.710371 
L 245.85869 247.698121 
L 245.536185 248.676786 
L 245.181629 249.644301 
L 244.792146 250.598291 
L 244.36508 251.536059 
L 243.898048 252.454578 
L 243.388994 253.35049 
L 242.836243 254.220123 
L 242.238561 255.059509 
L 241.595202 255.864422 
L 240.905968 256.630419 
L 240.171244 257.352897 
L 239.39204 258.027165 
L 238.570019 258.648515 
L 237.707508 259.212315 
L 236.8075 259.714091 
L 235.873637 260.149631 
L 234.910182 260.515075 
L 233.921967 260.807007 
L 232.914327 261.022544 
L 231.893022 261.15941 
L 230.864143 261.216 
L 229.834002 261.19143 
L 228.80902 261.085564 
L 227.79561 260.899029 
L 226.800054 260.633204 
L 225.828387 260.290192 
L 224.886285 259.872773 
L 223.978968 259.384337 
L 223.111107 258.828808 
L 222.286756 258.210552 
L 221.509294 257.534277 
L 220.78139 256.804928 
L 220.104979 256.027584 
L 219.481267 255.207354 
L 218.910735 254.349282 
L 218.393176 253.458256 
L 217.927728 252.538934 
L 217.512928 251.595676 
L 217.146763 250.632495 
L 216.826732 249.653018 
L 216.549908 248.660464 
L 216.312998 247.657634 
L 216.112399 246.646914 
L 215.94426 245.63029 
L 215.804522 244.609375 
L 215.688971 243.58544 
L 215.593276 242.559459 
L 215.513019 241.532155 
L 215.443729 240.504053 
L 215.380907 239.475535 
L 215.320046 238.4469 
L 215.256657 237.418417 
L 215.186284 236.390389 
L 215.104528 235.363203 
L 215.007069 234.337388 
L 214.889689 233.313661 
L 214.748301 232.292973 
L 214.578981 231.276545 
L 214.378001 230.265901 
L 214.141872 229.262887 
L 213.867378 228.269686 
L 213.551629 227.28882 
L 213.192098 226.323143 
L 212.786672 225.375818 
L 212.333689 224.450291 
L 211.83198 223.550245 
L 211.2809 222.679552 
L 210.680355 221.842211 
L 210.030814 221.042279 
L 209.333319 220.283796 
L 208.589473 219.570713 
L 207.801423 218.906806 
L 206.971827 218.295607 
L 206.103808 217.740325 
L 205.2009 217.243786 
L 204.266979 216.808371 
L 203.30619 216.435973 
L 202.322867 216.127962 
L 201.321446 215.885166 
L 200.306381 215.707859 
L 199.282061 215.59577 
L 198.25273 215.548103 
L 197.222412 215.563561 
L 196.194846 215.640388 
L 195.17343 215.776419 
L 194.161176 215.969126 
L 193.160673 216.21568 
L 192.174066 216.513005 
L 191.203043 216.857836 
L 190.24883 217.246774 
L 189.312202 217.676336 
L 188.393498 218.143002 
L 187.49264 218.643251 
L 186.609166 219.173598 
L 185.742262 219.730619 
L 184.890798 220.310967 
L 184.053369 220.91139 
L 183.228334 221.528733 
L 182.413859 222.159943 
L 181.607958 222.802063 
L 180.808534 223.452228 
L 180.013417 224.107654 
L 179.220407 224.765628 
L 178.427308 225.423496 
L 177.631965 226.078648 
L 176.832299 226.728516 
L 176.026333 227.370555 
L 175.212231 228.002245 
L 174.388315 228.621081 
L 173.553098 229.224576 
L 172.705299 229.810266 
L 171.843866 230.37571 
L 170.967986 230.918508 
L 170.077101 231.436309 
L 169.170909 231.92683 
L 168.24937 232.387873 
L 167.312702 232.817347 
L 166.361375 233.21329 
L 165.396096 233.573889 
L 164.417797 233.897502 
L 163.427611 234.182682 
L 162.426851 234.428191 
L 161.41698 234.633018 
L 160.399579 234.79639 
L 159.376321 234.917787 
L 158.348931 234.996939 
L 157.319157 235.033831 
L 156.288736 235.028703 
L 155.259359 234.982037 
L 154.232645 234.89455 
L 153.210113 234.767182 
L 152.193156 234.601072 
L 151.183021 234.397546 
L 150.180795 234.158093 
L 149.187389 233.884343 
L 148.203531 233.578046 
L 147.229762 233.241047 
L 146.266434 232.875269 
L 145.313714 232.482687 
L 144.371592 232.065314 
L 143.439886 231.62518 
L 142.518257 231.164317 
L 141.606223 230.684745 
L 140.703172 230.188465 
L 139.808383 229.67744 
L 138.921037 229.153595 
L 138.040244 228.618808 
L 137.165052 228.074901 
L 136.294473 227.523642 
L 135.427495 226.966737 
L 134.563102 226.405828 
L 133.700289 225.84249 
L 132.838078 225.278232 
L 131.97553 224.71449 
L 131.111757 224.152626 
L 130.245936 223.593924 
L 129.377313 223.039587 
L 128.505216 222.490732 
L 127.629055 221.948388 
L 126.748331 221.413487 
L 125.862634 220.88686 
L 124.971647 220.369233 
L 124.075144 219.861221 
L 123.172986 219.363319 
L 122.265121 218.875903 
L 121.351574 218.399219 
L 120.432448 217.933385 
L 119.507912 217.478382 
L 118.578198 217.034053 
L 117.643594 216.600106 
L 116.704435 216.176108 
L 115.761099 215.761486 
L 114.814 215.355533 
L 113.863583 214.957408 
L 112.910323 214.566141 
L 111.954718 214.180638 
L 110.997288 213.799687 
L 110.038579 213.421967 
L 109.07916 213.046057 
L 108.119624 212.670441 
L 107.160599 212.293525 
L 106.202745 211.913644 
L 105.246763 211.529074 
L 104.293404 211.13805 
L 103.343471 210.738772 
L 102.397832 210.329429 
L 101.457425 209.908206 
L 100.523263 209.473308 
L 99.596446 209.022969 
L 98.678162 208.555478 
L 97.769691 208.069189 
L 96.872412 207.562548 
L 95.987799 207.034103 
L 95.11742 206.482529 
L 94.262932 205.906641 
L 93.426079 205.305417 
L 92.608673 204.678007 
L 91.81259 204.023755 
L 91.039747 203.342206 
L 90.29209 202.633119 
L 89.57157 201.896475 
L 88.880119 201.132478 
L 88.21963 200.341562 
L 87.591927 199.524381 
L 86.998742 198.68181 
L 86.441687 197.814928 
L 85.922229 196.925008 
L 85.441668 196.013495 
L 85.001111 195.081988 
L 84.601456 194.132215 
L 84.243372 193.166 
L 83.927288 192.185242 
L 83.653381 191.191879 
L 83.421574 190.187857 
L 83.231529 189.1751 
L 83.082652 188.155477 
L 82.974096 187.130777 
L 82.904772 186.102678 
L 82.873361 185.072722 
L 82.878322 184.0423 
L 82.917915 183.012627 
L 82.990214 181.984732 
L 83.093123 180.959449 
L 83.224397 179.937411 
L 83.381657 178.919048 
L 83.562406 177.90459 
L 83.764043 176.894077 
L 83.983878 175.887366 
L 84.219144 174.884148 
L 84.467002 173.883968 
L 84.724551 172.886239 
L 84.988837 171.890273 
L 85.25685 170.895304 
L 85.525533 169.900515 
L 85.791781 168.905072 
L 86.052445 167.908153 
L 86.30433 166.908979 
L 86.544203 165.906853 
L 86.768794 164.901192 
L 86.974801 163.891561 
L 87.158903 162.877706 
L 87.317768 161.859592 
L 87.448069 160.837429 
L 87.546505 159.811707 
L 87.609825 158.783221 
L 87.634853 157.75309 
L 87.618522 156.722786 
L 87.557911 155.694135 
L 87.450282 154.669338 
L 87.293126 153.650958 
L 87.084208 152.641925 
L 86.821607 151.645514 
L 86.50377 150.665323 
L 86.12955 149.705242 
L 85.698249 148.769414 
L 85.209655 147.862182 
L 84.664074 146.988033 
L 84.062347 146.151541 
L 83.40587 145.357291 
L 82.696598 144.60981 
L 81.937033 143.913494 
L 81.130213 143.27253 
L 80.279675 142.690825 
L 79.389421 142.171939 
L 78.463865 141.719015 
L 77.507768 141.33473 
L 76.526176 141.021247 
L 75.524338 140.780176 
L 74.507629 140.612555 
L 73.481465 140.518835 
L 72.451224 140.498881 
L 71.422159 140.551986 
L 70.399324 140.676896 
L 69.387499 140.871843 
L 68.391126 141.134592 
L 67.414256 141.462492 
L 66.460494 141.852535 
L 65.532971 142.301417 
L 64.63431 142.805603 
L 63.766615 143.36139 
L 62.93146 143.964973 
L 62.129897 144.6125 
L 61.362463 145.300133 
L 60.629196 146.02409 
L 59.929665 146.780696 
L 59.262996 147.56641 
L 58.627901 148.377859 
L 58.022719 149.211855 
L 57.445448 150.065408 
L 56.893781 150.935729 
L 56.365148 151.820229 
L 55.856743 152.71651 
L 55.365566 153.622347 
L 54.888453 154.535669 
L 54.422106 155.454536 
L 53.963127 156.377104 
L 53.508042 157.3016 
L 53.053335 158.226282 
L 52.595471 159.149404 
L 52.130929 160.069185 
L 51.656228 160.983763 
L 51.167959 161.89117 
L 50.662814 162.789292 
L 50.137626 163.675843 
L 49.589401 164.548336 
L 49.015358 165.404063 
L 48.41297 166.24008 
L 47.780011 167.053196 
L 47.114598 167.839974 
L 46.415236 168.596736 
L 45.680871 169.319579 
L 44.91093 170.004404 
L 44.105365 170.646946 
L 43.264695 171.242823 
L 42.390037 171.787586 
L 41.483133 172.276791 
L 40.546372 172.70606 
L 39.582789 173.071168 
L 38.596071 173.368121 
L 37.590529 173.593245 
L 36.571074 173.743268 
L 35.543169 173.815411 
L 34.512765 173.807464 
L 33.486234 173.71786 
L 32.470277 173.545737 
L 31.47183 173.290987 
L 30.497954 172.954296 
L 29.555728 172.537158 
L 28.652127 172.041879 
L 27.793913 171.471562 
L 26.987514 170.830067 
L 26.238924 170.121965 
L 25.553605 169.352463 
L 24.936398 168.527327 
L 24.391456 167.65278 
L 23.922188 166.735402 
L 23.531223 165.782018 
L 23.220391 164.799583 
L 22.990722 163.79507 
L 22.842462 162.775357 
L 22.775105 161.747127 
L 22.787444 160.716766 
L 22.877622 159.690286 
L 23.043211 158.673243 
L 23.281279 157.670688 
L 23.588477 156.68711 
L 23.961118 155.726416 
L 24.395263 154.791904 
L 24.886796 153.886261 
L 25.431505 153.011568 
L 26.025148 152.16932 
L 26.663517 151.360444 
L 27.34249 150.585337 
L 28.058078 149.8439 
L 28.806463 149.135583 
L 29.584026 148.459423 
L 30.387361 147.814096 
L 31.213296 147.197958 
L 32.05889 146.60909 
L 32.921436 146.045345 
L 33.79845 145.504382 
L 34.687661 144.98371 
L 35.586995 144.480726 
L 36.494554 143.992739 
L 37.4086 143.517013 
L 38.327526 143.050784 
L 39.24984 142.591294 
L 40.17414 142.135812 
L 41.099092 141.681654 
L 42.02341 141.226207 
L 42.945838 140.766946 
L 43.865135 140.301449 
L 44.780061 139.827419 
L 45.689367 139.342695 
L 46.591785 138.845264 
L 47.486027 138.333282 
L 48.370782 137.805074 
L 49.244719 137.259154 
L 50.106491 136.694227 
L 50.954745 136.109197 
L 51.788128 135.503171 
L 52.605305 134.875463 
L 53.404967 134.22559 
L 54.185854 133.553273 
L 54.946766 132.858429 
L 55.68658 132.141164 
L 56.404272 131.401763 
L 57.098927 130.640679 
L 57.769758 129.858515 
L 58.416119 129.056011 
L 59.037516 128.234026 
L 59.63362 127.393517 
L 60.20427 126.535523 
L 60.749482 125.661144 
L 61.269452 124.771523 
L 61.764554 123.867825 
L 62.235339 122.951225 
L 62.682533 122.022887 
L 63.107028 121.083952 
L 63.509874 120.135527 
L 63.892271 119.178674 
L 64.255558 118.214404 
L 64.6012 117.243669 
L 64.930775 116.267362 
L 65.245962 115.286316 
L 65.548525 114.301303 
L 65.840301 113.313041 
L 66.123187 112.322198 
L 66.399121 111.329396 
L 66.670074 110.335223 
L 66.938029 109.340239 
L 67.204977 108.344983 
L 67.472893 107.349988 
L 67.74373 106.355783 
L 68.019403 105.362909 
L 68.301777 104.37192 
L 68.592653 103.383393 
L 68.893757 102.397933 
L 69.206728 101.416178 
L 69.533107 100.438798 
L 69.874324 99.466499 
L 70.231689 98.500018 
L 70.606384 97.540123 
L 70.999454 96.587605 
L 71.411798 95.64327 
L 71.844167 94.707935 
L 72.297157 93.782411 
L 72.771209 92.867496 
L 73.266604 91.96396 
L 73.783471 91.072532 
L 74.321781 90.193887 
L 74.881361 89.328633 
L 75.461892 88.477293 
L 76.062922 87.640301 
L 76.683875 86.817979 
L 77.324057 86.010537 
L 77.982671 85.218059 
L 78.658827 84.440494 
L 79.351556 83.677656 
L 80.059818 82.929218 
L 80.782514 82.194708 
L 81.518501 81.473516 
L 82.266598 80.764893 
L 83.025592 80.067956 
L 83.794254 79.381695 
L 84.571335 78.704983 
L 85.355579 78.036584 
L 86.145719 77.375166 
L 86.940485 76.719315 
L 87.738601 76.067544 
L 88.538785 75.418313 
L 89.339747 74.770042 
L 90.140189 74.12113 
L 90.938801 73.469967 
L 91.73426 72.814955 
L 92.525225 72.154524 
L 93.31034 71.487149 
L 94.08823 70.811367 
L 94.857505 70.125794 
L 95.616758 69.429138 
L 96.364573 68.720218 
L 97.099528 67.997975 
L 97.820207 67.261484 
L 98.525202 66.509968 
L 99.213132 65.7428 
L 99.882654 64.959516 
L 100.532477 64.159813 
L 101.161379 63.343555 
L 101.768223 62.510767 
L 102.351976 61.661634 
L 102.91173 60.796492 
L 103.446712 59.915817 
L 103.956309 59.020214 
L 104.440079 58.1104 
L 104.897767 57.18719 
L 105.329316 56.251476 
L 105.73488 55.30421 
L 106.114829 54.346383 
L 106.469756 53.379004 
L 106.800477 52.403085 
L 107.108035 51.41962 
L 107.393697 50.429574 
L 107.658948 49.433865 
L 107.905486 48.433358 
L 108.135212 47.428858 
L 108.350226 46.421106 
L 108.55281 45.410782 
L 108.74542 44.398509 
L 108.930673 43.384864 
L 109.111333 42.37039 
L 109.290297 41.355616 
L 109.470583 40.341076 
L 109.655309 39.327335 
L 109.847681 38.315017 
L 110.050968 37.304834 
L 110.268487 36.29762 
L 110.503576 35.294362 
L 110.759566 34.296231 
L 111.039755 33.304622 
L 111.347369 32.321175 
L 111.685528 31.347808 
L 112.0572 30.386739 
L 112.465159 29.440502 
L 112.911929 28.511959 
L 113.399738 27.604304 
L 113.930457 26.721054 
L 114.505549 25.866031 
L 115.126009 25.043338 
L 115.792316 24.257316 
L 116.504382 23.512496 
L 117.261513 22.813534 
L 118.062374 22.165139 
L 118.904972 21.571993 
L 119.786647 21.03866 
L 120.704078 20.569495 
L 121.653306 20.168546 
L 122.629779 19.839462 
L 123.628403 19.585404 
L 124.643618 19.408959 
L 125.669487 19.312074 
L 126.699796 19.296 
L 127.728162 19.361249 
L 128.748154 19.507575 
L 129.75341 19.733973 
L 130.737756 20.038698 
L 131.695324 20.419301 
L 132.620653 20.872688 
L 133.508789 21.395191 
L 134.355361 21.982652 
L 135.156646 22.630524 
L 135.909617 23.333965 
L 136.61197 24.08795 
L 137.262137 24.887374 
L 137.859276 25.727148 
L 138.403253 26.602295 
L 138.89461 27.508034 
L 139.334515 28.439849 
L 139.724715 29.393547 
L 140.067472 30.365304 
L 140.365509 31.351695 
L 140.621944 32.349711 
L 140.840231 33.356759 
L 141.024104 34.370655 
L 141.177525 35.389604 
L 141.304634 36.412169 
L 141.40971 37.437232 
L 141.49713 38.463951 
L 141.571342 39.491709 
L 141.571342 39.491709 
L 141.571342 39.491709 
L 141.49713 39.491709 
L 141.40971 39.491709 
L 141.304634 39.491709 
L 141.177525 39.491709 
L 141.024104 39.491709 
L 140.840231 39.491709 
L 140.621944 39.491709 
L 140.365509 39.491709 
L 140.067472 39.491709 
L 139.724715 39.491709 
L 139.334515 39.491709 
L 138.89461 39.491709 
L 138.403253 39.491709 
L 137.859276 39.491709 
L 137.262137 39.491709 
L 136.61197 39.491709 
L 135.909617 39.491709 
L 135.156646 39.491709 
L 134.355361 39.491709 
L 133.508789 39.491709 
L 132.620653 39.491709 
L 131.695324 39.491709 
L 130.737756 39.491709 
L 129.75341 39.491709 
L 128.748154 39.491709 
L 127.728162 39.491709 
L 126.699796 39.491709 
L 125.669487 39.491709 
L 124.643618 39.491709 
L 123.628403 39.491709 
L 122.629779 39.491709 
L 121.653306 39.491709 
L 120.704078 39.491709 
L 119.786647 39.491709 
L 118.904972 39.491709 
L 118.062374 39.491709 
L 117.261513 39.491709 
L 116.504382 39.491709 
L 115.792316 39.491709 
L 115.126009 39.491709 
L 114.505549 39.491709 
L 113.930457 39.491709 
L 113.399738 39.491709 
L 112.911929 39.491709 
L 112.465159 39.491709 
L 112.0572 39.491709 
L 111.685528 39.491709 
L 111.347369 39.491709 
L 111.039755 39.491709 
L 110.759566 39.491709 
L 110.503576 39.491709 
L 110.268487 39.491709 
L 110.050968 39.491709 
L 109.847681 39.491709 
L 109.655309 39.491709 
L 109.470583 39.491709 
L 109.290297 39.491709 
L 109.111333 39.491709 
L 108.930673 39.491709 
L 108.74542 39.491709 
L 108.55281 39.491709 
L 108.350226 39.491709 
L 108.135212 39.491709 
L 107.905486 39.491709 
L 107.658948 39.491709 
L 107.393697 39.491709 
L 107.108035 39.491709 
L 106.800477 39.491709 
L 106.469756 39.491709 
L 106.114829 39.491709 
L 105.73488 39.491709 
L 105.329316 39.491709 
L 104.897767 39.491709 
L 104.440079 39.491709 
L 103.956309 39.491709 
L 103.446712 39.491709 
L 102.91173 39.491709 
L 102.351976 39.491709 
L 101.768223 39.491709 
L 101.161379 39.491709 
L 100.532477 39.491709 
L 99.882654 39.491709 
L 99.213132 39.491709 
L 98.525202 39.491709 
L 97.820207 39.491709 
L 97.099528 39.491709 
L 96.364573 39.491709 
L 95.616758 39.491709 
L 94.857505 39.491709 
L 94.08823 39.491709 
L 93.31034 39.491709 
L 92.525225 39.491709 
L 91.73426 39.491709 
L 90.938801 39.491709 
L 90.140189 39.491709 
L 89.339747 39.491709 
L 88.538785 39.491709 
L 87.738601 39.491709 
L 86.940485 39.491709 
L 86.145719 39.491709 
L 85.355579 39.491709 
L 84.571335 39.491709 
L 83.794254 39.491709 
L 83.025592 39.491709 
L 82.266598 39.491709 
L 81.518501 39.491709 
L 80.782514 39.491709 
L 80.059818 39.491709 
L 79.351556 39.491709 
L 78.658827 39.491709 
L 77.982671 39.491709 
L 77.324057 39.491709 
L 76.683875 39.491709 
L 76.062922 39.491709 
L 75.461892 39.491709 
L 74.881361 39.491709 
L 74.321781 39.491709 
L 73.783471 39.491709 
L 73.266604 39.491709 
L 72.771209 39.491709 
L 72.297157 39.491709 
L 71.844167 39.491709 
L 71.411798 39.491709 
L 70.999454 39.491709 
L 70.606384 39.491709 
L 70.231689 39.491709 
L 69.874324 39.491709 
L 69.533107 39.491709 
L 69.206728 39.491709 
L 68.893757 39.491709 
L 68.592653 39.491709 
L 68.301777 39.491709 
L 68.019403 39.491709 
L 67.74373 39.491709 
L 67.472893 39.491709 
L 67.204977 39.491709 
L 66.938029 39.491709 
L 66.670074 39.491709 
L 66.399121 39.491709 
L 66.123187 39.491709 
L 65.840301 39.491709 
L 65.548525 39.491709 
L 65.245962 39.491709 
L 64.930775 39.491709 
L 64.6012 39.491709 
L 64.255558 39.491709 
L 63.892271 39.491709 
L 63.509874 39.491709 
L 63.107028 39.491709 
L 62.682533 39.491709 
L 62.235339 39.491709 
L 61.764554 39.491709 
L 61.269452 39.491709 
L 60.749482 39.491709 
L 60.20427 39.491709 
L 59.63362 39.491709 
L 59.037516 39.491709 
L 58.416119 39.491709 
L 57.769758 39.491709 
L 57.098927 39.491709 
L 56.404272 39.491709 
L 55.68658 39.491709 
L 54.946766 39.491709 
L 54.185854 39.491709 
L 53.404967 39.491709 
L 52.605305 39.491709 
L 51.788128 39.491709 
L 50.954745 39.491709 
L 50.106491 39.491709 
L 49.244719 39.491709 
L 48.370782 39.491709 
L 47.486027 39.491709 
L 46.591785 39.491709 
L 45.689367 39.491709 
L 44.780061 39.491709 
L 43.865135 39.491709 
L 42.945838 39.491709 
L 42.02341 39.491709 
L 41.099092 39.491709 
L 40.17414 39.491709 
L 39.24984 39.491709 
L 38.327526 39.491709 
L 37.4086 39.491709 
L 36.494554 39.491709 
L 35.586995 39.491709 
L 34.687661 39.491709 
L 33.79845 39.491709 
L 32.921436 39.491709 
L 32.05889 39.491709 
L 31.213296 39.491709 
L 30.387361 39.491709 
L 29.584026 39.491709 
L 28.806463 39.491709 
L 28.058078 39.491709 
L 27.34249 39.491709 
L 26.663517 39.491709 
L 26.025148 39.491709 
L 25.431505 39.491709 
L 24.886796 39.491709 
L 24.395263 39.491709 
L 23.961118 39.491709 
L 23.588477 39.491709 
L 23.281279 39.491709 
L 23.043211 39.491709 
L 22.877622 39.491709 
L 22.787444 39.491709 
L 22.775105 39.491709 
L 22.842462 39.491709 
L 22.990722 39.491709 
L 23.220391 39.491709 
L 23.531223 39.491709 
L 23.922188 39.491709 
L 24.391456 39.491709 
L 24.936398 39.491709 
L 25.553605 39.491709 
L 26.238924 39.491709 
L 26.987514 39.491709 
L 27.793913 39.491709 
L 28.652127 39.491709 
L 29.555728 39.491709 
L 30.497954 39.491709 
L 31.47183 39.491709 
L 32.470277 39.491709 
L 33.486234 39.491709 
L 34.512765 39.491709 
L 35.543169 39.491709 
L 36.571074 39.491709 
L 37.590529 39.491709 
L 38.596071 39.491709 
L 39.582789 39.491709 
L 40.546372 39.491709 
L 41.483133 39.491709 
L 42.390037 39.491709 
L 43.264695 39.491709 
L 44.105365 39.491709 
L 44.91093 39.491709 
L 45.680871 39.491709 
L 46.415236 39.491709 
L 47.114598 39.491709 
L 47.780011 39.491709 
L 48.41297 39.491709 
L 49.015358 39.491709 
L 49.589401 39.491709 
L 50.137626 39.491709 
L 50.662814 39.491709 
L 51.167959 39.491709 
L 51.656228 39.491709 
L 52.130929 39.491709 
L 52.595471 39.491709 
L 53.053335 39.491709 
L 53.508042 39.491709 
L 53.963127 39.491709 
L 54.422106 39.491709 
L 54.888453 39.491709 
L 55.365566 39.491709 
L 55.856743 39.491709 
L 56.365148 39.491709 
L 56.893781 39.491709 
L 57.445448 39.491709 
L 58.022719 39.491709 
L 58.627901 39.491709 
L 59.262996 39.491709 
L 59.929665 39.491709 
L 60.629196 39.491709 
L 61.362463 39.491709 
L 62.129897 39.491709 
L 62.93146 39.491709 
L 63.766615 39.491709 
L 64.63431 39.491709 
L 65.532971 39.491709 
L 66.460494 39.491709 
L 67.414256 39.491709 
L 68.391126 39.491709 
L 69.387499 39.491709 
L 70.399324 39.491709 
L 71.422159 39.491709 
L 72.451224 39.491709 
L 73.481465 39.491709 
L 74.507629 39.491709 
L 75.524338 39.491709 
L 76.526176 39.491709 
L 77.507768 39.491709 
L 78.463865 39.491709 
L 79.389421 39.491709 
L 80.279675 39.491709 
L 81.130213 39.491709 
L 81.937033 39.491709 
L 82.696598 39.491709 
L 83.40587 39.491709 
L 84.062347 39.491709 
L 84.664074 39.491709 
L 85.209655 39.491709 
L 85.698249 39.491709 
L 86.12955 39.491709 
L 86.50377 39.491709 
L 86.821607 39.491709 
L 87.084208 39.491709 
L 87.293126 39.491709 
L 87.450282 39.491709 
L 87.557911 39.491709 
L 87.618522 39.491709 
L 87.634853 39.491709 
L 87.609825 39.491709 
L 87.546505 39.491709 
L 87.448069 39.491709 
L 87.317768 39.491709 
L 87.158903 39.491709 
L 86.974801 39.491709 
L 86.768794 39.491709 
L 86.544203 39.491709 
L 86.30433 39.491709 
L 86.052445 39.491709 
L 85.791781 39.491709 
L 85.525533 39.491709 
L 85.25685 39.491709 
L 84.988837 39.491709 
L 84.724551 39.491709 
L 84.467002 39.491709 
L 84.219144 39.491709 
L 83.983878 39.491709 
L 83.764043 39.491709 
L 83.562406 39.491709 
L 83.381657 39.491709 
L 83.224397 39.491709 
L 83.093123 39.491709 
L 82.990214 39.491709 
L 82.917915 39.491709 
L 82.878322 39.491709 
L 82.873361 39.491709 
L 82.904772 39.491709 
L 82.974096 39.491709 
L 83.082652 39.491709 
L 83.231529 39.491709 
L 83.421574 39.491709 
L 83.653381 39.491709 
L 83.927288 39.491709 
L 84.243372 39.491709 
L 84.601456 39.491709 
L 85.001111 39.491709 
L 85.441668 39.491709 
L 85.922229 39.491709 
L 86.441687 39.491709 
L 86.998742 39.491709 
L 87.591927 39.491709 
L 88.21963 39.491709 
L 88.880119 39.491709 
L 89.57157 39.491709 
L 90.29209 39.491709 
L 91.039747 39.491709 
L 91.81259 39.491709 
L 92.608673 39.491709 
L 93.426079 39.491709 
L 94.262932 39.491709 
L 95.11742 39.491709 
L 95.987799 39.491709 
L 96.872412 39.491709 
L 97.769691 39.491709 
L 98.678162 39.491709 
L 99.596446 39.491709 
L 100.523263 39.491709 
L 101.457425 39.491709 
L 102.397832 39.491709 
L 103.343471 39.491709 
L 104.293404 39.491709 
L 105.246763 39.491709 
L 106.202745 39.491709 
L 107.160599 39.491709 
L 108.119624 39.491709 
L 109.07916 39.491709 
L 110.038579 39.491709 
L 110.997288 39.491709 
L 111.954718 39.491709 
L 112.910323 39.491709 
L 113.863583 39.491709 
L 114.814 39.491709 
L 115.761099 39.491709 
L 116.704435 39.491709 
L 117.643594 39.491709 
L 118.578198 39.491709 
L 119.507912 39.491709 
L 120.432448 39.491709 
L 121.351574 39.491709 
L 122.265121 39.491709 
L 123.172986 39.491709 
L 124.075144 39.491709 
L 124.971647 39.491709 
L 125.862634 39.491709 
L 126.748331 39.491709 
L 127.629055 39.491709 
L 128.505216 39.491709 
L 129.377313 39.491709 
L 130.245936 39.491709 
L 131.111757 39.491709 
L 131.97553 39.491709 
L 132.838078 39.491709 
L 133.700289 39.491709 
L 134.563102 39.491709 
L 135.427495 39.491709 
L 136.294473 39.491709 
L 137.165052 39.491709 
L 138.040244 39.491709 
L 138.921037 39.491709 
L 139.808383 39.491709 
L 140.703172 39.491709 
L 141.606223 39.491709 
L 142.518257 39.491709 
L 143.439886 39.491709 
L 144.371592 39.491709 
L 145.313714 39.491709 
L 146.266434 39.491709 
L 147.229762 39.491709 
L 148.203531 39.491709 
L 149.187389 39.491709 
L 150.180795 39.491709 
L 151.183021 39.491709 
L 152.193156 39.491709 
L 153.210113 39.491709 
L 154.232645 39.491709 
L 155.259359 39.491709 
L 156.288736 39.491709 
L 157.319157 39.491709 
L 158.348931 39.491709 
L 159.376321 39.491709 
L 160.399579 39.491709 
L 161.41698 39.491709 
L 162.426851 39.491709 
L 163.427611 39.491709 
L 164.417797 39.491709 
L 165.396096 39.491709 
L 166.361375 39.491709 
L 167.312702 39.491709 
L 168.24937 39.491709 
L 169.170909 39.491709 
L 170.077101 39.491709 
L 170.967986 39.491709 
L 171.843866 39.491709 
L 172.705299 39.491709 
L 173.553098 39.491709 
L 174.388315 39.491709 
L 175.212231 39.491709 
L 176.026333 39.491709 
L 176.832299 39.491709 
L 177.631965 39.491709 
L 178.427308 39.491709 
L 179.220407 39.491709 
L 180.013417 39.491709 
L 180.808534 39.491709 
L 181.607958 39.491709 
L 182.413859 39.491709 
L 183.228334 39.491709 
L 184.053369 39.491709 
L 184.890798 39.491709 
L 185.742262 39.491709 
L 186.609166 39.491709 
L 187.49264 39.491709 
L 188.393498 39.491709 
L 189.312202 39.491709 
L 190.24883 39.491709 
L 191.203043 39.491709 
L 192.174066 39.491709 
L 193.160673 39.491709 
L 194.161176 39.491709 
L 195.17343 39.491709 
L 196.194846 39.491709 
L 197.222412 39.491709 
L 198.25273 39.491709 
L 199.282061 39.491709 
L 200.306381 39.491709 
L 201.321446 39.491709 
L 202.322867 39.491709 
L 203.30619 39.491709 
L 204.266979 39.491709 
L 205.2009 39.491709 
L 206.103808 39.491709 
L 206.971827 39.491709 
L 207.801423 39.491709 
L 208.589473 39.491709 
L 209.333319 39.491709 
L 210.030814 39.491709 
L 210.680355 39.491709 
L 211.2809 39.491709 
L 211.83198 39.491709 
L 212.333689 39.491709 
L 212.786672 39.491709 
L 213.192098 39.491709 
L 213.551629 39.491709 
L 213.867378 39.491709 
L 214.141872 39.491709 
L 214.378001 39.491709 
L 214.578981 39.491709 
L 214.748301 39.491709 
L 214.889689 39.491709 
L 215.007069 39.491709 
L 215.104528 39.491709 
L 215.186284 39.491709 
L 215.256657 39.491709 
L 215.320046 39.491709 
L 215.380907 39.491709 
L 215.443729 39.491709 
L 215.513019 39.491709 
L 215.593276 39.491709 
L 215.688971 39.491709 
L 215.804522 39.491709 
L 215.94426 39.491709 
L 216.112399 39.491709 
L 216.312998 39.491709 
L 216.549908 39.491709 
L 216.826732 39.491709 
L 217.146763 39.491709 
L 217.512928 39.491709 
L 217.927728 39.491709 
L 218.393176 39.491709 
L 218.910735 39.491709 
L 219.481267 39.491709 
L 220.104979 39.491709 
L 220.78139 39.491709 
L 221.509294 39.491709 
L 222.286756 39.491709 
L 223.111107 39.491709 
L 223.978968 39.491709 
L 224.886285 39.491709 
L 225.828387 39.491709 
L 226.800054 39.491709 
L 227.79561 39.491709 
L 228.80902 39.491709 
L 229.834002 39.491709 
L 230.864143 39.491709 
L 231.893022 39.491709 
L 232.914327 39.491709 
L 233.921967 39.491709 
L 234.910182 39.491709 
L 235.873637 39.491709 
L 236.8075 39.491709 
L 237.707508 39.491709 
L 238.570019 39.491709 
L 239.39204 39.491709 
L 240.171244 39.491709 
L 240.905968 39.491709 
L 241.595202 39.491709 
L 242.238561 39.491709 
L 242.836243 39.491709 
L 243.388994 39.491709 
L 243.898048 39.491709 
L 244.36508 39.491709 
L 244.792146 39.491709 
L 245.181629 39.491709 
L 245.536185 39.491709 
L 245.85869 39.491709 
L 246.152194 39.491709 
L 246.419875 39.491709 
L 246.665 39.491709 
L 246.890886 39.491709 
L 247.100873 39.491709 
L 247.29829 39.491709 
L 247.486433 39.491709 
L 247.668544 39.491709 
L 247.847785 39.491709 
L 248.027227 39.491709 
L 248.209829 39.491709 
L 248.398424 39.491709 
L 248.595703 39.491709 
L 248.804206 39.491709 
L 249.026302 39.491709 
L 249.264184 39.491709 
L 249.519853 39.491709 
L 249.795111 39.491709 
L 250.091549 39.491709 
L 250.410544 39.491709 
L 250.753251 39.491709 
L 251.120601 39.491709 
L 251.513297 39.491709 
L 251.931822 39.491709 
L 252.376434 39.491709 
L 252.847183 39.491709 
L 253.34391 39.491709 
L 253.866266 39.491709 
L 254.413721 39.491709 
L 254.98558 39.491709 
L 255.581001 39.491709 
L 256.199009 39.491709 
L 256.838519 39.491709 
L 257.49835 39.491709 
L 258.177241 39.491709 
L 258.873874 39.491709 
L 259.586886 39.491709 
L 260.314879 39.491709 
L 261.056442 39.491709 
L 261.810154 39.491709 
L 262.574594 39.491709 
L 263.348351 39.491709 
L 264.130027 39.491709 
L 264.918238 39.491709 
L 265.711618 39.491709 
L 266.50882 39.491709 
L 267.308511 39.491709 
L 268.109376 39.491709 
L 268.910111 39.491709 
L 269.709421 39.491709 
L 270.506022 39.491709 
L 271.298635 39.491709 
L 272.085985 39.491709 
L 272.866805 39.491709 
L 273.639834 39.491709 
L 274.403817 39.491709 
L 275.157515 39.491709 
L 275.899706 39.491709 
L 276.629194 39.491709 
L 277.344813 39.491709 
L 278.045442 39.491709 
L 278.730011 39.491709 
L 279.397513 39.491709 
L 280.047016 39.491709 
L 280.677677 39.491709 
L 281.288748 39.491709 
L 281.879593 39.491709 
L 282.449697 39.491709 
L 282.998673 39.491709 
L 283.526274 39.491709 
L 284.032399 39.491709 
L 284.517097 39.491709 
L 284.980573 39.491709 
L 285.423188 39.491709 
L 285.84546 39.491709 
L 286.248064 39.491709 
L 286.631824 39.491709 
L 286.997715 39.491709 
L 287.34685 39.491709 
L 287.680476 39.491709 
L 287.999965 39.491709 
L 288.306804 39.491709 
L 288.602584 39.491709 
L 288.888988 39.491709 
L 289.167782 39.491709 
L 289.440801 39.491709 
L 289.709935 39.491709 
L 289.977121 39.491709 
L 290.244324 39.491709 
L 290.51353 39.491709 
L 290.786725 39.491709 
L 291.065891 39.491709 
L 291.352982 39.491709 
L 291.649918 39.491709 
L 291.958568 39.491709 
L 292.280733 39.491709 
L 292.618137 39.491709 
L 292.972411 39.491709 
L 293.345078 39.491709 
L 293.73754 39.491709 
L 294.15107 39.491709 
L 294.586793 39.491709 
L 295.045681 39.491709 
L 295.528545 39.491709 
L 296.036023 39.491709 
L 296.568579 39.491709 
L 297.126496 39.491709 
L 297.709882 39.491709 
L 298.318663 39.491709 
L 298.952594 39.491709 
L 299.611262 39.491709 
L 300.294095 39.491709 
L 301.000375 39.491709 
L 301.72925 39.491709 
L 302.479747 39.491709 
L 303.250792 39.491709 
L 304.041221 39.491709 
L 304.849801 39.491709 
L 305.675246 39.491709 
L 306.516233 39.491709 
L 307.371416 39.491709 
L 308.23944 39.491709 
L 309.118953 39.491709 
L 310.008617 39.491709 
L 310.907109 39.491709 
L 311.81313 39.491709 
L 312.725404 39.491709 
L 313.642671 39.491709 
L 314.563688 39.491709 
L 315.487217 39.491709 
L 316.41201 39.491709 
L 317.336799 39.491709 
L 318.260277 39.491709 
L 319.181078 39.491709 
L 320.097757 39.491709 
L 321.008767 39.491709 
L 321.912441 39.491709 
L 322.806961 39.491709 
L 323.690345 39.491709 
L 324.560421 39.491709 
L 325.414816 39.491709 
L 326.250933 39.491709 
L 327.065951 39.491709 
L 327.856811 39.491709 
L 328.620224 39.491709 
L 329.352676 39.491709 
L 330.050445 39.491709 
L 330.709624 39.491709 
L 331.326152 39.491709 
L 331.895857 39.491709 
L 332.414509 39.491709 
L 332.87787 39.491709 
L 333.281768 39.491709 
L 333.622166 39.491709 
L 333.89524 39.491709 
L 334.097463 39.491709 
L 334.225684 39.491709 
L 334.277212 39.491709 
L 334.249896 39.491709 
L 334.142196 39.491709 
L 333.953248 39.491709 
L 333.682919 39.491709 
L 333.331842 39.491709 
L 332.901446 39.491709 
L 332.393963 39.491709 
L 331.812415 39.491709 
L 331.160588 39.491709 
L 330.442988 39.491709 
L 329.664776 39.491709 
L 328.83169 39.491709 
L 327.949955 39.491709 
L 327.026181 39.491709 
L 326.067249 39.491709 
L 325.080201 39.491709 
L 324.072121 39.491709 
L 323.050023 39.491709 
L 322.020736 39.491709 
L 320.990809 39.491709 
L 319.966414 39.491709 
L 318.953266 39.491709 
L 317.956559 39.491709 
L 316.980908 39.491709 
L 316.030316 39.491709 
L 315.108144 39.491709 
L 314.217105 39.491709 
L 313.359263 39.491709 
L 312.536044 39.491709 
L 311.748262 39.491709 
L 310.996149 39.491709 
L 310.279389 39.491709 
L 309.597162 39.491709 
L 308.948187 39.491709 
L 308.330772 39.491709 
L 307.742855 39.491709 
L 307.182053 39.491709 
L 306.645709 39.491709 
L 306.130929 39.491709 
L 305.634627 39.491709 
L 305.153562 39.491709 
L 304.684372 39.491709 
L 304.223608 39.491709 
L 303.767764 39.491709 
L 303.313309 39.491709 
L 302.856715 39.491709 
L 302.394482 39.491709 
L 301.923171 39.491709 
L 301.439431 39.491709 
L 300.940026 39.491709 
L 300.42187 39.491709 
L 299.882057 39.491709 
L 299.317894 39.491709 
L 298.726938 39.491709 
L 298.107029 39.491709 
L 297.456332 39.491709 
L 296.773368 39.491709 
L 296.057052 39.491709 
L 295.306726 39.491709 
L 294.522191 39.491709 
L 293.703734 39.491709 
L 292.852145 39.491709 
L 291.968737 39.491709 
L 291.055349 39.491709 
L 290.114347 39.491709 
L 289.148609 39.491709 
L 288.161508 39.491709 
L 287.156877 39.491709 
L 286.138969 39.491709 
L 285.112403 39.491709 
L 284.082104 39.491709 
L 283.053235 39.491709 
L 282.031122 39.491709 
L 281.021172 39.491709 
L 280.028791 39.491709 
L 279.059302 39.491709 
L 278.117861 39.491709 
L 277.209381 39.491709 
L 276.338458 39.491709 
L 275.509306 39.491709 
L 274.725701 39.491709 
L 273.990936 39.491709 
L 273.307783 39.491709 
L 272.678472 39.491709 
L 272.104678 39.491709 
L 271.587519 39.491709 
L 271.127567 39.491709 
L 270.724864 39.491709 
L 270.378951 39.491709 
L 270.088902 39.491709 
L 269.853361 39.491709 
L 269.670585 39.491709 
L 269.53849 39.491709 
L 269.454699 39.491709 
L 269.416582 39.491709 
L 269.421306 39.491709 
L 269.465871 39.491709 
L 269.547151 39.491709 
L 269.66193 39.491709 
L 269.806928 39.491709 
L 269.978828 39.491709 
L 270.174298 39.491709 
L 270.390012 39.491709 
L 270.622654 39.491709 
L 270.86894 39.491709 
L 271.125616 39.491709 
L 271.389469 39.491709 
L 271.657325 39.491709 
L 271.926059 39.491709 
L 272.192587 39.491709 
L 272.453878 39.491709 
L 272.706947 39.491709 
L 272.948868 39.491709 
L 273.176769 39.491709 
L 273.387847 39.491709 
L 273.579371 39.491709 
L 273.748694 39.491709 
L 273.893266 39.491709 
L 274.010647 39.491709 
L 274.098522 39.491709 
L 274.15472 39.491709 
L 274.177227 39.491709 
L 274.164207 39.491709 
L 274.114019 39.491709 
L 274.02523 39.491709 
L 273.896635 39.491709 
L 273.727264 39.491709 
L 273.516396 39.491709 
L 273.263565 39.491709 
L 272.968563 39.491709 
L 272.631441 39.491709 
L 272.252503 39.491709 
L 271.832298 39.491709 
L 271.371614 39.491709 
L 270.871453 39.491709 
L 270.333023 39.491709 
L 269.75771 39.491709 
L 269.147056 39.491709 
L 268.502737 39.491709 
L 267.826535 39.491709 
L 267.120309 39.491709 
L 266.385978 39.491709 
L 265.625484 39.491709 
L 264.840779 39.491709 
L 264.033797 39.491709 
L 263.206436 39.491709 
L 262.360544 39.491709 
L 261.497898 39.491709 
L 260.620199 39.491709 
L 259.729063 39.491709 
L 258.82601 39.491709 
L 257.912467 39.491709 
L 256.989762 39.491709 
L 256.05913 39.491709 
L 255.121713 39.491709 
L 254.178568 39.491709 
L 253.23067 39.491709 
L 252.278919 39.491709 
L 251.324151 39.491709 
L 250.367143 39.491709 
L 249.408618 39.491709 
L 248.449258 39.491709 
L 247.489704 39.491709 
L 246.530567 39.491709 
L 245.572429 39.491709 
L 244.615845 39.491709 
L 243.661348 39.491709 
L 242.709449 39.491709 
L 241.760634 39.491709 
L 240.815362 39.491709 
L 239.874065 39.491709 
L 238.937138 39.491709 
L 238.004941 39.491709 
L 237.077783 39.491709 
L 236.155927 39.491709 
L 235.239573 39.491709 
L 234.328859 39.491709 
L 233.423849 39.491709 
L 232.52453 39.491709 
L 231.630808 39.491709 
L 230.7425 39.491709 
L 229.859335 39.491709 
L 228.980949 39.491709 
L 228.106888 39.491709 
L 227.236607 39.491709 
L 226.369475 39.491709 
L 225.504776 39.491709 
L 224.641723 39.491709 
L 223.779458 39.491709 
L 222.917066 39.491709 
L 222.053588 39.491709 
L 221.188029 39.491709 
L 220.319377 39.491709 
L 219.446617 39.491709 
L 218.568746 39.491709 
L 217.684792 39.491709 
L 216.793832 39.491709 
L 215.895009 39.491709 
L 214.98755 39.491709 
L 214.070788 39.491709 
L 213.144172 39.491709 
L 212.20729 39.491709 
L 211.259882 39.491709 
L 210.301848 39.491709 
L 209.333267 39.491709 
L 208.354398 39.491709 
L 207.365686 39.491709 
L 206.367768 39.491709 
L 205.361462 39.491709 
L 204.34777 39.491709 
L 203.32786 39.491709 
L 202.303054 39.491709 
L 201.274812 39.491709 
L 200.244706 39.491709 
L 199.214393 39.491709 
L 198.185593 39.491709 
L 197.160051 39.491709 
L 196.139508 39.491709 
L 195.125668 39.491709 
L 194.120161 39.491709 
L 193.124514 39.491709 
L 192.140119 39.491709 
L 191.1682 39.491709 
L 190.209794 39.491709 
L 189.265722 39.491709 
L 188.336576 39.491709 
L 187.422699 39.491709 
L 186.524182 39.491709 
L 185.640853 39.491709 
L 184.772283 39.491709 
L 183.917783 39.491709 
L 183.076422 39.491709 
L 182.247029 39.491709 
L 181.428218 39.491709 
L 180.618404 39.491709 
L 179.815827 39.491709 
L 179.018577 39.491709 
L 178.224622 39.491709 
L 177.43184 39.491709 
L 176.638052 39.491709 
L 175.841055 39.491709 
L 175.03866 39.491709 
L 174.228728 39.491709 
L 173.409213 39.491709 
L 172.5782 39.491709 
L 171.733945 39.491709 
L 170.87492 39.491709 
L 169.999853 39.491709 
L 169.107768 39.491709 
L 168.198021 39.491709 
L 167.270339 39.491709 
L 166.32485 39.491709 
L 165.362107 39.491709 
L 164.38311 39.491709 
L 163.389315 39.491709 
L 162.382641 39.491709 
L 161.365455 39.491709 
L 160.340562 39.491709 
L 159.311173 39.491709 
L 158.280861 39.491709 
L 157.253518 39.491709 
L 156.233284 39.491709 
L 155.224486 39.491709 
L 154.231556 39.491709 
L 153.25895 39.491709 
L 152.311064 39.491709 
L 151.392146 39.491709 
L 150.506218 39.491709 
L 149.656993 39.491709 
L 148.847807 39.491709 
L 148.081558 39.491709 
L 147.360652 39.491709 
L 146.686969 39.491709 
L 146.061832 39.491709 
L 145.485996 39.491709 
L 144.959648 39.491709 
L 144.482416 39.491709 
L 144.053389 39.491709 
L 143.671147 39.491709 
L 143.333799 39.491709 
L 143.039017 39.491709 
L 142.784088 39.491709 
L 142.565953 39.491709 
L 142.381256 39.491709 
L 142.226381 39.491709 
L 142.097498 39.491709 
L 141.990598 39.491709 
L 141.901525 39.491709 
L 141.826006 39.491709 
L 141.759679 39.491709 
L 141.698114 39.491709 
L 141.636835 39.491709 
L 141.571342 39.491709 
z
"/>
   </g>
  </g>
 </g>
 <defs>
  <clipPath id="p819e52f713">
   <rect height="266.112" width="342.652317" x="7.2" y="7.2"/>
  </clipPath>
 </defs>
</svg>
