<?xml version="1.0" encoding="utf-8" standalone="no"?>
<!DOCTYPE svg PUBLIC "-//W3C//DTD SVG 1.1//EN"
  "http://www.w3.org/Graphics/SVG/1.1/DTD/svg11.dtd">
<svg height="280.512pt" version="1.1" viewBox="0 0 239.169184 280.512" width="239.169184pt" xmlns="http://www.w3.org/2000/svg" xmlns:xlink="http://www.w3.org/1999/xlink">
 <metadata>
  <rdf:RDF xmlns:cc="http://creativecommons.org/ns#" xmlns:dc="http://purl.org/dc/elements/1.1/" xmlns:rdf="http://www.w3.org/1999/02/22-rdf-syntax-ns#">
   <cc:Work>
    <dc:type rdf:resource="http://purl.org/dc/dcmitype/StillImage"/>
    <dc:date>2022-11-22T17:11:14.498459</dc:date>
    <dc:format>image/svg+xml</dc:format>
    <dc:creator>
     <cc:Agent>
      <dc:title>Matplotlib v3.4.2, https://matplotlib.org/</dc:title>
     </cc:Agent>
    </dc:creator>
   </cc:Work>
  </rdf:RDF>
 </metadata>
 <defs>
  <style type="text/css">*{stroke-linecap:butt;stroke-linejoin:round;}</style>
 </defs>
 <g id="figure_1">
  <g id="patch_1">
   <path d="M -0 280.512 
L 239.169184 280.512 
L 239.169184 0 
L -0 0 
z
" style="fill:none;"/>
  </g>
  <g id="axes_1">
   <g id="PolyCollection_1">
    <path clip-path="url(#pfb68655f06)" d="M 86.724804 54.929224 
L 86.724804 54.929224 
L 87.493313 54.672758 
L 88.263971 54.422823 
L 89.037781 54.182826 
L 89.81561 53.956194 
L 90.598138 53.746363 
L 91.385817 53.556776 
L 92.178819 53.39086 
L 92.977005 53.252009 
L 93.779886 53.143556 
L 94.586597 53.068738 
L 95.395875 53.030658 
L 96.206046 53.032238 
L 97.015027 53.07617 
L 97.82033 53.164866 
L 98.619086 53.300402 
L 99.408073 53.484465 
L 100.183766 53.718306 
L 100.942384 54.002697 
L 101.679964 54.337893 
L 102.392428 54.723608 
L 103.075666 55.158999 
L 103.725621 55.642671 
L 104.338374 56.172686 
L 104.910225 56.74659 
L 105.437779 57.361462 
L 105.918011 58.013963 
L 106.348334 58.700404 
L 106.726646 59.416826 
L 107.051367 60.159078 
L 107.321461 60.922903 
L 107.536447 61.704031 
L 107.696389 62.49826 
L 107.801876 63.301536 
L 107.853993 64.110031 
L 107.854278 64.920204 
L 107.80467 65.728857 
L 107.70746 66.533177 
L 107.565231 67.330768 
L 107.380797 68.119669 
L 107.157153 68.898362 
L 106.897419 69.665773 
L 106.604791 70.421252 
L 106.282501 71.164562 
L 105.933783 71.895846 
L 105.561843 72.615596 
L 105.16984 73.32462 
L 104.760873 74.023995 
L 104.337971 74.715034 
L 103.904098 75.399237 
L 103.462148 76.078252 
L 103.014958 76.753827 
L 102.565319 77.427775 
L 102.115983 78.101924 
L 101.669677 78.778083 
L 101.229117 79.458 
L 100.797012 80.143322 
L 100.376081 80.835562 
L 99.969046 81.536064 
L 99.578643 82.24597 
L 99.20761 82.966189 
L 98.858685 83.697374 
L 98.534587 84.439897 
L 98.238004 85.193832 
L 97.971564 85.95894 
L 97.737818 86.734661 
L 97.539203 87.520112 
L 97.378014 88.314088 
L 97.256372 89.115077 
L 97.176192 89.921273 
L 97.13915 90.730599 
L 97.146654 91.540737 
L 97.199817 92.349164 
L 97.299441 93.153189 
L 97.445993 93.949996 
L 97.639603 94.736696 
L 97.880054 95.510365 
L 98.166788 96.2681 
L 98.49892 97.007065 
L 98.875245 97.724533 
L 99.294272 98.417928 
L 99.754242 99.084867 
L 100.253169 99.723187 
L 100.788868 100.330976 
L 101.358998 100.90659 
L 101.961102 101.44867 
L 102.592644 101.95615 
L 103.251048 102.428256 
L 103.933737 102.864508 
L 104.638167 103.264707 
L 105.361857 103.628923 
L 106.102418 103.95748 
L 106.857576 104.250935 
L 107.625193 104.510058 
L 108.403279 104.735808 
L 109.190005 104.929308 
L 109.983711 105.091824 
L 110.782906 105.22474 
L 111.586273 105.329536 
L 112.39266 105.407766 
L 113.20108 105.461039 
L 114.010699 105.491001 
L 114.820829 105.499318 
L 115.630918 105.487663 
L 116.440537 105.457702 
L 117.249368 105.411085 
L 118.057192 105.349434 
L 118.863877 105.274337 
L 119.669366 105.187343 
L 120.473664 105.089956 
L 121.27683 104.98363 
L 122.078962 104.869769 
L 122.880192 104.749722 
L 123.680674 104.624784 
L 124.480577 104.496195 
L 125.28008 104.36514 
L 126.079362 104.232747 
L 126.878601 104.100091 
L 127.677966 103.968197 
L 128.477615 103.838033 
L 129.27769 103.710522 
L 130.07832 103.586535 
L 130.879611 103.466901 
L 131.681653 103.352402 
L 132.484511 103.243781 
L 133.288233 103.14174 
L 134.092841 103.046947 
L 134.898339 102.960036 
L 135.704707 102.88161 
L 136.511905 102.812246 
L 137.319872 102.752493 
L 138.128525 102.702883 
L 138.93776 102.663925 
L 139.747456 102.636114 
L 140.557467 102.619933 
L 141.36763 102.615851 
L 142.177759 102.624333 
L 142.987646 102.645836 
L 143.797064 102.680813 
L 144.60576 102.729717 
L 145.413458 102.792998 
L 146.219857 102.871108 
L 147.024629 102.9645 
L 147.827418 103.07363 
L 148.62784 103.198952 
L 149.425477 103.340925 
L 150.219879 103.500003 
L 151.010561 103.676641 
L 151.797004 103.871288 
L 152.578649 104.084388 
L 153.354899 104.316374 
L 154.125116 104.567662 
L 154.888623 104.838655 
L 155.644703 105.129729 
L 156.392596 105.441234 
L 157.131507 105.773486 
L 157.860599 106.126764 
L 158.579002 106.5013 
L 159.285814 106.897277 
L 159.980103 107.314821 
L 160.660914 107.753997 
L 161.327276 108.214803 
L 161.978205 108.697165 
L 162.612712 109.200932 
L 163.229814 109.725874 
L 163.828543 110.271681 
L 164.407951 110.837955 
L 164.967126 111.424218 
L 165.505198 112.029906 
L 166.021355 112.654375 
L 166.514849 113.296905 
L 166.98501 113.9567 
L 167.431255 114.632899 
L 167.8531 115.324584 
L 168.250166 116.030784 
L 168.622192 116.75049 
L 168.969038 117.482664 
L 169.290696 118.226247 
L 169.587289 118.980179 
L 169.859079 119.743403 
L 170.106469 120.514881 
L 170.33 121.293607 
L 170.530354 122.078616 
L 170.70835 122.868994 
L 170.864941 123.66389 
L 171.001212 124.46252 
L 171.118369 125.264178 
L 171.21774 126.068233 
L 171.300762 126.874141 
L 171.36898 127.681437 
L 171.424035 128.489738 
L 171.467659 129.298735 
L 171.501665 130.108194 
L 171.527944 130.917941 
L 171.548455 131.727854 
L 171.565218 132.537854 
L 171.580306 133.347887 
L 171.595838 134.157911 
L 171.613975 134.967881 
L 171.636905 135.777729 
L 171.66684 136.587349 
L 171.706005 137.396575 
L 171.756626 138.205165 
L 171.82092 139.012783 
L 171.901078 139.818981 
L 171.999257 140.623183 
L 172.117556 141.424673 
L 172.258002 142.222579 
L 172.422531 143.01587 
L 172.612965 143.803344 
L 172.830987 144.583631 
L 173.078127 145.355189 
L 173.355729 146.116318 
L 173.664937 146.865164 
L 174.006667 147.59974 
L 174.381593 148.317939 
L 174.790127 149.017568 
L 175.232405 149.696369 
L 175.708281 150.352053 
L 176.217321 150.982338 
L 176.7588 151.584983 
L 177.331715 152.157825 
L 177.934792 152.698823 
L 178.566507 153.206087 
L 179.225107 153.677921 
L 179.908641 154.112848 
L 180.614993 154.509643 
L 181.341919 154.867356 
L 182.087087 155.185326 
L 182.848119 155.463196 
L 183.62263 155.70092 
L 184.408276 155.898759 
L 185.202789 156.05728 
L 186.004017 156.177344 
L 186.809954 156.260086 
L 187.618773 156.306904 
L 188.428849 156.319432 
L 189.238777 156.299516 
L 190.047385 156.249189 
L 190.853743 156.170651 
L 191.657159 156.066237 
L 192.457183 155.938401 
L 193.253591 155.789689 
L 194.046373 155.622726 
L 194.835717 155.440199 
L 195.621985 155.244843 
L 196.405685 155.039429 
L 197.187448 154.826763 
L 197.967994 154.609674 
L 198.748102 154.391014 
L 199.528573 154.173655 
L 200.310199 153.960485 
L 201.093725 153.754409 
L 201.879816 153.558344 
L 202.66902 153.375213 
L 203.461737 153.207941 
L 204.258185 153.059442 
L 205.058368 152.932609 
L 205.862054 152.830292 
L 206.668748 152.755285 
L 207.477671 152.710293 
L 208.287749 152.697909 
L 209.097605 152.720583 
L 209.905553 152.780584 
L 210.709607 152.879968 
L 211.507492 153.020539 
L 212.296662 153.203815 
L 213.074333 153.430992 
L 213.837509 153.702915 
L 214.583033 154.02005 
L 215.307628 154.382461 
L 216.007953 154.789801 
L 216.680656 155.2413 
L 217.322433 155.735772 
L 217.930087 156.271623 
L 218.500585 156.846873 
L 219.03111 157.459183 
L 219.519112 158.105894 
L 219.96235 158.784068 
L 220.35893 159.490541 
L 220.70733 160.221977 
L 221.006421 160.974921 
L 221.255478 161.745862 
L 221.454177 162.531292 
L 221.602591 163.327755 
L 221.701172 164.131908 
L 221.75073 164.940564 
L 221.752403 165.750735 
L 221.707625 166.55967 
L 221.618089 167.36488 
L 221.485706 168.164164 
L 221.312571 168.955622 
L 221.100919 169.73766 
L 220.853088 170.508997 
L 220.571488 171.268655 
L 220.258563 172.015956 
L 219.916766 172.7505 
L 219.548534 173.472155 
L 219.156265 174.181031 
L 218.742302 174.877461 
L 218.308922 175.561977 
L 217.858323 176.235283 
L 217.392621 176.898232 
L 216.913844 177.551802 
L 216.423936 178.19707 
L 215.924751 178.835188 
L 215.418063 179.467365 
L 214.905566 180.094842 
L 214.38888 180.718873 
L 213.869555 181.340711 
L 213.349077 181.961584 
L 212.828875 182.582688 
L 212.310319 183.205167 
L 211.794731 183.830107 
L 211.283383 184.45852 
L 210.7775 185.091341 
L 210.27826 185.729416 
L 209.786797 186.3735 
L 209.304196 187.024251 
L 208.831495 187.682228 
L 208.369679 188.347891 
L 207.919681 189.021599 
L 207.482375 189.703613 
L 207.058576 190.394102 
L 206.649033 191.09314 
L 206.254427 191.800719 
L 205.87537 192.516746 
L 205.512398 193.241061 
L 205.165973 193.973434 
L 204.836477 194.713578 
L 204.524217 195.461157 
L 204.229419 196.215792 
L 203.95223 196.977071 
L 203.692721 197.744558 
L 203.450891 198.517797 
L 203.226662 199.296322 
L 203.019891 200.079665 
L 202.83037 200.867359 
L 202.657829 201.658946 
L 202.501944 202.453981 
L 202.36234 203.252036 
L 202.238598 204.052703 
L 202.130257 204.855599 
L 202.036825 205.660367 
L 201.957779 206.466675 
L 201.892573 207.274219 
L 201.840642 208.082726 
L 201.801407 208.891949 
L 201.774281 209.701668 
L 201.758672 210.51169 
L 201.753983 211.32185 
L 201.759622 212.132003 
L 201.775001 212.94203 
L 201.799539 213.751832 
L 201.832663 214.561327 
L 201.873812 215.370454 
L 201.922437 216.179167 
L 201.978 216.987433 
L 202.039977 217.795232 
L 202.107855 218.602556 
L 202.181136 219.409408 
L 202.259331 220.215799 
L 202.34196 221.021747 
L 202.428555 221.827279 
L 202.518651 222.632427 
L 202.611789 223.437229 
L 202.707512 224.241727 
L 202.805361 225.045969 
L 202.904874 225.850007 
L 203.005584 226.653897 
L 203.107012 227.457696 
L 203.208665 228.261466 
L 203.310036 229.065272 
L 203.410596 229.86918 
L 203.509794 230.673257 
L 203.607049 231.477572 
L 203.701753 232.282191 
L 203.793261 233.087179 
L 203.880892 233.892599 
L 203.963926 234.698506 
L 204.041596 235.504947 
L 204.113092 236.31196 
L 204.177556 237.119564 
L 204.234077 237.927763 
L 204.281695 238.736535 
L 204.319395 239.545831 
L 204.346108 240.355563 
L 204.360714 241.165605 
L 204.362039 241.975777 
L 204.348857 242.785842 
L 204.319897 243.595498 
L 204.273842 244.404361 
L 204.209338 245.211962 
L 204.124997 246.017733 
L 204.019409 246.820996 
L 203.89115 247.620952 
L 203.738795 248.416671 
L 203.560928 249.207078 
L 203.356165 249.990948 
L 203.123163 250.766893 
L 202.860647 251.533356 
L 202.56743 252.288607 
L 202.242435 253.030739 
L 201.884723 253.757665 
L 201.493516 254.467128 
L 201.068232 255.156703 
L 200.608504 255.823809 
L 200.114214 256.465727 
L 199.58552 257.079618 
L 199.022877 257.662553 
L 198.427063 258.211539 
L 197.799196 258.723558 
L 197.14075 259.195606 
L 196.453561 259.624735 
L 195.739832 260.008103 
L 195.002125 260.34302 
L 194.243353 260.627 
L 193.466752 260.857808 
L 192.67586 261.033508 
L 191.874475 261.15251 
L 191.066609 261.213605 
L 190.256439 261.216 
L 189.44825 261.159341 
L 188.646367 261.043733 
L 187.855098 260.869743 
L 187.078658 260.638397 
L 186.321109 260.351168 
L 185.586296 260.00995 
L 184.877783 259.617025 
L 184.198804 259.17502 
L 183.552214 258.686859 
L 182.94045 258.155704 
L 182.365505 257.584899 
L 181.828905 256.977906 
L 181.331704 256.33824 
L 180.87448 255.669416 
L 180.457346 254.974881 
L 180.079965 254.257968 
L 179.741576 253.521847 
L 179.441021 252.769486 
L 179.176781 252.003616 
L 178.947006 251.226709 
L 178.749561 250.440964 
L 178.582053 249.648297 
L 178.441877 248.850342 
L 178.326244 248.048464 
L 178.232217 247.243765 
L 178.156737 246.437116 
L 178.09665 245.629174 
L 178.048731 244.82042 
L 178.009706 244.011187 
L 177.976264 243.201705 
L 177.945077 242.392132 
L 177.912818 241.582601 
L 177.876168 240.773258 
L 177.831837 239.964299 
L 177.776578 239.156012 
L 177.707204 238.348815 
L 177.620609 237.543283 
L 177.513789 236.740183 
L 177.383871 235.940494 
L 177.228137 235.14543 
L 177.044056 234.356447 
L 176.829317 233.575251 
L 176.581862 232.803793 
L 176.299919 232.044262 
L 175.982036 231.299056 
L 175.627109 230.570766 
L 175.23441 229.862128 
L 174.803607 229.175987 
L 174.334776 228.515247 
L 173.828411 227.882811 
L 173.285416 227.281532 
L 172.707098 226.714144 
L 172.095142 226.183211 
L 171.451577 225.691069 
L 170.778739 225.23977 
L 170.079223 224.831043 
L 169.355823 224.466253 
L 168.611474 224.146369 
L 167.849191 223.871952 
L 167.072 223.643141 
L 166.282879 223.459654 
L 165.484693 223.320798 
L 164.680146 223.225491 
L 163.871722 223.172283 
L 163.061651 223.159389 
L 162.251875 223.184727 
L 161.444018 223.245952 
L 160.639381 223.340495 
L 159.838926 223.465603 
L 159.043286 223.618372 
L 158.252776 223.795779 
L 157.467405 223.994711 
L 156.686911 224.211986 
L 155.910782 224.444374 
L 155.138298 224.688607 
L 154.36857 224.941391 
L 153.600582 225.199409 
L 152.833233 225.459327 
L 152.065393 225.717786 
L 151.295942 225.971411 
L 150.523826 226.216804 
L 149.748105 226.450548 
L 148.967997 226.66921 
L 148.182934 226.869348 
L 147.392597 227.047527 
L 146.596964 227.200331 
L 145.796346 227.324395 
L 144.991418 227.416428 
L 144.18324 227.473254 
L 143.373281 227.491857 
L 142.563418 227.469421 
L 141.755941 227.403388 
L 140.95353 227.291509 
L 140.159235 227.131894 
L 139.376437 226.923069 
L 138.608796 226.664018 
L 137.860193 226.354223 
L 137.134657 225.993698 
L 136.436294 225.583005 
L 135.769197 225.123264 
L 135.137365 224.616145 
L 134.544618 224.063849 
L 133.994512 223.469068 
L 133.490267 222.834941 
L 133.034695 222.16499 
L 132.630147 221.463049 
L 132.278467 220.733185 
L 131.980965 219.979612 
L 131.738399 219.206603 
L 131.550976 218.418407 
L 131.418367 217.61916 
L 131.33973 216.812813 
L 131.313748 216.003056 
L 131.338675 215.193267 
L 131.41239 214.386454 
L 131.532448 213.585226 
L 131.696144 212.791763 
L 131.900566 212.007804 
L 132.142651 211.234645 
L 132.419235 210.473145 
L 132.727098 209.723745 
L 133.063005 208.986489 
L 133.423733 208.261054 
L 133.806096 207.546785 
L 134.206964 206.842736 
L 134.623273 206.147706 
L 135.052026 205.460283 
L 135.490296 204.778887 
L 135.935217 204.101816 
L 136.383977 203.427283 
L 136.833807 202.753463 
L 137.281968 202.078532 
L 137.725741 201.400707 
L 138.162412 200.718286 
L 138.58927 200.029684 
L 139.003594 199.333469 
L 139.402656 198.628394 
L 139.783716 197.91343 
L 140.144036 197.187793 
L 140.480886 196.450967 
L 140.79156 195.702727 
L 141.073396 194.943156 
L 141.323801 194.172651 
L 141.540278 193.391935 
L 141.720457 192.602051 
L 141.862125 191.80436 
L 141.963261 191.000525 
L 142.022065 190.192489 
L 142.036993 189.382453 
L 142.00678 188.572844 
L 141.930466 187.766273 
L 141.807415 186.965499 
L 141.637329 186.173381 
L 141.42025 185.392832 
L 141.156567 184.626769 
L 140.847002 183.87807 
L 140.492605 183.149522 
L 140.094725 182.44378 
L 139.654992 181.763328 
L 139.175281 181.110443 
L 138.657685 180.487166 
L 138.10447 179.895276 
L 137.518039 179.336277 
L 136.900896 178.811383 
L 136.2556 178.321511 
L 135.584733 177.86729 
L 134.890859 177.449057 
L 134.176494 177.066874 
L 133.444077 176.720543 
L 132.695941 176.409621 
L 131.934295 176.13344 
L 131.161204 175.891135 
L 130.37858 175.68166 
L 129.588167 175.503818 
L 128.791541 175.356281 
L 127.990106 175.237615 
L 127.185095 175.1463 
L 126.377578 175.080753 
L 125.568464 175.039343 
L 124.758512 175.020413 
L 123.948341 175.02229 
L 123.138441 175.043305 
L 122.329183 175.081799 
L 121.520834 175.136134 
L 120.713568 175.204705 
L 119.907478 175.285941 
L 119.102588 175.378317 
L 118.298866 175.480352 
L 117.496232 175.590617 
L 116.694569 175.707737 
L 115.893734 175.830387 
L 115.093563 175.957302 
L 114.293883 176.087269 
L 113.494512 176.219131 
L 112.695273 176.351786 
L 111.895992 176.484186 
L 111.096504 176.615333 
L 110.296659 176.744283 
L 109.496321 176.870138 
L 108.695373 176.992049 
L 107.893716 177.109211 
L 107.091273 177.220861 
L 106.287988 177.326278 
L 105.483825 177.424776 
L 104.67877 177.515705 
L 103.872834 177.598447 
L 103.066044 177.672413 
L 102.258453 177.737039 
L 101.450131 177.791785 
L 100.641173 177.836132 
L 99.831691 177.869577 
L 99.021818 177.891633 
L 98.211709 177.901822 
L 97.401539 177.89968 
L 96.591503 177.884744 
L 95.781821 177.856561 
L 94.972731 177.814677 
L 94.164498 177.758641 
L 93.35741 177.688002 
L 92.551782 177.602307 
L 91.747955 177.501103 
L 90.946299 177.383934 
L 90.147216 177.250344 
L 89.351139 177.099876 
L 88.558533 176.932074 
L 87.769903 176.746488 
L 86.985787 176.542668 
L 86.206763 176.320179 
L 85.433447 176.078593 
L 84.666498 175.817502 
L 83.906612 175.536514 
L 83.154528 175.235266 
L 82.411024 174.913425 
L 81.676916 174.570692 
L 80.953058 174.206811 
L 80.240335 173.821574 
L 79.539667 173.414826 
L 78.851996 172.986469 
L 78.178287 172.536474 
L 77.519519 172.064876 
L 76.876677 171.571788 
L 76.25075 171.057399 
L 75.642715 170.521981 
L 75.05353 169.965886 
L 74.484127 169.389552 
L 73.935398 168.793501 
L 73.408185 168.178337 
L 72.903271 167.544742 
L 72.421365 166.893477 
L 71.963095 166.225368 
L 71.528996 165.541308 
L 71.119501 164.842241 
L 70.734929 164.12916 
L 70.375484 163.403089 
L 70.041239 162.665077 
L 69.732138 161.916187 
L 69.447987 161.157478 
L 69.188456 160.389999 
L 68.953073 159.614774 
L 68.741224 158.832788 
L 68.55216 158.044984 
L 68.384994 157.252245 
L 68.238706 156.455389 
L 68.112151 155.655161 
L 68.00406 154.852231 
L 67.913049 154.047186 
L 67.837628 153.240531 
L 67.776203 152.43269 
L 67.727086 151.624007 
L 67.688503 150.814753 
L 67.6586 150.005132 
L 67.635454 149.19529 
L 67.617073 148.385326 
L 67.60141 147.575304 
L 67.586368 146.765271 
L 67.569805 145.955267 
L 67.549547 145.145347 
L 67.523392 144.335596 
L 67.48912 143.526149 
L 67.444505 142.717205 
L 67.387324 141.909052 
L 67.31537 141.102081 
L 67.226468 140.2968 
L 67.118487 139.493855 
L 66.989363 138.694038 
L 66.83711 137.8983 
L 66.659849 137.107757 
L 66.455822 136.323695 
L 66.223421 135.547569 
L 65.961206 134.781003 
L 65.667931 134.025775 
L 65.342562 133.283808 
L 64.984301 132.557151 
L 64.592606 131.847958 
L 64.1672 131.158458 
L 63.708086 130.490929 
L 63.215556 129.847661 
L 62.690188 129.23092 
L 62.132848 128.642913 
L 61.544677 128.085746 
L 60.927075 127.56139 
L 60.281686 127.071642 
L 59.610364 126.618093 
L 58.915148 126.202095 
L 58.198221 125.82474 
L 57.461879 125.486835 
L 56.70848 125.188889 
L 55.940413 124.931106 
L 55.160045 124.713376 
L 54.369688 124.535285 
L 53.571557 124.396118 
L 52.767735 124.294874 
L 51.960141 124.230284 
L 51.150503 124.200829 
L 50.34034 124.204766 
L 49.53094 124.240153 
L 48.723356 124.304869 
L 47.918398 124.396645 
L 47.116635 124.513083 
L 46.318406 124.651681 
L 45.523822 124.809851 
L 44.732794 124.984934 
L 43.945043 125.174221 
L 43.160131 125.374954 
L 42.377485 125.584346 
L 41.596425 125.799579 
L 40.816197 126.017811 
L 40.036008 126.236181 
L 39.255056 126.451808 
L 38.472569 126.661795 
L 37.687838 126.86323 
L 36.90025 127.053194 
L 36.109329 127.228761 
L 35.314761 127.387009 
L 34.516432 127.525035 
L 33.714452 127.639963 
L 32.909183 127.728969 
L 32.101259 127.789301 
L 31.291606 127.818305 
L 30.481447 127.813455 
L 29.672316 127.772389 
L 28.866048 127.692938 
L 28.064776 127.57317 
L 27.270915 127.411417 
L 26.487132 127.206318 
L 25.716323 126.95685 
L 24.96157 126.662355 
L 24.226095 126.322565 
L 23.513215 125.93762 
L 22.826284 125.508078 
L 22.168637 125.034918 
L 21.54353 124.519533 
L 20.954087 123.963712 
L 20.403239 123.369618 
L 19.893676 122.739757 
L 19.427796 122.076932 
L 19.007674 121.3842 
L 18.635018 120.66482 
L 18.311156 119.922194 
L 18.037016 119.159811 
L 17.813123 118.381189 
L 17.6396 117.589817 
L 17.516182 116.789099 
L 17.442235 115.982308 
L 17.416781 115.172535 
L 17.43853 114.362654 
L 17.505913 113.555288 
L 17.617124 112.752784 
L 17.770154 111.957195 
L 17.962834 111.170267 
L 18.192873 110.393439 
L 18.457893 109.627838 
L 18.755462 108.874291 
L 19.083129 108.133336 
L 19.438446 107.405235 
L 19.818994 106.689998 
L 20.222399 105.9874 
L 20.64635 105.297005 
L 21.088609 104.618192 
L 21.547019 103.950179 
L 22.019507 103.292048 
L 22.504086 102.64277 
L 22.99886 102.001225 
L 23.502013 101.366231 
L 24.011812 100.73656 
L 24.526602 100.110963 
L 25.044797 99.488184 
L 25.564881 98.866981 
L 26.085395 98.246139 
L 26.604943 97.624487 
L 27.122176 97.000909 
L 27.6358 96.374354 
L 28.144566 95.743848 
L 28.647272 95.1085 
L 29.142763 94.467509 
L 29.629927 93.820168 
L 30.107705 93.165867 
L 30.575083 92.504099 
L 31.031103 91.834452 
L 31.474861 91.156618 
L 31.905511 90.470381 
L 32.322271 89.775622 
L 32.724427 89.072307 
L 33.11133 88.360488 
L 33.482407 87.640292 
L 33.837159 86.911916 
L 34.175162 86.175618 
L 34.496073 85.431712 
L 34.799626 84.680556 
L 35.085633 83.922545 
L 35.353986 83.158106 
L 35.604651 82.387686 
L 35.837666 81.611745 
L 36.053144 80.830752 
L 36.25126 80.045176 
L 36.432254 79.255478 
L 36.596423 78.462113 
L 36.744118 77.665516 
L 36.875736 76.866106 
L 36.991717 76.064277 
L 37.09254 75.260402 
L 37.178712 74.454825 
L 37.250769 73.647863 
L 37.309266 72.839804 
L 37.354776 72.03091 
L 37.387882 71.221414 
L 37.409176 70.411521 
L 37.419251 69.601411 
L 37.418702 68.791238 
L 37.408119 67.981134 
L 37.388089 67.171208 
L 37.359187 66.361551 
L 37.321981 65.552233 
L 37.277026 64.743308 
L 37.224865 63.934816 
L 37.166031 63.126782 
L 37.10104 62.31922 
L 37.030399 61.512132 
L 36.9546 60.705513 
L 36.874129 59.899346 
L 36.789459 59.09361 
L 36.701056 58.288274 
L 36.609382 57.483304 
L 36.514894 56.67866 
L 36.418051 55.874296 
L 36.319311 55.070162 
L 36.219141 54.266206 
L 36.118011 53.462369 
L 36.016409 52.658592 
L 35.914832 51.854812 
L 35.813798 51.050964 
L 35.713849 50.246979 
L 35.615548 49.442792 
L 35.51949 48.638334 
L 35.426302 47.833538 
L 35.336644 47.028341 
L 35.251219 46.222684 
L 35.170769 45.416515 
L 35.096082 44.609792 
L 35.027991 43.802486 
L 34.967382 42.994583 
L 34.915189 42.186093 
L 34.8724 41.377051 
L 34.840056 40.567523 
L 34.819253 39.757618 
L 34.811138 38.947485 
L 34.81691 38.137333 
L 34.837819 37.327429 
L 34.87516 36.518117 
L 34.930268 35.709821 
L 35.004515 34.903057 
L 35.099302 34.098448 
L 35.216047 33.29673 
L 35.356176 32.498768 
L 35.521112 31.705561 
L 35.712256 30.91826 
L 35.930975 30.138168 
L 36.178579 29.366759 
L 36.456303 28.605674 
L 36.765283 27.856734 
L 37.106529 27.121933 
L 37.480902 26.403446 
L 37.889088 25.703613 
L 38.331563 25.024941 
L 38.808574 24.370082 
L 39.320104 23.741816 
L 39.865849 23.143032 
L 40.445196 22.576695 
L 41.057198 22.045815 
L 41.700561 21.553408 
L 42.373631 21.102457 
L 43.074388 20.695861 
L 43.800448 20.336394 
L 44.549073 20.026649 
L 45.317184 19.768994 
L 46.101389 19.565519 
L 46.898017 19.417991 
L 47.703156 19.327817 
L 48.512704 19.296 
L 49.322423 19.323116 
L 50.128 19.409291 
L 50.92511 19.55419 
L 51.709484 19.757015 
L 52.476974 20.016514 
L 53.223619 20.330999 
L 53.945709 20.698379 
L 54.639836 21.116192 
L 55.302952 21.581656 
L 55.932406 22.091722 
L 56.525981 22.643129 
L 57.081915 23.232466 
L 57.598917 23.856236 
L 58.076172 24.510917 
L 58.513337 25.193022 
L 58.910526 25.899154 
L 59.26829 26.626055 
L 59.587594 27.370652 
L 59.86978 28.130094 
L 60.116537 28.901775 
L 60.329864 29.683358 
L 60.512027 30.472786 
L 60.665531 31.268284 
L 60.793077 32.068354 
L 60.897531 32.871765 
L 60.981896 33.677534 
L 61.049281 34.4849 
L 61.102877 35.293298 
L 61.145937 36.102326 
L 61.181755 36.911707 
L 61.213653 37.721252 
L 61.24496 38.53082 
L 61.279001 39.340277 
L 61.319083 40.149458 
L 61.368475 40.958124 
L 61.430398 41.765927 
L 61.508 42.572375 
L 61.60434 43.3768 
L 61.722358 44.178331 
L 61.864856 44.975874 
L 62.03446 45.768095 
L 62.233596 46.553414 
L 62.464453 47.33 
L 62.72895 48.095781 
L 63.028702 48.848462 
L 63.364992 49.585544 
L 63.738738 50.304359 
L 64.150473 51.002108 
L 64.600326 51.675913 
L 65.088012 52.322862 
L 65.61283 52.94007 
L 66.173674 53.524737 
L 66.769044 54.074204 
L 67.397079 54.586017 
L 68.05559 55.057975 
L 68.742104 55.488182 
L 69.453922 55.875087 
L 70.18817 56.21752 
L 70.941865 56.514714 
L 71.711979 56.766319 
L 72.495502 56.972407 
L 73.289504 57.133467 
L 74.091196 57.250389 
L 74.897977 57.324444 
L 75.707486 57.357253 
L 76.517633 57.350753 
L 77.326632 57.307164 
L 78.133021 57.228946 
L 78.935667 57.118766 
L 79.733773 56.979456 
L 80.526868 56.813984 
L 81.314792 56.625421 
L 82.097675 56.416916 
L 82.875909 56.191678 
L 83.650114 55.952958 
L 84.421099 55.704036 
L 85.189824 55.448219 
L 85.957352 55.188833 
L 86.724804 54.929224 
L 86.724804 54.929224 
L 86.724804 54.929224 
L 85.957352 54.929224 
L 85.189824 54.929224 
L 84.421099 54.929224 
L 83.650114 54.929224 
L 82.875909 54.929224 
L 82.097675 54.929224 
L 81.314792 54.929224 
L 80.526868 54.929224 
L 79.733773 54.929224 
L 78.935667 54.929224 
L 78.133021 54.929224 
L 77.326632 54.929224 
L 76.517633 54.929224 
L 75.707486 54.929224 
L 74.897977 54.929224 
L 74.091196 54.929224 
L 73.289504 54.929224 
L 72.495502 54.929224 
L 71.711979 54.929224 
L 70.941865 54.929224 
L 70.18817 54.929224 
L 69.453922 54.929224 
L 68.742104 54.929224 
L 68.05559 54.929224 
L 67.397079 54.929224 
L 66.769044 54.929224 
L 66.173674 54.929224 
L 65.61283 54.929224 
L 65.088012 54.929224 
L 64.600326 54.929224 
L 64.150473 54.929224 
L 63.738738 54.929224 
L 63.364992 54.929224 
L 63.028702 54.929224 
L 62.72895 54.929224 
L 62.464453 54.929224 
L 62.233596 54.929224 
L 62.03446 54.929224 
L 61.864856 54.929224 
L 61.722358 54.929224 
L 61.60434 54.929224 
L 61.508 54.929224 
L 61.430398 54.929224 
L 61.368475 54.929224 
L 61.319083 54.929224 
L 61.279001 54.929224 
L 61.24496 54.929224 
L 61.213653 54.929224 
L 61.181755 54.929224 
L 61.145937 54.929224 
L 61.102877 54.929224 
L 61.049281 54.929224 
L 60.981896 54.929224 
L 60.897531 54.929224 
L 60.793077 54.929224 
L 60.665531 54.929224 
L 60.512027 54.929224 
L 60.329864 54.929224 
L 60.116537 54.929224 
L 59.86978 54.929224 
L 59.587594 54.929224 
L 59.26829 54.929224 
L 58.910526 54.929224 
L 58.513337 54.929224 
L 58.076172 54.929224 
L 57.598917 54.929224 
L 57.081915 54.929224 
L 56.525981 54.929224 
L 55.932406 54.929224 
L 55.302952 54.929224 
L 54.639836 54.929224 
L 53.945709 54.929224 
L 53.223619 54.929224 
L 52.476974 54.929224 
L 51.709484 54.929224 
L 50.92511 54.929224 
L 50.128 54.929224 
L 49.322423 54.929224 
L 48.512704 54.929224 
L 47.703156 54.929224 
L 46.898017 54.929224 
L 46.101389 54.929224 
L 45.317184 54.929224 
L 44.549073 54.929224 
L 43.800448 54.929224 
L 43.074388 54.929224 
L 42.373631 54.929224 
L 41.700561 54.929224 
L 41.057198 54.929224 
L 40.445196 54.929224 
L 39.865849 54.929224 
L 39.320104 54.929224 
L 38.808574 54.929224 
L 38.331563 54.929224 
L 37.889088 54.929224 
L 37.480902 54.929224 
L 37.106529 54.929224 
L 36.765283 54.929224 
L 36.456303 54.929224 
L 36.178579 54.929224 
L 35.930975 54.929224 
L 35.712256 54.929224 
L 35.521112 54.929224 
L 35.356176 54.929224 
L 35.216047 54.929224 
L 35.099302 54.929224 
L 35.004515 54.929224 
L 34.930268 54.929224 
L 34.87516 54.929224 
L 34.837819 54.929224 
L 34.81691 54.929224 
L 34.811138 54.929224 
L 34.819253 54.929224 
L 34.840056 54.929224 
L 34.8724 54.929224 
L 34.915189 54.929224 
L 34.967382 54.929224 
L 35.027991 54.929224 
L 35.096082 54.929224 
L 35.170769 54.929224 
L 35.251219 54.929224 
L 35.336644 54.929224 
L 35.426302 54.929224 
L 35.51949 54.929224 
L 35.615548 54.929224 
L 35.713849 54.929224 
L 35.813798 54.929224 
L 35.914832 54.929224 
L 36.016409 54.929224 
L 36.118011 54.929224 
L 36.219141 54.929224 
L 36.319311 54.929224 
L 36.418051 54.929224 
L 36.514894 54.929224 
L 36.609382 54.929224 
L 36.701056 54.929224 
L 36.789459 54.929224 
L 36.874129 54.929224 
L 36.9546 54.929224 
L 37.030399 54.929224 
L 37.10104 54.929224 
L 37.166031 54.929224 
L 37.224865 54.929224 
L 37.277026 54.929224 
L 37.321981 54.929224 
L 37.359187 54.929224 
L 37.388089 54.929224 
L 37.408119 54.929224 
L 37.418702 54.929224 
L 37.419251 54.929224 
L 37.409176 54.929224 
L 37.387882 54.929224 
L 37.354776 54.929224 
L 37.309266 54.929224 
L 37.250769 54.929224 
L 37.178712 54.929224 
L 37.09254 54.929224 
L 36.991717 54.929224 
L 36.875736 54.929224 
L 36.744118 54.929224 
L 36.596423 54.929224 
L 36.432254 54.929224 
L 36.25126 54.929224 
L 36.053144 54.929224 
L 35.837666 54.929224 
L 35.604651 54.929224 
L 35.353986 54.929224 
L 35.085633 54.929224 
L 34.799626 54.929224 
L 34.496073 54.929224 
L 34.175162 54.929224 
L 33.837159 54.929224 
L 33.482407 54.929224 
L 33.11133 54.929224 
L 32.724427 54.929224 
L 32.322271 54.929224 
L 31.905511 54.929224 
L 31.474861 54.929224 
L 31.031103 54.929224 
L 30.575083 54.929224 
L 30.107705 54.929224 
L 29.629927 54.929224 
L 29.142763 54.929224 
L 28.647272 54.929224 
L 28.144566 54.929224 
L 27.6358 54.929224 
L 27.122176 54.929224 
L 26.604943 54.929224 
L 26.085395 54.929224 
L 25.564881 54.929224 
L 25.044797 54.929224 
L 24.526602 54.929224 
L 24.011812 54.929224 
L 23.502013 54.929224 
L 22.99886 54.929224 
L 22.504086 54.929224 
L 22.019507 54.929224 
L 21.547019 54.929224 
L 21.088609 54.929224 
L 20.64635 54.929224 
L 20.222399 54.929224 
L 19.818994 54.929224 
L 19.438446 54.929224 
L 19.083129 54.929224 
L 18.755462 54.929224 
L 18.457893 54.929224 
L 18.192873 54.929224 
L 17.962834 54.929224 
L 17.770154 54.929224 
L 17.617124 54.929224 
L 17.505913 54.929224 
L 17.43853 54.929224 
L 17.416781 54.929224 
L 17.442235 54.929224 
L 17.516182 54.929224 
L 17.6396 54.929224 
L 17.813123 54.929224 
L 18.037016 54.929224 
L 18.311156 54.929224 
L 18.635018 54.929224 
L 19.007674 54.929224 
L 19.427796 54.929224 
L 19.893676 54.929224 
L 20.403239 54.929224 
L 20.954087 54.929224 
L 21.54353 54.929224 
L 22.168637 54.929224 
L 22.826284 54.929224 
L 23.513215 54.929224 
L 24.226095 54.929224 
L 24.96157 54.929224 
L 25.716323 54.929224 
L 26.487132 54.929224 
L 27.270915 54.929224 
L 28.064776 54.929224 
L 28.866048 54.929224 
L 29.672316 54.929224 
L 30.481447 54.929224 
L 31.291606 54.929224 
L 32.101259 54.929224 
L 32.909183 54.929224 
L 33.714452 54.929224 
L 34.516432 54.929224 
L 35.314761 54.929224 
L 36.109329 54.929224 
L 36.90025 54.929224 
L 37.687838 54.929224 
L 38.472569 54.929224 
L 39.255056 54.929224 
L 40.036008 54.929224 
L 40.816197 54.929224 
L 41.596425 54.929224 
L 42.377485 54.929224 
L 43.160131 54.929224 
L 43.945043 54.929224 
L 44.732794 54.929224 
L 45.523822 54.929224 
L 46.318406 54.929224 
L 47.116635 54.929224 
L 47.918398 54.929224 
L 48.723356 54.929224 
L 49.53094 54.929224 
L 50.34034 54.929224 
L 51.150503 54.929224 
L 51.960141 54.929224 
L 52.767735 54.929224 
L 53.571557 54.929224 
L 54.369688 54.929224 
L 55.160045 54.929224 
L 55.940413 54.929224 
L 56.70848 54.929224 
L 57.461879 54.929224 
L 58.198221 54.929224 
L 58.915148 54.929224 
L 59.610364 54.929224 
L 60.281686 54.929224 
L 60.927075 54.929224 
L 61.544677 54.929224 
L 62.132848 54.929224 
L 62.690188 54.929224 
L 63.215556 54.929224 
L 63.708086 54.929224 
L 64.1672 54.929224 
L 64.592606 54.929224 
L 64.984301 54.929224 
L 65.342562 54.929224 
L 65.667931 54.929224 
L 65.961206 54.929224 
L 66.223421 54.929224 
L 66.455822 54.929224 
L 66.659849 54.929224 
L 66.83711 54.929224 
L 66.989363 54.929224 
L 67.118487 54.929224 
L 67.226468 54.929224 
L 67.31537 54.929224 
L 67.387324 54.929224 
L 67.444505 54.929224 
L 67.48912 54.929224 
L 67.523392 54.929224 
L 67.549547 54.929224 
L 67.569805 54.929224 
L 67.586368 54.929224 
L 67.60141 54.929224 
L 67.617073 54.929224 
L 67.635454 54.929224 
L 67.6586 54.929224 
L 67.688503 54.929224 
L 67.727086 54.929224 
L 67.776203 54.929224 
L 67.837628 54.929224 
L 67.913049 54.929224 
L 68.00406 54.929224 
L 68.112151 54.929224 
L 68.238706 54.929224 
L 68.384994 54.929224 
L 68.55216 54.929224 
L 68.741224 54.929224 
L 68.953073 54.929224 
L 69.188456 54.929224 
L 69.447987 54.929224 
L 69.732138 54.929224 
L 70.041239 54.929224 
L 70.375484 54.929224 
L 70.734929 54.929224 
L 71.119501 54.929224 
L 71.528996 54.929224 
L 71.963095 54.929224 
L 72.421365 54.929224 
L 72.903271 54.929224 
L 73.408185 54.929224 
L 73.935398 54.929224 
L 74.484127 54.929224 
L 75.05353 54.929224 
L 75.642715 54.929224 
L 76.25075 54.929224 
L 76.876677 54.929224 
L 77.519519 54.929224 
L 78.178287 54.929224 
L 78.851996 54.929224 
L 79.539667 54.929224 
L 80.240335 54.929224 
L 80.953058 54.929224 
L 81.676916 54.929224 
L 82.411024 54.929224 
L 83.154528 54.929224 
L 83.906612 54.929224 
L 84.666498 54.929224 
L 85.433447 54.929224 
L 86.206763 54.929224 
L 86.985787 54.929224 
L 87.769903 54.929224 
L 88.558533 54.929224 
L 89.351139 54.929224 
L 90.147216 54.929224 
L 90.946299 54.929224 
L 91.747955 54.929224 
L 92.551782 54.929224 
L 93.35741 54.929224 
L 94.164498 54.929224 
L 94.972731 54.929224 
L 95.781821 54.929224 
L 96.591503 54.929224 
L 97.401539 54.929224 
L 98.211709 54.929224 
L 99.021818 54.929224 
L 99.831691 54.929224 
L 100.641173 54.929224 
L 101.450131 54.929224 
L 102.258453 54.929224 
L 103.066044 54.929224 
L 103.872834 54.929224 
L 104.67877 54.929224 
L 105.483825 54.929224 
L 106.287988 54.929224 
L 107.091273 54.929224 
L 107.893716 54.929224 
L 108.695373 54.929224 
L 109.496321 54.929224 
L 110.296659 54.929224 
L 111.096504 54.929224 
L 111.895992 54.929224 
L 112.695273 54.929224 
L 113.494512 54.929224 
L 114.293883 54.929224 
L 115.093563 54.929224 
L 115.893734 54.929224 
L 116.694569 54.929224 
L 117.496232 54.929224 
L 118.298866 54.929224 
L 119.102588 54.929224 
L 119.907478 54.929224 
L 120.713568 54.929224 
L 121.520834 54.929224 
L 122.329183 54.929224 
L 123.138441 54.929224 
L 123.948341 54.929224 
L 124.758512 54.929224 
L 125.568464 54.929224 
L 126.377578 54.929224 
L 127.185095 54.929224 
L 127.990106 54.929224 
L 128.791541 54.929224 
L 129.588167 54.929224 
L 130.37858 54.929224 
L 131.161204 54.929224 
L 131.934295 54.929224 
L 132.695941 54.929224 
L 133.444077 54.929224 
L 134.176494 54.929224 
L 134.890859 54.929224 
L 135.584733 54.929224 
L 136.2556 54.929224 
L 136.900896 54.929224 
L 137.518039 54.929224 
L 138.10447 54.929224 
L 138.657685 54.929224 
L 139.175281 54.929224 
L 139.654992 54.929224 
L 140.094725 54.929224 
L 140.492605 54.929224 
L 140.847002 54.929224 
L 141.156567 54.929224 
L 141.42025 54.929224 
L 141.637329 54.929224 
L 141.807415 54.929224 
L 141.930466 54.929224 
L 142.00678 54.929224 
L 142.036993 54.929224 
L 142.022065 54.929224 
L 141.963261 54.929224 
L 141.862125 54.929224 
L 141.720457 54.929224 
L 141.540278 54.929224 
L 141.323801 54.929224 
L 141.073396 54.929224 
L 140.79156 54.929224 
L 140.480886 54.929224 
L 140.144036 54.929224 
L 139.783716 54.929224 
L 139.402656 54.929224 
L 139.003594 54.929224 
L 138.58927 54.929224 
L 138.162412 54.929224 
L 137.725741 54.929224 
L 137.281968 54.929224 
L 136.833807 54.929224 
L 136.383977 54.929224 
L 135.935217 54.929224 
L 135.490296 54.929224 
L 135.052026 54.929224 
L 134.623273 54.929224 
L 134.206964 54.929224 
L 133.806096 54.929224 
L 133.423733 54.929224 
L 133.063005 54.929224 
L 132.727098 54.929224 
L 132.419235 54.929224 
L 132.142651 54.929224 
L 131.900566 54.929224 
L 131.696144 54.929224 
L 131.532448 54.929224 
L 131.41239 54.929224 
L 131.338675 54.929224 
L 131.313748 54.929224 
L 131.33973 54.929224 
L 131.418367 54.929224 
L 131.550976 54.929224 
L 131.738399 54.929224 
L 131.980965 54.929224 
L 132.278467 54.929224 
L 132.630147 54.929224 
L 133.034695 54.929224 
L 133.490267 54.929224 
L 133.994512 54.929224 
L 134.544618 54.929224 
L 135.137365 54.929224 
L 135.769197 54.929224 
L 136.436294 54.929224 
L 137.134657 54.929224 
L 137.860193 54.929224 
L 138.608796 54.929224 
L 139.376437 54.929224 
L 140.159235 54.929224 
L 140.95353 54.929224 
L 141.755941 54.929224 
L 142.563418 54.929224 
L 143.373281 54.929224 
L 144.18324 54.929224 
L 144.991418 54.929224 
L 145.796346 54.929224 
L 146.596964 54.929224 
L 147.392597 54.929224 
L 148.182934 54.929224 
L 148.967997 54.929224 
L 149.748105 54.929224 
L 150.523826 54.929224 
L 151.295942 54.929224 
L 152.065393 54.929224 
L 152.833233 54.929224 
L 153.600582 54.929224 
L 154.36857 54.929224 
L 155.138298 54.929224 
L 155.910782 54.929224 
L 156.686911 54.929224 
L 157.467405 54.929224 
L 158.252776 54.929224 
L 159.043286 54.929224 
L 159.838926 54.929224 
L 160.639381 54.929224 
L 161.444018 54.929224 
L 162.251875 54.929224 
L 163.061651 54.929224 
L 163.871722 54.929224 
L 164.680146 54.929224 
L 165.484693 54.929224 
L 166.282879 54.929224 
L 167.072 54.929224 
L 167.849191 54.929224 
L 168.611474 54.929224 
L 169.355823 54.929224 
L 170.079223 54.929224 
L 170.778739 54.929224 
L 171.451577 54.929224 
L 172.095142 54.929224 
L 172.707098 54.929224 
L 173.285416 54.929224 
L 173.828411 54.929224 
L 174.334776 54.929224 
L 174.803607 54.929224 
L 175.23441 54.929224 
L 175.627109 54.929224 
L 175.982036 54.929224 
L 176.299919 54.929224 
L 176.581862 54.929224 
L 176.829317 54.929224 
L 177.044056 54.929224 
L 177.228137 54.929224 
L 177.383871 54.929224 
L 177.513789 54.929224 
L 177.620609 54.929224 
L 177.707204 54.929224 
L 177.776578 54.929224 
L 177.831837 54.929224 
L 177.876168 54.929224 
L 177.912818 54.929224 
L 177.945077 54.929224 
L 177.976264 54.929224 
L 178.009706 54.929224 
L 178.048731 54.929224 
L 178.09665 54.929224 
L 178.156737 54.929224 
L 178.232217 54.929224 
L 178.326244 54.929224 
L 178.441877 54.929224 
L 178.582053 54.929224 
L 178.749561 54.929224 
L 178.947006 54.929224 
L 179.176781 54.929224 
L 179.441021 54.929224 
L 179.741576 54.929224 
L 180.079965 54.929224 
L 180.457346 54.929224 
L 180.87448 54.929224 
L 181.331704 54.929224 
L 181.828905 54.929224 
L 182.365505 54.929224 
L 182.94045 54.929224 
L 183.552214 54.929224 
L 184.198804 54.929224 
L 184.877783 54.929224 
L 185.586296 54.929224 
L 186.321109 54.929224 
L 187.078658 54.929224 
L 187.855098 54.929224 
L 188.646367 54.929224 
L 189.44825 54.929224 
L 190.256439 54.929224 
L 191.066609 54.929224 
L 191.874475 54.929224 
L 192.67586 54.929224 
L 193.466752 54.929224 
L 194.243353 54.929224 
L 195.002125 54.929224 
L 195.739832 54.929224 
L 196.453561 54.929224 
L 197.14075 54.929224 
L 197.799196 54.929224 
L 198.427063 54.929224 
L 199.022877 54.929224 
L 199.58552 54.929224 
L 200.114214 54.929224 
L 200.608504 54.929224 
L 201.068232 54.929224 
L 201.493516 54.929224 
L 201.884723 54.929224 
L 202.242435 54.929224 
L 202.56743 54.929224 
L 202.860647 54.929224 
L 203.123163 54.929224 
L 203.356165 54.929224 
L 203.560928 54.929224 
L 203.738795 54.929224 
L 203.89115 54.929224 
L 204.019409 54.929224 
L 204.124997 54.929224 
L 204.209338 54.929224 
L 204.273842 54.929224 
L 204.319897 54.929224 
L 204.348857 54.929224 
L 204.362039 54.929224 
L 204.360714 54.929224 
L 204.346108 54.929224 
L 204.319395 54.929224 
L 204.281695 54.929224 
L 204.234077 54.929224 
L 204.177556 54.929224 
L 204.113092 54.929224 
L 204.041596 54.929224 
L 203.963926 54.929224 
L 203.880892 54.929224 
L 203.793261 54.929224 
L 203.701753 54.929224 
L 203.607049 54.929224 
L 203.509794 54.929224 
L 203.410596 54.929224 
L 203.310036 54.929224 
L 203.208665 54.929224 
L 203.107012 54.929224 
L 203.005584 54.929224 
L 202.904874 54.929224 
L 202.805361 54.929224 
L 202.707512 54.929224 
L 202.611789 54.929224 
L 202.518651 54.929224 
L 202.428555 54.929224 
L 202.34196 54.929224 
L 202.259331 54.929224 
L 202.181136 54.929224 
L 202.107855 54.929224 
L 202.039977 54.929224 
L 201.978 54.929224 
L 201.922437 54.929224 
L 201.873812 54.929224 
L 201.832663 54.929224 
L 201.799539 54.929224 
L 201.775001 54.929224 
L 201.759622 54.929224 
L 201.753983 54.929224 
L 201.758672 54.929224 
L 201.774281 54.929224 
L 201.801407 54.929224 
L 201.840642 54.929224 
L 201.892573 54.929224 
L 201.957779 54.929224 
L 202.036825 54.929224 
L 202.130257 54.929224 
L 202.238598 54.929224 
L 202.36234 54.929224 
L 202.501944 54.929224 
L 202.657829 54.929224 
L 202.83037 54.929224 
L 203.019891 54.929224 
L 203.226662 54.929224 
L 203.450891 54.929224 
L 203.692721 54.929224 
L 203.95223 54.929224 
L 204.229419 54.929224 
L 204.524217 54.929224 
L 204.836477 54.929224 
L 205.165973 54.929224 
L 205.512398 54.929224 
L 205.87537 54.929224 
L 206.254427 54.929224 
L 206.649033 54.929224 
L 207.058576 54.929224 
L 207.482375 54.929224 
L 207.919681 54.929224 
L 208.369679 54.929224 
L 208.831495 54.929224 
L 209.304196 54.929224 
L 209.786797 54.929224 
L 210.27826 54.929224 
L 210.7775 54.929224 
L 211.283383 54.929224 
L 211.794731 54.929224 
L 212.310319 54.929224 
L 212.828875 54.929224 
L 213.349077 54.929224 
L 213.869555 54.929224 
L 214.38888 54.929224 
L 214.905566 54.929224 
L 215.418063 54.929224 
L 215.924751 54.929224 
L 216.423936 54.929224 
L 216.913844 54.929224 
L 217.392621 54.929224 
L 217.858323 54.929224 
L 218.308922 54.929224 
L 218.742302 54.929224 
L 219.156265 54.929224 
L 219.548534 54.929224 
L 219.916766 54.929224 
L 220.258563 54.929224 
L 220.571488 54.929224 
L 220.853088 54.929224 
L 221.100919 54.929224 
L 221.312571 54.929224 
L 221.485706 54.929224 
L 221.618089 54.929224 
L 221.707625 54.929224 
L 221.752403 54.929224 
L 221.75073 54.929224 
L 221.701172 54.929224 
L 221.602591 54.929224 
L 221.454177 54.929224 
L 221.255478 54.929224 
L 221.006421 54.929224 
L 220.70733 54.929224 
L 220.35893 54.929224 
L 219.96235 54.929224 
L 219.519112 54.929224 
L 219.03111 54.929224 
L 218.500585 54.929224 
L 217.930087 54.929224 
L 217.322433 54.929224 
L 216.680656 54.929224 
L 216.007953 54.929224 
L 215.307628 54.929224 
L 214.583033 54.929224 
L 213.837509 54.929224 
L 213.074333 54.929224 
L 212.296662 54.929224 
L 211.507492 54.929224 
L 210.709607 54.929224 
L 209.905553 54.929224 
L 209.097605 54.929224 
L 208.287749 54.929224 
L 207.477671 54.929224 
L 206.668748 54.929224 
L 205.862054 54.929224 
L 205.058368 54.929224 
L 204.258185 54.929224 
L 203.461737 54.929224 
L 202.66902 54.929224 
L 201.879816 54.929224 
L 201.093725 54.929224 
L 200.310199 54.929224 
L 199.528573 54.929224 
L 198.748102 54.929224 
L 197.967994 54.929224 
L 197.187448 54.929224 
L 196.405685 54.929224 
L 195.621985 54.929224 
L 194.835717 54.929224 
L 194.046373 54.929224 
L 193.253591 54.929224 
L 192.457183 54.929224 
L 191.657159 54.929224 
L 190.853743 54.929224 
L 190.047385 54.929224 
L 189.238777 54.929224 
L 188.428849 54.929224 
L 187.618773 54.929224 
L 186.809954 54.929224 
L 186.004017 54.929224 
L 185.202789 54.929224 
L 184.408276 54.929224 
L 183.62263 54.929224 
L 182.848119 54.929224 
L 182.087087 54.929224 
L 181.341919 54.929224 
L 180.614993 54.929224 
L 179.908641 54.929224 
L 179.225107 54.929224 
L 178.566507 54.929224 
L 177.934792 54.929224 
L 177.331715 54.929224 
L 176.7588 54.929224 
L 176.217321 54.929224 
L 175.708281 54.929224 
L 175.232405 54.929224 
L 174.790127 54.929224 
L 174.381593 54.929224 
L 174.006667 54.929224 
L 173.664937 54.929224 
L 173.355729 54.929224 
L 173.078127 54.929224 
L 172.830987 54.929224 
L 172.612965 54.929224 
L 172.422531 54.929224 
L 172.258002 54.929224 
L 172.117556 54.929224 
L 171.999257 54.929224 
L 171.901078 54.929224 
L 171.82092 54.929224 
L 171.756626 54.929224 
L 171.706005 54.929224 
L 171.66684 54.929224 
L 171.636905 54.929224 
L 171.613975 54.929224 
L 171.595838 54.929224 
L 171.580306 54.929224 
L 171.565218 54.929224 
L 171.548455 54.929224 
L 171.527944 54.929224 
L 171.501665 54.929224 
L 171.467659 54.929224 
L 171.424035 54.929224 
L 171.36898 54.929224 
L 171.300762 54.929224 
L 171.21774 54.929224 
L 171.118369 54.929224 
L 171.001212 54.929224 
L 170.864941 54.929224 
L 170.70835 54.929224 
L 170.530354 54.929224 
L 170.33 54.929224 
L 170.106469 54.929224 
L 169.859079 54.929224 
L 169.587289 54.929224 
L 169.290696 54.929224 
L 168.969038 54.929224 
L 168.622192 54.929224 
L 168.250166 54.929224 
L 167.8531 54.929224 
L 167.431255 54.929224 
L 166.98501 54.929224 
L 166.514849 54.929224 
L 166.021355 54.929224 
L 165.505198 54.929224 
L 164.967126 54.929224 
L 164.407951 54.929224 
L 163.828543 54.929224 
L 163.229814 54.929224 
L 162.612712 54.929224 
L 161.978205 54.929224 
L 161.327276 54.929224 
L 160.660914 54.929224 
L 159.980103 54.929224 
L 159.285814 54.929224 
L 158.579002 54.929224 
L 157.860599 54.929224 
L 157.131507 54.929224 
L 156.392596 54.929224 
L 155.644703 54.929224 
L 154.888623 54.929224 
L 154.125116 54.929224 
L 153.354899 54.929224 
L 152.578649 54.929224 
L 151.797004 54.929224 
L 151.010561 54.929224 
L 150.219879 54.929224 
L 149.425477 54.929224 
L 148.62784 54.929224 
L 147.827418 54.929224 
L 147.024629 54.929224 
L 146.219857 54.929224 
L 145.413458 54.929224 
L 144.60576 54.929224 
L 143.797064 54.929224 
L 142.987646 54.929224 
L 142.177759 54.929224 
L 141.36763 54.929224 
L 140.557467 54.929224 
L 139.747456 54.929224 
L 138.93776 54.929224 
L 138.128525 54.929224 
L 137.319872 54.929224 
L 136.511905 54.929224 
L 135.704707 54.929224 
L 134.898339 54.929224 
L 134.092841 54.929224 
L 133.288233 54.929224 
L 132.484511 54.929224 
L 131.681653 54.929224 
L 130.879611 54.929224 
L 130.07832 54.929224 
L 129.27769 54.929224 
L 128.477615 54.929224 
L 127.677966 54.929224 
L 126.878601 54.929224 
L 126.079362 54.929224 
L 125.28008 54.929224 
L 124.480577 54.929224 
L 123.680674 54.929224 
L 122.880192 54.929224 
L 122.078962 54.929224 
L 121.27683 54.929224 
L 120.473664 54.929224 
L 119.669366 54.929224 
L 118.863877 54.929224 
L 118.057192 54.929224 
L 117.249368 54.929224 
L 116.440537 54.929224 
L 115.630918 54.929224 
L 114.820829 54.929224 
L 114.010699 54.929224 
L 113.20108 54.929224 
L 112.39266 54.929224 
L 111.586273 54.929224 
L 110.782906 54.929224 
L 109.983711 54.929224 
L 109.190005 54.929224 
L 108.403279 54.929224 
L 107.625193 54.929224 
L 106.857576 54.929224 
L 106.102418 54.929224 
L 105.361857 54.929224 
L 104.638167 54.929224 
L 103.933737 54.929224 
L 103.251048 54.929224 
L 102.592644 54.929224 
L 101.961102 54.929224 
L 101.358998 54.929224 
L 100.788868 54.929224 
L 100.253169 54.929224 
L 99.754242 54.929224 
L 99.294272 54.929224 
L 98.875245 54.929224 
L 98.49892 54.929224 
L 98.166788 54.929224 
L 97.880054 54.929224 
L 97.639603 54.929224 
L 97.445993 54.929224 
L 97.299441 54.929224 
L 97.199817 54.929224 
L 97.146654 54.929224 
L 97.13915 54.929224 
L 97.176192 54.929224 
L 97.256372 54.929224 
L 97.378014 54.929224 
L 97.539203 54.929224 
L 97.737818 54.929224 
L 97.971564 54.929224 
L 98.238004 54.929224 
L 98.534587 54.929224 
L 98.858685 54.929224 
L 99.20761 54.929224 
L 99.578643 54.929224 
L 99.969046 54.929224 
L 100.376081 54.929224 
L 100.797012 54.929224 
L 101.229117 54.929224 
L 101.669677 54.929224 
L 102.115983 54.929224 
L 102.565319 54.929224 
L 103.014958 54.929224 
L 103.462148 54.929224 
L 103.904098 54.929224 
L 104.337971 54.929224 
L 104.760873 54.929224 
L 105.16984 54.929224 
L 105.561843 54.929224 
L 105.933783 54.929224 
L 106.282501 54.929224 
L 106.604791 54.929224 
L 106.897419 54.929224 
L 107.157153 54.929224 
L 107.380797 54.929224 
L 107.565231 54.929224 
L 107.70746 54.929224 
L 107.80467 54.929224 
L 107.854278 54.929224 
L 107.853993 54.929224 
L 107.801876 54.929224 
L 107.696389 54.929224 
L 107.536447 54.929224 
L 107.321461 54.929224 
L 107.051367 54.929224 
L 106.726646 54.929224 
L 106.348334 54.929224 
L 105.918011 54.929224 
L 105.437779 54.929224 
L 104.910225 54.929224 
L 104.338374 54.929224 
L 103.725621 54.929224 
L 103.075666 54.929224 
L 102.392428 54.929224 
L 101.679964 54.929224 
L 100.942384 54.929224 
L 100.183766 54.929224 
L 99.408073 54.929224 
L 98.619086 54.929224 
L 97.82033 54.929224 
L 97.015027 54.929224 
L 96.206046 54.929224 
L 95.395875 54.929224 
L 94.586597 54.929224 
L 93.779886 54.929224 
L 92.977005 54.929224 
L 92.178819 54.929224 
L 91.385817 54.929224 
L 90.598138 54.929224 
L 89.81561 54.929224 
L 89.037781 54.929224 
L 88.263971 54.929224 
L 87.493313 54.929224 
L 86.724804 54.929224 
z
"/>
   </g>
  </g>
 </g>
 <defs>
  <clipPath id="pfb68655f06">
   <rect height="266.112" width="224.769184" x="7.2" y="7.2"/>
  </clipPath>
 </defs>
</svg>
