<?xml version="1.0" encoding="utf-8" standalone="no"?>
<!DOCTYPE svg PUBLIC "-//W3C//DTD SVG 1.1//EN"
  "http://www.w3.org/Graphics/SVG/1.1/DTD/svg11.dtd">
<svg height="280.512pt" version="1.1" viewBox="0 0 220.218768 280.512" width="220.218768pt" xmlns="http://www.w3.org/2000/svg" xmlns:xlink="http://www.w3.org/1999/xlink">
 <metadata>
  <rdf:RDF xmlns:cc="http://creativecommons.org/ns#" xmlns:dc="http://purl.org/dc/elements/1.1/" xmlns:rdf="http://www.w3.org/1999/02/22-rdf-syntax-ns#">
   <cc:Work>
    <dc:type rdf:resource="http://purl.org/dc/dcmitype/StillImage"/>
    <dc:date>2022-11-22T17:11:26.937800</dc:date>
    <dc:format>image/svg+xml</dc:format>
    <dc:creator>
     <cc:Agent>
      <dc:title>Matplotlib v3.4.2, https://matplotlib.org/</dc:title>
     </cc:Agent>
    </dc:creator>
   </cc:Work>
  </rdf:RDF>
 </metadata>
 <defs>
  <style type="text/css">*{stroke-linecap:butt;stroke-linejoin:round;}</style>
 </defs>
 <g id="figure_1">
  <g id="patch_1">
   <path d="M 0 280.512 
L 220.218768 280.512 
L 220.218768 0 
L 0 0 
z
" style="fill:none;"/>
  </g>
  <g id="axes_1">
   <g id="PolyCollection_1">
    <path clip-path="url(#pd453da3ffa)" d="M 120.638223 57.32877 
L 120.638223 57.32877 
L 120.900287 56.574291 
L 121.166525 55.821273 
L 121.435804 55.069338 
L 121.707011 54.318096 
L 121.979065 53.567161 
L 122.250925 52.816155 
L 122.5216 52.064722 
L 122.790155 51.312528 
L 123.055722 50.559274 
L 123.317511 49.804698 
L 123.574814 49.048582 
L 123.827017 48.290748 
L 124.073608 47.531071 
L 124.314183 46.769466 
L 124.548457 46.0059 
L 124.776267 45.240381 
L 124.997582 44.472958 
L 125.212504 43.703721 
L 125.421277 42.932792 
L 125.624289 42.160326 
L 125.822072 41.386505 
L 126.015306 40.611535 
L 126.204816 39.835647 
L 126.391574 39.059091 
L 126.576691 38.282142 
L 126.76142 37.505101 
L 126.947142 36.728297 
L 127.135366 35.952095 
L 127.327717 35.176906 
L 127.525926 34.403194 
L 127.73182 33.631491 
L 127.947305 32.862411 
L 128.174353 32.096665 
L 128.414986 31.335079 
L 128.67125 30.57861 
L 128.945198 29.828363 
L 129.238859 29.085611 
L 129.554216 28.351808 
L 129.893172 27.628602 
L 130.257513 26.917846 
L 130.648878 26.221606 
L 131.06872 25.542158 
L 131.518263 24.881984 
L 131.998467 24.243767 
L 132.509989 23.630365 
L 133.053143 23.044787 
L 133.627871 22.490165 
L 134.233708 21.969705 
L 134.869766 21.486644 
L 135.534715 21.044196 
L 136.226778 20.64549 
L 136.943735 20.293511 
L 137.68294 19.991033 
L 138.441347 19.740558 
L 139.215545 19.544256 
L 140.001815 19.40391 
L 140.796183 19.320866 
L 141.594493 19.296 
L 142.39248 19.329688 
L 143.185849 19.421795 
L 143.970358 19.57167 
L 144.741901 19.778163 
L 145.49658 20.039652 
L 146.230784 20.354075 
L 146.941247 20.718986 
L 147.625104 21.131608 
L 148.279936 21.588897 
L 148.903796 22.08761 
L 149.495234 22.624377 
L 150.053297 23.195765 
L 150.577529 23.798341 
L 151.067953 24.428739 
L 151.525051 25.083704 
L 151.949729 25.76014 
L 152.343284 26.455145 
L 152.707363 27.166035 
L 153.043922 27.890359 
L 153.355179 28.625911 
L 153.643579 29.370722 
L 153.911745 30.123054 
L 154.162444 30.881386 
L 154.39855 31.644388 
L 154.623008 32.410897 
L 154.838804 33.179889 
L 155.048934 33.950449 
L 155.25638 34.721736 
L 155.464082 35.492955 
L 155.674913 36.263323 
L 155.89166 37.032048 
L 156.116994 37.7983 
L 156.353455 38.561192 
L 156.603427 39.319764 
L 156.869114 40.072975 
L 157.152525 40.819699 
L 157.455451 41.558721 
L 157.779447 42.288751 
L 158.125821 43.008433 
L 158.495617 43.716366 
L 158.88961 44.411122 
L 159.3083 45.091281 
L 159.751912 45.755454 
L 160.220403 46.402319 
L 160.71347 47.030651 
L 161.230568 47.639361 
L 161.770928 48.227518 
L 162.333578 48.794389 
L 162.917377 49.339454 
L 163.52104 49.862435 
L 164.143167 50.363309 
L 164.782279 50.842322 
L 165.436843 51.299993 
L 166.105305 51.737116 
L 166.786109 52.154757 
L 167.47772 52.554245 
L 168.178642 52.937162 
L 168.887426 53.305325 
L 169.602672 53.660768 
L 170.323036 54.005721 
L 171.047217 54.34259 
L 171.773943 54.673929 
L 172.501964 55.002416 
L 173.230019 55.330825 
L 173.956821 55.662 
L 174.681024 55.998821 
L 175.401196 56.344174 
L 176.115794 56.700919 
L 176.823132 57.071851 
L 177.521358 57.459663 
L 178.208434 57.866904 
L 178.882116 58.295936 
L 179.539953 58.748892 
L 180.179275 59.227625 
L 180.797207 59.733665 
L 181.390685 60.268175 
L 181.956481 60.831907 
L 182.491239 61.425161 
L 182.991526 62.04776 
L 183.453885 62.699023 
L 183.874895 63.377748 
L 184.251248 64.082216 
L 184.579814 64.810201 
L 184.857721 65.55899 
L 185.08242 66.325429 
L 185.251758 67.105968 
L 185.364034 67.896735 
L 185.418046 68.693604 
L 185.41313 69.492286 
L 185.349178 70.288419 
L 185.226644 71.077661 
L 185.046533 71.855785 
L 184.810376 72.618771 
L 184.520187 73.362886 
L 184.178413 74.084764 
L 183.787866 74.781464 
L 183.351656 75.450522 
L 182.873115 76.089987 
L 182.35572 76.698444 
L 181.803017 77.275018 
L 181.218554 77.819371 
L 180.605814 78.331686 
L 179.96816 78.812639 
L 179.308795 79.263366 
L 178.63072 79.685422 
L 177.936715 80.080738 
L 177.229327 80.451575 
L 176.510868 80.800478 
L 175.783419 81.130229 
L 175.048853 81.443806 
L 174.308854 81.744338 
L 173.56495 82.035067 
L 172.818544 82.319312 
L 172.070955 82.600433 
L 171.323458 82.881797 
L 170.577321 83.166749 
L 169.833847 83.458575 
L 169.094406 83.760477 
L 168.360475 84.075536 
L 167.63366 84.406682 
L 166.915723 84.756659 
L 166.208595 85.127992 
L 165.514388 85.522952 
L 164.835391 85.943524 
L 164.174065 86.39137 
L 163.533027 86.867802 
L 162.915023 87.373755 
L 162.322897 87.909762 
L 161.759548 88.475939 
L 161.22789 89.071973 
L 160.730797 89.697126 
L 160.271052 90.350235 
L 159.851292 91.029735 
L 159.473959 91.733679 
L 159.141245 92.459777 
L 158.855049 93.205438 
L 158.61694 93.967816 
L 158.428124 94.743874 
L 158.289422 95.530436 
L 158.201261 96.324253 
L 158.163668 97.122065 
L 158.176279 97.920663 
L 158.238352 98.716944 
L 158.348799 99.507968 
L 158.506208 100.291001 
L 158.708887 101.063554 
L 158.954899 101.82342 
L 159.242112 102.568689 
L 159.568236 103.297771 
L 159.930872 104.009398 
L 160.327551 104.702625 
L 160.755772 105.376823 
L 161.213041 106.031669 
L 161.696897 106.667122 
L 162.204943 107.283407 
L 162.734862 107.880988 
L 163.284438 108.460543 
L 163.851565 109.022934 
L 164.434258 109.569182 
L 165.030652 110.100436 
L 165.639008 110.61795 
L 166.257709 111.123051 
L 166.885253 111.617122 
L 167.520253 112.101572 
L 168.161428 112.577821 
L 168.807593 113.047275 
L 169.457658 113.511315 
L 170.110614 113.971278 
L 170.765531 114.428445 
L 171.421551 114.884027 
L 172.077882 115.339161 
L 172.733796 115.794897 
L 173.388621 116.252195 
L 174.041745 116.711919 
L 174.69261 117.174835 
L 175.340713 117.641612 
L 175.985604 118.112816 
L 176.626888 118.588917 
L 177.264224 119.07029 
L 177.897327 119.557218 
L 178.525964 120.049897 
L 179.14996 120.548441 
L 179.769194 121.052888 
L 180.383596 121.56321 
L 180.993149 122.079312 
L 181.597888 122.601048 
L 182.19789 123.128225 
L 182.793277 123.660608 
L 183.384209 124.197931 
L 183.970879 124.739905 
L 184.553508 125.286221 
L 185.132336 125.836562 
L 185.707621 126.390607 
L 186.279624 126.948038 
L 186.84861 127.508549 
L 187.414837 128.071847 
L 187.978545 128.637666 
L 188.539956 129.205763 
L 189.099261 129.775934 
L 189.656617 130.348012 
L 190.212136 130.921872 
L 190.765884 131.497442 
L 191.317869 132.074702 
L 191.868044 132.653689 
L 192.41629 133.234502 
L 192.962423 133.817302 
L 193.506181 134.402319 
L 194.047223 134.989848 
L 194.585127 135.580253 
L 195.119379 136.173963 
L 195.649379 136.771473 
L 196.174426 137.373339 
L 196.693722 137.980174 
L 197.206366 138.592639 
L 197.711349 139.211436 
L 198.207549 139.837298 
L 198.693729 140.470975 
L 199.168532 141.113221 
L 199.630481 141.764773 
L 200.077971 142.426339 
L 200.509274 143.098571 
L 200.922534 143.782043 
L 201.315775 144.477226 
L 201.686899 145.184463 
L 202.0337 145.903939 
L 202.353873 146.635654 
L 202.645026 147.379393 
L 202.904705 148.134697 
L 203.130415 148.900838 
L 203.31965 149.676794 
L 203.469927 150.461227 
L 203.578824 151.252466 
L 203.644026 152.048497 
L 203.66337 152.84696 
L 203.634894 153.64515 
L 203.556891 154.440029 
L 203.427958 155.228251 
L 203.24705 156.00619 
L 203.013521 156.769985 
L 202.727168 157.515585 
L 202.388267 158.238816 
L 201.997593 158.935444 
L 201.556434 159.60125 
L 201.066598 160.232105 
L 200.530392 160.824051 
L 199.950604 161.373381 
L 199.33046 161.876708 
L 198.673571 162.331037 
L 197.983875 162.733823 
L 197.265558 163.083021 
L 196.522979 163.377117 
L 195.760578 163.615158 
L 194.982799 163.796753 
L 194.193994 163.92207 
L 193.398348 163.991816 
L 192.599799 164.007206 
L 191.801972 163.969917 
L 191.008124 163.882042 
L 190.221093 163.746031 
L 189.443268 163.564631 
L 188.676568 163.340825 
L 187.922431 163.077775 
L 187.181817 162.778763 
L 186.455219 162.447141 
L 185.742686 162.08629 
L 185.04385 161.699579 
L 184.357963 161.29034 
L 183.683937 160.861847 
L 183.020387 160.417303 
L 182.365678 159.959838 
L 181.717975 159.492508 
L 181.075287 159.018304 
L 180.435521 158.540165 
L 179.79653 158.06099 
L 179.156163 157.583656 
L 178.512311 157.111034 
L 177.862955 156.646002 
L 177.206215 156.191458 
L 176.540391 155.750328 
L 175.864007 155.325567 
L 175.17585 154.920157 
L 174.475007 154.537095 
L 173.760895 154.179378 
L 173.033287 153.849979 
L 172.292332 153.551812 
L 171.538565 153.287703 
L 170.772912 153.060343 
L 169.99668 152.872246 
L 169.211541 152.725703 
L 168.419509 152.622737 
L 167.622897 152.565057 
L 166.824276 152.554025 
L 166.026417 152.590619 
L 165.232233 152.675409 
L 164.44471 152.808544 
L 163.666839 152.989748 
L 162.901548 153.218322 
L 162.151629 153.493168 
L 161.419682 153.812808 
L 160.708046 154.175427 
L 160.01876 154.578914 
L 159.353512 155.020913 
L 158.713612 155.498872 
L 158.099968 156.010105 
L 157.513079 156.551841 
L 156.953026 157.121278 
L 156.419487 157.715629 
L 155.911749 158.332168 
L 155.428732 158.968259 
L 154.969012 159.621386 
L 154.53086 160.289174 
L 154.112271 160.969395 
L 153.711002 161.659975 
L 153.324609 162.358987 
L 152.950483 163.06464 
L 152.585888 163.775266 
L 152.227996 164.48929 
L 151.87392 165.205214 
L 151.52075 165.921586 
L 151.165586 166.636971 
L 150.80557 167.349927 
L 150.437916 168.058974 
L 150.059945 168.762576 
L 149.669116 169.459118 
L 149.263057 170.146891 
L 148.839591 170.824088 
L 148.396775 171.488791 
L 147.932917 172.138986 
L 147.44661 172.772566 
L 146.936749 173.387349 
L 146.402549 173.981107 
L 145.84356 174.551589 
L 145.259673 175.096559 
L 144.651115 175.613836 
L 144.01845 176.101332 
L 143.362556 176.557096 
L 142.684607 176.979355 
L 141.986042 177.366554 
L 141.268524 177.717391 
L 140.533908 178.030848 
L 139.784182 178.306218 
L 139.021426 178.543117 
L 138.247759 178.741502 
L 137.465285 178.901667 
L 136.67605 179.024245 
L 135.881991 179.110191 
L 135.084896 179.160767 
L 134.286375 179.177523 
L 133.487823 179.162267 
L 132.690407 179.117039 
L 131.895049 179.044083 
L 131.10242 178.945814 
L 130.312944 178.824797 
L 129.526806 178.683714 
L 128.743967 178.525346 
L 127.964186 178.352549 
L 127.187045 178.168241 
L 126.41198 177.975386 
L 125.638318 177.776983 
L 124.865307 177.576057 
L 124.09216 177.375653 
L 123.318094 177.17883 
L 122.542368 176.988655 
L 121.764325 176.808192 
L 120.983431 176.640499 
L 120.199308 176.488614 
L 119.411775 176.355539 
L 118.620872 176.244225 
L 117.826892 176.15755 
L 117.030396 176.098294 
L 116.232232 176.069107 
L 115.433542 176.072484 
L 114.63576 176.110723 
L 113.840608 176.185897 
L 113.050077 176.299815 
L 112.266402 176.453991 
L 111.492031 176.649613 
L 110.729587 176.887515 
L 109.98182 177.168159 
L 109.251554 177.491622 
L 108.541634 177.85759 
L 107.854873 178.265359 
L 107.193986 178.713852 
L 106.561542 179.201636 
L 105.959912 179.726953 
L 105.391218 180.28776 
L 104.857294 180.881765 
L 104.359656 181.506484 
L 103.899475 182.159287 
L 103.477565 182.837453 
L 103.094371 183.538224 
L 102.749974 184.258855 
L 102.444102 184.996662 
L 102.176144 185.749069 
L 101.945171 186.51364 
L 101.749967 187.288116 
L 101.589058 188.070436 
L 101.460741 188.858759 
L 101.36312 189.651468 
L 101.29414 190.447181 
L 101.251618 191.244745 
L 101.233271 192.043232 
L 101.236747 192.841922 
L 101.259653 193.640291 
L 101.29957 194.43799 
L 101.354083 195.234825 
L 101.420791 196.030732 
L 101.497326 196.825753 
L 101.581367 197.620017 
L 101.670649 198.413708 
L 101.762976 199.207052 
L 101.856229 200.000286 
L 101.948373 200.793651 
L 102.03747 201.587363 
L 102.12168 202.381608 
L 102.199274 203.176528 
L 102.268638 203.972207 
L 102.328282 204.768675 
L 102.376844 205.565894 
L 102.413099 206.363768 
L 102.435965 207.162138 
L 102.444506 207.96079 
L 102.437934 208.75946 
L 102.415618 209.557846 
L 102.377078 210.355613 
L 102.321991 211.152408 
L 102.250187 211.947871 
L 102.161642 212.741645 
L 102.056482 213.53339 
L 101.934969 214.322789 
L 101.797496 215.109567 
L 101.644579 215.893489 
L 101.476848 216.674375 
L 101.295035 217.452104 
L 101.099963 218.226613 
L 100.892536 218.997905 
L 100.673725 219.766045 
L 100.44456 220.53116 
L 100.206114 221.293434 
L 99.959498 222.053103 
L 99.705843 222.810452 
L 99.446295 223.565801 
L 99.182001 224.319503 
L 98.914102 225.07193 
L 98.643722 225.82347 
L 98.371959 226.574511 
L 98.099874 227.325435 
L 97.828486 228.076612 
L 97.558759 228.828386 
L 97.291594 229.581075 
L 97.027822 230.334959 
L 96.768193 231.090281 
L 96.513369 231.847237 
L 96.263915 232.605979 
L 96.020289 233.366613 
L 95.782836 234.129196 
L 95.551782 234.893743 
L 95.327224 235.660222 
L 95.109127 236.428566 
L 94.897319 237.198666 
L 94.691483 237.970384 
L 94.491162 238.743552 
L 94.295747 239.517975 
L 94.104488 240.293435 
L 93.916484 241.06969 
L 93.730695 241.846478 
L 93.545936 242.623512 
L 93.360892 243.400478 
L 93.174115 244.177029 
L 92.984037 244.952779 
L 92.78898 245.727292 
L 92.587162 246.50007 
L 92.376716 247.270544 
L 92.155699 248.038053 
L 91.922113 248.801829 
L 91.673921 249.560986 
L 91.409071 250.314492 
L 91.125518 251.061162 
L 90.821252 251.799633 
L 90.494327 252.528356 
L 90.142894 253.245581 
L 89.765235 253.949351 
L 89.3598 254.637493 
L 88.925245 255.307627 
L 88.460473 255.957169 
L 87.964671 256.583346 
L 87.43735 257.183221 
L 86.878377 257.753718 
L 86.288011 258.291663 
L 85.666925 258.793828 
L 85.016227 259.25698 
L 84.337471 259.677941 
L 83.632657 260.053645 
L 82.904219 260.381205 
L 82.155008 260.657975 
L 81.388259 260.881611 
L 80.607543 261.050132 
L 79.816714 261.161967 
L 79.019846 261.216 
L 78.221161 261.211604 
L 77.424948 261.148657 
L 76.635485 261.027554 
L 75.856957 260.849195 
L 75.093375 260.614973 
L 74.348502 260.326734 
L 73.625785 259.986739 
L 72.928294 259.597607 
L 72.258676 259.162257 
L 71.619117 258.683841 
L 71.011317 258.165674 
L 70.436479 257.611167 
L 69.895305 257.023758 
L 69.38801 256.406856 
L 68.914336 255.763777 
L 68.473587 255.097701 
L 68.064655 254.41163 
L 67.686064 253.708362 
L 67.336007 252.990464 
L 67.012392 252.260265 
L 66.712881 251.519853 
L 66.434936 250.771078 
L 66.175857 250.015568 
L 65.932818 249.254746 
L 65.702908 248.489855 
L 65.483155 247.721983 
L 65.270567 246.952098 
L 65.062149 246.181073 
L 64.854939 245.409722 
L 64.646027 244.638831 
L 64.43258 243.869183 
L 64.211866 243.101588 
L 63.981276 242.336901 
L 63.738347 241.576045 
L 63.480781 240.820017 
L 63.20647 240.069903 
L 62.913511 239.326874 
L 62.60023 238.592182 
L 62.265192 237.867153 
L 61.907221 237.153168 
L 61.525406 236.451645 
L 61.11911 235.764011 
L 60.68797 235.091675 
L 60.231897 234.435996 
L 59.751064 233.798252 
L 59.245898 233.179604 
L 58.71706 232.581066 
L 58.165423 232.003473 
L 57.592046 231.447455 
L 56.998146 230.913413 
L 56.385071 230.401499 
L 55.754262 229.911603 
L 55.10723 229.443343 
L 54.445522 228.996063 
L 53.770696 228.568831 
L 53.084299 228.160448 
L 52.387848 227.769458 
L 51.682817 227.394159 
L 50.970631 227.032624 
L 50.25266 226.682716 
L 49.530227 226.342115 
L 48.804617 226.008339 
L 48.077087 225.678767 
L 47.34889 225.350671 
L 46.621297 225.021238 
L 45.895622 224.687601 
L 45.17325 224.346874 
L 44.455663 223.996179 
L 43.744474 223.632684 
L 43.04145 223.253641 
L 42.348532 222.856423 
L 41.66786 222.438568 
L 41.00178 221.997825 
L 40.352854 221.532193 
L 39.723855 221.039976 
L 39.117756 220.519821 
L 38.537707 219.970767 
L 37.987004 219.392282 
L 37.469049 218.784302 
L 36.987295 218.147254 
L 36.545188 217.482078 
L 36.146102 216.790234 
L 35.793266 216.073698 
L 35.489689 215.334943 
L 35.238091 214.576909 
L 35.040831 213.802954 
L 34.899841 213.016799 
L 34.81658 212.222454 
L 34.791983 211.424135 
L 34.826438 210.626181 
L 34.919773 209.832956 
L 35.071255 209.048756 
L 35.279612 208.277714 
L 35.543065 207.523718 
L 35.859377 206.790326 
L 36.225909 206.080698 
L 36.639692 205.397543 
L 37.097495 204.74307 
L 37.595903 204.118966 
L 38.131397 203.526375 
L 38.700421 202.965903 
L 39.299452 202.437623 
L 39.92506 201.941104 
L 40.573958 201.475433 
L 41.24304 201.03926 
L 41.929413 200.630837 
L 42.630413 200.248062 
L 43.343611 199.888526 
L 44.066812 199.54956 
L 44.79804 199.228278 
L 45.535523 198.921623 
L 46.277657 198.626404 
L 47.022982 198.339335 
L 47.77014 198.057073 
L 48.517841 197.776251 
L 49.264817 197.493508 
L 50.009789 197.205525 
L 50.751424 196.909054 
L 51.488302 196.60095 
L 52.218886 196.278203 
L 52.941492 195.937972 
L 53.654277 195.577618 
L 54.35522 195.194738 
L 55.042119 194.787201 
L 55.712598 194.353178 
L 56.364116 193.89118 
L 56.993987 193.400079 
L 57.599412 192.87914 
L 58.177514 192.328036 
L 58.72538 191.746865 
L 59.240111 191.136152 
L 59.71887 190.49685 
L 60.158941 189.830326 
L 60.557778 189.138338 
L 60.913058 188.423011 
L 61.222731 187.686791 
L 61.485057 186.932402 
L 61.698647 186.162794 
L 61.862484 185.381081 
L 61.975944 184.590483 
L 62.038799 183.794263 
L 62.051221 182.995663 
L 62.013764 182.197844 
L 61.927347 181.403835 
L 61.793224 180.61648 
L 61.612952 179.838393 
L 61.388351 179.071926 
L 61.121461 178.31914 
L 60.814499 177.581785 
L 60.469813 176.861293 
L 60.089845 176.158768 
L 59.677082 175.474995 
L 59.234027 174.810451 
L 58.76316 174.165314 
L 58.266914 173.539489 
L 57.747648 172.932628 
L 57.20763 172.344156 
L 56.649022 171.773302 
L 56.073872 171.219119 
L 55.484103 170.680518 
L 54.881518 170.156296 
L 54.267795 169.645159 
L 53.644492 169.145747 
L 53.013054 168.656664 
L 52.374812 168.176492 
L 51.731 167.703815 
L 51.082754 167.237238 
L 50.431122 166.7754 
L 49.777074 166.316992 
L 49.121503 165.860764 
L 48.465232 165.405543 
L 47.809023 164.950234 
L 47.153573 164.493831 
L 46.499525 164.035422 
L 45.847464 163.574191 
L 45.197921 163.109422 
L 44.551371 162.640497 
L 43.908237 162.166897 
L 43.268888 161.688201 
L 42.633637 161.20408 
L 42.002741 160.714296 
L 41.376406 160.218694 
L 40.754779 159.717198 
L 40.137956 159.209806 
L 39.525979 158.696579 
L 38.91884 158.177638 
L 38.316483 157.653155 
L 37.718806 157.123344 
L 37.125668 156.588455 
L 36.536893 156.048769 
L 35.952273 155.504585 
L 35.371575 154.956216 
L 34.794552 154.403984 
L 34.220941 153.848206 
L 33.650479 153.289198 
L 33.082904 152.727259 
L 32.517966 152.162668 
L 31.955432 151.595682 
L 31.395096 151.026524 
L 30.836782 150.455382 
L 30.280356 149.8824 
L 29.725728 149.307679 
L 29.172859 148.731265 
L 28.621768 148.15315 
L 28.072539 147.573267 
L 27.525322 146.991484 
L 26.980339 146.407608 
L 26.437891 145.821377 
L 25.89836 145.232459 
L 25.362212 144.64046 
L 24.830005 144.044916 
L 24.302388 143.445301 
L 23.78011 142.84103 
L 23.264021 142.231465 
L 22.755074 141.615924 
L 22.254335 140.993688 
L 21.762984 140.364013 
L 21.282315 139.726145 
L 20.813746 139.079337 
L 20.358818 138.422863 
L 19.919198 137.756041 
L 19.496677 137.078256 
L 19.093171 136.38898 
L 18.71072 135.687803 
L 18.351475 134.974459 
L 18.017694 134.24885 
L 17.711728 133.511082 
L 17.436002 132.761487 
L 17.192994 132.000655 
L 16.985209 131.22946 
L 16.815146 130.449078 
L 16.685261 129.661012 
L 16.59793 128.867103 
L 16.555399 128.069539 
L 16.559734 127.270854 
L 16.612778 126.47392 
L 16.716092 125.681933 
L 16.870906 124.898383 
L 17.07807 124.12702 
L 17.338015 123.371808 
L 17.650707 122.636865 
L 18.015624 121.926405 
L 18.431734 121.244664 
L 18.897489 120.595827 
L 19.410829 119.983945 
L 19.969203 119.412862 
L 20.569598 118.886133 
L 21.208588 118.406958 
L 21.88239 117.978112 
L 22.586932 117.601897 
L 23.317932 117.280096 
L 24.070979 117.013943 
L 24.841621 116.804112 
L 25.625449 116.650711 
L 26.418183 116.5533 
L 27.215755 116.510914 
L 28.014374 116.522101 
L 28.810594 116.584968 
L 29.601361 116.697237 
L 30.384059 116.856302 
L 31.156531 117.059291 
L 31.917099 117.303123 
L 32.664564 117.58457 
L 33.398204 117.900308 
L 34.117749 118.246967 
L 34.823363 118.621168 
L 35.515609 119.019556 
L 36.19541 119.438827 
L 36.864008 119.875741 
L 37.522919 120.327132 
L 38.173884 120.789908 
L 38.818824 121.261045 
L 39.459785 121.737581 
L 40.098893 122.216598 
L 40.738305 122.695212 
L 41.380155 123.170549 
L 42.026515 123.639736 
L 42.679338 124.099888 
L 43.34042 124.548093 
L 44.011355 124.98141 
L 44.693492 125.396869 
L 45.387898 125.79148 
L 46.095325 126.162243 
L 46.816179 126.50617 
L 47.550503 126.820313 
L 48.297956 127.101796 
L 49.057805 127.347857 
L 49.828935 127.555887 
L 50.609852 127.723478 
L 51.398708 127.848467 
L 52.193337 127.928983 
L 52.991289 127.963485 
L 53.789885 127.950802 
L 54.586277 127.890155 
L 55.377506 127.781185 
L 56.160574 127.623954 
L 56.932514 127.418952 
L 57.690458 127.16708 
L 58.431701 126.869631 
L 59.153767 126.528255 
L 59.854461 126.144921 
L 60.531917 125.72187 
L 61.18463 125.261563 
L 61.81149 124.766624 
L 62.411792 124.23979 
L 62.985249 123.683854 
L 63.531979 123.101614 
L 64.052505 122.495833 
L 64.547725 121.869196 
L 65.018896 121.224281 
L 65.467598 120.563535 
L 65.895702 119.889262 
L 66.305337 119.203612 
L 66.698851 118.508584 
L 67.078776 117.806035 
L 67.447788 117.097693 
L 67.808673 116.385177 
L 68.164294 115.670019 
L 68.517553 114.953691 
L 68.871359 114.237634 
L 69.228596 113.523281 
L 69.592089 112.812092 
L 69.964574 112.105571 
L 70.348666 111.405292 
L 70.746826 110.712914 
L 71.16133 110.030196 
L 71.594243 109.359001 
L 72.047386 108.701293 
L 72.522311 108.059137 
L 73.020276 107.43468 
L 73.54223 106.830128 
L 74.088789 106.247727 
L 74.660234 105.689725 
L 75.256507 105.158333 
L 75.877208 104.655693 
L 76.521617 104.18383 
L 77.188702 103.744609 
L 77.877154 103.339701 
L 78.585417 102.970537 
L 79.311725 102.638281 
L 80.054152 102.343799 
L 80.810657 102.087638 
L 81.579133 101.870012 
L 82.357464 101.690795 
L 83.143568 101.549523 
L 83.935449 101.4454 
L 84.731239 101.377316 
L 85.529236 101.34386 
L 86.327933 101.343351 
L 87.126047 101.373861 
L 87.922534 101.433246 
L 88.716596 101.51917 
L 89.507686 101.629141 
L 90.295502 101.760533 
L 91.079972 101.910612 
L 91.861241 102.076555 
L 92.63964 102.255475 
L 93.415664 102.44443 
L 94.189937 102.640436 
L 94.963177 102.84048 
L 95.736157 103.041527 
L 96.509667 103.240523 
L 97.284475 103.434405 
L 98.061284 103.620107 
L 98.840695 103.794566 
L 99.623168 103.954733 
L 100.408986 104.097586 
L 101.198224 104.220146 
L 101.990719 104.319494 
L 102.786045 104.3928 
L 103.583499 104.437343 
L 104.382087 104.450549 
L 105.180521 104.430015 
L 105.97722 104.373552 
L 106.770326 104.279214 
L 107.557723 104.145336 
L 108.337064 103.970565 
L 109.105808 103.753884 
L 109.861263 103.494645 
L 110.600636 103.192576 
L 111.321083 102.847797 
L 112.019771 102.460817 
L 112.693927 102.032529 
L 113.340902 101.56419 
L 113.95822 101.057401 
L 114.543631 100.514067 
L 115.09515 99.936361 
L 115.6111 99.326678 
L 116.090133 98.687581 
L 116.531257 98.021753 
L 116.933842 97.33194 
L 117.297625 96.620899 
L 117.622704 95.89135 
L 117.909522 95.145929 
L 118.158853 94.387146 
L 118.371772 93.617352 
L 118.549629 92.838709 
L 118.694017 92.053172 
L 118.806738 91.262468 
L 118.889773 90.468099 
L 118.945244 89.67133 
L 118.975389 88.873202 
L 118.982527 88.074537 
L 118.969035 87.275953 
L 118.937321 86.477886 
L 118.889804 85.680603 
L 118.828896 84.884232 
L 118.756981 84.088778 
L 118.676406 83.294156 
L 118.589465 82.500204 
L 118.498391 81.706717 
L 118.405341 80.913458 
L 118.312394 80.120187 
L 118.221537 79.326675 
L 118.13466 78.532716 
L 118.053549 77.738148 
L 117.979876 76.942856 
L 117.915194 76.146782 
L 117.860929 75.34993 
L 117.818376 74.552367 
L 117.788689 73.754222 
L 117.772878 72.955681 
L 117.771805 72.156984 
L 117.786179 71.358416 
L 117.816557 70.560297 
L 117.86334 69.762971 
L 117.926773 68.966796 
L 118.006954 68.172134 
L 118.103831 67.379334 
L 118.217209 66.588724 
L 118.346759 65.800604 
L 118.492026 65.015228 
L 118.652435 64.232805 
L 118.827304 63.453486 
L 119.015855 62.677363 
L 119.217222 61.904467 
L 119.430467 61.134763 
L 119.654587 60.368155 
L 119.888529 59.604487 
L 120.1312 58.843548 
L 120.381478 58.085077 
L 120.638223 57.32877 
L 120.638223 57.32877 
L 120.638223 57.32877 
L 120.381478 57.32877 
L 120.1312 57.32877 
L 119.888529 57.32877 
L 119.654587 57.32877 
L 119.430467 57.32877 
L 119.217222 57.32877 
L 119.015855 57.32877 
L 118.827304 57.32877 
L 118.652435 57.32877 
L 118.492026 57.32877 
L 118.346759 57.32877 
L 118.217209 57.32877 
L 118.103831 57.32877 
L 118.006954 57.32877 
L 117.926773 57.32877 
L 117.86334 57.32877 
L 117.816557 57.32877 
L 117.786179 57.32877 
L 117.771805 57.32877 
L 117.772878 57.32877 
L 117.788689 57.32877 
L 117.818376 57.32877 
L 117.860929 57.32877 
L 117.915194 57.32877 
L 117.979876 57.32877 
L 118.053549 57.32877 
L 118.13466 57.32877 
L 118.221537 57.32877 
L 118.312394 57.32877 
L 118.405341 57.32877 
L 118.498391 57.32877 
L 118.589465 57.32877 
L 118.676406 57.32877 
L 118.756981 57.32877 
L 118.828896 57.32877 
L 118.889804 57.32877 
L 118.937321 57.32877 
L 118.969035 57.32877 
L 118.982527 57.32877 
L 118.975389 57.32877 
L 118.945244 57.32877 
L 118.889773 57.32877 
L 118.806738 57.32877 
L 118.694017 57.32877 
L 118.549629 57.32877 
L 118.371772 57.32877 
L 118.158853 57.32877 
L 117.909522 57.32877 
L 117.622704 57.32877 
L 117.297625 57.32877 
L 116.933842 57.32877 
L 116.531257 57.32877 
L 116.090133 57.32877 
L 115.6111 57.32877 
L 115.09515 57.32877 
L 114.543631 57.32877 
L 113.95822 57.32877 
L 113.340902 57.32877 
L 112.693927 57.32877 
L 112.019771 57.32877 
L 111.321083 57.32877 
L 110.600636 57.32877 
L 109.861263 57.32877 
L 109.105808 57.32877 
L 108.337064 57.32877 
L 107.557723 57.32877 
L 106.770326 57.32877 
L 105.97722 57.32877 
L 105.180521 57.32877 
L 104.382087 57.32877 
L 103.583499 57.32877 
L 102.786045 57.32877 
L 101.990719 57.32877 
L 101.198224 57.32877 
L 100.408986 57.32877 
L 99.623168 57.32877 
L 98.840695 57.32877 
L 98.061284 57.32877 
L 97.284475 57.32877 
L 96.509667 57.32877 
L 95.736157 57.32877 
L 94.963177 57.32877 
L 94.189937 57.32877 
L 93.415664 57.32877 
L 92.63964 57.32877 
L 91.861241 57.32877 
L 91.079972 57.32877 
L 90.295502 57.32877 
L 89.507686 57.32877 
L 88.716596 57.32877 
L 87.922534 57.32877 
L 87.126047 57.32877 
L 86.327933 57.32877 
L 85.529236 57.32877 
L 84.731239 57.32877 
L 83.935449 57.32877 
L 83.143568 57.32877 
L 82.357464 57.32877 
L 81.579133 57.32877 
L 80.810657 57.32877 
L 80.054152 57.32877 
L 79.311725 57.32877 
L 78.585417 57.32877 
L 77.877154 57.32877 
L 77.188702 57.32877 
L 76.521617 57.32877 
L 75.877208 57.32877 
L 75.256507 57.32877 
L 74.660234 57.32877 
L 74.088789 57.32877 
L 73.54223 57.32877 
L 73.020276 57.32877 
L 72.522311 57.32877 
L 72.047386 57.32877 
L 71.594243 57.32877 
L 71.16133 57.32877 
L 70.746826 57.32877 
L 70.348666 57.32877 
L 69.964574 57.32877 
L 69.592089 57.32877 
L 69.228596 57.32877 
L 68.871359 57.32877 
L 68.517553 57.32877 
L 68.164294 57.32877 
L 67.808673 57.32877 
L 67.447788 57.32877 
L 67.078776 57.32877 
L 66.698851 57.32877 
L 66.305337 57.32877 
L 65.895702 57.32877 
L 65.467598 57.32877 
L 65.018896 57.32877 
L 64.547725 57.32877 
L 64.052505 57.32877 
L 63.531979 57.32877 
L 62.985249 57.32877 
L 62.411792 57.32877 
L 61.81149 57.32877 
L 61.18463 57.32877 
L 60.531917 57.32877 
L 59.854461 57.32877 
L 59.153767 57.32877 
L 58.431701 57.32877 
L 57.690458 57.32877 
L 56.932514 57.32877 
L 56.160574 57.32877 
L 55.377506 57.32877 
L 54.586277 57.32877 
L 53.789885 57.32877 
L 52.991289 57.32877 
L 52.193337 57.32877 
L 51.398708 57.32877 
L 50.609852 57.32877 
L 49.828935 57.32877 
L 49.057805 57.32877 
L 48.297956 57.32877 
L 47.550503 57.32877 
L 46.816179 57.32877 
L 46.095325 57.32877 
L 45.387898 57.32877 
L 44.693492 57.32877 
L 44.011355 57.32877 
L 43.34042 57.32877 
L 42.679338 57.32877 
L 42.026515 57.32877 
L 41.380155 57.32877 
L 40.738305 57.32877 
L 40.098893 57.32877 
L 39.459785 57.32877 
L 38.818824 57.32877 
L 38.173884 57.32877 
L 37.522919 57.32877 
L 36.864008 57.32877 
L 36.19541 57.32877 
L 35.515609 57.32877 
L 34.823363 57.32877 
L 34.117749 57.32877 
L 33.398204 57.32877 
L 32.664564 57.32877 
L 31.917099 57.32877 
L 31.156531 57.32877 
L 30.384059 57.32877 
L 29.601361 57.32877 
L 28.810594 57.32877 
L 28.014374 57.32877 
L 27.215755 57.32877 
L 26.418183 57.32877 
L 25.625449 57.32877 
L 24.841621 57.32877 
L 24.070979 57.32877 
L 23.317932 57.32877 
L 22.586932 57.32877 
L 21.88239 57.32877 
L 21.208588 57.32877 
L 20.569598 57.32877 
L 19.969203 57.32877 
L 19.410829 57.32877 
L 18.897489 57.32877 
L 18.431734 57.32877 
L 18.015624 57.32877 
L 17.650707 57.32877 
L 17.338015 57.32877 
L 17.07807 57.32877 
L 16.870906 57.32877 
L 16.716092 57.32877 
L 16.612778 57.32877 
L 16.559734 57.32877 
L 16.555399 57.32877 
L 16.59793 57.32877 
L 16.685261 57.32877 
L 16.815146 57.32877 
L 16.985209 57.32877 
L 17.192994 57.32877 
L 17.436002 57.32877 
L 17.711728 57.32877 
L 18.017694 57.32877 
L 18.351475 57.32877 
L 18.71072 57.32877 
L 19.093171 57.32877 
L 19.496677 57.32877 
L 19.919198 57.32877 
L 20.358818 57.32877 
L 20.813746 57.32877 
L 21.282315 57.32877 
L 21.762984 57.32877 
L 22.254335 57.32877 
L 22.755074 57.32877 
L 23.264021 57.32877 
L 23.78011 57.32877 
L 24.302388 57.32877 
L 24.830005 57.32877 
L 25.362212 57.32877 
L 25.89836 57.32877 
L 26.437891 57.32877 
L 26.980339 57.32877 
L 27.525322 57.32877 
L 28.072539 57.32877 
L 28.621768 57.32877 
L 29.172859 57.32877 
L 29.725728 57.32877 
L 30.280356 57.32877 
L 30.836782 57.32877 
L 31.395096 57.32877 
L 31.955432 57.32877 
L 32.517966 57.32877 
L 33.082904 57.32877 
L 33.650479 57.32877 
L 34.220941 57.32877 
L 34.794552 57.32877 
L 35.371575 57.32877 
L 35.952273 57.32877 
L 36.536893 57.32877 
L 37.125668 57.32877 
L 37.718806 57.32877 
L 38.316483 57.32877 
L 38.91884 57.32877 
L 39.525979 57.32877 
L 40.137956 57.32877 
L 40.754779 57.32877 
L 41.376406 57.32877 
L 42.002741 57.32877 
L 42.633637 57.32877 
L 43.268888 57.32877 
L 43.908237 57.32877 
L 44.551371 57.32877 
L 45.197921 57.32877 
L 45.847464 57.32877 
L 46.499525 57.32877 
L 47.153573 57.32877 
L 47.809023 57.32877 
L 48.465232 57.32877 
L 49.121503 57.32877 
L 49.777074 57.32877 
L 50.431122 57.32877 
L 51.082754 57.32877 
L 51.731 57.32877 
L 52.374812 57.32877 
L 53.013054 57.32877 
L 53.644492 57.32877 
L 54.267795 57.32877 
L 54.881518 57.32877 
L 55.484103 57.32877 
L 56.073872 57.32877 
L 56.649022 57.32877 
L 57.20763 57.32877 
L 57.747648 57.32877 
L 58.266914 57.32877 
L 58.76316 57.32877 
L 59.234027 57.32877 
L 59.677082 57.32877 
L 60.089845 57.32877 
L 60.469813 57.32877 
L 60.814499 57.32877 
L 61.121461 57.32877 
L 61.388351 57.32877 
L 61.612952 57.32877 
L 61.793224 57.32877 
L 61.927347 57.32877 
L 62.013764 57.32877 
L 62.051221 57.32877 
L 62.038799 57.32877 
L 61.975944 57.32877 
L 61.862484 57.32877 
L 61.698647 57.32877 
L 61.485057 57.32877 
L 61.222731 57.32877 
L 60.913058 57.32877 
L 60.557778 57.32877 
L 60.158941 57.32877 
L 59.71887 57.32877 
L 59.240111 57.32877 
L 58.72538 57.32877 
L 58.177514 57.32877 
L 57.599412 57.32877 
L 56.993987 57.32877 
L 56.364116 57.32877 
L 55.712598 57.32877 
L 55.042119 57.32877 
L 54.35522 57.32877 
L 53.654277 57.32877 
L 52.941492 57.32877 
L 52.218886 57.32877 
L 51.488302 57.32877 
L 50.751424 57.32877 
L 50.009789 57.32877 
L 49.264817 57.32877 
L 48.517841 57.32877 
L 47.77014 57.32877 
L 47.022982 57.32877 
L 46.277657 57.32877 
L 45.535523 57.32877 
L 44.79804 57.32877 
L 44.066812 57.32877 
L 43.343611 57.32877 
L 42.630413 57.32877 
L 41.929413 57.32877 
L 41.24304 57.32877 
L 40.573958 57.32877 
L 39.92506 57.32877 
L 39.299452 57.32877 
L 38.700421 57.32877 
L 38.131397 57.32877 
L 37.595903 57.32877 
L 37.097495 57.32877 
L 36.639692 57.32877 
L 36.225909 57.32877 
L 35.859377 57.32877 
L 35.543065 57.32877 
L 35.279612 57.32877 
L 35.071255 57.32877 
L 34.919773 57.32877 
L 34.826438 57.32877 
L 34.791983 57.32877 
L 34.81658 57.32877 
L 34.899841 57.32877 
L 35.040831 57.32877 
L 35.238091 57.32877 
L 35.489689 57.32877 
L 35.793266 57.32877 
L 36.146102 57.32877 
L 36.545188 57.32877 
L 36.987295 57.32877 
L 37.469049 57.32877 
L 37.987004 57.32877 
L 38.537707 57.32877 
L 39.117756 57.32877 
L 39.723855 57.32877 
L 40.352854 57.32877 
L 41.00178 57.32877 
L 41.66786 57.32877 
L 42.348532 57.32877 
L 43.04145 57.32877 
L 43.744474 57.32877 
L 44.455663 57.32877 
L 45.17325 57.32877 
L 45.895622 57.32877 
L 46.621297 57.32877 
L 47.34889 57.32877 
L 48.077087 57.32877 
L 48.804617 57.32877 
L 49.530227 57.32877 
L 50.25266 57.32877 
L 50.970631 57.32877 
L 51.682817 57.32877 
L 52.387848 57.32877 
L 53.084299 57.32877 
L 53.770696 57.32877 
L 54.445522 57.32877 
L 55.10723 57.32877 
L 55.754262 57.32877 
L 56.385071 57.32877 
L 56.998146 57.32877 
L 57.592046 57.32877 
L 58.165423 57.32877 
L 58.71706 57.32877 
L 59.245898 57.32877 
L 59.751064 57.32877 
L 60.231897 57.32877 
L 60.68797 57.32877 
L 61.11911 57.32877 
L 61.525406 57.32877 
L 61.907221 57.32877 
L 62.265192 57.32877 
L 62.60023 57.32877 
L 62.913511 57.32877 
L 63.20647 57.32877 
L 63.480781 57.32877 
L 63.738347 57.32877 
L 63.981276 57.32877 
L 64.211866 57.32877 
L 64.43258 57.32877 
L 64.646027 57.32877 
L 64.854939 57.32877 
L 65.062149 57.32877 
L 65.270567 57.32877 
L 65.483155 57.32877 
L 65.702908 57.32877 
L 65.932818 57.32877 
L 66.175857 57.32877 
L 66.434936 57.32877 
L 66.712881 57.32877 
L 67.012392 57.32877 
L 67.336007 57.32877 
L 67.686064 57.32877 
L 68.064655 57.32877 
L 68.473587 57.32877 
L 68.914336 57.32877 
L 69.38801 57.32877 
L 69.895305 57.32877 
L 70.436479 57.32877 
L 71.011317 57.32877 
L 71.619117 57.32877 
L 72.258676 57.32877 
L 72.928294 57.32877 
L 73.625785 57.32877 
L 74.348502 57.32877 
L 75.093375 57.32877 
L 75.856957 57.32877 
L 76.635485 57.32877 
L 77.424948 57.32877 
L 78.221161 57.32877 
L 79.019846 57.32877 
L 79.816714 57.32877 
L 80.607543 57.32877 
L 81.388259 57.32877 
L 82.155008 57.32877 
L 82.904219 57.32877 
L 83.632657 57.32877 
L 84.337471 57.32877 
L 85.016227 57.32877 
L 85.666925 57.32877 
L 86.288011 57.32877 
L 86.878377 57.32877 
L 87.43735 57.32877 
L 87.964671 57.32877 
L 88.460473 57.32877 
L 88.925245 57.32877 
L 89.3598 57.32877 
L 89.765235 57.32877 
L 90.142894 57.32877 
L 90.494327 57.32877 
L 90.821252 57.32877 
L 91.125518 57.32877 
L 91.409071 57.32877 
L 91.673921 57.32877 
L 91.922113 57.32877 
L 92.155699 57.32877 
L 92.376716 57.32877 
L 92.587162 57.32877 
L 92.78898 57.32877 
L 92.984037 57.32877 
L 93.174115 57.32877 
L 93.360892 57.32877 
L 93.545936 57.32877 
L 93.730695 57.32877 
L 93.916484 57.32877 
L 94.104488 57.32877 
L 94.295747 57.32877 
L 94.491162 57.32877 
L 94.691483 57.32877 
L 94.897319 57.32877 
L 95.109127 57.32877 
L 95.327224 57.32877 
L 95.551782 57.32877 
L 95.782836 57.32877 
L 96.020289 57.32877 
L 96.263915 57.32877 
L 96.513369 57.32877 
L 96.768193 57.32877 
L 97.027822 57.32877 
L 97.291594 57.32877 
L 97.558759 57.32877 
L 97.828486 57.32877 
L 98.099874 57.32877 
L 98.371959 57.32877 
L 98.643722 57.32877 
L 98.914102 57.32877 
L 99.182001 57.32877 
L 99.446295 57.32877 
L 99.705843 57.32877 
L 99.959498 57.32877 
L 100.206114 57.32877 
L 100.44456 57.32877 
L 100.673725 57.32877 
L 100.892536 57.32877 
L 101.099963 57.32877 
L 101.295035 57.32877 
L 101.476848 57.32877 
L 101.644579 57.32877 
L 101.797496 57.32877 
L 101.934969 57.32877 
L 102.056482 57.32877 
L 102.161642 57.32877 
L 102.250187 57.32877 
L 102.321991 57.32877 
L 102.377078 57.32877 
L 102.415618 57.32877 
L 102.437934 57.32877 
L 102.444506 57.32877 
L 102.435965 57.32877 
L 102.413099 57.32877 
L 102.376844 57.32877 
L 102.328282 57.32877 
L 102.268638 57.32877 
L 102.199274 57.32877 
L 102.12168 57.32877 
L 102.03747 57.32877 
L 101.948373 57.32877 
L 101.856229 57.32877 
L 101.762976 57.32877 
L 101.670649 57.32877 
L 101.581367 57.32877 
L 101.497326 57.32877 
L 101.420791 57.32877 
L 101.354083 57.32877 
L 101.29957 57.32877 
L 101.259653 57.32877 
L 101.236747 57.32877 
L 101.233271 57.32877 
L 101.251618 57.32877 
L 101.29414 57.32877 
L 101.36312 57.32877 
L 101.460741 57.32877 
L 101.589058 57.32877 
L 101.749967 57.32877 
L 101.945171 57.32877 
L 102.176144 57.32877 
L 102.444102 57.32877 
L 102.749974 57.32877 
L 103.094371 57.32877 
L 103.477565 57.32877 
L 103.899475 57.32877 
L 104.359656 57.32877 
L 104.857294 57.32877 
L 105.391218 57.32877 
L 105.959912 57.32877 
L 106.561542 57.32877 
L 107.193986 57.32877 
L 107.854873 57.32877 
L 108.541634 57.32877 
L 109.251554 57.32877 
L 109.98182 57.32877 
L 110.729587 57.32877 
L 111.492031 57.32877 
L 112.266402 57.32877 
L 113.050077 57.32877 
L 113.840608 57.32877 
L 114.63576 57.32877 
L 115.433542 57.32877 
L 116.232232 57.32877 
L 117.030396 57.32877 
L 117.826892 57.32877 
L 118.620872 57.32877 
L 119.411775 57.32877 
L 120.199308 57.32877 
L 120.983431 57.32877 
L 121.764325 57.32877 
L 122.542368 57.32877 
L 123.318094 57.32877 
L 124.09216 57.32877 
L 124.865307 57.32877 
L 125.638318 57.32877 
L 126.41198 57.32877 
L 127.187045 57.32877 
L 127.964186 57.32877 
L 128.743967 57.32877 
L 129.526806 57.32877 
L 130.312944 57.32877 
L 131.10242 57.32877 
L 131.895049 57.32877 
L 132.690407 57.32877 
L 133.487823 57.32877 
L 134.286375 57.32877 
L 135.084896 57.32877 
L 135.881991 57.32877 
L 136.67605 57.32877 
L 137.465285 57.32877 
L 138.247759 57.32877 
L 139.021426 57.32877 
L 139.784182 57.32877 
L 140.533908 57.32877 
L 141.268524 57.32877 
L 141.986042 57.32877 
L 142.684607 57.32877 
L 143.362556 57.32877 
L 144.01845 57.32877 
L 144.651115 57.32877 
L 145.259673 57.32877 
L 145.84356 57.32877 
L 146.402549 57.32877 
L 146.936749 57.32877 
L 147.44661 57.32877 
L 147.932917 57.32877 
L 148.396775 57.32877 
L 148.839591 57.32877 
L 149.263057 57.32877 
L 149.669116 57.32877 
L 150.059945 57.32877 
L 150.437916 57.32877 
L 150.80557 57.32877 
L 151.165586 57.32877 
L 151.52075 57.32877 
L 151.87392 57.32877 
L 152.227996 57.32877 
L 152.585888 57.32877 
L 152.950483 57.32877 
L 153.324609 57.32877 
L 153.711002 57.32877 
L 154.112271 57.32877 
L 154.53086 57.32877 
L 154.969012 57.32877 
L 155.428732 57.32877 
L 155.911749 57.32877 
L 156.419487 57.32877 
L 156.953026 57.32877 
L 157.513079 57.32877 
L 158.099968 57.32877 
L 158.713612 57.32877 
L 159.353512 57.32877 
L 160.01876 57.32877 
L 160.708046 57.32877 
L 161.419682 57.32877 
L 162.151629 57.32877 
L 162.901548 57.32877 
L 163.666839 57.32877 
L 164.44471 57.32877 
L 165.232233 57.32877 
L 166.026417 57.32877 
L 166.824276 57.32877 
L 167.622897 57.32877 
L 168.419509 57.32877 
L 169.211541 57.32877 
L 169.99668 57.32877 
L 170.772912 57.32877 
L 171.538565 57.32877 
L 172.292332 57.32877 
L 173.033287 57.32877 
L 173.760895 57.32877 
L 174.475007 57.32877 
L 175.17585 57.32877 
L 175.864007 57.32877 
L 176.540391 57.32877 
L 177.206215 57.32877 
L 177.862955 57.32877 
L 178.512311 57.32877 
L 179.156163 57.32877 
L 179.79653 57.32877 
L 180.435521 57.32877 
L 181.075287 57.32877 
L 181.717975 57.32877 
L 182.365678 57.32877 
L 183.020387 57.32877 
L 183.683937 57.32877 
L 184.357963 57.32877 
L 185.04385 57.32877 
L 185.742686 57.32877 
L 186.455219 57.32877 
L 187.181817 57.32877 
L 187.922431 57.32877 
L 188.676568 57.32877 
L 189.443268 57.32877 
L 190.221093 57.32877 
L 191.008124 57.32877 
L 191.801972 57.32877 
L 192.599799 57.32877 
L 193.398348 57.32877 
L 194.193994 57.32877 
L 194.982799 57.32877 
L 195.760578 57.32877 
L 196.522979 57.32877 
L 197.265558 57.32877 
L 197.983875 57.32877 
L 198.673571 57.32877 
L 199.33046 57.32877 
L 199.950604 57.32877 
L 200.530392 57.32877 
L 201.066598 57.32877 
L 201.556434 57.32877 
L 201.997593 57.32877 
L 202.388267 57.32877 
L 202.727168 57.32877 
L 203.013521 57.32877 
L 203.24705 57.32877 
L 203.427958 57.32877 
L 203.556891 57.32877 
L 203.634894 57.32877 
L 203.66337 57.32877 
L 203.644026 57.32877 
L 203.578824 57.32877 
L 203.469927 57.32877 
L 203.31965 57.32877 
L 203.130415 57.32877 
L 202.904705 57.32877 
L 202.645026 57.32877 
L 202.353873 57.32877 
L 202.0337 57.32877 
L 201.686899 57.32877 
L 201.315775 57.32877 
L 200.922534 57.32877 
L 200.509274 57.32877 
L 200.077971 57.32877 
L 199.630481 57.32877 
L 199.168532 57.32877 
L 198.693729 57.32877 
L 198.207549 57.32877 
L 197.711349 57.32877 
L 197.206366 57.32877 
L 196.693722 57.32877 
L 196.174426 57.32877 
L 195.649379 57.32877 
L 195.119379 57.32877 
L 194.585127 57.32877 
L 194.047223 57.32877 
L 193.506181 57.32877 
L 192.962423 57.32877 
L 192.41629 57.32877 
L 191.868044 57.32877 
L 191.317869 57.32877 
L 190.765884 57.32877 
L 190.212136 57.32877 
L 189.656617 57.32877 
L 189.099261 57.32877 
L 188.539956 57.32877 
L 187.978545 57.32877 
L 187.414837 57.32877 
L 186.84861 57.32877 
L 186.279624 57.32877 
L 185.707621 57.32877 
L 185.132336 57.32877 
L 184.553508 57.32877 
L 183.970879 57.32877 
L 183.384209 57.32877 
L 182.793277 57.32877 
L 182.19789 57.32877 
L 181.597888 57.32877 
L 180.993149 57.32877 
L 180.383596 57.32877 
L 179.769194 57.32877 
L 179.14996 57.32877 
L 178.525964 57.32877 
L 177.897327 57.32877 
L 177.264224 57.32877 
L 176.626888 57.32877 
L 175.985604 57.32877 
L 175.340713 57.32877 
L 174.69261 57.32877 
L 174.041745 57.32877 
L 173.388621 57.32877 
L 172.733796 57.32877 
L 172.077882 57.32877 
L 171.421551 57.32877 
L 170.765531 57.32877 
L 170.110614 57.32877 
L 169.457658 57.32877 
L 168.807593 57.32877 
L 168.161428 57.32877 
L 167.520253 57.32877 
L 166.885253 57.32877 
L 166.257709 57.32877 
L 165.639008 57.32877 
L 165.030652 57.32877 
L 164.434258 57.32877 
L 163.851565 57.32877 
L 163.284438 57.32877 
L 162.734862 57.32877 
L 162.204943 57.32877 
L 161.696897 57.32877 
L 161.213041 57.32877 
L 160.755772 57.32877 
L 160.327551 57.32877 
L 159.930872 57.32877 
L 159.568236 57.32877 
L 159.242112 57.32877 
L 158.954899 57.32877 
L 158.708887 57.32877 
L 158.506208 57.32877 
L 158.348799 57.32877 
L 158.238352 57.32877 
L 158.176279 57.32877 
L 158.163668 57.32877 
L 158.201261 57.32877 
L 158.289422 57.32877 
L 158.428124 57.32877 
L 158.61694 57.32877 
L 158.855049 57.32877 
L 159.141245 57.32877 
L 159.473959 57.32877 
L 159.851292 57.32877 
L 160.271052 57.32877 
L 160.730797 57.32877 
L 161.22789 57.32877 
L 161.759548 57.32877 
L 162.322897 57.32877 
L 162.915023 57.32877 
L 163.533027 57.32877 
L 164.174065 57.32877 
L 164.835391 57.32877 
L 165.514388 57.32877 
L 166.208595 57.32877 
L 166.915723 57.32877 
L 167.63366 57.32877 
L 168.360475 57.32877 
L 169.094406 57.32877 
L 169.833847 57.32877 
L 170.577321 57.32877 
L 171.323458 57.32877 
L 172.070955 57.32877 
L 172.818544 57.32877 
L 173.56495 57.32877 
L 174.308854 57.32877 
L 175.048853 57.32877 
L 175.783419 57.32877 
L 176.510868 57.32877 
L 177.229327 57.32877 
L 177.936715 57.32877 
L 178.63072 57.32877 
L 179.308795 57.32877 
L 179.96816 57.32877 
L 180.605814 57.32877 
L 181.218554 57.32877 
L 181.803017 57.32877 
L 182.35572 57.32877 
L 182.873115 57.32877 
L 183.351656 57.32877 
L 183.787866 57.32877 
L 184.178413 57.32877 
L 184.520187 57.32877 
L 184.810376 57.32877 
L 185.046533 57.32877 
L 185.226644 57.32877 
L 185.349178 57.32877 
L 185.41313 57.32877 
L 185.418046 57.32877 
L 185.364034 57.32877 
L 185.251758 57.32877 
L 185.08242 57.32877 
L 184.857721 57.32877 
L 184.579814 57.32877 
L 184.251248 57.32877 
L 183.874895 57.32877 
L 183.453885 57.32877 
L 182.991526 57.32877 
L 182.491239 57.32877 
L 181.956481 57.32877 
L 181.390685 57.32877 
L 180.797207 57.32877 
L 180.179275 57.32877 
L 179.539953 57.32877 
L 178.882116 57.32877 
L 178.208434 57.32877 
L 177.521358 57.32877 
L 176.823132 57.32877 
L 176.115794 57.32877 
L 175.401196 57.32877 
L 174.681024 57.32877 
L 173.956821 57.32877 
L 173.230019 57.32877 
L 172.501964 57.32877 
L 171.773943 57.32877 
L 171.047217 57.32877 
L 170.323036 57.32877 
L 169.602672 57.32877 
L 168.887426 57.32877 
L 168.178642 57.32877 
L 167.47772 57.32877 
L 166.786109 57.32877 
L 166.105305 57.32877 
L 165.436843 57.32877 
L 164.782279 57.32877 
L 164.143167 57.32877 
L 163.52104 57.32877 
L 162.917377 57.32877 
L 162.333578 57.32877 
L 161.770928 57.32877 
L 161.230568 57.32877 
L 160.71347 57.32877 
L 160.220403 57.32877 
L 159.751912 57.32877 
L 159.3083 57.32877 
L 158.88961 57.32877 
L 158.495617 57.32877 
L 158.125821 57.32877 
L 157.779447 57.32877 
L 157.455451 57.32877 
L 157.152525 57.32877 
L 156.869114 57.32877 
L 156.603427 57.32877 
L 156.353455 57.32877 
L 156.116994 57.32877 
L 155.89166 57.32877 
L 155.674913 57.32877 
L 155.464082 57.32877 
L 155.25638 57.32877 
L 155.048934 57.32877 
L 154.838804 57.32877 
L 154.623008 57.32877 
L 154.39855 57.32877 
L 154.162444 57.32877 
L 153.911745 57.32877 
L 153.643579 57.32877 
L 153.355179 57.32877 
L 153.043922 57.32877 
L 152.707363 57.32877 
L 152.343284 57.32877 
L 151.949729 57.32877 
L 151.525051 57.32877 
L 151.067953 57.32877 
L 150.577529 57.32877 
L 150.053297 57.32877 
L 149.495234 57.32877 
L 148.903796 57.32877 
L 148.279936 57.32877 
L 147.625104 57.32877 
L 146.941247 57.32877 
L 146.230784 57.32877 
L 145.49658 57.32877 
L 144.741901 57.32877 
L 143.970358 57.32877 
L 143.185849 57.32877 
L 142.39248 57.32877 
L 141.594493 57.32877 
L 140.796183 57.32877 
L 140.001815 57.32877 
L 139.215545 57.32877 
L 138.441347 57.32877 
L 137.68294 57.32877 
L 136.943735 57.32877 
L 136.226778 57.32877 
L 135.534715 57.32877 
L 134.869766 57.32877 
L 134.233708 57.32877 
L 133.627871 57.32877 
L 133.053143 57.32877 
L 132.509989 57.32877 
L 131.998467 57.32877 
L 131.518263 57.32877 
L 131.06872 57.32877 
L 130.648878 57.32877 
L 130.257513 57.32877 
L 129.893172 57.32877 
L 129.554216 57.32877 
L 129.238859 57.32877 
L 128.945198 57.32877 
L 128.67125 57.32877 
L 128.414986 57.32877 
L 128.174353 57.32877 
L 127.947305 57.32877 
L 127.73182 57.32877 
L 127.525926 57.32877 
L 127.327717 57.32877 
L 127.135366 57.32877 
L 126.947142 57.32877 
L 126.76142 57.32877 
L 126.576691 57.32877 
L 126.391574 57.32877 
L 126.204816 57.32877 
L 126.015306 57.32877 
L 125.822072 57.32877 
L 125.624289 57.32877 
L 125.421277 57.32877 
L 125.212504 57.32877 
L 124.997582 57.32877 
L 124.776267 57.32877 
L 124.548457 57.32877 
L 124.314183 57.32877 
L 124.073608 57.32877 
L 123.827017 57.32877 
L 123.574814 57.32877 
L 123.317511 57.32877 
L 123.055722 57.32877 
L 122.790155 57.32877 
L 122.5216 57.32877 
L 122.250925 57.32877 
L 121.979065 57.32877 
L 121.707011 57.32877 
L 121.435804 57.32877 
L 121.166525 57.32877 
L 120.900287 57.32877 
L 120.638223 57.32877 
z
"/>
   </g>
  </g>
 </g>
 <defs>
  <clipPath id="pd453da3ffa">
   <rect height="266.112" width="205.818768" x="7.2" y="7.2"/>
  </clipPath>
 </defs>
</svg>
