<?xml version="1.0" encoding="utf-8" standalone="no"?>
<!DOCTYPE svg PUBLIC "-//W3C//DTD SVG 1.1//EN"
  "http://www.w3.org/Graphics/SVG/1.1/DTD/svg11.dtd">
<svg height="280.512pt" version="1.1" viewBox="0 0 197.36765 280.512" width="197.36765pt" xmlns="http://www.w3.org/2000/svg" xmlns:xlink="http://www.w3.org/1999/xlink">
 <metadata>
  <rdf:RDF xmlns:cc="http://creativecommons.org/ns#" xmlns:dc="http://purl.org/dc/elements/1.1/" xmlns:rdf="http://www.w3.org/1999/02/22-rdf-syntax-ns#">
   <cc:Work>
    <dc:type rdf:resource="http://purl.org/dc/dcmitype/StillImage"/>
    <dc:date>2022-11-22T17:11:31.215617</dc:date>
    <dc:format>image/svg+xml</dc:format>
    <dc:creator>
     <cc:Agent>
      <dc:title>Matplotlib v3.4.2, https://matplotlib.org/</dc:title>
     </cc:Agent>
    </dc:creator>
   </cc:Work>
  </rdf:RDF>
 </metadata>
 <defs>
  <style type="text/css">*{stroke-linecap:butt;stroke-linejoin:round;}</style>
 </defs>
 <g id="figure_1">
  <g id="patch_1">
   <path d="M -0 280.512 
L 197.36765 280.512 
L 197.36765 0 
L -0 0 
z
" style="fill:none;"/>
  </g>
  <g id="axes_1">
   <g id="PolyCollection_1">
    <path clip-path="url(#p06a202522d)" d="M 76.066754 74.966079 
L 76.066754 74.966079 
L 74.811152 75.086507 
L 73.55432 75.193338 
L 72.295614 75.275176 
L 71.035071 75.320673 
L 69.773708 75.31861 
L 68.513801 75.258016 
L 67.25912 75.128344 
L 66.015132 74.919698 
L 64.78913 74.623119 
L 63.590289 74.230921 
L 62.429623 73.737063 
L 61.319842 73.137542 
L 60.275083 72.430776 
L 59.310531 71.617955 
L 58.441921 70.703321 
L 57.684954 69.694341 
L 57.054631 68.60176 
L 56.564566 67.439489 
L 56.226297 66.224329 
L 56.048664 64.975535 
L 56.037277 63.714223 
L 56.194139 62.46265 
L 56.517442 61.243423 
L 57.001551 60.078658 
L 57.637205 58.98917 
L 58.411888 57.993728 
L 59.310377 57.108427 
L 60.315404 56.34622 
L 61.408399 55.716616 
L 62.570257 55.225572 
L 63.782086 54.875556 
L 65.025882 54.665768 
L 66.285115 54.592492 
L 67.545189 54.649532 
L 68.793762 54.82871 
L 70.020944 55.120366 
L 71.219363 55.513851 
L 72.384124 55.997971 
L 73.512678 56.561359 
L 74.604625 57.192777 
L 75.661472 57.881337 
L 76.686356 58.616627 
L 77.683763 59.388779 
L 78.659239 60.188458 
L 79.619111 61.006801 
L 80.570212 61.835321 
L 81.519627 62.665773 
L 82.474433 63.490021 
L 83.44146 64.299897 
L 84.42705 65.087076 
L 85.436821 65.842988 
L 86.475437 66.55875 
L 87.546387 67.225162 
L 88.651772 67.83275 
L 89.792121 68.371864 
L 90.966233 68.832841 
L 92.171068 69.206223 
L 93.401686 69.48302 
L 94.65127 69.655011 
L 95.911203 69.715066 
L 97.171251 69.657462 
L 98.41981 69.478185 
L 99.644239 69.175177 
L 100.831254 68.748523 
L 101.967374 68.200553 
L 103.039383 67.535846 
L 104.034798 66.761127 
L 104.942304 65.885072 
L 105.752142 64.918014 
L 106.45642 63.871576 
L 107.049329 62.758249 
L 107.527272 61.59094 
L 107.88888 60.38252 
L 108.13494 59.145389 
L 108.268243 57.891088 
L 108.293363 56.629974 
L 108.216389 55.370961 
L 108.044637 54.121345 
L 107.786362 52.886706 
L 107.450477 51.670885 
L 107.046307 50.476027 
L 106.583389 49.302678 
L 106.071313 48.149935 
L 105.519618 47.01562 
L 104.937737 45.896489 
L 104.334991 44.788456 
L 103.720615 43.686829 
L 103.10382 42.586555 
L 102.493869 41.482472 
L 101.900162 40.36957 
L 101.332316 39.243253 
L 100.80022 38.099612 
L 100.314064 36.9357 
L 99.884322 35.749799 
L 99.52168 34.541689 
L 99.236898 33.312894 
L 99.04061 32.066896 
L 98.943044 30.809311 
L 98.953683 29.547992 
L 99.080871 28.293056 
L 99.331371 27.056816 
L 99.709913 25.853593 
L 100.218748 24.699416 
L 100.857249 23.611595 
L 101.621586 22.608186 
L 102.504507 21.707359 
L 103.495263 20.926691 
L 104.579686 20.282435 
L 105.740444 19.788795 
L 106.957456 19.457253 
L 108.208471 19.296 
L 109.469763 19.309502 
L 110.716927 19.498238 
L 111.925711 19.858627 
L 113.072844 20.383149 
L 114.136811 21.060656 
L 115.098519 21.87684 
L 115.941842 22.814841 
L 116.653992 23.855937 
L 117.225725 24.980286 
L 117.651373 26.167663 
L 117.92872 27.398158 
L 118.058737 28.652803 
L 118.045217 29.914095 
L 117.894328 31.166401 
L 117.614129 32.39625 
L 117.214081 33.592494 
L 116.704559 34.746369 
L 116.096427 35.851455 
L 115.400644 36.90356 
L 114.627952 37.900548 
L 113.788626 38.842128 
L 112.892294 39.729612 
L 111.947819 40.565678 
L 110.963244 41.354127 
L 109.945784 42.099656 
L 108.901855 42.807647 
L 107.83714 43.483977 
L 106.756676 44.134851 
L 105.66495 44.766653 
L 104.56601 45.385822 
L 103.463568 45.998733 
L 102.361105 46.611608 
L 101.261966 47.230423 
L 100.169438 47.860837 
L 99.086819 48.508121 
L 98.017469 49.177098 
L 96.964838 49.872085 
L 95.932485 50.59685 
L 94.924069 51.354569 
L 93.943337 52.147792 
L 92.99408 52.978426 
L 92.080095 53.847719 
L 91.20512 54.756266 
L 90.372775 55.704022 
L 89.586493 56.690328 
L 88.849452 57.713954 
L 88.164513 58.773151 
L 87.534161 59.865714 
L 86.960456 60.989059 
L 86.444994 62.140292 
L 85.988881 63.316302 
L 85.59272 64.51384 
L 85.25661 65.729598 
L 84.980158 66.960295 
L 84.7625 68.202738 
L 84.602337 69.453892 
L 84.497972 70.710931 
L 84.447359 71.971279 
L 84.448152 73.232643 
L 84.497758 74.493031 
L 84.593391 75.750765 
L 84.732121 77.004477 
L 84.910926 78.253103 
L 85.126738 79.495868 
L 85.376484 80.73226 
L 85.657127 81.962008 
L 85.965698 83.185046 
L 86.299326 84.401489 
L 86.655265 85.611591 
L 87.030918 86.815719 
L 87.423854 88.014318 
L 87.831828 89.207883 
L 88.252793 90.396927 
L 88.684916 91.581963 
L 89.126585 92.763474 
L 89.576423 93.941898 
L 90.033293 95.117615 
L 90.496307 96.290925 
L 90.964829 97.462047 
L 91.438482 98.631103 
L 91.917146 99.798117 
L 92.400962 100.963003 
L 92.890328 102.12557 
L 93.385896 103.285506 
L 93.888562 104.442383 
L 94.399462 105.595649 
L 94.919955 106.744616 
L 95.451608 107.888462 
L 95.99618 109.026215 
L 96.555597 110.156742 
L 97.131926 111.278742 
L 97.727348 112.390728 
L 98.344122 113.491014 
L 98.98455 114.577702 
L 99.650935 115.648669 
L 100.345535 116.701555 
L 101.070521 117.733754 
L 101.82792 118.74241 
L 102.619565 119.724417 
L 103.447042 120.676426 
L 104.311634 121.59486 
L 105.214266 122.475936 
L 106.155458 123.315696 
L 107.135276 124.110048 
L 108.153292 124.854819 
L 109.208551 125.545808 
L 110.299552 126.178862 
L 111.424233 126.74994 
L 112.57998 127.255201 
L 113.76364 127.691078 
L 114.971557 128.054362 
L 116.199623 128.342276 
L 117.443336 128.552552 
L 118.697886 128.683484 
L 119.958239 128.733986 
L 121.219238 128.703621 
L 122.475708 128.59262 
L 123.722569 128.401891 
L 124.954938 128.132995 
L 126.168239 127.788117 
L 127.358295 127.370019 
L 128.521418 126.881979 
L 129.654481 126.327715 
L 130.754976 125.711313 
L 131.821054 125.037136 
L 132.851558 124.309742 
L 133.846023 123.533805 
L 134.80468 122.714039 
L 135.728429 121.855128 
L 136.61881 120.961674 
L 137.477963 120.03815 
L 138.308573 119.088874 
L 139.113821 118.11799 
L 139.897313 117.129466 
L 140.663024 116.127106 
L 141.415229 115.114571 
L 142.158432 114.095411 
L 142.897304 113.073105 
L 143.636606 112.051112 
L 144.381126 111.032912 
L 145.135601 110.022068 
L 145.904649 109.022266 
L 146.692689 108.037364 
L 147.503871 107.071432 
L 148.341989 106.128778 
L 149.210413 105.213967 
L 150.112001 104.331823 
L 151.049028 103.487418 
L 152.023112 102.686044 
L 153.035149 101.933169 
L 154.085255 101.234372 
L 155.172722 100.595267 
L 156.295989 100.021412 
L 157.452631 99.518205 
L 158.639366 99.090771 
L 159.852085 98.743853 
L 161.085905 98.481691 
L 162.335241 98.307916 
L 163.593907 98.225453 
L 164.855223 98.236434 
L 166.112151 98.342133 
L 167.35743 98.542925 
L 168.583731 98.838265 
L 169.783798 99.226695 
L 170.9506 99.705874 
L 172.077464 100.272634 
L 173.158201 100.923056 
L 174.187208 101.652566 
L 175.159559 102.45604 
L 176.071069 103.327929 
L 176.918329 104.262375 
L 177.698732 105.253339 
L 178.410467 106.29472 
L 179.052492 107.380465 
L 179.624504 108.504672 
L 180.126873 109.661679 
L 180.560586 110.846133 
L 180.927171 112.053053 
L 181.228616 113.277867 
L 181.467297 114.516443 
L 181.645891 115.7651 
L 181.767306 117.020607 
L 181.834604 118.280174 
L 181.850939 119.541432 
L 181.819492 120.802405 
L 181.74342 122.061473 
L 181.625808 123.317341 
L 181.469626 124.568999 
L 181.277695 125.815675 
L 181.052661 127.056803 
L 180.796962 128.291979 
L 180.51282 129.520922 
L 180.202213 130.743445 
L 179.866874 131.959417 
L 179.508275 133.168733 
L 179.127623 134.37129 
L 178.725858 135.566959 
L 178.303653 136.755564 
L 177.861416 137.936862 
L 177.399291 139.110524 
L 176.917174 140.276114 
L 176.414713 141.433082 
L 175.891332 142.580736 
L 175.346238 143.718239 
L 174.778448 144.844584 
L 174.186808 145.958587 
L 173.570024 147.058867 
L 172.92669 148.143837 
L 172.255324 149.211688 
L 171.554406 150.26038 
L 170.822424 151.287629 
L 170.057916 152.290908 
L 169.259524 153.267436 
L 168.42604 154.214191 
L 167.556467 155.12791 
L 166.650069 156.005111 
L 165.706426 156.842116 
L 164.725485 157.635081 
L 163.70761 158.380044 
L 162.653621 159.072971 
L 161.564831 159.709819 
L 160.443066 160.286605 
L 159.290679 160.799482 
L 158.110545 161.244818 
L 156.906046 161.619279 
L 155.681032 161.919914 
L 154.439775 162.144234 
L 153.186895 162.290284 
L 151.927281 162.35671 
L 150.665994 162.342803 
L 149.408157 162.24854 
L 148.158843 162.074599 
L 146.922958 161.822359 
L 145.705116 161.493876 
L 144.509535 161.091849 
L 143.339927 160.619561 
L 142.199404 160.080814 
L 141.090407 159.479845 
L 140.014637 158.821241 
L 138.973022 158.109851 
L 137.965686 157.350698 
L 136.991952 156.548898 
L 136.050352 155.709596 
L 135.138659 154.8379 
L 134.253927 153.938851 
L 133.392554 153.017398 
L 132.550345 152.078396 
L 131.722591 151.126628 
L 130.904152 150.166838 
L 130.089552 149.203788 
L 129.273078 148.242325 
L 128.448891 147.287467 
L 127.611147 146.34448 
L 126.754125 145.418979 
L 125.872378 144.517002 
L 124.960886 143.645095 
L 124.015235 142.81036 
L 123.031798 142.020493 
L 122.007937 141.283778 
L 120.942209 140.609046 
L 119.834564 140.005588 
L 118.686546 139.483004 
L 117.501462 139.051014 
L 116.284524 138.719197 
L 115.042941 138.496688 
L 113.785943 138.391827 
L 112.524737 138.411778 
L 111.272366 138.562136 
L 110.043483 138.846539 
L 108.854018 139.266316 
L 107.720765 139.820189 
L 106.660879 140.504062 
L 105.691327 141.310912 
L 104.828294 142.230811 
L 104.086596 143.251067 
L 103.479122 144.356515 
L 103.016344 145.529919 
L 102.705927 146.75249 
L 102.552457 148.004483 
L 102.557314 149.265838 
L 102.718696 150.516835 
L 103.031777 151.738727 
L 103.489012 152.914302 
L 104.080535 154.028366 
L 104.794656 155.068112 
L 105.618387 156.023364 
L 106.538001 156.8867 
L 107.539565 157.653452 
L 108.60943 158.321605 
L 109.734658 158.891606 
L 110.903369 159.36611 
L 112.104995 159.74969 
L 113.330449 160.048526 
L 114.572199 160.2701 
L 115.824273 160.422908 
L 117.082182 160.516208 
L 118.342792 160.559802 
L 119.60415 160.563863 
L 120.865265 160.538804 
L 122.125874 160.495179 
L 123.386184 160.443613 
L 124.646601 160.394756 
L 125.907465 160.359236 
L 127.168776 160.347619 
L 128.429935 160.370344 
L 129.689502 160.437646 
L 130.944973 160.559434 
L 132.192591 160.745144 
L 133.427205 161.003539 
L 134.642178 161.34248 
L 135.829362 161.768663 
L 136.979157 162.287327 
L 138.080638 162.901963 
L 139.121787 163.614037 
L 140.089799 164.422735 
L 140.971472 165.324784 
L 141.753664 166.314337 
L 142.423791 167.382966 
L 142.970345 168.519768 
L 143.383394 169.711585 
L 143.655049 170.94335 
L 143.779837 172.198526 
L 143.754984 173.459645 
L 143.580563 174.708891 
L 143.259512 175.928713 
L 142.797504 177.10242 
L 142.202694 178.214733 
L 141.485347 179.252256 
L 140.657386 180.203844 
L 139.731874 181.060855 
L 138.722488 181.817279 
L 137.642986 182.469748 
L 136.506729 183.017434 
L 135.326255 183.461866 
L 134.112936 183.806677 
L 132.876723 184.057309 
L 131.625986 184.220702 
L 130.367441 184.304985 
L 129.106157 184.319196 
L 127.845638 184.273026 
L 126.587964 184.176614 
L 125.333978 184.040386 
L 124.083511 183.87494 
L 122.835636 183.690968 
L 121.588933 183.499209 
L 120.341775 183.31043 
L 119.092613 183.135408 
L 117.840259 182.984915 
L 116.58417 182.869676 
L 115.324714 182.800318 
L 114.063418 182.78726 
L 112.803181 182.840575 
L 111.548453 182.969794 
L 110.305352 183.183664 
L 109.081718 183.489865 
L 107.887082 183.89469 
L 106.732548 184.402716 
L 105.630578 185.016477 
L 104.594676 185.736161 
L 103.638979 186.559376 
L 102.777774 187.480986 
L 102.024954 188.493064 
L 101.393449 189.584961 
L 100.894656 190.743514 
L 100.53792 191.953382 
L 100.330089 193.197506 
L 100.275179 194.457674 
L 100.374177 195.715147 
L 100.624997 196.951323 
L 101.022583 198.148388 
L 101.559169 199.289928 
L 102.224658 200.361452 
L 103.007104 201.350804 
L 103.893255 202.248454 
L 104.869128 203.047648 
L 105.92057 203.744433 
L 107.033782 204.33756 
L 108.195772 204.828291 
L 109.394728 205.220139 
L 110.620285 205.518552 
L 111.863699 205.73059 
L 113.117924 205.864599 
L 114.377596 205.929911 
L 115.638943 205.936581 
L 116.899627 205.89517 
L 118.15854 205.816579 
L 119.415555 205.711923 
L 120.671248 205.592453 
L 121.926606 205.469501 
L 123.182712 205.354446 
L 124.440436 205.258689 
L 125.70012 205.193609 
L 126.961272 205.170501 
L 128.22228 205.20048 
L 129.480148 205.29433 
L 130.730277 205.462303 
L 131.966301 205.713867 
L 133.179987 206.057389 
L 134.361227 206.499779 
L 135.498136 207.046111 
L 136.577249 207.699222 
L 137.58385 208.45935 
L 138.502411 209.323807 
L 139.317134 210.286753 
L 140.012584 211.339078 
L 140.574366 212.468432 
L 140.98982 213.659414 
L 141.248685 214.893929 
L 141.343678 216.151711 
L 141.270955 217.410977 
L 141.030405 218.649192 
L 140.625761 219.843889 
L 140.064508 220.973506 
L 139.357592 222.018163 
L 138.518958 222.960359 
L 137.564942 223.785522 
L 136.513559 224.482394 
L 135.38374 225.043241 
L 134.194576 225.463869 
L 132.964593 225.743479 
L 131.711124 225.884381 
L 130.44978 225.891588 
L 129.194064 225.772353 
L 127.955107 225.535656 
L 126.741542 225.19171 
L 125.559491 224.751489 
L 124.412655 224.226317 
L 123.302479 223.627527 
L 122.228379 222.966204 
L 121.187997 222.253011 
L 120.177485 221.49809 
L 119.191792 220.71104 
L 118.224947 219.900947 
L 117.270336 219.076473 
L 116.320969 218.245966 
L 115.369734 217.4176 
L 114.409646 216.599511 
L 113.43409 215.799929 
L 112.437058 215.027293 
L 111.413379 214.290326 
L 110.35895 213.59807 
L 109.270951 212.959871 
L 108.148045 212.385309 
L 106.990551 211.884063 
L 105.80058 211.465724 
L 104.582118 211.139551 
L 103.341049 210.91419 
L 102.085107 210.797357 
L 100.823745 210.795516 
L 99.567917 210.913572 
L 98.329793 211.154588 
L 97.122388 211.519569 
L 95.95914 212.007313 
L 94.853459 212.614361 
L 93.81825 213.335043 
L 92.865465 214.161626 
L 92.005683 215.084564 
L 91.247765 216.092829 
L 90.598581 217.17431 
L 90.062845 218.31625 
L 89.643037 219.505703 
L 89.339431 220.729984 
L 89.150215 221.977075 
L 89.071677 223.235992 
L 89.098449 224.497072 
L 89.223792 225.752193 
L 89.439884 226.994909 
L 89.738109 228.220511 
L 90.10932 229.426016 
L 90.544062 230.610093 
L 91.032757 231.772942 
L 91.565829 232.916127 
L 92.133788 234.042387 
L 92.727261 235.155415 
L 93.336973 236.259629 
L 93.953712 237.359935 
L 94.568249 238.461472 
L 95.171265 239.569358 
L 95.753259 240.68843 
L 96.304484 241.822974 
L 96.814903 242.976452 
L 97.274177 244.151231 
L 97.671714 245.348313 
L 97.996768 246.567074 
L 98.238614 247.805036 
L 98.386782 249.057667 
L 98.43137 250.318243 
L 98.363411 251.577775 
L 98.175296 252.825033 
L 97.861221 254.04667 
L 97.417643 255.227465 
L 96.843703 256.350689 
L 96.141594 257.398584 
L 95.31684 258.352953 
L 94.378441 259.195832 
L 93.338875 259.910214 
L 92.213934 260.480782 
L 91.022388 260.894615 
L 89.785484 261.141812 
L 88.526303 261.216 
L 87.269015 261.114687 
L 86.038051 260.839425 
L 84.857276 260.395794 
L 83.749174 259.793175 
L 82.734125 259.044367 
L 81.829795 258.165033 
L 81.050679 257.173057 
L 80.407807 256.087813 
L 79.908628 254.929426 
L 79.55706 253.718047 
L 79.353686 252.473186 
L 79.296071 251.213139 
L 79.379176 249.954515 
L 79.595826 248.711896 
L 79.9372 247.497605 
L 80.393323 246.321598 
L 80.953522 245.191458 
L 81.606843 244.112472 
L 82.342399 243.087779 
L 83.149655 242.118564 
L 84.018641 241.204288 
L 84.940102 240.342923 
L 85.90558 239.531202 
L 86.907449 238.764847 
L 87.938898 238.038795 
L 88.993888 237.347394 
L 90.06707 236.684582 
L 91.153696 236.044048 
L 92.249511 235.419366 
L 93.350649 234.804115 
L 94.453526 234.191986 
L 95.55474 233.576871 
L 96.650984 232.952941 
L 97.738972 232.314724 
L 98.815382 231.657166 
L 99.87681 230.97569 
L 100.919754 230.266249 
L 101.940602 229.525365 
L 102.935648 228.750173 
L 103.901118 227.938442 
L 104.833211 227.088594 
L 105.728153 226.199708 
L 106.582255 225.271511 
L 107.391984 224.304361 
L 108.154024 223.299208 
L 108.865349 222.257548 
L 109.52328 221.181366 
L 110.125537 220.073068 
L 110.67029 218.935402 
L 111.156185 217.771381 
L 111.582365 216.584195 
L 111.948482 215.377133 
L 112.254684 214.1535 
L 112.501603 212.91654 
L 112.690325 211.669374 
L 112.822354 210.414938 
L 112.899568 209.15594 
L 112.924168 207.894816 
L 112.898631 206.63371 
L 112.825653 205.374459 
L 112.708099 204.118585 
L 112.548949 202.867301 
L 112.351256 201.621525 
L 112.118094 200.381898 
L 111.852523 199.148808 
L 111.55755 197.922419 
L 111.2361 196.702703 
L 110.890982 195.48947 
L 110.524871 194.282407 
L 110.140284 193.081102 
L 109.739561 191.885084 
L 109.324848 190.693844 
L 108.898089 189.506866 
L 108.461006 188.323651 
L 108.015095 187.143735 
L 107.561614 185.966707 
L 107.101576 184.792226 
L 106.635745 183.620032 
L 106.164626 182.449952 
L 105.688469 181.281914 
L 105.207263 180.115946 
L 104.720738 178.952188 
L 104.228368 177.790891 
L 103.729378 176.632423 
L 103.222751 175.477274 
L 102.707238 174.326064 
L 102.181373 173.179545 
L 101.643492 172.038614 
L 101.091747 170.904323 
L 100.524141 169.777885 
L 99.938543 168.660694 
L 99.332731 167.554335 
L 98.704419 166.460597 
L 98.051299 165.381489 
L 97.371085 164.319252 
L 96.661555 163.276368 
L 95.920605 162.255568 
L 95.146298 161.259833 
L 94.336917 160.292392 
L 93.491023 159.35671 
L 92.607503 158.45647 
L 91.685628 157.595548 
L 90.725101 156.777974 
L 89.726099 156.007888 
L 88.689308 155.289484 
L 87.615955 154.626948 
L 86.507821 154.024388 
L 85.367246 153.485753 
L 84.197116 153.014759 
L 83.000841 152.614803 
L 81.78231 152.288887 
L 80.545836 152.039542 
L 79.296087 151.868763 
L 78.037996 151.777949 
L 76.776672 151.767868 
L 75.517294 151.838623 
L 74.265003 151.989642 
L 73.024795 152.21969 
L 71.801411 152.526888 
L 70.599239 152.908755 
L 69.422222 153.362263 
L 68.273775 153.883904 
L 67.156724 154.469767 
L 66.073249 155.115616 
L 65.024856 155.816981 
L 64.012357 156.569235 
L 63.035867 157.367675 
L 62.094818 158.207595 
L 61.187984 159.084345 
L 60.31352 159.993385 
L 59.469006 160.930313 
L 58.651503 161.8909 
L 57.857609 162.87109 
L 57.083524 163.866997 
L 56.325116 164.874895 
L 55.577987 165.891181 
L 54.837541 166.912346 
L 54.099053 167.934928 
L 53.357738 168.955464 
L 52.608827 169.970437 
L 51.847633 170.976232 
L 51.069626 171.969078 
L 50.270513 172.945018 
L 49.446313 173.899865 
L 48.593433 174.829185 
L 47.708749 175.728281 
L 46.789687 176.592205 
L 45.83429 177.415768 
L 44.841294 178.193584 
L 43.810186 178.920121 
L 42.741259 179.589773 
L 41.635643 180.19694 
L 40.495331 180.736132 
L 39.323179 181.202072 
L 38.122889 181.589812 
L 36.898963 181.894846 
L 35.656647 182.113227 
L 34.401839 182.241663 
L 33.140988 182.277619 
L 31.880969 182.219383 
L 30.62895 182.066127 
L 29.392244 181.817935 
L 28.178164 181.475811 
L 26.99387 181.041661 
L 25.84623 180.518246 
L 24.741691 179.909122 
L 23.68616 179.218548 
L 22.684909 178.451386 
L 21.742504 177.612988 
L 20.862743 176.709075 
L 20.048635 175.745608 
L 19.302389 174.728674 
L 18.625426 173.664361 
L 18.018413 172.55866 
L 17.481309 171.417363 
L 17.013426 170.245986 
L 16.613499 169.049701 
L 16.279759 167.83329 
L 16.010013 166.601106 
L 15.801727 165.357058 
L 15.652097 164.1046 
L 15.558131 162.846741 
L 15.516711 161.586057 
L 15.524665 160.324718 
L 15.578815 159.064517 
L 15.676037 157.806905 
L 15.813297 156.553032 
L 15.987695 155.303782 
L 16.196496 154.05982 
L 16.437154 152.821626 
L 16.707337 151.589539 
L 17.004944 150.363786 
L 17.328117 149.144525 
L 17.675254 147.931868 
L 18.045014 146.725918 
L 18.436323 145.526786 
L 18.848375 144.334623 
L 19.280631 143.149636 
L 19.732814 141.972109 
L 20.204906 140.802422 
L 20.697137 139.641066 
L 21.209972 138.48866 
L 21.744098 137.345966 
L 22.300406 136.213906 
L 22.879967 135.093572 
L 23.484009 133.986245 
L 24.113887 132.893408 
L 24.771049 131.816757 
L 25.457 130.758215 
L 26.173263 129.719944 
L 26.921331 128.704349 
L 27.702619 127.714082 
L 28.518418 126.752047 
L 29.369837 125.821389 
L 30.257749 124.92548 
L 31.182739 124.067906 
L 32.145049 123.252433 
L 33.14453 122.482967 
L 34.180595 121.763516 
L 35.25218 121.098126 
L 36.357719 120.490817 
L 37.495122 119.945516 
L 38.661774 119.465972 
L 39.854543 119.05568 
L 41.069809 118.71779 
L 42.303502 118.455033 
L 43.551167 118.269639 
L 44.808038 118.163271 
L 46.069128 118.136966 
L 47.32933 118.191092 
L 48.583532 118.325322 
L 49.826729 118.538628 
L 51.054147 118.829288 
L 52.261356 119.194919 
L 53.44438 119.63252 
L 54.599794 120.138542 
L 55.724814 120.708953 
L 56.817362 121.339332 
L 57.876121 122.024948 
L 58.900562 122.760855 
L 59.890962 123.541974 
L 60.848397 124.363167 
L 61.774719 125.219302 
L 62.672522 126.105299 
L 63.545085 127.016162 
L 64.396317 127.946991 
L 65.230681 128.89297 
L 66.053112 129.849342 
L 66.868929 130.811361 
L 67.683742 131.774232 
L 68.503339 132.733033 
L 69.333579 133.682634 
L 70.18026 134.617604 
L 71.048987 135.532128 
L 71.945012 136.419922 
L 72.873076 137.274168 
L 73.837225 138.087468 
L 74.840614 138.85183 
L 75.88531 139.558689 
L 76.972086 140.198968 
L 78.100216 140.763202 
L 79.267297 141.241702 
L 80.469083 141.624783 
L 81.699371 141.903047 
L 82.949941 142.06771 
L 84.210563 142.110972 
L 85.469089 142.026403 
L 86.711636 141.809341 
L 87.922866 141.45726 
L 89.086359 140.970103 
L 90.185075 140.350536 
L 91.20188 139.604113 
L 92.120124 138.73932 
L 92.924233 137.767493 
L 93.60029 136.702605 
L 94.136557 135.560915 
L 94.523925 134.360504 
L 94.756242 133.120719 
L 94.83052 131.861544 
L 94.746981 130.602949 
L 94.508968 129.364244 
L 94.122712 128.163476 
L 93.596973 127.016899 
L 92.942595 125.938553 
L 92.171987 124.939953 
L 91.298574 124.029905 
L 90.33625 123.214446 
L 89.298865 122.496901 
L 88.19976 121.878024 
L 87.051383 121.356231 
L 85.864983 120.927868 
L 84.650403 120.587521 
L 83.415958 120.328321 
L 82.168395 120.142245 
L 80.912931 120.020387 
L 79.653358 119.953192 
L 78.392195 119.930654 
L 77.130886 119.942465 
L 75.870027 119.978132 
L 74.609612 120.027058 
L 73.349301 120.078601 
L 72.088688 120.122115 
L 70.827569 120.146998 
L 69.566212 120.142739 
L 68.305607 120.098987 
L 67.047701 120.005655 
L 65.795603 119.853049 
L 64.553751 119.632041 
L 63.328034 119.334289 
L 62.125844 118.95248 
L 60.956067 118.480609 
L 59.828989 117.914275 
L 58.756114 117.250966 
L 57.749899 116.490329 
L 56.823399 115.634386 
L 55.989846 114.687692 
L 55.262168 113.657389 
L 54.652476 112.553163 
L 54.171551 111.38708 
L 53.828356 110.173302 
L 53.629614 108.927694 
L 53.579476 107.667326 
L 53.679302 106.409919 
L 53.927581 105.173231 
L 54.319982 103.974456 
L 54.849552 102.829644 
L 55.507029 101.753185 
L 56.281257 100.757389 
L 57.159677 99.852172 
L 58.128853 99.044869 
L 59.175003 98.340164 
L 60.284509 97.740136 
L 61.444376 97.244406 
L 62.642611 96.850358 
L 63.868525 96.553418 
L 65.112943 96.347355 
L 66.36832 96.224596 
L 67.628767 96.176525 
L 68.890014 96.193748 
L 70.149288 96.266328 
L 71.405155 96.383964 
L 72.657307 96.536132 
L 73.906325 96.712182 
L 75.153417 96.901393 
L 76.400141 97.093008 
L 77.648124 97.276256 
L 78.898767 97.440358 
L 80.152972 97.57456 
L 81.410857 97.668177 
L 82.671505 97.71067 
L 83.932728 97.691771 
L 85.190868 97.601653 
L 86.440655 97.431142 
L 87.675109 97.171988 
L 88.885538 96.817163 
L 90.061602 96.361188 
L 91.191485 95.800471 
L 92.26216 95.133616 
L 93.259748 94.361699 
L 94.169974 93.48847 
L 94.978676 92.520462 
L 95.672372 91.466979 
L 96.238829 90.339963 
L 96.667615 89.153716 
L 96.950583 87.924501 
L 97.08227 86.67003 
L 97.060156 85.40886 
L 96.884796 84.159745 
L 96.559785 82.940972 
L 96.091572 81.769727 
L 95.489144 80.661521 
L 94.763588 79.629722 
L 93.927574 78.685202 
L 92.994791 77.836112 
L 91.979375 77.0878 
L 90.895364 76.442851 
L 89.756205 75.901227 
L 88.574341 75.460505 
L 87.360887 75.116164 
L 86.125414 74.861909 
L 84.87582 74.689997 
L 83.618304 74.591554 
L 82.357417 74.556856 
L 81.096192 74.575571 
L 79.836322 74.63695 
L 78.578393 74.729973 
L 77.322143 74.843448 
L 76.066754 74.966079 
L 76.066754 74.966079 
L 76.066754 74.966079 
L 77.322143 74.966079 
L 78.578393 74.966079 
L 79.836322 74.966079 
L 81.096192 74.966079 
L 82.357417 74.966079 
L 83.618304 74.966079 
L 84.87582 74.966079 
L 86.125414 74.966079 
L 87.360887 74.966079 
L 88.574341 74.966079 
L 89.756205 74.966079 
L 90.895364 74.966079 
L 91.979375 74.966079 
L 92.994791 74.966079 
L 93.927574 74.966079 
L 94.763588 74.966079 
L 95.489144 74.966079 
L 96.091572 74.966079 
L 96.559785 74.966079 
L 96.884796 74.966079 
L 97.060156 74.966079 
L 97.08227 74.966079 
L 96.950583 74.966079 
L 96.667615 74.966079 
L 96.238829 74.966079 
L 95.672372 74.966079 
L 94.978676 74.966079 
L 94.169974 74.966079 
L 93.259748 74.966079 
L 92.26216 74.966079 
L 91.191485 74.966079 
L 90.061602 74.966079 
L 88.885538 74.966079 
L 87.675109 74.966079 
L 86.440655 74.966079 
L 85.190868 74.966079 
L 83.932728 74.966079 
L 82.671505 74.966079 
L 81.410857 74.966079 
L 80.152972 74.966079 
L 78.898767 74.966079 
L 77.648124 74.966079 
L 76.400141 74.966079 
L 75.153417 74.966079 
L 73.906325 74.966079 
L 72.657307 74.966079 
L 71.405155 74.966079 
L 70.149288 74.966079 
L 68.890014 74.966079 
L 67.628767 74.966079 
L 66.36832 74.966079 
L 65.112943 74.966079 
L 63.868525 74.966079 
L 62.642611 74.966079 
L 61.444376 74.966079 
L 60.284509 74.966079 
L 59.175003 74.966079 
L 58.128853 74.966079 
L 57.159677 74.966079 
L 56.281257 74.966079 
L 55.507029 74.966079 
L 54.849552 74.966079 
L 54.319982 74.966079 
L 53.927581 74.966079 
L 53.679302 74.966079 
L 53.579476 74.966079 
L 53.629614 74.966079 
L 53.828356 74.966079 
L 54.171551 74.966079 
L 54.652476 74.966079 
L 55.262168 74.966079 
L 55.989846 74.966079 
L 56.823399 74.966079 
L 57.749899 74.966079 
L 58.756114 74.966079 
L 59.828989 74.966079 
L 60.956067 74.966079 
L 62.125844 74.966079 
L 63.328034 74.966079 
L 64.553751 74.966079 
L 65.795603 74.966079 
L 67.047701 74.966079 
L 68.305607 74.966079 
L 69.566212 74.966079 
L 70.827569 74.966079 
L 72.088688 74.966079 
L 73.349301 74.966079 
L 74.609612 74.966079 
L 75.870027 74.966079 
L 77.130886 74.966079 
L 78.392195 74.966079 
L 79.653358 74.966079 
L 80.912931 74.966079 
L 82.168395 74.966079 
L 83.415958 74.966079 
L 84.650403 74.966079 
L 85.864983 74.966079 
L 87.051383 74.966079 
L 88.19976 74.966079 
L 89.298865 74.966079 
L 90.33625 74.966079 
L 91.298574 74.966079 
L 92.171987 74.966079 
L 92.942595 74.966079 
L 93.596973 74.966079 
L 94.122712 74.966079 
L 94.508968 74.966079 
L 94.746981 74.966079 
L 94.83052 74.966079 
L 94.756242 74.966079 
L 94.523925 74.966079 
L 94.136557 74.966079 
L 93.60029 74.966079 
L 92.924233 74.966079 
L 92.120124 74.966079 
L 91.20188 74.966079 
L 90.185075 74.966079 
L 89.086359 74.966079 
L 87.922866 74.966079 
L 86.711636 74.966079 
L 85.469089 74.966079 
L 84.210563 74.966079 
L 82.949941 74.966079 
L 81.699371 74.966079 
L 80.469083 74.966079 
L 79.267297 74.966079 
L 78.100216 74.966079 
L 76.972086 74.966079 
L 75.88531 74.966079 
L 74.840614 74.966079 
L 73.837225 74.966079 
L 72.873076 74.966079 
L 71.945012 74.966079 
L 71.048987 74.966079 
L 70.18026 74.966079 
L 69.333579 74.966079 
L 68.503339 74.966079 
L 67.683742 74.966079 
L 66.868929 74.966079 
L 66.053112 74.966079 
L 65.230681 74.966079 
L 64.396317 74.966079 
L 63.545085 74.966079 
L 62.672522 74.966079 
L 61.774719 74.966079 
L 60.848397 74.966079 
L 59.890962 74.966079 
L 58.900562 74.966079 
L 57.876121 74.966079 
L 56.817362 74.966079 
L 55.724814 74.966079 
L 54.599794 74.966079 
L 53.44438 74.966079 
L 52.261356 74.966079 
L 51.054147 74.966079 
L 49.826729 74.966079 
L 48.583532 74.966079 
L 47.32933 74.966079 
L 46.069128 74.966079 
L 44.808038 74.966079 
L 43.551167 74.966079 
L 42.303502 74.966079 
L 41.069809 74.966079 
L 39.854543 74.966079 
L 38.661774 74.966079 
L 37.495122 74.966079 
L 36.357719 74.966079 
L 35.25218 74.966079 
L 34.180595 74.966079 
L 33.14453 74.966079 
L 32.145049 74.966079 
L 31.182739 74.966079 
L 30.257749 74.966079 
L 29.369837 74.966079 
L 28.518418 74.966079 
L 27.702619 74.966079 
L 26.921331 74.966079 
L 26.173263 74.966079 
L 25.457 74.966079 
L 24.771049 74.966079 
L 24.113887 74.966079 
L 23.484009 74.966079 
L 22.879967 74.966079 
L 22.300406 74.966079 
L 21.744098 74.966079 
L 21.209972 74.966079 
L 20.697137 74.966079 
L 20.204906 74.966079 
L 19.732814 74.966079 
L 19.280631 74.966079 
L 18.848375 74.966079 
L 18.436323 74.966079 
L 18.045014 74.966079 
L 17.675254 74.966079 
L 17.328117 74.966079 
L 17.004944 74.966079 
L 16.707337 74.966079 
L 16.437154 74.966079 
L 16.196496 74.966079 
L 15.987695 74.966079 
L 15.813297 74.966079 
L 15.676037 74.966079 
L 15.578815 74.966079 
L 15.524665 74.966079 
L 15.516711 74.966079 
L 15.558131 74.966079 
L 15.652097 74.966079 
L 15.801727 74.966079 
L 16.010013 74.966079 
L 16.279759 74.966079 
L 16.613499 74.966079 
L 17.013426 74.966079 
L 17.481309 74.966079 
L 18.018413 74.966079 
L 18.625426 74.966079 
L 19.302389 74.966079 
L 20.048635 74.966079 
L 20.862743 74.966079 
L 21.742504 74.966079 
L 22.684909 74.966079 
L 23.68616 74.966079 
L 24.741691 74.966079 
L 25.84623 74.966079 
L 26.99387 74.966079 
L 28.178164 74.966079 
L 29.392244 74.966079 
L 30.62895 74.966079 
L 31.880969 74.966079 
L 33.140988 74.966079 
L 34.401839 74.966079 
L 35.656647 74.966079 
L 36.898963 74.966079 
L 38.122889 74.966079 
L 39.323179 74.966079 
L 40.495331 74.966079 
L 41.635643 74.966079 
L 42.741259 74.966079 
L 43.810186 74.966079 
L 44.841294 74.966079 
L 45.83429 74.966079 
L 46.789687 74.966079 
L 47.708749 74.966079 
L 48.593433 74.966079 
L 49.446313 74.966079 
L 50.270513 74.966079 
L 51.069626 74.966079 
L 51.847633 74.966079 
L 52.608827 74.966079 
L 53.357738 74.966079 
L 54.099053 74.966079 
L 54.837541 74.966079 
L 55.577987 74.966079 
L 56.325116 74.966079 
L 57.083524 74.966079 
L 57.857609 74.966079 
L 58.651503 74.966079 
L 59.469006 74.966079 
L 60.31352 74.966079 
L 61.187984 74.966079 
L 62.094818 74.966079 
L 63.035867 74.966079 
L 64.012357 74.966079 
L 65.024856 74.966079 
L 66.073249 74.966079 
L 67.156724 74.966079 
L 68.273775 74.966079 
L 69.422222 74.966079 
L 70.599239 74.966079 
L 71.801411 74.966079 
L 73.024795 74.966079 
L 74.265003 74.966079 
L 75.517294 74.966079 
L 76.776672 74.966079 
L 78.037996 74.966079 
L 79.296087 74.966079 
L 80.545836 74.966079 
L 81.78231 74.966079 
L 83.000841 74.966079 
L 84.197116 74.966079 
L 85.367246 74.966079 
L 86.507821 74.966079 
L 87.615955 74.966079 
L 88.689308 74.966079 
L 89.726099 74.966079 
L 90.725101 74.966079 
L 91.685628 74.966079 
L 92.607503 74.966079 
L 93.491023 74.966079 
L 94.336917 74.966079 
L 95.146298 74.966079 
L 95.920605 74.966079 
L 96.661555 74.966079 
L 97.371085 74.966079 
L 98.051299 74.966079 
L 98.704419 74.966079 
L 99.332731 74.966079 
L 99.938543 74.966079 
L 100.524141 74.966079 
L 101.091747 74.966079 
L 101.643492 74.966079 
L 102.181373 74.966079 
L 102.707238 74.966079 
L 103.222751 74.966079 
L 103.729378 74.966079 
L 104.228368 74.966079 
L 104.720738 74.966079 
L 105.207263 74.966079 
L 105.688469 74.966079 
L 106.164626 74.966079 
L 106.635745 74.966079 
L 107.101576 74.966079 
L 107.561614 74.966079 
L 108.015095 74.966079 
L 108.461006 74.966079 
L 108.898089 74.966079 
L 109.324848 74.966079 
L 109.739561 74.966079 
L 110.140284 74.966079 
L 110.524871 74.966079 
L 110.890982 74.966079 
L 111.2361 74.966079 
L 111.55755 74.966079 
L 111.852523 74.966079 
L 112.118094 74.966079 
L 112.351256 74.966079 
L 112.548949 74.966079 
L 112.708099 74.966079 
L 112.825653 74.966079 
L 112.898631 74.966079 
L 112.924168 74.966079 
L 112.899568 74.966079 
L 112.822354 74.966079 
L 112.690325 74.966079 
L 112.501603 74.966079 
L 112.254684 74.966079 
L 111.948482 74.966079 
L 111.582365 74.966079 
L 111.156185 74.966079 
L 110.67029 74.966079 
L 110.125537 74.966079 
L 109.52328 74.966079 
L 108.865349 74.966079 
L 108.154024 74.966079 
L 107.391984 74.966079 
L 106.582255 74.966079 
L 105.728153 74.966079 
L 104.833211 74.966079 
L 103.901118 74.966079 
L 102.935648 74.966079 
L 101.940602 74.966079 
L 100.919754 74.966079 
L 99.87681 74.966079 
L 98.815382 74.966079 
L 97.738972 74.966079 
L 96.650984 74.966079 
L 95.55474 74.966079 
L 94.453526 74.966079 
L 93.350649 74.966079 
L 92.249511 74.966079 
L 91.153696 74.966079 
L 90.06707 74.966079 
L 88.993888 74.966079 
L 87.938898 74.966079 
L 86.907449 74.966079 
L 85.90558 74.966079 
L 84.940102 74.966079 
L 84.018641 74.966079 
L 83.149655 74.966079 
L 82.342399 74.966079 
L 81.606843 74.966079 
L 80.953522 74.966079 
L 80.393323 74.966079 
L 79.9372 74.966079 
L 79.595826 74.966079 
L 79.379176 74.966079 
L 79.296071 74.966079 
L 79.353686 74.966079 
L 79.55706 74.966079 
L 79.908628 74.966079 
L 80.407807 74.966079 
L 81.050679 74.966079 
L 81.829795 74.966079 
L 82.734125 74.966079 
L 83.749174 74.966079 
L 84.857276 74.966079 
L 86.038051 74.966079 
L 87.269015 74.966079 
L 88.526303 74.966079 
L 89.785484 74.966079 
L 91.022388 74.966079 
L 92.213934 74.966079 
L 93.338875 74.966079 
L 94.378441 74.966079 
L 95.31684 74.966079 
L 96.141594 74.966079 
L 96.843703 74.966079 
L 97.417643 74.966079 
L 97.861221 74.966079 
L 98.175296 74.966079 
L 98.363411 74.966079 
L 98.43137 74.966079 
L 98.386782 74.966079 
L 98.238614 74.966079 
L 97.996768 74.966079 
L 97.671714 74.966079 
L 97.274177 74.966079 
L 96.814903 74.966079 
L 96.304484 74.966079 
L 95.753259 74.966079 
L 95.171265 74.966079 
L 94.568249 74.966079 
L 93.953712 74.966079 
L 93.336973 74.966079 
L 92.727261 74.966079 
L 92.133788 74.966079 
L 91.565829 74.966079 
L 91.032757 74.966079 
L 90.544062 74.966079 
L 90.10932 74.966079 
L 89.738109 74.966079 
L 89.439884 74.966079 
L 89.223792 74.966079 
L 89.098449 74.966079 
L 89.071677 74.966079 
L 89.150215 74.966079 
L 89.339431 74.966079 
L 89.643037 74.966079 
L 90.062845 74.966079 
L 90.598581 74.966079 
L 91.247765 74.966079 
L 92.005683 74.966079 
L 92.865465 74.966079 
L 93.81825 74.966079 
L 94.853459 74.966079 
L 95.95914 74.966079 
L 97.122388 74.966079 
L 98.329793 74.966079 
L 99.567917 74.966079 
L 100.823745 74.966079 
L 102.085107 74.966079 
L 103.341049 74.966079 
L 104.582118 74.966079 
L 105.80058 74.966079 
L 106.990551 74.966079 
L 108.148045 74.966079 
L 109.270951 74.966079 
L 110.35895 74.966079 
L 111.413379 74.966079 
L 112.437058 74.966079 
L 113.43409 74.966079 
L 114.409646 74.966079 
L 115.369734 74.966079 
L 116.320969 74.966079 
L 117.270336 74.966079 
L 118.224947 74.966079 
L 119.191792 74.966079 
L 120.177485 74.966079 
L 121.187997 74.966079 
L 122.228379 74.966079 
L 123.302479 74.966079 
L 124.412655 74.966079 
L 125.559491 74.966079 
L 126.741542 74.966079 
L 127.955107 74.966079 
L 129.194064 74.966079 
L 130.44978 74.966079 
L 131.711124 74.966079 
L 132.964593 74.966079 
L 134.194576 74.966079 
L 135.38374 74.966079 
L 136.513559 74.966079 
L 137.564942 74.966079 
L 138.518958 74.966079 
L 139.357592 74.966079 
L 140.064508 74.966079 
L 140.625761 74.966079 
L 141.030405 74.966079 
L 141.270955 74.966079 
L 141.343678 74.966079 
L 141.248685 74.966079 
L 140.98982 74.966079 
L 140.574366 74.966079 
L 140.012584 74.966079 
L 139.317134 74.966079 
L 138.502411 74.966079 
L 137.58385 74.966079 
L 136.577249 74.966079 
L 135.498136 74.966079 
L 134.361227 74.966079 
L 133.179987 74.966079 
L 131.966301 74.966079 
L 130.730277 74.966079 
L 129.480148 74.966079 
L 128.22228 74.966079 
L 126.961272 74.966079 
L 125.70012 74.966079 
L 124.440436 74.966079 
L 123.182712 74.966079 
L 121.926606 74.966079 
L 120.671248 74.966079 
L 119.415555 74.966079 
L 118.15854 74.966079 
L 116.899627 74.966079 
L 115.638943 74.966079 
L 114.377596 74.966079 
L 113.117924 74.966079 
L 111.863699 74.966079 
L 110.620285 74.966079 
L 109.394728 74.966079 
L 108.195772 74.966079 
L 107.033782 74.966079 
L 105.92057 74.966079 
L 104.869128 74.966079 
L 103.893255 74.966079 
L 103.007104 74.966079 
L 102.224658 74.966079 
L 101.559169 74.966079 
L 101.022583 74.966079 
L 100.624997 74.966079 
L 100.374177 74.966079 
L 100.275179 74.966079 
L 100.330089 74.966079 
L 100.53792 74.966079 
L 100.894656 74.966079 
L 101.393449 74.966079 
L 102.024954 74.966079 
L 102.777774 74.966079 
L 103.638979 74.966079 
L 104.594676 74.966079 
L 105.630578 74.966079 
L 106.732548 74.966079 
L 107.887082 74.966079 
L 109.081718 74.966079 
L 110.305352 74.966079 
L 111.548453 74.966079 
L 112.803181 74.966079 
L 114.063418 74.966079 
L 115.324714 74.966079 
L 116.58417 74.966079 
L 117.840259 74.966079 
L 119.092613 74.966079 
L 120.341775 74.966079 
L 121.588933 74.966079 
L 122.835636 74.966079 
L 124.083511 74.966079 
L 125.333978 74.966079 
L 126.587964 74.966079 
L 127.845638 74.966079 
L 129.106157 74.966079 
L 130.367441 74.966079 
L 131.625986 74.966079 
L 132.876723 74.966079 
L 134.112936 74.966079 
L 135.326255 74.966079 
L 136.506729 74.966079 
L 137.642986 74.966079 
L 138.722488 74.966079 
L 139.731874 74.966079 
L 140.657386 74.966079 
L 141.485347 74.966079 
L 142.202694 74.966079 
L 142.797504 74.966079 
L 143.259512 74.966079 
L 143.580563 74.966079 
L 143.754984 74.966079 
L 143.779837 74.966079 
L 143.655049 74.966079 
L 143.383394 74.966079 
L 142.970345 74.966079 
L 142.423791 74.966079 
L 141.753664 74.966079 
L 140.971472 74.966079 
L 140.089799 74.966079 
L 139.121787 74.966079 
L 138.080638 74.966079 
L 136.979157 74.966079 
L 135.829362 74.966079 
L 134.642178 74.966079 
L 133.427205 74.966079 
L 132.192591 74.966079 
L 130.944973 74.966079 
L 129.689502 74.966079 
L 128.429935 74.966079 
L 127.168776 74.966079 
L 125.907465 74.966079 
L 124.646601 74.966079 
L 123.386184 74.966079 
L 122.125874 74.966079 
L 120.865265 74.966079 
L 119.60415 74.966079 
L 118.342792 74.966079 
L 117.082182 74.966079 
L 115.824273 74.966079 
L 114.572199 74.966079 
L 113.330449 74.966079 
L 112.104995 74.966079 
L 110.903369 74.966079 
L 109.734658 74.966079 
L 108.60943 74.966079 
L 107.539565 74.966079 
L 106.538001 74.966079 
L 105.618387 74.966079 
L 104.794656 74.966079 
L 104.080535 74.966079 
L 103.489012 74.966079 
L 103.031777 74.966079 
L 102.718696 74.966079 
L 102.557314 74.966079 
L 102.552457 74.966079 
L 102.705927 74.966079 
L 103.016344 74.966079 
L 103.479122 74.966079 
L 104.086596 74.966079 
L 104.828294 74.966079 
L 105.691327 74.966079 
L 106.660879 74.966079 
L 107.720765 74.966079 
L 108.854018 74.966079 
L 110.043483 74.966079 
L 111.272366 74.966079 
L 112.524737 74.966079 
L 113.785943 74.966079 
L 115.042941 74.966079 
L 116.284524 74.966079 
L 117.501462 74.966079 
L 118.686546 74.966079 
L 119.834564 74.966079 
L 120.942209 74.966079 
L 122.007937 74.966079 
L 123.031798 74.966079 
L 124.015235 74.966079 
L 124.960886 74.966079 
L 125.872378 74.966079 
L 126.754125 74.966079 
L 127.611147 74.966079 
L 128.448891 74.966079 
L 129.273078 74.966079 
L 130.089552 74.966079 
L 130.904152 74.966079 
L 131.722591 74.966079 
L 132.550345 74.966079 
L 133.392554 74.966079 
L 134.253927 74.966079 
L 135.138659 74.966079 
L 136.050352 74.966079 
L 136.991952 74.966079 
L 137.965686 74.966079 
L 138.973022 74.966079 
L 140.014637 74.966079 
L 141.090407 74.966079 
L 142.199404 74.966079 
L 143.339927 74.966079 
L 144.509535 74.966079 
L 145.705116 74.966079 
L 146.922958 74.966079 
L 148.158843 74.966079 
L 149.408157 74.966079 
L 150.665994 74.966079 
L 151.927281 74.966079 
L 153.186895 74.966079 
L 154.439775 74.966079 
L 155.681032 74.966079 
L 156.906046 74.966079 
L 158.110545 74.966079 
L 159.290679 74.966079 
L 160.443066 74.966079 
L 161.564831 74.966079 
L 162.653621 74.966079 
L 163.70761 74.966079 
L 164.725485 74.966079 
L 165.706426 74.966079 
L 166.650069 74.966079 
L 167.556467 74.966079 
L 168.42604 74.966079 
L 169.259524 74.966079 
L 170.057916 74.966079 
L 170.822424 74.966079 
L 171.554406 74.966079 
L 172.255324 74.966079 
L 172.92669 74.966079 
L 173.570024 74.966079 
L 174.186808 74.966079 
L 174.778448 74.966079 
L 175.346238 74.966079 
L 175.891332 74.966079 
L 176.414713 74.966079 
L 176.917174 74.966079 
L 177.399291 74.966079 
L 177.861416 74.966079 
L 178.303653 74.966079 
L 178.725858 74.966079 
L 179.127623 74.966079 
L 179.508275 74.966079 
L 179.866874 74.966079 
L 180.202213 74.966079 
L 180.51282 74.966079 
L 180.796962 74.966079 
L 181.052661 74.966079 
L 181.277695 74.966079 
L 181.469626 74.966079 
L 181.625808 74.966079 
L 181.74342 74.966079 
L 181.819492 74.966079 
L 181.850939 74.966079 
L 181.834604 74.966079 
L 181.767306 74.966079 
L 181.645891 74.966079 
L 181.467297 74.966079 
L 181.228616 74.966079 
L 180.927171 74.966079 
L 180.560586 74.966079 
L 180.126873 74.966079 
L 179.624504 74.966079 
L 179.052492 74.966079 
L 178.410467 74.966079 
L 177.698732 74.966079 
L 176.918329 74.966079 
L 176.071069 74.966079 
L 175.159559 74.966079 
L 174.187208 74.966079 
L 173.158201 74.966079 
L 172.077464 74.966079 
L 170.9506 74.966079 
L 169.783798 74.966079 
L 168.583731 74.966079 
L 167.35743 74.966079 
L 166.112151 74.966079 
L 164.855223 74.966079 
L 163.593907 74.966079 
L 162.335241 74.966079 
L 161.085905 74.966079 
L 159.852085 74.966079 
L 158.639366 74.966079 
L 157.452631 74.966079 
L 156.295989 74.966079 
L 155.172722 74.966079 
L 154.085255 74.966079 
L 153.035149 74.966079 
L 152.023112 74.966079 
L 151.049028 74.966079 
L 150.112001 74.966079 
L 149.210413 74.966079 
L 148.341989 74.966079 
L 147.503871 74.966079 
L 146.692689 74.966079 
L 145.904649 74.966079 
L 145.135601 74.966079 
L 144.381126 74.966079 
L 143.636606 74.966079 
L 142.897304 74.966079 
L 142.158432 74.966079 
L 141.415229 74.966079 
L 140.663024 74.966079 
L 139.897313 74.966079 
L 139.113821 74.966079 
L 138.308573 74.966079 
L 137.477963 74.966079 
L 136.61881 74.966079 
L 135.728429 74.966079 
L 134.80468 74.966079 
L 133.846023 74.966079 
L 132.851558 74.966079 
L 131.821054 74.966079 
L 130.754976 74.966079 
L 129.654481 74.966079 
L 128.521418 74.966079 
L 127.358295 74.966079 
L 126.168239 74.966079 
L 124.954938 74.966079 
L 123.722569 74.966079 
L 122.475708 74.966079 
L 121.219238 74.966079 
L 119.958239 74.966079 
L 118.697886 74.966079 
L 117.443336 74.966079 
L 116.199623 74.966079 
L 114.971557 74.966079 
L 113.76364 74.966079 
L 112.57998 74.966079 
L 111.424233 74.966079 
L 110.299552 74.966079 
L 109.208551 74.966079 
L 108.153292 74.966079 
L 107.135276 74.966079 
L 106.155458 74.966079 
L 105.214266 74.966079 
L 104.311634 74.966079 
L 103.447042 74.966079 
L 102.619565 74.966079 
L 101.82792 74.966079 
L 101.070521 74.966079 
L 100.345535 74.966079 
L 99.650935 74.966079 
L 98.98455 74.966079 
L 98.344122 74.966079 
L 97.727348 74.966079 
L 97.131926 74.966079 
L 96.555597 74.966079 
L 95.99618 74.966079 
L 95.451608 74.966079 
L 94.919955 74.966079 
L 94.399462 74.966079 
L 93.888562 74.966079 
L 93.385896 74.966079 
L 92.890328 74.966079 
L 92.400962 74.966079 
L 91.917146 74.966079 
L 91.438482 74.966079 
L 90.964829 74.966079 
L 90.496307 74.966079 
L 90.033293 74.966079 
L 89.576423 74.966079 
L 89.126585 74.966079 
L 88.684916 74.966079 
L 88.252793 74.966079 
L 87.831828 74.966079 
L 87.423854 74.966079 
L 87.030918 74.966079 
L 86.655265 74.966079 
L 86.299326 74.966079 
L 85.965698 74.966079 
L 85.657127 74.966079 
L 85.376484 74.966079 
L 85.126738 74.966079 
L 84.910926 74.966079 
L 84.732121 74.966079 
L 84.593391 74.966079 
L 84.497758 74.966079 
L 84.448152 74.966079 
L 84.447359 74.966079 
L 84.497972 74.966079 
L 84.602337 74.966079 
L 84.7625 74.966079 
L 84.980158 74.966079 
L 85.25661 74.966079 
L 85.59272 74.966079 
L 85.988881 74.966079 
L 86.444994 74.966079 
L 86.960456 74.966079 
L 87.534161 74.966079 
L 88.164513 74.966079 
L 88.849452 74.966079 
L 89.586493 74.966079 
L 90.372775 74.966079 
L 91.20512 74.966079 
L 92.080095 74.966079 
L 92.99408 74.966079 
L 93.943337 74.966079 
L 94.924069 74.966079 
L 95.932485 74.966079 
L 96.964838 74.966079 
L 98.017469 74.966079 
L 99.086819 74.966079 
L 100.169438 74.966079 
L 101.261966 74.966079 
L 102.361105 74.966079 
L 103.463568 74.966079 
L 104.56601 74.966079 
L 105.66495 74.966079 
L 106.756676 74.966079 
L 107.83714 74.966079 
L 108.901855 74.966079 
L 109.945784 74.966079 
L 110.963244 74.966079 
L 111.947819 74.966079 
L 112.892294 74.966079 
L 113.788626 74.966079 
L 114.627952 74.966079 
L 115.400644 74.966079 
L 116.096427 74.966079 
L 116.704559 74.966079 
L 117.214081 74.966079 
L 117.614129 74.966079 
L 117.894328 74.966079 
L 118.045217 74.966079 
L 118.058737 74.966079 
L 117.92872 74.966079 
L 117.651373 74.966079 
L 117.225725 74.966079 
L 116.653992 74.966079 
L 115.941842 74.966079 
L 115.098519 74.966079 
L 114.136811 74.966079 
L 113.072844 74.966079 
L 111.925711 74.966079 
L 110.716927 74.966079 
L 109.469763 74.966079 
L 108.208471 74.966079 
L 106.957456 74.966079 
L 105.740444 74.966079 
L 104.579686 74.966079 
L 103.495263 74.966079 
L 102.504507 74.966079 
L 101.621586 74.966079 
L 100.857249 74.966079 
L 100.218748 74.966079 
L 99.709913 74.966079 
L 99.331371 74.966079 
L 99.080871 74.966079 
L 98.953683 74.966079 
L 98.943044 74.966079 
L 99.04061 74.966079 
L 99.236898 74.966079 
L 99.52168 74.966079 
L 99.884322 74.966079 
L 100.314064 74.966079 
L 100.80022 74.966079 
L 101.332316 74.966079 
L 101.900162 74.966079 
L 102.493869 74.966079 
L 103.10382 74.966079 
L 103.720615 74.966079 
L 104.334991 74.966079 
L 104.937737 74.966079 
L 105.519618 74.966079 
L 106.071313 74.966079 
L 106.583389 74.966079 
L 107.046307 74.966079 
L 107.450477 74.966079 
L 107.786362 74.966079 
L 108.044637 74.966079 
L 108.216389 74.966079 
L 108.293363 74.966079 
L 108.268243 74.966079 
L 108.13494 74.966079 
L 107.88888 74.966079 
L 107.527272 74.966079 
L 107.049329 74.966079 
L 106.45642 74.966079 
L 105.752142 74.966079 
L 104.942304 74.966079 
L 104.034798 74.966079 
L 103.039383 74.966079 
L 101.967374 74.966079 
L 100.831254 74.966079 
L 99.644239 74.966079 
L 98.41981 74.966079 
L 97.171251 74.966079 
L 95.911203 74.966079 
L 94.65127 74.966079 
L 93.401686 74.966079 
L 92.171068 74.966079 
L 90.966233 74.966079 
L 89.792121 74.966079 
L 88.651772 74.966079 
L 87.546387 74.966079 
L 86.475437 74.966079 
L 85.436821 74.966079 
L 84.42705 74.966079 
L 83.44146 74.966079 
L 82.474433 74.966079 
L 81.519627 74.966079 
L 80.570212 74.966079 
L 79.619111 74.966079 
L 78.659239 74.966079 
L 77.683763 74.966079 
L 76.686356 74.966079 
L 75.661472 74.966079 
L 74.604625 74.966079 
L 73.512678 74.966079 
L 72.384124 74.966079 
L 71.219363 74.966079 
L 70.020944 74.966079 
L 68.793762 74.966079 
L 67.545189 74.966079 
L 66.285115 74.966079 
L 65.025882 74.966079 
L 63.782086 74.966079 
L 62.570257 74.966079 
L 61.408399 74.966079 
L 60.315404 74.966079 
L 59.310377 74.966079 
L 58.411888 74.966079 
L 57.637205 74.966079 
L 57.001551 74.966079 
L 56.517442 74.966079 
L 56.194139 74.966079 
L 56.037277 74.966079 
L 56.048664 74.966079 
L 56.226297 74.966079 
L 56.564566 74.966079 
L 57.054631 74.966079 
L 57.684954 74.966079 
L 58.441921 74.966079 
L 59.310531 74.966079 
L 60.275083 74.966079 
L 61.319842 74.966079 
L 62.429623 74.966079 
L 63.590289 74.966079 
L 64.78913 74.966079 
L 66.015132 74.966079 
L 67.25912 74.966079 
L 68.513801 74.966079 
L 69.773708 74.966079 
L 71.035071 74.966079 
L 72.295614 74.966079 
L 73.55432 74.966079 
L 74.811152 74.966079 
L 76.066754 74.966079 
z
"/>
   </g>
  </g>
 </g>
 <defs>
  <clipPath id="p06a202522d">
   <rect height="266.112" width="182.96765" x="7.2" y="7.2"/>
  </clipPath>
 </defs>
</svg>
