<?xml version="1.0" encoding="utf-8" standalone="no"?>
<!DOCTYPE svg PUBLIC "-//W3C//DTD SVG 1.1//EN"
  "http://www.w3.org/Graphics/SVG/1.1/DTD/svg11.dtd">
<svg height="208.148168pt" version="1.1" viewBox="0 0 371.52 208.148168" width="371.52pt" xmlns="http://www.w3.org/2000/svg" xmlns:xlink="http://www.w3.org/1999/xlink">
 <metadata>
  <rdf:RDF xmlns:cc="http://creativecommons.org/ns#" xmlns:dc="http://purl.org/dc/elements/1.1/" xmlns:rdf="http://www.w3.org/1999/02/22-rdf-syntax-ns#">
   <cc:Work>
    <dc:type rdf:resource="http://purl.org/dc/dcmitype/StillImage"/>
    <dc:date>2022-11-22T17:11:44.811948</dc:date>
    <dc:format>image/svg+xml</dc:format>
    <dc:creator>
     <cc:Agent>
      <dc:title>Matplotlib v3.4.2, https://matplotlib.org/</dc:title>
     </cc:Agent>
    </dc:creator>
   </cc:Work>
  </rdf:RDF>
 </metadata>
 <defs>
  <style type="text/css">*{stroke-linecap:butt;stroke-linejoin:round;}</style>
 </defs>
 <g id="figure_1">
  <g id="patch_1">
   <path d="M 0 208.148168 
L 371.52 208.148168 
L 371.52 0 
L 0 0 
z
" style="fill:none;"/>
  </g>
  <g id="axes_1">
   <g id="PolyCollection_1">
    <path clip-path="url(#p4d1fee8087)" d="M 254.160661 40.534836 
L 254.160661 40.534836 
L 255.093411 41.102557 
L 256.022702 41.675924 
L 256.948763 42.254493 
L 257.871834 42.837819 
L 258.792172 43.425448 
L 259.710049 44.016916 
L 260.625754 44.611738 
L 261.539601 45.209412 
L 262.451925 45.809408 
L 263.36309 46.411164 
L 264.273482 47.014087 
L 265.18352 47.617545 
L 266.093649 48.220864 
L 267.004347 48.823326 
L 267.916118 49.424163 
L 268.829494 50.022555 
L 269.745037 50.617629 
L 270.663329 51.20845 
L 271.584975 51.794026 
L 272.510596 52.373298 
L 273.440823 52.945144 
L 274.376294 53.508371 
L 275.317643 54.061717 
L 276.265496 54.603848 
L 277.220457 55.133358 
L 278.183102 55.648765 
L 279.153966 56.148519 
L 280.133531 56.630994 
L 281.122214 57.094498 
L 282.120354 57.53727 
L 283.128196 57.957491 
L 284.145879 58.353284 
L 285.173421 58.722726 
L 286.210706 59.063857 
L 287.257469 59.374691 
L 288.313285 59.653226 
L 289.377558 59.897467 
L 290.449509 60.105437 
L 291.528172 60.275197 
L 292.612383 60.404869 
L 293.700788 60.492658 
L 294.791831 60.536872 
L 295.883769 60.535951 
L 296.974676 60.488489 
L 298.062454 60.393257 
L 299.144853 60.249227 
L 300.219486 60.055596 
L 301.283862 59.811802 
L 302.335404 59.517543 
L 303.37149 59.172788 
L 304.389482 58.777788 
L 305.386761 58.333083 
L 306.360774 57.839494 
L 307.309062 57.298126 
L 308.229308 56.710351 
L 309.119368 56.077797 
L 309.977311 55.402324 
L 310.801452 54.686 
L 311.590382 53.931068 
L 312.342989 53.139922 
L 313.058488 52.315064 
L 313.736429 51.459069 
L 314.376713 50.574554 
L 314.979594 49.664134 
L 315.545686 48.730394 
L 316.075953 47.775854 
L 316.571703 46.802939 
L 317.034579 45.813962 
L 317.466539 44.811096 
L 317.869844 43.796366 
L 318.247035 42.771643 
L 318.600912 41.738637 
L 318.934516 40.698907 
L 319.251107 39.653871 
L 319.554137 38.604822 
L 319.847235 37.552955 
L 320.134181 36.499393 
L 320.418887 35.445224 
L 320.705371 34.391536 
L 320.997736 33.339466 
L 321.300144 32.290237 
L 321.616786 31.245216 
L 321.951852 30.205957 
L 322.309497 29.174249 
L 322.693796 28.15217 
L 323.108697 27.142127 
L 323.557973 26.146898 
L 324.045155 25.169665 
L 324.573469 24.214042 
L 325.145761 23.284089 
L 325.76442 22.384316 
L 326.43129 21.519669 
L 327.14759 20.695506 
L 327.913823 19.917549 
L 328.729699 19.191824 
L 329.594052 18.524573 
L 330.504779 17.922155 
L 331.458785 17.390927 
L 332.45195 16.937105 
L 333.479115 16.566615 
L 334.534098 16.284939 
L 335.609732 16.096946 
L 336.697938 16.006735 
L 337.789824 16.017476 
L 338.875817 16.131274 
L 339.94582 16.349041 
L 340.989398 16.670407 
L 341.995974 17.093652 
L 342.955047 17.615676 
L 343.856414 18.232011 
L 344.690384 18.936868 
L 345.447991 19.723228 
L 346.121186 20.58296 
L 346.702999 21.506986 
L 347.187681 22.485461 
L 347.5708 23.507983 
L 347.849306 24.563807 
L 348.021551 25.642075 
L 348.087273 26.732034 
L 348.047535 27.82325 
L 347.904643 28.905799 
L 347.662018 29.970441 
L 347.324063 31.008765 
L 346.895997 32.0133 
L 346.383688 32.977597 
L 345.79348 33.896284 
L 345.132026 34.765081 
L 344.40612 35.580797 
L 343.622555 36.341294 
L 342.787982 37.045438 
L 341.908803 37.693029 
L 340.991069 38.284718 
L 340.040416 38.821922 
L 339.062002 39.306729 
L 338.060485 39.741807 
L 337.039997 40.130312 
L 336.004156 40.475802 
L 334.956074 40.782159 
L 333.898391 41.053518 
L 332.833307 41.294198 
L 331.762634 41.508654 
L 330.687845 41.70142 
L 329.610127 41.877075 
L 328.530443 42.040205 
L 327.449585 42.195372 
L 326.368237 42.347089 
L 325.28703 42.499799 
L 324.20659 42.65785 
L 323.127594 42.825473 
L 322.05081 43.006767 
L 320.97714 43.205671 
L 319.90765 43.425946 
L 318.843598 43.671148 
L 317.786453 43.9446 
L 316.737909 44.249372 
L 315.699885 44.588246 
L 314.674523 44.963696 
L 313.664175 45.377856 
L 312.671385 45.832497 
L 311.698858 46.329006 
L 310.749429 46.868371 
L 309.82602 47.451164 
L 308.931598 48.077534 
L 308.069125 48.747214 
L 307.241506 49.459518 
L 306.45154 50.213364 
L 305.701868 51.007292 
L 304.994923 51.839494 
L 304.33289 52.70785 
L 303.717659 53.609971 
L 303.150798 54.543244 
L 302.63352 55.504885 
L 302.166667 56.491992 
L 301.750696 57.501595 
L 301.385674 58.530716 
L 301.071282 59.576415 
L 300.806824 60.635845 
L 300.59124 61.706291 
L 300.423131 62.785212 
L 300.300783 63.870275 
L 300.222191 64.959382 
L 300.185092 66.05069 
L 300.186997 67.142627 
L 300.225219 68.233897 
L 300.296903 69.32348 
L 300.399055 70.41063 
L 300.528567 71.494862 
L 300.682241 72.575933 
L 300.856808 73.653827 
L 301.048944 74.728729 
L 301.255287 75.800995 
L 301.472445 76.871122 
L 301.697007 77.93972 
L 301.925551 79.007474 
L 302.154646 80.07511 
L 302.380861 81.143359 
L 302.600766 82.212926 
L 302.810942 83.284446 
L 303.00798 84.358461 
L 303.188493 85.435375 
L 303.349127 86.515434 
L 303.486568 87.598689 
L 303.597562 88.684972 
L 303.678926 89.773875 
L 303.727575 90.86473 
L 303.740542 91.956592 
L 303.715002 93.048232 
L 303.648304 94.138132 
L 303.537997 95.224485 
L 303.381862 96.305203 
L 303.177941 97.377932 
L 302.924566 98.440067 
L 302.620392 99.488785 
L 302.264413 100.521068 
L 301.855992 101.533749 
L 301.394871 102.523546 
L 300.881187 103.487112 
L 300.315473 104.421081 
L 299.698659 105.32212 
L 299.032063 106.186978 
L 298.317375 107.012539 
L 297.556634 107.795868 
L 296.752199 108.534255 
L 295.906716 109.225261 
L 295.023074 109.866749 
L 294.104363 110.456918 
L 293.153824 110.994326 
L 292.174802 111.477903 
L 291.170694 111.906968 
L 290.144895 112.281224 
L 289.100756 112.60076 
L 288.041531 112.866039 
L 286.970338 113.077879 
L 285.89012 113.237437 
L 284.803609 113.346183 
L 283.713303 113.40587 
L 282.621437 113.418506 
L 281.529973 113.386323 
L 280.440583 113.311747 
L 279.354652 113.197365 
L 278.273269 113.045898 
L 277.197242 112.860171 
L 276.127098 112.64309 
L 275.063108 112.397623 
L 274.005294 112.126772 
L 272.953457 111.833566 
L 271.907197 111.521043 
L 270.865939 111.192239 
L 269.828958 110.850185 
L 268.795409 110.497895 
L 267.764356 110.13837 
L 266.734796 109.774589 
L 265.705694 109.409514 
L 264.67601 109.046084 
L 263.644726 108.68722 
L 262.610874 108.335821 
L 261.573565 107.994763 
L 260.532011 107.666898 
L 259.485551 107.355046 
L 258.433671 107.061992 
L 257.376028 106.790478 
L 256.312459 106.543187 
L 255.243005 106.322739 
L 254.167913 106.131668 
L 253.08765 105.97241 
L 252.002904 105.847283 
L 250.914583 105.758469 
L 249.823812 105.70799 
L 248.731922 105.69769 
L 247.640438 105.729215 
L 246.551063 105.80399 
L 245.465651 105.923206 
L 244.386189 106.0878 
L 243.31476 106.298444 
L 242.253518 106.555534 
L 241.204649 106.859187 
L 240.17034 107.209238 
L 239.152738 107.605239 
L 238.153918 108.046473 
L 237.175842 108.531962 
L 236.220333 109.060481 
L 235.289034 109.63058 
L 234.383386 110.240607 
L 233.504601 110.888732 
L 232.653638 111.572978 
L 231.831188 112.291245 
L 231.037663 113.041343 
L 230.273182 113.821023 
L 229.537575 114.628 
L 228.830374 115.459984 
L 228.150825 116.314702 
L 227.497893 117.189923 
L 226.870272 118.083467 
L 226.266399 118.99323 
L 225.68447 119.917183 
L 225.122459 120.853384 
L 224.578134 121.799979 
L 224.049082 122.755193 
L 223.532724 123.717329 
L 223.026344 124.684753 
L 222.527103 125.655881 
L 222.032067 126.629159 
L 221.538232 127.603046 
L 221.04254 128.57599 
L 220.541911 129.546403 
L 220.033268 130.512639 
L 219.513557 131.472968 
L 218.979785 132.425553 
L 218.429041 133.368427 
L 217.858533 134.299476 
L 217.265619 135.216418 
L 216.64784 136.116795 
L 216.002957 136.997963 
L 215.328988 137.857088 
L 214.624244 138.691154 
L 213.887365 139.49697 
L 213.117355 140.271189 
L 212.313615 141.010333 
L 211.475972 141.710822 
L 210.604704 142.369018 
L 209.700557 142.981267 
L 208.764759 143.54395 
L 207.799023 144.053542 
L 206.805539 144.506665 
L 205.786963 144.900154 
L 204.746388 145.231113 
L 203.68731 145.496978 
L 202.613581 145.695566 
L 201.529356 145.825129 
L 200.439027 145.884391 
L 199.347152 145.872583 
L 198.258381 145.789461 
L 197.177376 145.635322 
L 196.108729 145.410993 
L 195.056881 145.117826 
L 194.026048 144.757669 
L 193.020146 144.332826 
L 192.042727 143.846017 
L 191.096923 143.30032 
L 190.185397 142.699112 
L 189.310309 142.046003 
L 188.473287 141.344772 
L 187.675416 140.599298 
L 186.917231 139.813495 
L 186.198724 138.991255 
L 185.519358 138.136392 
L 184.878088 137.252591 
L 184.273392 136.343375 
L 183.703301 135.412072 
L 183.165435 134.461792 
L 182.657047 133.495422 
L 182.175055 132.515618 
L 181.716089 131.524821 
L 181.276525 130.525264 
L 180.852525 129.519006 
L 180.440078 128.507958 
L 180.035028 127.493924 
L 179.633118 126.478641 
L 179.23002 125.46383 
L 178.82137 124.451241 
L 178.40281 123.442709 
L 177.970021 122.4402 
L 177.518768 121.445865 
L 177.044944 120.462086 
L 176.544619 119.491517 
L 176.014096 118.537118 
L 175.449968 117.602191 
L 174.84918 116.690388 
L 174.209095 115.805729 
L 173.527566 114.952588 
L 172.803004 114.135679 
L 172.034446 113.360019 
L 171.221622 112.630877 
L 170.365014 111.953712 
L 169.465906 111.334086 
L 168.526425 110.777574 
L 167.549562 110.289651 
L 166.539179 109.875577 
L 165.499995 109.540276 
L 164.43755 109.288204 
L 163.358146 109.123226 
L 162.268767 109.0485 
L 161.176975 109.066368 
L 160.090784 109.178266 
L 159.018527 109.38465 
L 157.968694 109.684951 
L 156.949776 110.077553 
L 155.970098 110.559799 
L 155.037656 111.128028 
L 154.159964 111.777633 
L 153.343906 112.503153 
L 152.595619 113.298388 
L 151.920386 114.156519 
L 151.322555 115.070264 
L 150.805495 116.032022 
L 150.371564 117.034037 
L 150.022115 118.06855 
L 149.757521 119.127946 
L 149.577227 120.204897 
L 149.479817 121.292483 
L 149.463098 122.384294 
L 149.524196 123.474522 
L 149.659664 124.558025 
L 149.865578 125.630373 
L 150.137652 126.687873 
L 150.471331 127.727579 
L 150.861891 128.747281 
L 151.304518 129.745486 
L 151.794385 130.721375 
L 152.326713 131.674768 
L 152.896818 132.606063 
L 153.500149 133.516185 
L 154.13231 134.406524 
L 154.789078 135.278869 
L 155.466402 136.135352 
L 156.160399 136.978381 
L 156.867343 137.810584 
L 157.583643 138.634747 
L 158.305824 139.453761 
L 159.030502 140.270568 
L 159.754354 141.088106 
L 160.474096 141.909264 
L 161.186459 142.736833 
L 161.888162 143.573459 
L 162.575901 144.421601 
L 163.246333 145.28349 
L 163.896066 146.161087 
L 164.521663 147.05605 
L 165.119643 147.969697 
L 165.686494 148.902976 
L 166.218689 149.856443 
L 166.712716 150.830234 
L 167.165101 151.824054 
L 167.572448 152.837167 
L 167.931477 153.868394 
L 168.239066 154.916115 
L 168.492295 155.978285 
L 168.688488 157.052454 
L 168.825261 158.135793 
L 168.900559 159.225132 
L 168.912691 160.317004 
L 168.860366 161.407688 
L 168.742713 162.49327 
L 168.559303 163.569696 
L 168.310155 164.63283 
L 167.99574 165.678523 
L 167.616974 166.702665 
L 167.1752 167.701248 
L 166.67217 168.670418 
L 166.110009 169.60653 
L 165.491186 170.50619 
L 164.818466 171.366294 
L 164.094872 172.18406 
L 163.32363 172.957052 
L 162.508128 173.683197 
L 161.65186 174.360793 
L 160.758385 174.988512 
L 159.831273 175.565396 
L 158.874071 176.090844 
L 157.890259 176.564599 
L 156.883215 176.986727 
L 155.856185 177.357592 
L 154.812261 177.677831 
L 153.754356 177.948325 
L 152.685191 178.170171 
L 151.607282 178.344648 
L 150.522936 178.473196 
L 149.434247 178.557379 
L 148.343096 178.598861 
L 147.251157 178.599384 
L 146.159903 178.560738 
L 145.070611 178.484744 
L 143.984381 178.373234 
L 142.90214 178.228033 
L 141.824657 178.050941 
L 140.752559 177.843729 
L 139.686342 177.608118 
L 138.626386 177.345777 
L 137.572965 177.058314 
L 136.526265 176.74727 
L 135.486391 176.414113 
L 134.453383 176.060242 
L 133.427223 175.686979 
L 132.407846 175.295569 
L 131.39515 174.887186 
L 130.389 174.462929 
L 129.389242 174.023825 
L 128.395698 173.570832 
L 127.408184 173.104843 
L 126.426502 172.626689 
L 125.450452 172.137142 
L 124.479829 171.63692 
L 123.514429 171.126692 
L 122.554047 170.607079 
L 121.598479 170.078666 
L 120.647522 169.541999 
L 119.700973 168.997596 
L 118.758627 168.445949 
L 117.820277 167.887531 
L 116.885715 167.322798 
L 115.954722 166.752199 
L 115.027076 166.176175 
L 114.102541 165.595172 
L 113.180869 165.009637 
L 112.261797 164.420029 
L 111.345044 163.826823 
L 110.430308 163.23051 
L 109.517266 162.631607 
L 108.605568 162.030659 
L 107.694841 161.428243 
L 106.78468 160.824971 
L 105.874653 160.221495 
L 104.964301 159.618512 
L 104.053132 159.016763 
L 103.140627 158.417043 
L 102.226238 157.820197 
L 101.309395 157.22713 
L 100.389503 156.638803 
L 99.465948 156.056243 
L 98.538103 155.480539 
L 97.605334 154.912849 
L 96.667003 154.3544 
L 95.722479 153.80649 
L 94.771146 153.27049 
L 93.812413 152.747841 
L 92.845723 152.240062 
L 91.870564 151.74874 
L 90.886488 151.275535 
L 89.893113 150.822173 
L 88.890146 150.390446 
L 87.877394 149.982201 
L 86.854776 149.59934 
L 85.822339 149.243807 
L 84.780272 148.917575 
L 83.728919 148.62264 
L 82.668788 148.361003 
L 81.600567 148.134653 
L 80.525128 147.945549 
L 79.443533 147.795603 
L 78.357043 147.686654 
L 77.267113 147.620449 
L 76.175393 147.598616 
L 75.083718 147.622642 
L 73.994104 147.693848 
L 72.908725 147.813364 
L 71.829904 147.982108 
L 70.760082 148.200766 
L 69.701797 148.469772 
L 68.657653 148.789293 
L 67.630285 149.15922 
L 66.622325 149.579157 
L 65.636365 150.048425 
L 64.674915 150.566059 
L 63.740368 151.130818 
L 62.83496 151.741201 
L 61.960732 152.39546 
L 61.119496 153.091629 
L 60.312802 153.827548 
L 59.541915 154.600893 
L 58.807784 155.409214 
L 58.11103 156.249966 
L 57.451927 157.120548 
L 56.830399 158.018342 
L 56.24601 158.940741 
L 55.697973 159.885191 
L 55.18515 160.849215 
L 54.706062 161.830442 
L 54.258908 162.826627 
L 53.841576 163.835668 
L 53.451663 164.855618 
L 53.086495 165.884687 
L 52.743148 166.921241 
L 52.418471 167.963793 
L 52.109104 169.01099 
L 51.811503 170.061592 
L 51.521962 171.114444 
L 51.236632 172.168444 
L 50.951545 173.222511 
L 50.662638 174.275536 
L 50.365774 175.326347 
L 50.056774 176.373652 
L 49.731442 177.416001 
L 49.385602 178.451725 
L 49.015133 179.478897 
L 48.616017 180.495281 
L 48.184386 181.49829 
L 47.716581 182.484945 
L 47.209215 183.451852 
L 46.659241 184.395176 
L 46.064032 185.31063 
L 45.421461 186.193485 
L 44.729986 187.038584 
L 43.988734 187.84038 
L 43.19759 188.59299 
L 42.357273 189.290268 
L 41.469409 189.9259 
L 40.536592 190.493512 
L 39.562427 190.9868 
L 38.551553 191.399673 
L 37.509643 191.726406 
L 36.443379 191.961805 
L 35.360396 192.101365 
L 34.269192 192.141433 
L 33.17902 192.079354 
L 32.099733 191.913608 
L 31.041625 191.643911 
L 30.015226 191.271305 
L 29.031102 190.798197 
L 28.099633 190.228375 
L 27.230794 189.566976 
L 26.433938 188.820417 
L 25.717594 187.996292 
L 25.089293 187.103225 
L 24.555407 186.150704 
L 24.121038 185.148879 
L 23.789932 184.108351 
L 23.564438 183.039949 
L 23.445506 181.954506 
L 23.432727 180.862642 
L 23.524403 179.774558 
L 23.717654 178.699856 
L 24.008549 177.647378 
L 24.392257 176.625077 
L 24.863212 175.639921 
L 25.415287 174.697826 
L 26.041962 173.803617 
L 26.736494 172.961029 
L 27.492073 172.172719 
L 28.30196 171.440317 
L 29.159616 170.76448 
L 30.058805 170.144972 
L 30.993674 169.580747 
L 31.958822 169.070041 
L 32.949336 168.610464 
L 33.960823 168.199094 
L 34.989407 167.832564 
L 36.031728 167.507142 
L 37.084912 167.218814 
L 38.146546 166.963344 
L 39.214628 166.736339 
L 40.287523 166.533299 
L 41.36391 166.349662 
L 42.442719 166.180842 
L 43.523082 166.022261 
L 44.604265 165.869379 
L 45.68562 165.717715 
L 46.766524 165.562872 
L 47.846332 165.400556 
L 48.924325 165.2266 
L 49.999674 165.036983 
L 51.071399 164.827851 
L 52.13834 164.595543 
L 53.199136 164.336617 
L 54.252206 164.047871 
L 55.295744 163.726377 
L 56.327719 163.369503 
L 57.34588 162.974943 
L 58.347778 162.540741 
L 59.330784 162.065315 
L 60.292122 161.547475 
L 61.228911 160.986441 
L 62.138197 160.381852 
L 63.017013 159.733768 
L 63.862417 159.042665 
L 64.67155 158.30943 
L 65.441688 157.535338 
L 66.170286 156.722027 
L 66.85503 155.871465 
L 67.493879 154.985913 
L 68.085099 154.067877 
L 68.627298 153.120063 
L 69.119444 152.145321 
L 69.560889 151.146593 
L 69.95137 150.12686 
L 70.291013 149.089087 
L 70.580328 148.036174 
L 70.820195 146.970907 
L 71.011846 145.895918 
L 71.156841 144.813649 
L 71.257044 143.726317 
L 71.314592 142.635896 
L 71.331864 141.544094 
L 71.311454 140.452346 
L 71.256135 139.361809 
L 71.168835 138.273365 
L 71.052609 137.18763 
L 70.910611 136.104963 
L 70.746078 135.025491 
L 70.562308 133.949127 
L 70.362646 132.875598 
L 70.15047 131.804471 
L 69.929183 130.73519 
L 69.702202 129.667103 
L 69.472953 128.5995 
L 69.24487 127.531648 
L 69.021381 126.462825 
L 68.805914 125.392356 
L 68.601882 124.319648 
L 68.412685 123.244225 
L 68.241694 122.165757 
L 68.092246 121.084094 
L 67.967625 119.99929 
L 67.871055 118.91163 
L 67.805669 117.82165 
L 67.774498 116.730156 
L 67.780442 115.638234 
L 67.826241 114.547256 
L 67.914451 113.458886 
L 68.04741 112.375072 
L 68.227211 111.298038 
L 68.45567 110.230266 
L 68.734297 109.174474 
L 69.064271 108.133586 
L 69.446414 107.110699 
L 69.881177 106.109045 
L 70.368622 105.131943 
L 70.908413 104.182756 
L 71.499818 103.264839 
L 72.141711 102.381491 
L 72.832587 101.535902 
L 73.570577 100.731103 
L 74.353478 99.969923 
L 75.178784 99.254939 
L 76.043721 98.588446 
L 76.945295 97.972414 
L 77.880333 97.408468 
L 78.845535 96.897866 
L 79.837526 96.441484 
L 80.852903 96.039811 
L 81.888286 95.69295 
L 82.940367 95.400623 
L 84.005956 95.162187 
L 85.082017 94.976653 
L 86.165708 94.842703 
L 87.254413 94.758722 
L 88.345762 94.722827 
L 89.437654 94.732892 
L 90.528272 94.786585 
L 91.616087 94.881396 
L 92.699862 95.014668 
L 93.778651 95.183625 
L 94.851786 95.385396 
L 95.918871 95.617043 
L 96.979761 95.87558 
L 98.034549 96.157987 
L 99.083535 96.461232 
L 100.127213 96.782275 
L 101.166233 97.118082 
L 102.201386 97.46563 
L 103.233565 97.821911 
L 104.263744 98.183935 
L 105.292945 98.548732 
L 106.322208 98.913351 
L 107.352568 99.274862 
L 108.385019 99.630354 
L 109.420494 99.976941 
L 110.459834 100.311757 
L 111.503768 100.631966 
L 112.552883 100.934764 
L 113.607613 101.217388 
L 114.668211 101.477122 
L 115.73474 101.711314 
L 116.807058 101.917385 
L 117.884807 102.092847 
L 118.967411 102.235321 
L 120.054072 102.342555 
L 121.143772 102.412444 
L 122.235282 102.443052 
L 123.327171 102.432632 
L 124.417823 102.379645 
L 125.505457 102.282783 
L 126.588149 102.140978 
L 127.663861 101.953427 
L 128.730468 101.719592 
L 129.785798 101.439217 
L 130.827658 101.112327 
L 131.853878 100.739228 
L 132.862343 100.320504 
L 133.851028 99.857004 
L 134.818038 99.349833 
L 135.761636 98.80033 
L 136.680275 98.210049 
L 137.572628 97.580734 
L 138.437605 96.914292 
L 139.274381 96.212767 
L 140.082402 95.478307 
L 140.861401 94.713133 
L 141.611406 93.919519 
L 142.332734 93.099753 
L 143.025996 92.256119 
L 143.69209 91.390874 
L 144.332187 90.506223 
L 144.947723 89.604311 
L 145.540384 88.687205 
L 146.112088 87.756891 
L 146.664965 86.815266 
L 147.201341 85.864145 
L 147.723714 84.905262 
L 148.234736 83.940281 
L 148.737185 82.97081 
L 149.233952 81.998414 
L 149.728008 81.024638 
L 150.222388 80.051027 
L 150.720162 79.079147 
L 151.224414 78.110612 
L 151.738213 77.147107 
L 152.264584 76.190413 
L 152.806485 75.242429 
L 153.366771 74.305193 
L 153.948162 73.380902 
L 154.553214 72.471923 
L 155.184281 71.580808 
L 155.843477 70.710296 
L 156.532642 69.863312 
L 157.253305 69.042962 
L 158.006649 68.252517 
L 158.793475 67.495394 
L 159.614173 66.775126 
L 160.468692 66.095326 
L 161.356523 65.459648 
L 162.276679 64.871734 
L 163.22769 64.335163 
L 164.207604 63.853395 
L 165.213993 63.429709 
L 166.243982 63.067143 
L 167.294269 62.768433 
L 168.361174 62.53596 
L 169.440686 62.371694 
L 170.528525 62.277153 
L 171.620205 62.253363 
L 172.711111 62.300831 
L 173.796579 62.419532 
L 174.871972 62.608903 
L 175.932762 62.867851 
L 176.974612 63.194774 
L 177.993448 63.587589 
L 178.985527 64.043779 
L 179.947502 64.560437 
L 180.876469 65.134327 
L 181.770013 65.761949 
L 182.626238 66.439599 
L 183.443786 67.16344 
L 184.221847 67.929568 
L 184.960158 68.734072 
L 185.658995 69.573093 
L 186.319152 70.442877 
L 186.941916 71.339814 
L 187.529037 72.260476 
L 188.082694 73.201643 
L 188.605456 74.160314 
L 189.100241 75.133719 
L 189.570282 76.119312 
L 190.019081 77.114757 
L 190.450371 78.117911 
L 190.868083 79.126795 
L 191.276305 80.139556 
L 191.679248 81.15443 
L 192.081208 82.169692 
L 192.486536 83.183615 
L 192.899597 84.194412 
L 193.324736 85.200189 
L 193.766235 86.198893 
L 194.22827 87.188264 
L 194.714866 88.165788 
L 195.229844 89.128663 
L 195.776764 90.07376 
L 196.358866 90.997605 
L 196.979002 91.896361 
L 197.639573 92.765829 
L 198.342457 93.601464 
L 199.088939 94.398393 
L 199.879642 95.151466 
L 200.714467 95.85531 
L 201.592538 96.504404 
L 202.512151 97.093166 
L 203.470752 97.616058 
L 204.464912 98.067695 
L 205.490337 98.442972 
L 206.541894 98.737182 
L 207.613651 98.946149 
L 208.698954 99.066346 
L 209.790517 99.095013 
L 210.880533 99.03025 
L 211.960812 98.871103 
L 213.022923 98.617624 
L 214.058353 98.270905 
L 215.058675 97.833085 
L 216.015708 97.307329 
L 216.921678 96.697781 
L 217.769369 96.009486 
L 218.552257 95.248292 
L 219.264621 94.420724 
L 219.901636 93.533852 
L 220.45944 92.595137 
L 220.935167 91.612277 
L 221.326964 90.593049 
L 221.633973 89.545158 
L 221.856291 88.47609 
L 221.994916 87.392987 
L 222.051662 86.302523 
L 222.029074 85.210818 
L 221.930328 84.123353 
L 221.759122 83.04492 
L 221.519573 81.979581 
L 221.216114 80.930656 
L 220.853397 79.900721 
L 220.436199 78.891624 
L 219.969351 77.904516 
L 219.45766 76.93989 
L 218.905866 75.99763 
L 218.318589 75.077067 
L 217.700304 74.177037 
L 217.055322 73.295942 
L 216.38778 72.431813 
L 215.701645 71.582373 
L 215.000717 70.745097 
L 214.288655 69.91727 
L 213.568986 69.096047 
L 212.845138 68.278505 
L 212.120461 67.461698 
L 211.398254 66.642706 
L 210.681793 65.818683 
L 209.974349 64.986906 
L 209.279212 64.144816 
L 208.599706 63.290063 
L 207.939197 62.420547 
L 207.301099 61.534454 
L 206.688873 60.630292 
L 206.106017 59.706923 
L 205.556054 58.763593 
L 205.042505 57.799955 
L 204.568869 56.816086 
L 204.138585 55.812499 
L 203.754996 54.790154 
L 203.421308 53.750451 
L 203.140548 52.695224 
L 202.91552 51.626723 
L 202.748758 50.547594 
L 202.642488 49.460838 
L 202.598586 48.369782 
L 202.618547 47.278026 
L 202.703455 46.189393 
L 202.85396 45.107876 
L 203.07027 44.037577 
L 203.352138 42.982645 
L 203.69887 41.947219 
L 204.109334 40.935365 
L 204.58198 39.951019 
L 205.114863 38.997937 
L 205.705683 38.079644 
L 206.351818 37.199393 
L 207.050366 36.360131 
L 207.798199 35.56447 
L 208.592002 34.814665 
L 209.428329 34.112606 
L 210.303647 33.459806 
L 211.214387 32.857407 
L 212.156983 32.306188 
L 213.12792 31.806575 
L 214.123763 31.358661 
L 215.141196 30.962228 
L 216.177049 30.616771 
L 217.228316 30.321529 
L 218.292179 30.075508 
L 219.366018 29.877517 
L 220.44742 29.726193 
L 221.534186 29.62003 
L 222.624328 29.557411 
L 223.716069 29.53663 
L 224.807837 29.555918 
L 225.898259 29.613466 
L 226.986146 29.707447 
L 228.070487 29.83603 
L 229.150436 29.9974 
L 230.225296 30.18977 
L 231.294508 30.411394 
L 232.357635 30.660574 
L 233.414352 30.935673 
L 234.464431 31.235115 
L 235.507727 31.557395 
L 236.544169 31.901078 
L 237.573748 32.264806 
L 238.596505 32.647294 
L 239.612527 33.047332 
L 240.621932 33.463785 
L 241.624865 33.89559 
L 242.621493 34.341754 
L 243.611998 34.801353 
L 244.596571 35.273524 
L 245.575412 35.757468 
L 246.548723 36.252438 
L 247.516708 36.757744 
L 248.479574 37.27274 
L 249.437523 37.796824 
L 250.39076 38.32943 
L 251.339488 38.870028 
L 252.28391 39.418113 
L 253.224232 39.973203 
L 254.160661 40.534836 
L 254.160661 40.534836 
L 254.160661 40.534836 
L 253.224232 40.534836 
L 252.28391 40.534836 
L 251.339488 40.534836 
L 250.39076 40.534836 
L 249.437523 40.534836 
L 248.479574 40.534836 
L 247.516708 40.534836 
L 246.548723 40.534836 
L 245.575412 40.534836 
L 244.596571 40.534836 
L 243.611998 40.534836 
L 242.621493 40.534836 
L 241.624865 40.534836 
L 240.621932 40.534836 
L 239.612527 40.534836 
L 238.596505 40.534836 
L 237.573748 40.534836 
L 236.544169 40.534836 
L 235.507727 40.534836 
L 234.464431 40.534836 
L 233.414352 40.534836 
L 232.357635 40.534836 
L 231.294508 40.534836 
L 230.225296 40.534836 
L 229.150436 40.534836 
L 228.070487 40.534836 
L 226.986146 40.534836 
L 225.898259 40.534836 
L 224.807837 40.534836 
L 223.716069 40.534836 
L 222.624328 40.534836 
L 221.534186 40.534836 
L 220.44742 40.534836 
L 219.366018 40.534836 
L 218.292179 40.534836 
L 217.228316 40.534836 
L 216.177049 40.534836 
L 215.141196 40.534836 
L 214.123763 40.534836 
L 213.12792 40.534836 
L 212.156983 40.534836 
L 211.214387 40.534836 
L 210.303647 40.534836 
L 209.428329 40.534836 
L 208.592002 40.534836 
L 207.798199 40.534836 
L 207.050366 40.534836 
L 206.351818 40.534836 
L 205.705683 40.534836 
L 205.114863 40.534836 
L 204.58198 40.534836 
L 204.109334 40.534836 
L 203.69887 40.534836 
L 203.352138 40.534836 
L 203.07027 40.534836 
L 202.85396 40.534836 
L 202.703455 40.534836 
L 202.618547 40.534836 
L 202.598586 40.534836 
L 202.642488 40.534836 
L 202.748758 40.534836 
L 202.91552 40.534836 
L 203.140548 40.534836 
L 203.421308 40.534836 
L 203.754996 40.534836 
L 204.138585 40.534836 
L 204.568869 40.534836 
L 205.042505 40.534836 
L 205.556054 40.534836 
L 206.106017 40.534836 
L 206.688873 40.534836 
L 207.301099 40.534836 
L 207.939197 40.534836 
L 208.599706 40.534836 
L 209.279212 40.534836 
L 209.974349 40.534836 
L 210.681793 40.534836 
L 211.398254 40.534836 
L 212.120461 40.534836 
L 212.845138 40.534836 
L 213.568986 40.534836 
L 214.288655 40.534836 
L 215.000717 40.534836 
L 215.701645 40.534836 
L 216.38778 40.534836 
L 217.055322 40.534836 
L 217.700304 40.534836 
L 218.318589 40.534836 
L 218.905866 40.534836 
L 219.45766 40.534836 
L 219.969351 40.534836 
L 220.436199 40.534836 
L 220.853397 40.534836 
L 221.216114 40.534836 
L 221.519573 40.534836 
L 221.759122 40.534836 
L 221.930328 40.534836 
L 222.029074 40.534836 
L 222.051662 40.534836 
L 221.994916 40.534836 
L 221.856291 40.534836 
L 221.633973 40.534836 
L 221.326964 40.534836 
L 220.935167 40.534836 
L 220.45944 40.534836 
L 219.901636 40.534836 
L 219.264621 40.534836 
L 218.552257 40.534836 
L 217.769369 40.534836 
L 216.921678 40.534836 
L 216.015708 40.534836 
L 215.058675 40.534836 
L 214.058353 40.534836 
L 213.022923 40.534836 
L 211.960812 40.534836 
L 210.880533 40.534836 
L 209.790517 40.534836 
L 208.698954 40.534836 
L 207.613651 40.534836 
L 206.541894 40.534836 
L 205.490337 40.534836 
L 204.464912 40.534836 
L 203.470752 40.534836 
L 202.512151 40.534836 
L 201.592538 40.534836 
L 200.714467 40.534836 
L 199.879642 40.534836 
L 199.088939 40.534836 
L 198.342457 40.534836 
L 197.639573 40.534836 
L 196.979002 40.534836 
L 196.358866 40.534836 
L 195.776764 40.534836 
L 195.229844 40.534836 
L 194.714866 40.534836 
L 194.22827 40.534836 
L 193.766235 40.534836 
L 193.324736 40.534836 
L 192.899597 40.534836 
L 192.486536 40.534836 
L 192.081208 40.534836 
L 191.679248 40.534836 
L 191.276305 40.534836 
L 190.868083 40.534836 
L 190.450371 40.534836 
L 190.019081 40.534836 
L 189.570282 40.534836 
L 189.100241 40.534836 
L 188.605456 40.534836 
L 188.082694 40.534836 
L 187.529037 40.534836 
L 186.941916 40.534836 
L 186.319152 40.534836 
L 185.658995 40.534836 
L 184.960158 40.534836 
L 184.221847 40.534836 
L 183.443786 40.534836 
L 182.626238 40.534836 
L 181.770013 40.534836 
L 180.876469 40.534836 
L 179.947502 40.534836 
L 178.985527 40.534836 
L 177.993448 40.534836 
L 176.974612 40.534836 
L 175.932762 40.534836 
L 174.871972 40.534836 
L 173.796579 40.534836 
L 172.711111 40.534836 
L 171.620205 40.534836 
L 170.528525 40.534836 
L 169.440686 40.534836 
L 168.361174 40.534836 
L 167.294269 40.534836 
L 166.243982 40.534836 
L 165.213993 40.534836 
L 164.207604 40.534836 
L 163.22769 40.534836 
L 162.276679 40.534836 
L 161.356523 40.534836 
L 160.468692 40.534836 
L 159.614173 40.534836 
L 158.793475 40.534836 
L 158.006649 40.534836 
L 157.253305 40.534836 
L 156.532642 40.534836 
L 155.843477 40.534836 
L 155.184281 40.534836 
L 154.553214 40.534836 
L 153.948162 40.534836 
L 153.366771 40.534836 
L 152.806485 40.534836 
L 152.264584 40.534836 
L 151.738213 40.534836 
L 151.224414 40.534836 
L 150.720162 40.534836 
L 150.222388 40.534836 
L 149.728008 40.534836 
L 149.233952 40.534836 
L 148.737185 40.534836 
L 148.234736 40.534836 
L 147.723714 40.534836 
L 147.201341 40.534836 
L 146.664965 40.534836 
L 146.112088 40.534836 
L 145.540384 40.534836 
L 144.947723 40.534836 
L 144.332187 40.534836 
L 143.69209 40.534836 
L 143.025996 40.534836 
L 142.332734 40.534836 
L 141.611406 40.534836 
L 140.861401 40.534836 
L 140.082402 40.534836 
L 139.274381 40.534836 
L 138.437605 40.534836 
L 137.572628 40.534836 
L 136.680275 40.534836 
L 135.761636 40.534836 
L 134.818038 40.534836 
L 133.851028 40.534836 
L 132.862343 40.534836 
L 131.853878 40.534836 
L 130.827658 40.534836 
L 129.785798 40.534836 
L 128.730468 40.534836 
L 127.663861 40.534836 
L 126.588149 40.534836 
L 125.505457 40.534836 
L 124.417823 40.534836 
L 123.327171 40.534836 
L 122.235282 40.534836 
L 121.143772 40.534836 
L 120.054072 40.534836 
L 118.967411 40.534836 
L 117.884807 40.534836 
L 116.807058 40.534836 
L 115.73474 40.534836 
L 114.668211 40.534836 
L 113.607613 40.534836 
L 112.552883 40.534836 
L 111.503768 40.534836 
L 110.459834 40.534836 
L 109.420494 40.534836 
L 108.385019 40.534836 
L 107.352568 40.534836 
L 106.322208 40.534836 
L 105.292945 40.534836 
L 104.263744 40.534836 
L 103.233565 40.534836 
L 102.201386 40.534836 
L 101.166233 40.534836 
L 100.127213 40.534836 
L 99.083535 40.534836 
L 98.034549 40.534836 
L 96.979761 40.534836 
L 95.918871 40.534836 
L 94.851786 40.534836 
L 93.778651 40.534836 
L 92.699862 40.534836 
L 91.616087 40.534836 
L 90.528272 40.534836 
L 89.437654 40.534836 
L 88.345762 40.534836 
L 87.254413 40.534836 
L 86.165708 40.534836 
L 85.082017 40.534836 
L 84.005956 40.534836 
L 82.940367 40.534836 
L 81.888286 40.534836 
L 80.852903 40.534836 
L 79.837526 40.534836 
L 78.845535 40.534836 
L 77.880333 40.534836 
L 76.945295 40.534836 
L 76.043721 40.534836 
L 75.178784 40.534836 
L 74.353478 40.534836 
L 73.570577 40.534836 
L 72.832587 40.534836 
L 72.141711 40.534836 
L 71.499818 40.534836 
L 70.908413 40.534836 
L 70.368622 40.534836 
L 69.881177 40.534836 
L 69.446414 40.534836 
L 69.064271 40.534836 
L 68.734297 40.534836 
L 68.45567 40.534836 
L 68.227211 40.534836 
L 68.04741 40.534836 
L 67.914451 40.534836 
L 67.826241 40.534836 
L 67.780442 40.534836 
L 67.774498 40.534836 
L 67.805669 40.534836 
L 67.871055 40.534836 
L 67.967625 40.534836 
L 68.092246 40.534836 
L 68.241694 40.534836 
L 68.412685 40.534836 
L 68.601882 40.534836 
L 68.805914 40.534836 
L 69.021381 40.534836 
L 69.24487 40.534836 
L 69.472953 40.534836 
L 69.702202 40.534836 
L 69.929183 40.534836 
L 70.15047 40.534836 
L 70.362646 40.534836 
L 70.562308 40.534836 
L 70.746078 40.534836 
L 70.910611 40.534836 
L 71.052609 40.534836 
L 71.168835 40.534836 
L 71.256135 40.534836 
L 71.311454 40.534836 
L 71.331864 40.534836 
L 71.314592 40.534836 
L 71.257044 40.534836 
L 71.156841 40.534836 
L 71.011846 40.534836 
L 70.820195 40.534836 
L 70.580328 40.534836 
L 70.291013 40.534836 
L 69.95137 40.534836 
L 69.560889 40.534836 
L 69.119444 40.534836 
L 68.627298 40.534836 
L 68.085099 40.534836 
L 67.493879 40.534836 
L 66.85503 40.534836 
L 66.170286 40.534836 
L 65.441688 40.534836 
L 64.67155 40.534836 
L 63.862417 40.534836 
L 63.017013 40.534836 
L 62.138197 40.534836 
L 61.228911 40.534836 
L 60.292122 40.534836 
L 59.330784 40.534836 
L 58.347778 40.534836 
L 57.34588 40.534836 
L 56.327719 40.534836 
L 55.295744 40.534836 
L 54.252206 40.534836 
L 53.199136 40.534836 
L 52.13834 40.534836 
L 51.071399 40.534836 
L 49.999674 40.534836 
L 48.924325 40.534836 
L 47.846332 40.534836 
L 46.766524 40.534836 
L 45.68562 40.534836 
L 44.604265 40.534836 
L 43.523082 40.534836 
L 42.442719 40.534836 
L 41.36391 40.534836 
L 40.287523 40.534836 
L 39.214628 40.534836 
L 38.146546 40.534836 
L 37.084912 40.534836 
L 36.031728 40.534836 
L 34.989407 40.534836 
L 33.960823 40.534836 
L 32.949336 40.534836 
L 31.958822 40.534836 
L 30.993674 40.534836 
L 30.058805 40.534836 
L 29.159616 40.534836 
L 28.30196 40.534836 
L 27.492073 40.534836 
L 26.736494 40.534836 
L 26.041962 40.534836 
L 25.415287 40.534836 
L 24.863212 40.534836 
L 24.392257 40.534836 
L 24.008549 40.534836 
L 23.717654 40.534836 
L 23.524403 40.534836 
L 23.432727 40.534836 
L 23.445506 40.534836 
L 23.564438 40.534836 
L 23.789932 40.534836 
L 24.121038 40.534836 
L 24.555407 40.534836 
L 25.089293 40.534836 
L 25.717594 40.534836 
L 26.433938 40.534836 
L 27.230794 40.534836 
L 28.099633 40.534836 
L 29.031102 40.534836 
L 30.015226 40.534836 
L 31.041625 40.534836 
L 32.099733 40.534836 
L 33.17902 40.534836 
L 34.269192 40.534836 
L 35.360396 40.534836 
L 36.443379 40.534836 
L 37.509643 40.534836 
L 38.551553 40.534836 
L 39.562427 40.534836 
L 40.536592 40.534836 
L 41.469409 40.534836 
L 42.357273 40.534836 
L 43.19759 40.534836 
L 43.988734 40.534836 
L 44.729986 40.534836 
L 45.421461 40.534836 
L 46.064032 40.534836 
L 46.659241 40.534836 
L 47.209215 40.534836 
L 47.716581 40.534836 
L 48.184386 40.534836 
L 48.616017 40.534836 
L 49.015133 40.534836 
L 49.385602 40.534836 
L 49.731442 40.534836 
L 50.056774 40.534836 
L 50.365774 40.534836 
L 50.662638 40.534836 
L 50.951545 40.534836 
L 51.236632 40.534836 
L 51.521962 40.534836 
L 51.811503 40.534836 
L 52.109104 40.534836 
L 52.418471 40.534836 
L 52.743148 40.534836 
L 53.086495 40.534836 
L 53.451663 40.534836 
L 53.841576 40.534836 
L 54.258908 40.534836 
L 54.706062 40.534836 
L 55.18515 40.534836 
L 55.697973 40.534836 
L 56.24601 40.534836 
L 56.830399 40.534836 
L 57.451927 40.534836 
L 58.11103 40.534836 
L 58.807784 40.534836 
L 59.541915 40.534836 
L 60.312802 40.534836 
L 61.119496 40.534836 
L 61.960732 40.534836 
L 62.83496 40.534836 
L 63.740368 40.534836 
L 64.674915 40.534836 
L 65.636365 40.534836 
L 66.622325 40.534836 
L 67.630285 40.534836 
L 68.657653 40.534836 
L 69.701797 40.534836 
L 70.760082 40.534836 
L 71.829904 40.534836 
L 72.908725 40.534836 
L 73.994104 40.534836 
L 75.083718 40.534836 
L 76.175393 40.534836 
L 77.267113 40.534836 
L 78.357043 40.534836 
L 79.443533 40.534836 
L 80.525128 40.534836 
L 81.600567 40.534836 
L 82.668788 40.534836 
L 83.728919 40.534836 
L 84.780272 40.534836 
L 85.822339 40.534836 
L 86.854776 40.534836 
L 87.877394 40.534836 
L 88.890146 40.534836 
L 89.893113 40.534836 
L 90.886488 40.534836 
L 91.870564 40.534836 
L 92.845723 40.534836 
L 93.812413 40.534836 
L 94.771146 40.534836 
L 95.722479 40.534836 
L 96.667003 40.534836 
L 97.605334 40.534836 
L 98.538103 40.534836 
L 99.465948 40.534836 
L 100.389503 40.534836 
L 101.309395 40.534836 
L 102.226238 40.534836 
L 103.140627 40.534836 
L 104.053132 40.534836 
L 104.964301 40.534836 
L 105.874653 40.534836 
L 106.78468 40.534836 
L 107.694841 40.534836 
L 108.605568 40.534836 
L 109.517266 40.534836 
L 110.430308 40.534836 
L 111.345044 40.534836 
L 112.261797 40.534836 
L 113.180869 40.534836 
L 114.102541 40.534836 
L 115.027076 40.534836 
L 115.954722 40.534836 
L 116.885715 40.534836 
L 117.820277 40.534836 
L 118.758627 40.534836 
L 119.700973 40.534836 
L 120.647522 40.534836 
L 121.598479 40.534836 
L 122.554047 40.534836 
L 123.514429 40.534836 
L 124.479829 40.534836 
L 125.450452 40.534836 
L 126.426502 40.534836 
L 127.408184 40.534836 
L 128.395698 40.534836 
L 129.389242 40.534836 
L 130.389 40.534836 
L 131.39515 40.534836 
L 132.407846 40.534836 
L 133.427223 40.534836 
L 134.453383 40.534836 
L 135.486391 40.534836 
L 136.526265 40.534836 
L 137.572965 40.534836 
L 138.626386 40.534836 
L 139.686342 40.534836 
L 140.752559 40.534836 
L 141.824657 40.534836 
L 142.90214 40.534836 
L 143.984381 40.534836 
L 145.070611 40.534836 
L 146.159903 40.534836 
L 147.251157 40.534836 
L 148.343096 40.534836 
L 149.434247 40.534836 
L 150.522936 40.534836 
L 151.607282 40.534836 
L 152.685191 40.534836 
L 153.754356 40.534836 
L 154.812261 40.534836 
L 155.856185 40.534836 
L 156.883215 40.534836 
L 157.890259 40.534836 
L 158.874071 40.534836 
L 159.831273 40.534836 
L 160.758385 40.534836 
L 161.65186 40.534836 
L 162.508128 40.534836 
L 163.32363 40.534836 
L 164.094872 40.534836 
L 164.818466 40.534836 
L 165.491186 40.534836 
L 166.110009 40.534836 
L 166.67217 40.534836 
L 167.1752 40.534836 
L 167.616974 40.534836 
L 167.99574 40.534836 
L 168.310155 40.534836 
L 168.559303 40.534836 
L 168.742713 40.534836 
L 168.860366 40.534836 
L 168.912691 40.534836 
L 168.900559 40.534836 
L 168.825261 40.534836 
L 168.688488 40.534836 
L 168.492295 40.534836 
L 168.239066 40.534836 
L 167.931477 40.534836 
L 167.572448 40.534836 
L 167.165101 40.534836 
L 166.712716 40.534836 
L 166.218689 40.534836 
L 165.686494 40.534836 
L 165.119643 40.534836 
L 164.521663 40.534836 
L 163.896066 40.534836 
L 163.246333 40.534836 
L 162.575901 40.534836 
L 161.888162 40.534836 
L 161.186459 40.534836 
L 160.474096 40.534836 
L 159.754354 40.534836 
L 159.030502 40.534836 
L 158.305824 40.534836 
L 157.583643 40.534836 
L 156.867343 40.534836 
L 156.160399 40.534836 
L 155.466402 40.534836 
L 154.789078 40.534836 
L 154.13231 40.534836 
L 153.500149 40.534836 
L 152.896818 40.534836 
L 152.326713 40.534836 
L 151.794385 40.534836 
L 151.304518 40.534836 
L 150.861891 40.534836 
L 150.471331 40.534836 
L 150.137652 40.534836 
L 149.865578 40.534836 
L 149.659664 40.534836 
L 149.524196 40.534836 
L 149.463098 40.534836 
L 149.479817 40.534836 
L 149.577227 40.534836 
L 149.757521 40.534836 
L 150.022115 40.534836 
L 150.371564 40.534836 
L 150.805495 40.534836 
L 151.322555 40.534836 
L 151.920386 40.534836 
L 152.595619 40.534836 
L 153.343906 40.534836 
L 154.159964 40.534836 
L 155.037656 40.534836 
L 155.970098 40.534836 
L 156.949776 40.534836 
L 157.968694 40.534836 
L 159.018527 40.534836 
L 160.090784 40.534836 
L 161.176975 40.534836 
L 162.268767 40.534836 
L 163.358146 40.534836 
L 164.43755 40.534836 
L 165.499995 40.534836 
L 166.539179 40.534836 
L 167.549562 40.534836 
L 168.526425 40.534836 
L 169.465906 40.534836 
L 170.365014 40.534836 
L 171.221622 40.534836 
L 172.034446 40.534836 
L 172.803004 40.534836 
L 173.527566 40.534836 
L 174.209095 40.534836 
L 174.84918 40.534836 
L 175.449968 40.534836 
L 176.014096 40.534836 
L 176.544619 40.534836 
L 177.044944 40.534836 
L 177.518768 40.534836 
L 177.970021 40.534836 
L 178.40281 40.534836 
L 178.82137 40.534836 
L 179.23002 40.534836 
L 179.633118 40.534836 
L 180.035028 40.534836 
L 180.440078 40.534836 
L 180.852525 40.534836 
L 181.276525 40.534836 
L 181.716089 40.534836 
L 182.175055 40.534836 
L 182.657047 40.534836 
L 183.165435 40.534836 
L 183.703301 40.534836 
L 184.273392 40.534836 
L 184.878088 40.534836 
L 185.519358 40.534836 
L 186.198724 40.534836 
L 186.917231 40.534836 
L 187.675416 40.534836 
L 188.473287 40.534836 
L 189.310309 40.534836 
L 190.185397 40.534836 
L 191.096923 40.534836 
L 192.042727 40.534836 
L 193.020146 40.534836 
L 194.026048 40.534836 
L 195.056881 40.534836 
L 196.108729 40.534836 
L 197.177376 40.534836 
L 198.258381 40.534836 
L 199.347152 40.534836 
L 200.439027 40.534836 
L 201.529356 40.534836 
L 202.613581 40.534836 
L 203.68731 40.534836 
L 204.746388 40.534836 
L 205.786963 40.534836 
L 206.805539 40.534836 
L 207.799023 40.534836 
L 208.764759 40.534836 
L 209.700557 40.534836 
L 210.604704 40.534836 
L 211.475972 40.534836 
L 212.313615 40.534836 
L 213.117355 40.534836 
L 213.887365 40.534836 
L 214.624244 40.534836 
L 215.328988 40.534836 
L 216.002957 40.534836 
L 216.64784 40.534836 
L 217.265619 40.534836 
L 217.858533 40.534836 
L 218.429041 40.534836 
L 218.979785 40.534836 
L 219.513557 40.534836 
L 220.033268 40.534836 
L 220.541911 40.534836 
L 221.04254 40.534836 
L 221.538232 40.534836 
L 222.032067 40.534836 
L 222.527103 40.534836 
L 223.026344 40.534836 
L 223.532724 40.534836 
L 224.049082 40.534836 
L 224.578134 40.534836 
L 225.122459 40.534836 
L 225.68447 40.534836 
L 226.266399 40.534836 
L 226.870272 40.534836 
L 227.497893 40.534836 
L 228.150825 40.534836 
L 228.830374 40.534836 
L 229.537575 40.534836 
L 230.273182 40.534836 
L 231.037663 40.534836 
L 231.831188 40.534836 
L 232.653638 40.534836 
L 233.504601 40.534836 
L 234.383386 40.534836 
L 235.289034 40.534836 
L 236.220333 40.534836 
L 237.175842 40.534836 
L 238.153918 40.534836 
L 239.152738 40.534836 
L 240.17034 40.534836 
L 241.204649 40.534836 
L 242.253518 40.534836 
L 243.31476 40.534836 
L 244.386189 40.534836 
L 245.465651 40.534836 
L 246.551063 40.534836 
L 247.640438 40.534836 
L 248.731922 40.534836 
L 249.823812 40.534836 
L 250.914583 40.534836 
L 252.002904 40.534836 
L 253.08765 40.534836 
L 254.167913 40.534836 
L 255.243005 40.534836 
L 256.312459 40.534836 
L 257.376028 40.534836 
L 258.433671 40.534836 
L 259.485551 40.534836 
L 260.532011 40.534836 
L 261.573565 40.534836 
L 262.610874 40.534836 
L 263.644726 40.534836 
L 264.67601 40.534836 
L 265.705694 40.534836 
L 266.734796 40.534836 
L 267.764356 40.534836 
L 268.795409 40.534836 
L 269.828958 40.534836 
L 270.865939 40.534836 
L 271.907197 40.534836 
L 272.953457 40.534836 
L 274.005294 40.534836 
L 275.063108 40.534836 
L 276.127098 40.534836 
L 277.197242 40.534836 
L 278.273269 40.534836 
L 279.354652 40.534836 
L 280.440583 40.534836 
L 281.529973 40.534836 
L 282.621437 40.534836 
L 283.713303 40.534836 
L 284.803609 40.534836 
L 285.89012 40.534836 
L 286.970338 40.534836 
L 288.041531 40.534836 
L 289.100756 40.534836 
L 290.144895 40.534836 
L 291.170694 40.534836 
L 292.174802 40.534836 
L 293.153824 40.534836 
L 294.104363 40.534836 
L 295.023074 40.534836 
L 295.906716 40.534836 
L 296.752199 40.534836 
L 297.556634 40.534836 
L 298.317375 40.534836 
L 299.032063 40.534836 
L 299.698659 40.534836 
L 300.315473 40.534836 
L 300.881187 40.534836 
L 301.394871 40.534836 
L 301.855992 40.534836 
L 302.264413 40.534836 
L 302.620392 40.534836 
L 302.924566 40.534836 
L 303.177941 40.534836 
L 303.381862 40.534836 
L 303.537997 40.534836 
L 303.648304 40.534836 
L 303.715002 40.534836 
L 303.740542 40.534836 
L 303.727575 40.534836 
L 303.678926 40.534836 
L 303.597562 40.534836 
L 303.486568 40.534836 
L 303.349127 40.534836 
L 303.188493 40.534836 
L 303.00798 40.534836 
L 302.810942 40.534836 
L 302.600766 40.534836 
L 302.380861 40.534836 
L 302.154646 40.534836 
L 301.925551 40.534836 
L 301.697007 40.534836 
L 301.472445 40.534836 
L 301.255287 40.534836 
L 301.048944 40.534836 
L 300.856808 40.534836 
L 300.682241 40.534836 
L 300.528567 40.534836 
L 300.399055 40.534836 
L 300.296903 40.534836 
L 300.225219 40.534836 
L 300.186997 40.534836 
L 300.185092 40.534836 
L 300.222191 40.534836 
L 300.300783 40.534836 
L 300.423131 40.534836 
L 300.59124 40.534836 
L 300.806824 40.534836 
L 301.071282 40.534836 
L 301.385674 40.534836 
L 301.750696 40.534836 
L 302.166667 40.534836 
L 302.63352 40.534836 
L 303.150798 40.534836 
L 303.717659 40.534836 
L 304.33289 40.534836 
L 304.994923 40.534836 
L 305.701868 40.534836 
L 306.45154 40.534836 
L 307.241506 40.534836 
L 308.069125 40.534836 
L 308.931598 40.534836 
L 309.82602 40.534836 
L 310.749429 40.534836 
L 311.698858 40.534836 
L 312.671385 40.534836 
L 313.664175 40.534836 
L 314.674523 40.534836 
L 315.699885 40.534836 
L 316.737909 40.534836 
L 317.786453 40.534836 
L 318.843598 40.534836 
L 319.90765 40.534836 
L 320.97714 40.534836 
L 322.05081 40.534836 
L 323.127594 40.534836 
L 324.20659 40.534836 
L 325.28703 40.534836 
L 326.368237 40.534836 
L 327.449585 40.534836 
L 328.530443 40.534836 
L 329.610127 40.534836 
L 330.687845 40.534836 
L 331.762634 40.534836 
L 332.833307 40.534836 
L 333.898391 40.534836 
L 334.956074 40.534836 
L 336.004156 40.534836 
L 337.039997 40.534836 
L 338.060485 40.534836 
L 339.062002 40.534836 
L 340.040416 40.534836 
L 340.991069 40.534836 
L 341.908803 40.534836 
L 342.787982 40.534836 
L 343.622555 40.534836 
L 344.40612 40.534836 
L 345.132026 40.534836 
L 345.79348 40.534836 
L 346.383688 40.534836 
L 346.895997 40.534836 
L 347.324063 40.534836 
L 347.662018 40.534836 
L 347.904643 40.534836 
L 348.047535 40.534836 
L 348.087273 40.534836 
L 348.021551 40.534836 
L 347.849306 40.534836 
L 347.5708 40.534836 
L 347.187681 40.534836 
L 346.702999 40.534836 
L 346.121186 40.534836 
L 345.447991 40.534836 
L 344.690384 40.534836 
L 343.856414 40.534836 
L 342.955047 40.534836 
L 341.995974 40.534836 
L 340.989398 40.534836 
L 339.94582 40.534836 
L 338.875817 40.534836 
L 337.789824 40.534836 
L 336.697938 40.534836 
L 335.609732 40.534836 
L 334.534098 40.534836 
L 333.479115 40.534836 
L 332.45195 40.534836 
L 331.458785 40.534836 
L 330.504779 40.534836 
L 329.594052 40.534836 
L 328.729699 40.534836 
L 327.913823 40.534836 
L 327.14759 40.534836 
L 326.43129 40.534836 
L 325.76442 40.534836 
L 325.145761 40.534836 
L 324.573469 40.534836 
L 324.045155 40.534836 
L 323.557973 40.534836 
L 323.108697 40.534836 
L 322.693796 40.534836 
L 322.309497 40.534836 
L 321.951852 40.534836 
L 321.616786 40.534836 
L 321.300144 40.534836 
L 320.997736 40.534836 
L 320.705371 40.534836 
L 320.418887 40.534836 
L 320.134181 40.534836 
L 319.847235 40.534836 
L 319.554137 40.534836 
L 319.251107 40.534836 
L 318.934516 40.534836 
L 318.600912 40.534836 
L 318.247035 40.534836 
L 317.869844 40.534836 
L 317.466539 40.534836 
L 317.034579 40.534836 
L 316.571703 40.534836 
L 316.075953 40.534836 
L 315.545686 40.534836 
L 314.979594 40.534836 
L 314.376713 40.534836 
L 313.736429 40.534836 
L 313.058488 40.534836 
L 312.342989 40.534836 
L 311.590382 40.534836 
L 310.801452 40.534836 
L 309.977311 40.534836 
L 309.119368 40.534836 
L 308.229308 40.534836 
L 307.309062 40.534836 
L 306.360774 40.534836 
L 305.386761 40.534836 
L 304.389482 40.534836 
L 303.37149 40.534836 
L 302.335404 40.534836 
L 301.283862 40.534836 
L 300.219486 40.534836 
L 299.144853 40.534836 
L 298.062454 40.534836 
L 296.974676 40.534836 
L 295.883769 40.534836 
L 294.791831 40.534836 
L 293.700788 40.534836 
L 292.612383 40.534836 
L 291.528172 40.534836 
L 290.449509 40.534836 
L 289.377558 40.534836 
L 288.313285 40.534836 
L 287.257469 40.534836 
L 286.210706 40.534836 
L 285.173421 40.534836 
L 284.145879 40.534836 
L 283.128196 40.534836 
L 282.120354 40.534836 
L 281.122214 40.534836 
L 280.133531 40.534836 
L 279.153966 40.534836 
L 278.183102 40.534836 
L 277.220457 40.534836 
L 276.265496 40.534836 
L 275.317643 40.534836 
L 274.376294 40.534836 
L 273.440823 40.534836 
L 272.510596 40.534836 
L 271.584975 40.534836 
L 270.663329 40.534836 
L 269.745037 40.534836 
L 268.829494 40.534836 
L 267.916118 40.534836 
L 267.004347 40.534836 
L 266.093649 40.534836 
L 265.18352 40.534836 
L 264.273482 40.534836 
L 263.36309 40.534836 
L 262.451925 40.534836 
L 261.539601 40.534836 
L 260.625754 40.534836 
L 259.710049 40.534836 
L 258.792172 40.534836 
L 257.871834 40.534836 
L 256.948763 40.534836 
L 256.022702 40.534836 
L 255.093411 40.534836 
L 254.160661 40.534836 
z
"/>
   </g>
  </g>
 </g>
 <defs>
  <clipPath id="p4d1fee8087">
   <rect height="193.748168" width="357.12" x="7.2" y="7.2"/>
  </clipPath>
 </defs>
</svg>
