<?xml version="1.0" encoding="utf-8" standalone="no"?>
<!DOCTYPE svg PUBLIC "-//W3C//DTD SVG 1.1//EN"
  "http://www.w3.org/Graphics/SVG/1.1/DTD/svg11.dtd">
<svg height="280.512pt" version="1.1" viewBox="0 0 329.268587 280.512" width="329.268587pt" xmlns="http://www.w3.org/2000/svg" xmlns:xlink="http://www.w3.org/1999/xlink">
 <metadata>
  <rdf:RDF xmlns:cc="http://creativecommons.org/ns#" xmlns:dc="http://purl.org/dc/elements/1.1/" xmlns:rdf="http://www.w3.org/1999/02/22-rdf-syntax-ns#">
   <cc:Work>
    <dc:type rdf:resource="http://purl.org/dc/dcmitype/StillImage"/>
    <dc:date>2022-11-22T17:11:48.215553</dc:date>
    <dc:format>image/svg+xml</dc:format>
    <dc:creator>
     <cc:Agent>
      <dc:title>Matplotlib v3.4.2, https://matplotlib.org/</dc:title>
     </cc:Agent>
    </dc:creator>
   </cc:Work>
  </rdf:RDF>
 </metadata>
 <defs>
  <style type="text/css">*{stroke-linecap:butt;stroke-linejoin:round;}</style>
 </defs>
 <g id="figure_1">
  <g id="patch_1">
   <path d="M 0 280.512 
L 329.268587 280.512 
L 329.268587 0 
L 0 0 
z
" style="fill:none;"/>
  </g>
  <g id="axes_1">
   <g id="PolyCollection_1">
    <path clip-path="url(#pf89931f0f9)" d="M 146.524514 36.334612 
L 146.524514 36.334612 
L 147.418441 36.272147 
L 148.312659 36.213995 
L 149.206986 36.157546 
L 150.101257 36.100215 
L 150.995302 36.039463 
L 151.888927 35.972816 
L 152.781896 35.897883 
L 153.673914 35.812375 
L 154.564618 35.714126 
L 155.45357 35.601108 
L 156.340247 35.471452 
L 157.22405 35.323464 
L 158.104302 35.155643 
L 158.980261 34.966694 
L 159.851136 34.755541 
L 160.716097 34.521343 
L 161.574305 34.263491 
L 162.424927 33.981625 
L 163.267169 33.675625 
L 164.100297 33.345615 
L 164.923663 32.991954 
L 165.736735 32.615231 
L 166.53912 32.216249 
L 167.330579 31.796011 
L 168.111055 31.35571 
L 168.880678 30.896703 
L 169.639784 30.420503 
L 170.388911 29.928755 
L 171.128808 29.423226 
L 171.860425 28.905787 
L 172.584908 28.378404 
L 173.30358 27.84313 
L 174.017928 27.302099 
L 174.729577 26.757524 
L 175.440266 26.211694 
L 176.151812 25.666985 
L 176.866085 25.125855 
L 177.584963 24.590858 
L 178.310297 24.064645 
L 179.043865 23.549975 
L 179.787333 23.049713 
L 180.542207 22.566834 
L 181.309787 22.104418 
L 182.091122 21.665644 
L 182.886967 21.253771 
L 183.697739 20.872122 
L 184.523482 20.524047 
L 185.363835 20.212896 
L 186.218004 19.941968 
L 187.08475 19.714461 
L 187.962379 19.533423 
L 188.84875 19.401686 
L 189.741289 19.321804 
L 190.637024 19.296 
L 191.532625 19.326099 
L 192.424462 19.413482 
L 193.308668 19.559039 
L 194.181223 19.763136 
L 195.038033 20.025594 
L 195.875021 20.345685 
L 196.68822 20.722135 
L 197.473859 21.153155 
L 198.228453 21.636472 
L 198.948877 22.169387 
L 199.632433 22.748833 
L 200.276911 23.371453 
L 200.880625 24.033674 
L 201.442442 24.731793 
L 201.961795 25.462053 
L 202.438683 26.220726 
L 202.873656 27.004184 
L 203.267786 27.808963 
L 203.62264 28.631815 
L 203.940233 29.469755 
L 204.222984 30.320083 
L 204.473669 31.180412 
L 204.695367 32.048661 
L 204.891418 32.923059 
L 205.065372 33.80212 
L 205.220948 34.684618 
L 205.361992 35.569556 
L 205.492444 36.456116 
L 205.616301 37.343622 
L 205.737587 38.231483 
L 205.860323 39.119145 
L 205.9885 40.006037 
L 206.126049 40.891525 
L 206.27681 41.774859 
L 206.444501 42.655135 
L 206.632686 43.53126 
L 206.844737 44.401916 
L 207.083797 45.265546 
L 207.352739 46.120343 
L 207.654129 46.964246 
L 207.990182 47.794954 
L 208.36273 48.609948 
L 208.773184 49.406525 
L 209.222509 50.181841 
L 209.711203 50.932964 
L 210.23929 51.656933 
L 210.806314 52.350829 
L 211.411354 53.011839 
L 212.05305 53.637326 
L 212.729632 54.224901 
L 213.438972 54.77248 
L 214.178639 55.278346 
L 214.945962 55.741189 
L 215.738101 56.160144 
L 216.552119 56.53482 
L 217.385058 56.865306 
L 218.234007 57.152171 
L 219.096173 57.396461 
L 219.968936 57.599669 
L 220.849899 57.763713 
L 221.736934 57.890902 
L 222.628203 57.983892 
L 223.522179 58.045651 
L 224.41765 58.079417 
L 225.313709 58.088658 
L 226.20974 58.077035 
L 227.105389 58.04837 
L 228.000522 58.006616 
L 228.895189 57.955832 
L 229.789565 57.900158 
L 230.683898 57.8438 
L 231.578448 57.791006 
L 232.473426 57.746052 
L 233.368932 57.713218 
L 234.264887 57.696771 
L 235.160985 57.700933 
L 236.056625 57.729852 
L 236.950871 57.787566 
L 237.842408 57.877956 
L 238.729507 58.004693 
L 239.61001 58.17119 
L 240.481321 58.380533 
L 241.340414 58.635418 
L 242.183857 58.938092 
L 243.007853 59.290285 
L 243.808293 59.693153 
L 244.580834 60.147232 
L 245.320976 60.652402 
L 246.024165 61.20786 
L 246.685891 61.812117 
L 247.3018 62.463011 
L 247.867801 63.157741 
L 248.380168 63.89292 
L 248.835635 64.664644 
L 249.23148 65.46858 
L 249.56559 66.300072 
L 249.836507 67.154245 
L 250.043457 68.026127 
L 250.186354 68.910767 
L 250.265791 69.803346 
L 250.283001 70.699288 
L 250.239816 71.594354 
L 250.138597 72.484726 
L 249.98217 73.367074 
L 249.773741 74.238604 
L 249.516826 75.097092 
L 249.215164 75.940897 
L 248.872648 76.768962 
L 248.493259 77.580794 
L 248.081006 78.376441 
L 247.639883 79.156453 
L 247.173831 79.921831 
L 246.686712 80.673976 
L 246.182299 81.414635 
L 245.664269 82.145834 
L 245.136205 82.86982 
L 244.601614 83.589 
L 244.063933 84.305873 
L 243.526555 85.022973 
L 242.992846 85.742808 
L 242.466162 86.467798 
L 241.949868 87.200225 
L 241.447348 87.942169 
L 240.96201 88.695465 
L 240.497287 89.46165 
L 240.056627 90.241923 
L 239.643477 91.037105 
L 239.261259 91.847609 
L 238.913334 92.673415 
L 238.602967 93.514058 
L 238.333281 94.36862 
L 238.107204 95.23574 
L 237.927426 96.113628 
L 237.79634 97.000095 
L 237.715999 97.892593 
L 237.688072 98.788265 
L 237.713803 99.684002 
L 237.793989 100.576514 
L 237.92896 101.462398 
L 238.118569 102.338215 
L 238.362204 103.200567 
L 238.658798 104.046167 
L 239.006865 104.871913 
L 239.404528 105.674952 
L 239.849575 106.452731 
L 240.339508 107.203047 
L 240.871599 107.924078 
L 241.442953 108.614413 
L 242.050564 109.27306 
L 242.691377 109.899452 
L 243.362339 110.493436 
L 244.06045 111.055263 
L 244.782801 111.585561 
L 245.526616 112.085307 
L 246.289274 112.555797 
L 247.068331 112.998604 
L 247.861531 113.415546 
L 248.666814 113.808645 
L 249.482312 114.18009 
L 250.306343 114.532198 
L 251.137401 114.867384 
L 251.974143 115.18812 
L 252.815364 115.496913 
L 253.65999 115.79627 
L 254.507048 116.088675 
L 255.355652 116.376563 
L 256.204981 116.662302 
L 257.054268 116.948169 
L 257.902778 117.236332 
L 258.7498 117.528841 
L 259.594636 117.827603 
L 260.436596 118.134379 
L 261.274991 118.450767 
L 262.109136 118.778196 
L 262.938349 119.11792 
L 263.76196 119.47101 
L 264.579314 119.838353 
L 265.389779 120.220654 
L 266.192761 120.618431 
L 266.987711 121.032027 
L 267.774138 121.461609 
L 268.551617 121.90718 
L 269.319804 122.368587 
L 270.078443 122.845531 
L 270.827371 123.337582 
L 271.566529 123.84419 
L 272.295966 124.364699 
L 273.015835 124.898362 
L 273.726399 125.444353 
L 274.428025 126.001783 
L 275.121183 126.56971 
L 275.806432 127.147153 
L 276.48442 127.733105 
L 277.155867 128.326541 
L 277.82156 128.926425 
L 278.482332 129.531725 
L 279.139054 130.141416 
L 279.79262 130.754489 
L 280.443933 131.369956 
L 281.093886 131.986858 
L 281.743355 132.60427 
L 282.39318 133.221307 
L 283.044153 133.837134 
L 283.697006 134.450966 
L 284.352404 135.062081 
L 285.010928 135.669825 
L 285.673075 136.27362 
L 286.339245 136.872975 
L 287.009739 137.467487 
L 287.684754 138.056861 
L 288.364384 138.640909 
L 289.048613 139.21956 
L 289.737322 139.792874 
L 290.430284 140.361038 
L 291.12717 140.924383 
L 291.82755 141.483377 
L 292.530894 142.038638 
L 293.236574 142.590928 
L 293.943865 143.141153 
L 294.651945 143.690361 
L 295.359897 144.239735 
L 296.066701 144.790585 
L 296.771234 145.344336 
L 297.472265 145.902515 
L 298.168443 146.466734 
L 298.858297 147.038669 
L 299.540218 147.620038 
L 300.212458 148.212577 
L 300.873112 148.818005 
L 301.520116 149.437999 
L 302.151238 150.074154 
L 302.764071 150.727945 
L 303.356033 151.400692 
L 303.924371 152.093512 
L 304.466168 152.807279 
L 304.978358 153.542581 
L 305.457748 154.299676 
L 305.901046 155.078454 
L 306.304897 155.878399 
L 306.665931 156.698558 
L 306.980811 157.537521 
L 307.246294 158.393398 
L 307.459297 159.263822 
L 307.616961 160.14595 
L 307.716721 161.036486 
L 307.756379 161.931715 
L 307.734164 162.827547 
L 307.648795 163.719578 
L 307.49953 164.603166 
L 307.286202 165.47351 
L 307.009248 166.325744 
L 306.669714 167.155036 
L 306.26925 167.956682 
L 305.810083 168.726209 
L 305.294974 169.45947 
L 304.727166 170.152724 
L 304.110306 170.802717 
L 303.448368 171.406742 
L 302.745563 171.962684 
L 302.00624 172.469054 
L 301.234799 172.924999 
L 300.435589 173.330302 
L 299.612827 173.685366 
L 298.770519 173.991183 
L 297.912389 174.249292 
L 297.041828 174.461733 
L 296.161851 174.630992 
L 295.275071 174.759943 
L 294.383684 174.851791 
L 293.48947 174.910016 
L 292.593811 174.938321 
L 291.697707 174.940587 
L 290.801818 174.920825 
L 289.906503 174.883148 
L 289.011873 174.831732 
L 288.11784 174.770798 
L 287.224183 174.704586 
L 286.330603 174.637338 
L 285.436788 174.573282 
L 284.542475 174.516615 
L 283.647505 174.471487 
L 282.751884 174.441979 
L 281.855832 174.432079 
L 280.959828 174.445658 
L 280.064649 174.486433 
L 279.171399 174.557935 
L 278.281528 174.663461 
L 277.396836 174.806036 
L 276.519474 174.988363 
L 275.651921 175.212774 
L 274.796959 175.481189 
L 273.957623 175.795072 
L 273.137151 176.155396 
L 272.338918 176.56262 
L 271.56636 177.01667 
L 270.822895 177.516939 
L 270.111843 178.062294 
L 269.43634 178.651109 
L 268.799257 179.281293 
L 268.203131 179.950353 
L 267.650096 180.655449 
L 267.141831 181.393469 
L 266.679519 182.161112 
L 266.263821 182.954965 
L 265.89486 183.771589 
L 265.572224 184.6076 
L 265.294982 185.459741 
L 265.061703 186.324951 
L 264.870494 187.20042 
L 264.719041 188.083636 
L 264.60465 188.972412 
L 264.524298 189.864909 
L 264.474679 190.759641 
L 264.452247 191.655467 
L 264.453264 192.551573 
L 264.47383 193.447444 
L 264.509925 194.342823 
L 264.55743 195.23767 
L 264.612161 196.132104 
L 264.669879 197.02635 
L 264.726322 197.920678 
L 264.777211 198.815339 
L 264.81828 199.710504 
L 264.845288 200.606204 
L 264.854047 201.502268 
L 264.840453 202.398271 
L 264.800511 203.293488 
L 264.730383 204.186846 
L 264.626427 205.076903 
L 264.485249 205.961819 
L 264.303757 206.839354 
L 264.079215 207.706872 
L 263.809302 208.561363 
L 263.492168 209.399477 
L 263.12648 210.217571 
L 262.711465 211.011782 
L 262.246948 211.778092 
L 261.733362 212.51242 
L 261.171761 213.210712 
L 260.563802 213.869038 
L 259.911718 214.483688 
L 259.218274 215.051264 
L 258.4867 215.568765 
L 257.720619 216.03366 
L 256.923957 216.443949 
L 256.100848 216.798207 
L 255.255533 217.095612 
L 254.392258 217.335953 
L 253.515176 217.519624 
L 252.628255 217.647599 
L 251.735192 217.721397 
L 250.839346 217.743033 
L 249.943679 217.71496 
L 249.050712 217.64001 
L 248.162499 217.52133 
L 247.280613 217.362317 
L 246.40615 217.16656 
L 245.539738 216.937785 
L 244.681568 216.679807 
L 243.831427 216.396491 
L 242.98874 216.09172 
L 242.152619 215.76937 
L 241.32192 215.433296 
L 240.495296 215.087318 
L 239.671259 214.735223 
L 238.848239 214.380758 
L 238.024643 214.027632 
L 237.198914 213.679525 
L 236.369587 213.340079 
L 235.535342 213.012905 
L 234.695056 212.701574 
L 233.847846 212.409609 
L 232.993111 212.14047 
L 232.130564 211.897532 
L 231.260255 211.68406 
L 230.382593 211.50318 
L 229.498352 211.357837 
L 228.608665 211.250764 
L 227.715016 211.184436 
L 226.819215 211.161031 
L 225.923363 211.182394 
L 225.02981 211.249998 
L 224.141103 211.364921 
L 223.259927 211.527822 
L 222.389041 211.738927 
L 221.531211 211.998032 
L 220.689141 212.304505 
L 219.865408 212.65731 
L 219.062396 213.055028 
L 218.282243 213.4959 
L 217.526785 213.977866 
L 216.797523 214.498619 
L 216.095581 215.055652 
L 215.421695 215.646317 
L 214.776195 216.267877 
L 214.159005 216.917557 
L 213.569651 217.59259 
L 213.007276 218.290259 
L 212.470665 219.007933 
L 211.958267 219.74309 
L 211.468232 220.493339 
L 210.998446 221.25643 
L 210.546562 222.030257 
L 210.110047 222.812857 
L 209.686211 223.602395 
L 209.272249 224.397155 
L 208.865278 225.195517 
L 208.462372 225.995938 
L 208.060595 226.796927 
L 207.657037 227.59702 
L 207.248846 228.394759 
L 206.833259 229.18867 
L 206.407633 229.977244 
L 205.969473 230.758924 
L 205.516463 231.532092 
L 205.046488 232.295068 
L 204.557665 233.046107 
L 204.048355 233.783407 
L 203.517193 234.505123 
L 202.963091 235.20938 
L 202.385258 235.894301 
L 201.7832 236.558028 
L 201.156719 237.198754 
L 200.505912 237.814755 
L 199.831155 238.404425 
L 199.133086 238.966303 
L 198.412584 239.499111 
L 197.670739 240.001777 
L 196.908821 240.473464 
L 196.128246 240.913589 
L 195.330536 241.321838 
L 194.517286 241.698176 
L 193.69012 242.042857 
L 192.850662 242.356412 
L 192.000496 242.639655 
L 191.141143 242.893662 
L 190.274029 243.119762 
L 189.40047 243.319517 
L 188.521653 243.494698 
L 187.63863 243.647267 
L 186.752311 243.77935 
L 185.863467 243.893214 
L 184.972738 243.991239 
L 184.08064 244.0759 
L 183.18758 244.149738 
L 182.293878 244.215342 
L 181.399781 244.275323 
L 180.505487 244.332299 
L 179.611167 244.388868 
L 178.716987 244.447596 
L 177.823125 244.510991 
L 176.929796 244.581488 
L 176.037262 244.661429 
L 175.14585 244.753045 
L 174.255963 244.858434 
L 173.368078 244.979548 
L 172.482758 245.11817 
L 171.600642 245.2759 
L 170.72244 245.454137 
L 169.848921 245.654067 
L 168.980898 245.876652 
L 168.119208 246.122617 
L 167.264691 246.392445 
L 166.418163 246.686379 
L 165.580391 247.004415 
L 164.75207 247.346309 
L 163.933792 247.711588 
L 163.126024 248.099554 
L 162.329083 248.509302 
L 161.54312 248.939731 
L 160.768099 249.389565 
L 160.003789 249.857366 
L 159.249754 250.341554 
L 158.505348 250.84042 
L 157.769722 251.352144 
L 157.041827 251.874807 
L 156.320426 252.406397 
L 155.60411 252.944821 
L 154.891323 253.487905 
L 154.180377 254.033399 
L 153.469491 254.578971 
L 152.756816 255.122204 
L 152.040474 255.660592 
L 151.318597 256.191535 
L 150.589362 256.712327 
L 149.851043 257.220159 
L 149.102048 257.712108 
L 148.340969 258.185147 
L 147.566625 258.636145 
L 146.77811 259.06188 
L 145.974831 259.459059 
L 145.156554 259.824341 
L 144.323435 260.15437 
L 143.476047 260.445817 
L 142.615406 260.695426 
L 141.742979 260.900067 
L 140.860684 261.056793 
L 139.970881 261.162903 
L 139.076349 261.216 
L 138.180244 261.214054 
L 137.286055 261.155456 
L 136.397539 261.039065 
L 135.518649 260.86425 
L 134.653454 260.630916 
L 133.80605 260.339516 
L 132.980471 259.991053 
L 132.180596 259.587063 
L 131.410065 259.129583 
L 130.672191 258.621105 
L 129.969893 258.064521 
L 129.305631 257.463053 
L 128.681359 256.820176 
L 128.098487 256.139537 
L 127.557867 255.424879 
L 127.059781 254.679951 
L 126.603952 253.90844 
L 126.189567 253.113901 
L 125.8153 252.299695 
L 125.479355 251.468944 
L 125.179508 250.624491 
L 124.913157 249.768884 
L 124.677368 248.904354 
L 124.468925 248.032827 
L 124.284378 247.15593 
L 124.120087 246.275012 
L 123.972264 245.391182 
L 123.837013 244.50534 
L 123.71036 243.618229 
L 123.588293 242.730475 
L 123.466783 241.842645 
L 123.341822 240.955293 
L 123.209446 240.069018 
L 123.065764 239.184505 
L 122.906994 238.302576 
L 122.72949 237.424225 
L 122.52978 236.550656 
L 122.304602 235.683302 
L 122.050942 234.823846 
L 121.766075 233.974224 
L 121.447607 233.136617 
L 121.09351 232.313438 
L 120.702159 231.507305 
L 120.272361 230.720996 
L 119.803384 229.957407 
L 119.294966 229.219492 
L 118.747325 228.510199 
L 118.161149 227.832404 
L 117.537585 227.18884 
L 116.878201 226.582028 
L 116.184953 226.014212 
L 115.460129 225.487299 
L 114.706288 225.002808 
L 113.926194 224.56183 
L 113.122746 224.164995 
L 112.298899 223.812456 
L 111.457597 223.503882 
L 110.601699 223.238464 
L 109.733921 223.014929 
L 108.856774 222.831568 
L 107.972526 222.686262 
L 107.083164 222.576526 
L 106.19037 222.49954 
L 105.295515 222.452197 
L 104.399656 222.43114 
L 103.50355 222.4328 
L 102.607681 222.45343 
L 101.712286 222.489141 
L 100.817401 222.535923 
L 99.922908 222.589674 
L 99.028587 222.646218 
L 98.134176 222.701327 
L 97.239432 222.750737 
L 96.344193 222.790166 
L 95.44844 222.815338 
L 94.552358 222.822004 
L 93.656394 222.805976 
L 92.761311 222.763155 
L 91.86823 222.689577 
L 90.97867 222.581458 
L 90.094571 222.435248 
L 89.218312 222.247691 
L 88.352706 222.015887 
L 87.500985 221.737357 
L 86.66677 221.410106 
L 85.854022 221.032683 
L 85.066977 220.604236 
L 84.310067 220.124553 
L 83.587832 219.594096 
L 82.904819 219.01401 
L 82.265471 218.386124 
L 81.674024 217.712923 
L 81.134402 216.997511 
L 80.650109 216.243543 
L 80.224149 215.455148 
L 79.858947 214.636836 
L 79.556294 213.793386 
L 79.317307 212.929735 
L 79.142416 212.05086 
L 79.031364 211.161661 
L 78.983233 210.266848 
L 78.996484 209.370839 
L 79.069012 208.477672 
L 79.198214 207.590928 
L 79.381064 206.713675 
L 79.614191 205.848424 
L 79.893958 204.997109 
L 80.216541 204.161078 
L 80.577994 203.341103 
L 80.974316 202.537401 
L 81.401501 201.749669 
L 81.855576 200.977126 
L 82.332639 200.218563 
L 82.828871 199.472398 
L 83.340546 198.736738 
L 83.864036 198.009437 
L 84.395797 197.288162 
L 84.93236 196.570452 
L 85.470311 195.853782 
L 86.006274 195.135624 
L 86.53689 194.413506 
L 87.058801 193.685072 
L 87.568632 192.948132 
L 88.062989 192.200724 
L 88.53845 191.441156 
L 88.991573 190.668054 
L 89.418908 189.880404 
L 89.817017 189.077586 
L 90.182504 188.259401 
L 90.51205 187.42609 
L 90.802456 186.578345 
L 91.050689 185.717306 
L 91.253935 184.844552 
L 91.409647 183.962078 
L 91.515593 183.072256 
L 91.56991 182.177797 
L 91.571137 181.281691 
L 91.518249 180.387146 
L 91.410682 179.497519 
L 91.248344 178.616239 
L 91.031617 177.746735 
L 90.761342 176.892359 
L 90.4388 176.056312 
L 90.065679 175.24158 
L 89.644028 174.450873 
L 89.176209 173.686574 
L 88.664845 172.950698 
L 88.112752 172.244864 
L 87.52289 171.570275 
L 86.898294 170.927711 
L 86.242027 170.31753 
L 85.557121 169.73968 
L 84.846534 169.193719 
L 84.113113 168.678839 
L 83.359559 168.193901 
L 82.588408 167.737466 
L 81.80201 167.307833 
L 81.002523 166.903076 
L 80.191911 166.521087 
L 79.371947 166.159606 
L 78.544225 165.816266 
L 77.710166 165.488617 
L 76.871043 165.174166 
L 76.027991 164.870404 
L 75.182034 164.574831 
L 74.334097 164.284985 
L 73.485032 163.998462 
L 72.63563 163.712937 
L 71.786641 163.426186 
L 70.938788 163.136098 
L 70.092772 162.840692 
L 69.249287 162.538133 
L 68.409024 162.226741 
L 67.572669 161.905 
L 66.740905 161.571568 
L 65.91441 161.225284 
L 65.093847 160.865167 
L 64.279861 160.490421 
L 63.473065 160.100436 
L 62.674034 159.694781 
L 61.883288 159.273203 
L 61.101287 158.835616 
L 60.328416 158.382099 
L 59.564977 157.912878 
L 58.81118 157.428319 
L 58.067136 156.928913 
L 57.332851 156.415267 
L 56.608224 155.888082 
L 55.893047 155.348147 
L 55.187004 154.796322 
L 54.489677 154.233524 
L 53.800549 153.660714 
L 53.119016 153.078889 
L 52.444393 152.489066 
L 51.775924 151.892277 
L 51.112799 151.289556 
L 50.454163 150.681933 
L 49.799131 150.070426 
L 49.146804 149.456034 
L 48.496282 148.839732 
L 47.846678 148.222462 
L 47.197134 147.60513 
L 46.546831 146.988596 
L 45.895005 146.373673 
L 45.240958 145.761113 
L 44.584064 145.151606 
L 43.923784 144.545769 
L 43.25967 143.944139 
L 42.59137 143.347161 
L 41.918633 142.755187 
L 41.241316 142.16846 
L 40.559378 141.58711 
L 39.872887 141.011143 
L 39.182017 140.440436 
L 38.487045 139.874731 
L 37.788352 139.31363 
L 37.086417 138.756588 
L 36.381821 138.202917 
L 35.675239 137.651782 
L 34.967445 137.102205 
L 34.259308 136.553071 
L 33.551796 136.00313 
L 32.84598 135.451014 
L 32.143037 134.895246 
L 31.444257 134.334253 
L 30.751048 133.766389 
L 30.064951 133.189953 
L 29.387643 132.603215 
L 28.720948 132.004445 
L 28.06685 131.391939 
L 27.427497 130.764058 
L 26.805208 130.11926 
L 26.202477 129.456144 
L 25.621973 128.773486 
L 25.066531 128.070285 
L 24.539145 127.345805 
L 24.042949 126.599616 
L 23.581189 125.831642 
L 23.157193 125.042189 
L 22.77433 124.23199 
L 22.435961 123.402222 
L 22.145382 122.554536 
L 21.905765 121.69106 
L 21.720092 120.8144 
L 21.59108 119.927629 
L 21.521122 119.034257 
L 21.512209 118.138194 
L 21.565873 117.243696 
L 21.683133 116.355294 
L 21.864446 115.477722 
L 22.109679 114.615824 
L 22.418092 113.774462 
L 22.788334 112.958418 
L 23.218462 112.17229 
L 23.705977 111.420401 
L 24.247868 110.706705 
L 24.840681 110.034708 
L 25.480593 109.407397 
L 26.163502 108.827187 
L 26.885115 108.295885 
L 27.641046 107.814661 
L 28.426909 107.384049 
L 29.23841 107.003953 
L 30.07143 106.673672 
L 30.922095 106.391934 
L 31.786842 106.156943 
L 32.662463 105.966429 
L 33.546142 105.817705 
L 34.435474 105.707725 
L 35.328472 105.633139 
L 36.223556 105.590349 
L 37.119541 105.575558 
L 38.0156 105.584814 
L 38.91123 105.614052 
L 39.806202 105.659124 
L 40.700513 105.715828 
L 41.594324 105.779932 
L 42.487904 105.847192 
L 43.381563 105.913371 
L 44.2756 105.974255 
L 45.17023 106.025667 
L 46.065539 106.06349 
L 46.961418 106.083686 
L 47.857524 106.082321 
L 48.753232 106.055598 
L 49.647605 105.999887 
L 50.539369 105.91177 
L 51.426898 105.788078 
L 52.308215 105.625943 
L 53.181002 105.422841 
L 54.042624 105.17664 
L 54.890167 104.885644 
L 55.720486 104.54863 
L 56.530266 104.16488 
L 57.316092 103.734201 
L 58.074526 103.256933 
L 58.80219 102.733947 
L 59.495845 102.166629 
L 60.152478 101.556842 
L 60.769376 100.906884 
L 61.344196 100.219433 
L 61.875025 99.497472 
L 62.360429 98.744219 
L 62.799483 97.963041 
L 63.191795 97.157374 
L 63.537509 96.33064 
L 63.837299 95.486168 
L 64.092351 94.627124 
L 64.304331 93.756451 
L 64.475348 92.876814 
L 64.607912 91.990567 
L 64.704887 91.099722 
L 64.769443 90.205944 
L 64.805012 89.310543 
L 64.815242 88.414495 
L 64.803954 87.518459 
L 64.775115 86.622816 
L 64.732795 85.727709 
L 64.68115 84.833092 
L 64.624394 83.938784 
L 64.566779 83.044531 
L 64.512579 82.150065 
L 64.466067 81.255166 
L 64.431502 80.359726 
L 64.413099 79.463808 
L 64.415009 78.567704 
L 64.441287 77.671982 
L 64.495853 76.777538 
L 64.582454 75.885626 
L 64.704615 74.997885 
L 64.865584 74.116354 
L 65.068284 73.243473 
L 65.315249 72.38207 
L 65.608572 71.53533 
L 65.949851 70.706755 
L 66.340143 69.900108 
L 66.779925 69.119339 
L 67.269069 68.36851 
L 67.806833 67.651699 
L 68.391857 66.97291 
L 69.022192 66.335975 
L 69.695332 65.74446 
L 70.408271 65.201574 
L 71.157572 64.710092 
L 71.93945 64.272285 
L 72.749861 63.889871 
L 73.584606 63.563975 
L 74.439429 63.295113 
L 75.310117 63.083193 
L 76.192599 62.927527 
L 77.083034 62.826863 
L 77.977885 62.779427 
L 78.873984 62.782977 
L 79.768588 62.834864 
L 80.659405 62.932089 
L 81.544621 63.071373 
L 82.422903 63.249217 
L 83.293391 63.461955 
L 84.155679 63.705813 
L 85.009784 63.976945 
L 85.856105 64.271474 
L 86.695381 64.585518 
L 87.528634 64.91521 
L 88.357118 65.256711 
L 89.182256 65.606218 
L 90.005585 65.959964 
L 90.828694 66.314222 
L 91.653166 66.665296 
L 92.48052 67.009526 
L 93.312152 67.343285 
L 94.149291 67.662981 
L 94.992945 67.965065 
L 95.843861 68.246045 
L 96.702487 68.5025 
L 97.568944 68.731105 
L 98.443003 68.928661 
L 99.324074 69.092129 
L 100.211202 69.218663 
L 101.103076 69.305655 
L 101.998047 69.350774 
L 102.894153 69.352003 
L 103.789163 69.30768 
L 104.680621 69.216525 
L 105.565904 69.077669 
L 106.442282 68.890667 
L 107.306983 68.655509 
L 108.157265 68.372615 
L 108.990478 68.042822 
L 109.804134 67.667361 
L 110.595966 67.247827 
L 111.363981 66.786133 
L 112.106506 66.284472 
L 112.822225 65.745255 
L 113.510205 65.171068 
L 114.169914 64.56461 
L 114.801225 63.928643 
L 115.404413 63.265943 
L 115.980147 62.579257 
L 116.529467 61.871263 
L 117.053758 61.14454 
L 117.554726 60.401547 
L 118.034357 59.644604 
L 118.494886 58.875891 
L 118.938758 58.09744 
L 119.368589 57.31115 
L 119.787132 56.518793 
L 120.197234 55.722035 
L 120.601806 54.922454 
L 121.003781 54.121565 
L 121.406088 53.320842 
L 121.81161 52.521744 
L 122.223161 51.725732 
L 122.643446 50.934298 
L 123.075037 50.148973 
L 123.520345 49.371343 
L 123.981587 48.603057 
L 124.460765 47.845828 
L 124.959644 47.10143 
L 125.479726 46.371689 
L 126.02224 45.658467 
L 126.588127 44.963644 
L 127.17803 44.28909 
L 127.792293 43.636643 
L 128.430967 43.00807 
L 129.093813 42.405042 
L 129.780321 41.829096 
L 130.48973 41.281605 
L 131.221052 40.763748 
L 131.973103 40.276482 
L 132.744534 39.82052 
L 133.533872 39.396312 
L 134.339554 39.004032 
L 135.159966 38.643571 
L 135.993479 38.314538 
L 136.838486 38.016257 
L 137.69343 37.747783 
L 138.556835 37.50791 
L 139.427328 37.295192 
L 140.303656 37.107958 
L 141.184699 36.944339 
L 142.069475 36.802288 
L 142.957144 36.679605 
L 143.847003 36.573965 
L 144.738474 36.482936 
L 145.631098 36.404007 
L 146.524514 36.334612 
L 146.524514 36.334612 
L 146.524514 36.334612 
L 145.631098 36.334612 
L 144.738474 36.334612 
L 143.847003 36.334612 
L 142.957144 36.334612 
L 142.069475 36.334612 
L 141.184699 36.334612 
L 140.303656 36.334612 
L 139.427328 36.334612 
L 138.556835 36.334612 
L 137.69343 36.334612 
L 136.838486 36.334612 
L 135.993479 36.334612 
L 135.159966 36.334612 
L 134.339554 36.334612 
L 133.533872 36.334612 
L 132.744534 36.334612 
L 131.973103 36.334612 
L 131.221052 36.334612 
L 130.48973 36.334612 
L 129.780321 36.334612 
L 129.093813 36.334612 
L 128.430967 36.334612 
L 127.792293 36.334612 
L 127.17803 36.334612 
L 126.588127 36.334612 
L 126.02224 36.334612 
L 125.479726 36.334612 
L 124.959644 36.334612 
L 124.460765 36.334612 
L 123.981587 36.334612 
L 123.520345 36.334612 
L 123.075037 36.334612 
L 122.643446 36.334612 
L 122.223161 36.334612 
L 121.81161 36.334612 
L 121.406088 36.334612 
L 121.003781 36.334612 
L 120.601806 36.334612 
L 120.197234 36.334612 
L 119.787132 36.334612 
L 119.368589 36.334612 
L 118.938758 36.334612 
L 118.494886 36.334612 
L 118.034357 36.334612 
L 117.554726 36.334612 
L 117.053758 36.334612 
L 116.529467 36.334612 
L 115.980147 36.334612 
L 115.404413 36.334612 
L 114.801225 36.334612 
L 114.169914 36.334612 
L 113.510205 36.334612 
L 112.822225 36.334612 
L 112.106506 36.334612 
L 111.363981 36.334612 
L 110.595966 36.334612 
L 109.804134 36.334612 
L 108.990478 36.334612 
L 108.157265 36.334612 
L 107.306983 36.334612 
L 106.442282 36.334612 
L 105.565904 36.334612 
L 104.680621 36.334612 
L 103.789163 36.334612 
L 102.894153 36.334612 
L 101.998047 36.334612 
L 101.103076 36.334612 
L 100.211202 36.334612 
L 99.324074 36.334612 
L 98.443003 36.334612 
L 97.568944 36.334612 
L 96.702487 36.334612 
L 95.843861 36.334612 
L 94.992945 36.334612 
L 94.149291 36.334612 
L 93.312152 36.334612 
L 92.48052 36.334612 
L 91.653166 36.334612 
L 90.828694 36.334612 
L 90.005585 36.334612 
L 89.182256 36.334612 
L 88.357118 36.334612 
L 87.528634 36.334612 
L 86.695381 36.334612 
L 85.856105 36.334612 
L 85.009784 36.334612 
L 84.155679 36.334612 
L 83.293391 36.334612 
L 82.422903 36.334612 
L 81.544621 36.334612 
L 80.659405 36.334612 
L 79.768588 36.334612 
L 78.873984 36.334612 
L 77.977885 36.334612 
L 77.083034 36.334612 
L 76.192599 36.334612 
L 75.310117 36.334612 
L 74.439429 36.334612 
L 73.584606 36.334612 
L 72.749861 36.334612 
L 71.93945 36.334612 
L 71.157572 36.334612 
L 70.408271 36.334612 
L 69.695332 36.334612 
L 69.022192 36.334612 
L 68.391857 36.334612 
L 67.806833 36.334612 
L 67.269069 36.334612 
L 66.779925 36.334612 
L 66.340143 36.334612 
L 65.949851 36.334612 
L 65.608572 36.334612 
L 65.315249 36.334612 
L 65.068284 36.334612 
L 64.865584 36.334612 
L 64.704615 36.334612 
L 64.582454 36.334612 
L 64.495853 36.334612 
L 64.441287 36.334612 
L 64.415009 36.334612 
L 64.413099 36.334612 
L 64.431502 36.334612 
L 64.466067 36.334612 
L 64.512579 36.334612 
L 64.566779 36.334612 
L 64.624394 36.334612 
L 64.68115 36.334612 
L 64.732795 36.334612 
L 64.775115 36.334612 
L 64.803954 36.334612 
L 64.815242 36.334612 
L 64.805012 36.334612 
L 64.769443 36.334612 
L 64.704887 36.334612 
L 64.607912 36.334612 
L 64.475348 36.334612 
L 64.304331 36.334612 
L 64.092351 36.334612 
L 63.837299 36.334612 
L 63.537509 36.334612 
L 63.191795 36.334612 
L 62.799483 36.334612 
L 62.360429 36.334612 
L 61.875025 36.334612 
L 61.344196 36.334612 
L 60.769376 36.334612 
L 60.152478 36.334612 
L 59.495845 36.334612 
L 58.80219 36.334612 
L 58.074526 36.334612 
L 57.316092 36.334612 
L 56.530266 36.334612 
L 55.720486 36.334612 
L 54.890167 36.334612 
L 54.042624 36.334612 
L 53.181002 36.334612 
L 52.308215 36.334612 
L 51.426898 36.334612 
L 50.539369 36.334612 
L 49.647605 36.334612 
L 48.753232 36.334612 
L 47.857524 36.334612 
L 46.961418 36.334612 
L 46.065539 36.334612 
L 45.17023 36.334612 
L 44.2756 36.334612 
L 43.381563 36.334612 
L 42.487904 36.334612 
L 41.594324 36.334612 
L 40.700513 36.334612 
L 39.806202 36.334612 
L 38.91123 36.334612 
L 38.0156 36.334612 
L 37.119541 36.334612 
L 36.223556 36.334612 
L 35.328472 36.334612 
L 34.435474 36.334612 
L 33.546142 36.334612 
L 32.662463 36.334612 
L 31.786842 36.334612 
L 30.922095 36.334612 
L 30.07143 36.334612 
L 29.23841 36.334612 
L 28.426909 36.334612 
L 27.641046 36.334612 
L 26.885115 36.334612 
L 26.163502 36.334612 
L 25.480593 36.334612 
L 24.840681 36.334612 
L 24.247868 36.334612 
L 23.705977 36.334612 
L 23.218462 36.334612 
L 22.788334 36.334612 
L 22.418092 36.334612 
L 22.109679 36.334612 
L 21.864446 36.334612 
L 21.683133 36.334612 
L 21.565873 36.334612 
L 21.512209 36.334612 
L 21.521122 36.334612 
L 21.59108 36.334612 
L 21.720092 36.334612 
L 21.905765 36.334612 
L 22.145382 36.334612 
L 22.435961 36.334612 
L 22.77433 36.334612 
L 23.157193 36.334612 
L 23.581189 36.334612 
L 24.042949 36.334612 
L 24.539145 36.334612 
L 25.066531 36.334612 
L 25.621973 36.334612 
L 26.202477 36.334612 
L 26.805208 36.334612 
L 27.427497 36.334612 
L 28.06685 36.334612 
L 28.720948 36.334612 
L 29.387643 36.334612 
L 30.064951 36.334612 
L 30.751048 36.334612 
L 31.444257 36.334612 
L 32.143037 36.334612 
L 32.84598 36.334612 
L 33.551796 36.334612 
L 34.259308 36.334612 
L 34.967445 36.334612 
L 35.675239 36.334612 
L 36.381821 36.334612 
L 37.086417 36.334612 
L 37.788352 36.334612 
L 38.487045 36.334612 
L 39.182017 36.334612 
L 39.872887 36.334612 
L 40.559378 36.334612 
L 41.241316 36.334612 
L 41.918633 36.334612 
L 42.59137 36.334612 
L 43.25967 36.334612 
L 43.923784 36.334612 
L 44.584064 36.334612 
L 45.240958 36.334612 
L 45.895005 36.334612 
L 46.546831 36.334612 
L 47.197134 36.334612 
L 47.846678 36.334612 
L 48.496282 36.334612 
L 49.146804 36.334612 
L 49.799131 36.334612 
L 50.454163 36.334612 
L 51.112799 36.334612 
L 51.775924 36.334612 
L 52.444393 36.334612 
L 53.119016 36.334612 
L 53.800549 36.334612 
L 54.489677 36.334612 
L 55.187004 36.334612 
L 55.893047 36.334612 
L 56.608224 36.334612 
L 57.332851 36.334612 
L 58.067136 36.334612 
L 58.81118 36.334612 
L 59.564977 36.334612 
L 60.328416 36.334612 
L 61.101287 36.334612 
L 61.883288 36.334612 
L 62.674034 36.334612 
L 63.473065 36.334612 
L 64.279861 36.334612 
L 65.093847 36.334612 
L 65.91441 36.334612 
L 66.740905 36.334612 
L 67.572669 36.334612 
L 68.409024 36.334612 
L 69.249287 36.334612 
L 70.092772 36.334612 
L 70.938788 36.334612 
L 71.786641 36.334612 
L 72.63563 36.334612 
L 73.485032 36.334612 
L 74.334097 36.334612 
L 75.182034 36.334612 
L 76.027991 36.334612 
L 76.871043 36.334612 
L 77.710166 36.334612 
L 78.544225 36.334612 
L 79.371947 36.334612 
L 80.191911 36.334612 
L 81.002523 36.334612 
L 81.80201 36.334612 
L 82.588408 36.334612 
L 83.359559 36.334612 
L 84.113113 36.334612 
L 84.846534 36.334612 
L 85.557121 36.334612 
L 86.242027 36.334612 
L 86.898294 36.334612 
L 87.52289 36.334612 
L 88.112752 36.334612 
L 88.664845 36.334612 
L 89.176209 36.334612 
L 89.644028 36.334612 
L 90.065679 36.334612 
L 90.4388 36.334612 
L 90.761342 36.334612 
L 91.031617 36.334612 
L 91.248344 36.334612 
L 91.410682 36.334612 
L 91.518249 36.334612 
L 91.571137 36.334612 
L 91.56991 36.334612 
L 91.515593 36.334612 
L 91.409647 36.334612 
L 91.253935 36.334612 
L 91.050689 36.334612 
L 90.802456 36.334612 
L 90.51205 36.334612 
L 90.182504 36.334612 
L 89.817017 36.334612 
L 89.418908 36.334612 
L 88.991573 36.334612 
L 88.53845 36.334612 
L 88.062989 36.334612 
L 87.568632 36.334612 
L 87.058801 36.334612 
L 86.53689 36.334612 
L 86.006274 36.334612 
L 85.470311 36.334612 
L 84.93236 36.334612 
L 84.395797 36.334612 
L 83.864036 36.334612 
L 83.340546 36.334612 
L 82.828871 36.334612 
L 82.332639 36.334612 
L 81.855576 36.334612 
L 81.401501 36.334612 
L 80.974316 36.334612 
L 80.577994 36.334612 
L 80.216541 36.334612 
L 79.893958 36.334612 
L 79.614191 36.334612 
L 79.381064 36.334612 
L 79.198214 36.334612 
L 79.069012 36.334612 
L 78.996484 36.334612 
L 78.983233 36.334612 
L 79.031364 36.334612 
L 79.142416 36.334612 
L 79.317307 36.334612 
L 79.556294 36.334612 
L 79.858947 36.334612 
L 80.224149 36.334612 
L 80.650109 36.334612 
L 81.134402 36.334612 
L 81.674024 36.334612 
L 82.265471 36.334612 
L 82.904819 36.334612 
L 83.587832 36.334612 
L 84.310067 36.334612 
L 85.066977 36.334612 
L 85.854022 36.334612 
L 86.66677 36.334612 
L 87.500985 36.334612 
L 88.352706 36.334612 
L 89.218312 36.334612 
L 90.094571 36.334612 
L 90.97867 36.334612 
L 91.86823 36.334612 
L 92.761311 36.334612 
L 93.656394 36.334612 
L 94.552358 36.334612 
L 95.44844 36.334612 
L 96.344193 36.334612 
L 97.239432 36.334612 
L 98.134176 36.334612 
L 99.028587 36.334612 
L 99.922908 36.334612 
L 100.817401 36.334612 
L 101.712286 36.334612 
L 102.607681 36.334612 
L 103.50355 36.334612 
L 104.399656 36.334612 
L 105.295515 36.334612 
L 106.19037 36.334612 
L 107.083164 36.334612 
L 107.972526 36.334612 
L 108.856774 36.334612 
L 109.733921 36.334612 
L 110.601699 36.334612 
L 111.457597 36.334612 
L 112.298899 36.334612 
L 113.122746 36.334612 
L 113.926194 36.334612 
L 114.706288 36.334612 
L 115.460129 36.334612 
L 116.184953 36.334612 
L 116.878201 36.334612 
L 117.537585 36.334612 
L 118.161149 36.334612 
L 118.747325 36.334612 
L 119.294966 36.334612 
L 119.803384 36.334612 
L 120.272361 36.334612 
L 120.702159 36.334612 
L 121.09351 36.334612 
L 121.447607 36.334612 
L 121.766075 36.334612 
L 122.050942 36.334612 
L 122.304602 36.334612 
L 122.52978 36.334612 
L 122.72949 36.334612 
L 122.906994 36.334612 
L 123.065764 36.334612 
L 123.209446 36.334612 
L 123.341822 36.334612 
L 123.466783 36.334612 
L 123.588293 36.334612 
L 123.71036 36.334612 
L 123.837013 36.334612 
L 123.972264 36.334612 
L 124.120087 36.334612 
L 124.284378 36.334612 
L 124.468925 36.334612 
L 124.677368 36.334612 
L 124.913157 36.334612 
L 125.179508 36.334612 
L 125.479355 36.334612 
L 125.8153 36.334612 
L 126.189567 36.334612 
L 126.603952 36.334612 
L 127.059781 36.334612 
L 127.557867 36.334612 
L 128.098487 36.334612 
L 128.681359 36.334612 
L 129.305631 36.334612 
L 129.969893 36.334612 
L 130.672191 36.334612 
L 131.410065 36.334612 
L 132.180596 36.334612 
L 132.980471 36.334612 
L 133.80605 36.334612 
L 134.653454 36.334612 
L 135.518649 36.334612 
L 136.397539 36.334612 
L 137.286055 36.334612 
L 138.180244 36.334612 
L 139.076349 36.334612 
L 139.970881 36.334612 
L 140.860684 36.334612 
L 141.742979 36.334612 
L 142.615406 36.334612 
L 143.476047 36.334612 
L 144.323435 36.334612 
L 145.156554 36.334612 
L 145.974831 36.334612 
L 146.77811 36.334612 
L 147.566625 36.334612 
L 148.340969 36.334612 
L 149.102048 36.334612 
L 149.851043 36.334612 
L 150.589362 36.334612 
L 151.318597 36.334612 
L 152.040474 36.334612 
L 152.756816 36.334612 
L 153.469491 36.334612 
L 154.180377 36.334612 
L 154.891323 36.334612 
L 155.60411 36.334612 
L 156.320426 36.334612 
L 157.041827 36.334612 
L 157.769722 36.334612 
L 158.505348 36.334612 
L 159.249754 36.334612 
L 160.003789 36.334612 
L 160.768099 36.334612 
L 161.54312 36.334612 
L 162.329083 36.334612 
L 163.126024 36.334612 
L 163.933792 36.334612 
L 164.75207 36.334612 
L 165.580391 36.334612 
L 166.418163 36.334612 
L 167.264691 36.334612 
L 168.119208 36.334612 
L 168.980898 36.334612 
L 169.848921 36.334612 
L 170.72244 36.334612 
L 171.600642 36.334612 
L 172.482758 36.334612 
L 173.368078 36.334612 
L 174.255963 36.334612 
L 175.14585 36.334612 
L 176.037262 36.334612 
L 176.929796 36.334612 
L 177.823125 36.334612 
L 178.716987 36.334612 
L 179.611167 36.334612 
L 180.505487 36.334612 
L 181.399781 36.334612 
L 182.293878 36.334612 
L 183.18758 36.334612 
L 184.08064 36.334612 
L 184.972738 36.334612 
L 185.863467 36.334612 
L 186.752311 36.334612 
L 187.63863 36.334612 
L 188.521653 36.334612 
L 189.40047 36.334612 
L 190.274029 36.334612 
L 191.141143 36.334612 
L 192.000496 36.334612 
L 192.850662 36.334612 
L 193.69012 36.334612 
L 194.517286 36.334612 
L 195.330536 36.334612 
L 196.128246 36.334612 
L 196.908821 36.334612 
L 197.670739 36.334612 
L 198.412584 36.334612 
L 199.133086 36.334612 
L 199.831155 36.334612 
L 200.505912 36.334612 
L 201.156719 36.334612 
L 201.7832 36.334612 
L 202.385258 36.334612 
L 202.963091 36.334612 
L 203.517193 36.334612 
L 204.048355 36.334612 
L 204.557665 36.334612 
L 205.046488 36.334612 
L 205.516463 36.334612 
L 205.969473 36.334612 
L 206.407633 36.334612 
L 206.833259 36.334612 
L 207.248846 36.334612 
L 207.657037 36.334612 
L 208.060595 36.334612 
L 208.462372 36.334612 
L 208.865278 36.334612 
L 209.272249 36.334612 
L 209.686211 36.334612 
L 210.110047 36.334612 
L 210.546562 36.334612 
L 210.998446 36.334612 
L 211.468232 36.334612 
L 211.958267 36.334612 
L 212.470665 36.334612 
L 213.007276 36.334612 
L 213.569651 36.334612 
L 214.159005 36.334612 
L 214.776195 36.334612 
L 215.421695 36.334612 
L 216.095581 36.334612 
L 216.797523 36.334612 
L 217.526785 36.334612 
L 218.282243 36.334612 
L 219.062396 36.334612 
L 219.865408 36.334612 
L 220.689141 36.334612 
L 221.531211 36.334612 
L 222.389041 36.334612 
L 223.259927 36.334612 
L 224.141103 36.334612 
L 225.02981 36.334612 
L 225.923363 36.334612 
L 226.819215 36.334612 
L 227.715016 36.334612 
L 228.608665 36.334612 
L 229.498352 36.334612 
L 230.382593 36.334612 
L 231.260255 36.334612 
L 232.130564 36.334612 
L 232.993111 36.334612 
L 233.847846 36.334612 
L 234.695056 36.334612 
L 235.535342 36.334612 
L 236.369587 36.334612 
L 237.198914 36.334612 
L 238.024643 36.334612 
L 238.848239 36.334612 
L 239.671259 36.334612 
L 240.495296 36.334612 
L 241.32192 36.334612 
L 242.152619 36.334612 
L 242.98874 36.334612 
L 243.831427 36.334612 
L 244.681568 36.334612 
L 245.539738 36.334612 
L 246.40615 36.334612 
L 247.280613 36.334612 
L 248.162499 36.334612 
L 249.050712 36.334612 
L 249.943679 36.334612 
L 250.839346 36.334612 
L 251.735192 36.334612 
L 252.628255 36.334612 
L 253.515176 36.334612 
L 254.392258 36.334612 
L 255.255533 36.334612 
L 256.100848 36.334612 
L 256.923957 36.334612 
L 257.720619 36.334612 
L 258.4867 36.334612 
L 259.218274 36.334612 
L 259.911718 36.334612 
L 260.563802 36.334612 
L 261.171761 36.334612 
L 261.733362 36.334612 
L 262.246948 36.334612 
L 262.711465 36.334612 
L 263.12648 36.334612 
L 263.492168 36.334612 
L 263.809302 36.334612 
L 264.079215 36.334612 
L 264.303757 36.334612 
L 264.485249 36.334612 
L 264.626427 36.334612 
L 264.730383 36.334612 
L 264.800511 36.334612 
L 264.840453 36.334612 
L 264.854047 36.334612 
L 264.845288 36.334612 
L 264.81828 36.334612 
L 264.777211 36.334612 
L 264.726322 36.334612 
L 264.669879 36.334612 
L 264.612161 36.334612 
L 264.55743 36.334612 
L 264.509925 36.334612 
L 264.47383 36.334612 
L 264.453264 36.334612 
L 264.452247 36.334612 
L 264.474679 36.334612 
L 264.524298 36.334612 
L 264.60465 36.334612 
L 264.719041 36.334612 
L 264.870494 36.334612 
L 265.061703 36.334612 
L 265.294982 36.334612 
L 265.572224 36.334612 
L 265.89486 36.334612 
L 266.263821 36.334612 
L 266.679519 36.334612 
L 267.141831 36.334612 
L 267.650096 36.334612 
L 268.203131 36.334612 
L 268.799257 36.334612 
L 269.43634 36.334612 
L 270.111843 36.334612 
L 270.822895 36.334612 
L 271.56636 36.334612 
L 272.338918 36.334612 
L 273.137151 36.334612 
L 273.957623 36.334612 
L 274.796959 36.334612 
L 275.651921 36.334612 
L 276.519474 36.334612 
L 277.396836 36.334612 
L 278.281528 36.334612 
L 279.171399 36.334612 
L 280.064649 36.334612 
L 280.959828 36.334612 
L 281.855832 36.334612 
L 282.751884 36.334612 
L 283.647505 36.334612 
L 284.542475 36.334612 
L 285.436788 36.334612 
L 286.330603 36.334612 
L 287.224183 36.334612 
L 288.11784 36.334612 
L 289.011873 36.334612 
L 289.906503 36.334612 
L 290.801818 36.334612 
L 291.697707 36.334612 
L 292.593811 36.334612 
L 293.48947 36.334612 
L 294.383684 36.334612 
L 295.275071 36.334612 
L 296.161851 36.334612 
L 297.041828 36.334612 
L 297.912389 36.334612 
L 298.770519 36.334612 
L 299.612827 36.334612 
L 300.435589 36.334612 
L 301.234799 36.334612 
L 302.00624 36.334612 
L 302.745563 36.334612 
L 303.448368 36.334612 
L 304.110306 36.334612 
L 304.727166 36.334612 
L 305.294974 36.334612 
L 305.810083 36.334612 
L 306.26925 36.334612 
L 306.669714 36.334612 
L 307.009248 36.334612 
L 307.286202 36.334612 
L 307.49953 36.334612 
L 307.648795 36.334612 
L 307.734164 36.334612 
L 307.756379 36.334612 
L 307.716721 36.334612 
L 307.616961 36.334612 
L 307.459297 36.334612 
L 307.246294 36.334612 
L 306.980811 36.334612 
L 306.665931 36.334612 
L 306.304897 36.334612 
L 305.901046 36.334612 
L 305.457748 36.334612 
L 304.978358 36.334612 
L 304.466168 36.334612 
L 303.924371 36.334612 
L 303.356033 36.334612 
L 302.764071 36.334612 
L 302.151238 36.334612 
L 301.520116 36.334612 
L 300.873112 36.334612 
L 300.212458 36.334612 
L 299.540218 36.334612 
L 298.858297 36.334612 
L 298.168443 36.334612 
L 297.472265 36.334612 
L 296.771234 36.334612 
L 296.066701 36.334612 
L 295.359897 36.334612 
L 294.651945 36.334612 
L 293.943865 36.334612 
L 293.236574 36.334612 
L 292.530894 36.334612 
L 291.82755 36.334612 
L 291.12717 36.334612 
L 290.430284 36.334612 
L 289.737322 36.334612 
L 289.048613 36.334612 
L 288.364384 36.334612 
L 287.684754 36.334612 
L 287.009739 36.334612 
L 286.339245 36.334612 
L 285.673075 36.334612 
L 285.010928 36.334612 
L 284.352404 36.334612 
L 283.697006 36.334612 
L 283.044153 36.334612 
L 282.39318 36.334612 
L 281.743355 36.334612 
L 281.093886 36.334612 
L 280.443933 36.334612 
L 279.79262 36.334612 
L 279.139054 36.334612 
L 278.482332 36.334612 
L 277.82156 36.334612 
L 277.155867 36.334612 
L 276.48442 36.334612 
L 275.806432 36.334612 
L 275.121183 36.334612 
L 274.428025 36.334612 
L 273.726399 36.334612 
L 273.015835 36.334612 
L 272.295966 36.334612 
L 271.566529 36.334612 
L 270.827371 36.334612 
L 270.078443 36.334612 
L 269.319804 36.334612 
L 268.551617 36.334612 
L 267.774138 36.334612 
L 266.987711 36.334612 
L 266.192761 36.334612 
L 265.389779 36.334612 
L 264.579314 36.334612 
L 263.76196 36.334612 
L 262.938349 36.334612 
L 262.109136 36.334612 
L 261.274991 36.334612 
L 260.436596 36.334612 
L 259.594636 36.334612 
L 258.7498 36.334612 
L 257.902778 36.334612 
L 257.054268 36.334612 
L 256.204981 36.334612 
L 255.355652 36.334612 
L 254.507048 36.334612 
L 253.65999 36.334612 
L 252.815364 36.334612 
L 251.974143 36.334612 
L 251.137401 36.334612 
L 250.306343 36.334612 
L 249.482312 36.334612 
L 248.666814 36.334612 
L 247.861531 36.334612 
L 247.068331 36.334612 
L 246.289274 36.334612 
L 245.526616 36.334612 
L 244.782801 36.334612 
L 244.06045 36.334612 
L 243.362339 36.334612 
L 242.691377 36.334612 
L 242.050564 36.334612 
L 241.442953 36.334612 
L 240.871599 36.334612 
L 240.339508 36.334612 
L 239.849575 36.334612 
L 239.404528 36.334612 
L 239.006865 36.334612 
L 238.658798 36.334612 
L 238.362204 36.334612 
L 238.118569 36.334612 
L 237.92896 36.334612 
L 237.793989 36.334612 
L 237.713803 36.334612 
L 237.688072 36.334612 
L 237.715999 36.334612 
L 237.79634 36.334612 
L 237.927426 36.334612 
L 238.107204 36.334612 
L 238.333281 36.334612 
L 238.602967 36.334612 
L 238.913334 36.334612 
L 239.261259 36.334612 
L 239.643477 36.334612 
L 240.056627 36.334612 
L 240.497287 36.334612 
L 240.96201 36.334612 
L 241.447348 36.334612 
L 241.949868 36.334612 
L 242.466162 36.334612 
L 242.992846 36.334612 
L 243.526555 36.334612 
L 244.063933 36.334612 
L 244.601614 36.334612 
L 245.136205 36.334612 
L 245.664269 36.334612 
L 246.182299 36.334612 
L 246.686712 36.334612 
L 247.173831 36.334612 
L 247.639883 36.334612 
L 248.081006 36.334612 
L 248.493259 36.334612 
L 248.872648 36.334612 
L 249.215164 36.334612 
L 249.516826 36.334612 
L 249.773741 36.334612 
L 249.98217 36.334612 
L 250.138597 36.334612 
L 250.239816 36.334612 
L 250.283001 36.334612 
L 250.265791 36.334612 
L 250.186354 36.334612 
L 250.043457 36.334612 
L 249.836507 36.334612 
L 249.56559 36.334612 
L 249.23148 36.334612 
L 248.835635 36.334612 
L 248.380168 36.334612 
L 247.867801 36.334612 
L 247.3018 36.334612 
L 246.685891 36.334612 
L 246.024165 36.334612 
L 245.320976 36.334612 
L 244.580834 36.334612 
L 243.808293 36.334612 
L 243.007853 36.334612 
L 242.183857 36.334612 
L 241.340414 36.334612 
L 240.481321 36.334612 
L 239.61001 36.334612 
L 238.729507 36.334612 
L 237.842408 36.334612 
L 236.950871 36.334612 
L 236.056625 36.334612 
L 235.160985 36.334612 
L 234.264887 36.334612 
L 233.368932 36.334612 
L 232.473426 36.334612 
L 231.578448 36.334612 
L 230.683898 36.334612 
L 229.789565 36.334612 
L 228.895189 36.334612 
L 228.000522 36.334612 
L 227.105389 36.334612 
L 226.20974 36.334612 
L 225.313709 36.334612 
L 224.41765 36.334612 
L 223.522179 36.334612 
L 222.628203 36.334612 
L 221.736934 36.334612 
L 220.849899 36.334612 
L 219.968936 36.334612 
L 219.096173 36.334612 
L 218.234007 36.334612 
L 217.385058 36.334612 
L 216.552119 36.334612 
L 215.738101 36.334612 
L 214.945962 36.334612 
L 214.178639 36.334612 
L 213.438972 36.334612 
L 212.729632 36.334612 
L 212.05305 36.334612 
L 211.411354 36.334612 
L 210.806314 36.334612 
L 210.23929 36.334612 
L 209.711203 36.334612 
L 209.222509 36.334612 
L 208.773184 36.334612 
L 208.36273 36.334612 
L 207.990182 36.334612 
L 207.654129 36.334612 
L 207.352739 36.334612 
L 207.083797 36.334612 
L 206.844737 36.334612 
L 206.632686 36.334612 
L 206.444501 36.334612 
L 206.27681 36.334612 
L 206.126049 36.334612 
L 205.9885 36.334612 
L 205.860323 36.334612 
L 205.737587 36.334612 
L 205.616301 36.334612 
L 205.492444 36.334612 
L 205.361992 36.334612 
L 205.220948 36.334612 
L 205.065372 36.334612 
L 204.891418 36.334612 
L 204.695367 36.334612 
L 204.473669 36.334612 
L 204.222984 36.334612 
L 203.940233 36.334612 
L 203.62264 36.334612 
L 203.267786 36.334612 
L 202.873656 36.334612 
L 202.438683 36.334612 
L 201.961795 36.334612 
L 201.442442 36.334612 
L 200.880625 36.334612 
L 200.276911 36.334612 
L 199.632433 36.334612 
L 198.948877 36.334612 
L 198.228453 36.334612 
L 197.473859 36.334612 
L 196.68822 36.334612 
L 195.875021 36.334612 
L 195.038033 36.334612 
L 194.181223 36.334612 
L 193.308668 36.334612 
L 192.424462 36.334612 
L 191.532625 36.334612 
L 190.637024 36.334612 
L 189.741289 36.334612 
L 188.84875 36.334612 
L 187.962379 36.334612 
L 187.08475 36.334612 
L 186.218004 36.334612 
L 185.363835 36.334612 
L 184.523482 36.334612 
L 183.697739 36.334612 
L 182.886967 36.334612 
L 182.091122 36.334612 
L 181.309787 36.334612 
L 180.542207 36.334612 
L 179.787333 36.334612 
L 179.043865 36.334612 
L 178.310297 36.334612 
L 177.584963 36.334612 
L 176.866085 36.334612 
L 176.151812 36.334612 
L 175.440266 36.334612 
L 174.729577 36.334612 
L 174.017928 36.334612 
L 173.30358 36.334612 
L 172.584908 36.334612 
L 171.860425 36.334612 
L 171.128808 36.334612 
L 170.388911 36.334612 
L 169.639784 36.334612 
L 168.880678 36.334612 
L 168.111055 36.334612 
L 167.330579 36.334612 
L 166.53912 36.334612 
L 165.736735 36.334612 
L 164.923663 36.334612 
L 164.100297 36.334612 
L 163.267169 36.334612 
L 162.424927 36.334612 
L 161.574305 36.334612 
L 160.716097 36.334612 
L 159.851136 36.334612 
L 158.980261 36.334612 
L 158.104302 36.334612 
L 157.22405 36.334612 
L 156.340247 36.334612 
L 155.45357 36.334612 
L 154.564618 36.334612 
L 153.673914 36.334612 
L 152.781896 36.334612 
L 151.888927 36.334612 
L 150.995302 36.334612 
L 150.101257 36.334612 
L 149.206986 36.334612 
L 148.312659 36.334612 
L 147.418441 36.334612 
L 146.524514 36.334612 
z
"/>
   </g>
  </g>
 </g>
 <defs>
  <clipPath id="pf89931f0f9">
   <rect height="266.112" width="314.868587" x="7.2" y="7.2"/>
  </clipPath>
 </defs>
</svg>
