<?xml version="1.0" encoding="utf-8" standalone="no"?>
<!DOCTYPE svg PUBLIC "-//W3C//DTD SVG 1.1//EN"
  "http://www.w3.org/Graphics/SVG/1.1/DTD/svg11.dtd">
<svg height="280.512pt" version="1.1" viewBox="0 0 181.756335 280.512" width="181.756335pt" xmlns="http://www.w3.org/2000/svg" xmlns:xlink="http://www.w3.org/1999/xlink">
 <metadata>
  <rdf:RDF xmlns:cc="http://creativecommons.org/ns#" xmlns:dc="http://purl.org/dc/elements/1.1/" xmlns:rdf="http://www.w3.org/1999/02/22-rdf-syntax-ns#">
   <cc:Work>
    <dc:type rdf:resource="http://purl.org/dc/dcmitype/StillImage"/>
    <dc:date>2022-11-22T17:12:15.244063</dc:date>
    <dc:format>image/svg+xml</dc:format>
    <dc:creator>
     <cc:Agent>
      <dc:title>Matplotlib v3.4.2, https://matplotlib.org/</dc:title>
     </cc:Agent>
    </dc:creator>
   </cc:Work>
  </rdf:RDF>
 </metadata>
 <defs>
  <style type="text/css">*{stroke-linecap:butt;stroke-linejoin:round;}</style>
 </defs>
 <g id="figure_1">
  <g id="patch_1">
   <path d="M 0 280.512 
L 181.756335 280.512 
L 181.756335 0 
L 0 0 
z
" style="fill:none;"/>
  </g>
  <g id="axes_1">
   <g id="PolyCollection_1">
    <path clip-path="url(#p4c96891d4f)" d="M 58.385008 66.731969 
L 58.385008 66.731969 
L 58.335741 65.827304 
L 58.294933 64.922218 
L 58.268115 64.01661 
L 58.26077 63.110635 
L 58.2783 62.204799 
L 58.325967 61.300049 
L 58.408838 60.397842 
L 58.531705 59.500206 
L 58.699004 58.609782 
L 58.914717 57.729831 
L 59.182277 56.864235 
L 59.504459 56.01745 
L 59.883286 55.194446 
L 60.319938 54.400607 
L 60.814683 53.641612 
L 61.366824 52.923291 
L 61.974678 52.251458 
L 62.63559 51.631748 
L 63.345975 51.069433 
L 64.101403 50.569259 
L 64.896715 50.135295 
L 65.726164 49.770795 
L 66.583589 49.478106 
L 67.4626 49.258596 
L 68.35677 49.11263 
L 69.259825 49.039574 
L 70.165828 49.037844 
L 71.069343 49.104979 
L 71.965569 49.237737 
L 72.850453 49.432222 
L 73.720771 49.684002 
L 74.574165 49.988243 
L 75.409168 50.339834 
L 76.225179 50.733497 
L 77.022433 51.163883 
L 77.801934 51.625645 
L 78.565376 52.113498 
L 79.315059 52.622242 
L 80.053781 53.146776 
L 80.784733 53.682084 
L 81.511387 54.223213 
L 82.237377 54.76523 
L 82.966385 55.303183 
L 83.702015 55.832044 
L 84.44767 56.346673 
L 85.206431 56.841776 
L 85.980927 57.311885 
L 86.773212 57.75135 
L 87.584647 58.154362 
L 88.415785 58.514995 
L 89.26627 58.827277 
L 90.13476 59.08529 
L 91.018863 59.283299 
L 91.915112 59.415898 
L 92.818974 59.47818 
L 93.724896 59.46591 
L 94.626399 59.375704 
L 95.516214 59.205188 
L 96.386456 58.95315 
L 97.228843 58.619639 
L 98.034934 58.20604 
L 98.796386 57.715087 
L 99.505227 57.150825 
L 100.154099 56.51852 
L 100.736504 55.82451 
L 101.246992 55.076013 
L 101.681321 54.280901 
L 102.036559 53.447444 
L 102.311131 52.584046 
L 102.504807 51.698984 
L 102.618653 50.80016 
L 102.654916 49.89488 
L 102.616899 48.989673 
L 102.508788 48.090142 
L 102.335486 47.200865 
L 102.102435 46.325347 
L 101.81545 45.465995 
L 101.480567 44.624153 
L 101.103921 43.800149 
L 100.691641 42.993383 
L 100.249787 42.202428 
L 99.784301 41.425145 
L 99.301001 40.658812 
L 98.805585 39.900255 
L 98.303663 39.145987 
L 97.8008 38.392347 
L 97.302565 37.635639 
L 96.814589 36.872275 
L 96.342607 36.098919 
L 95.8925 35.312631 
L 95.470315 34.511005 
L 95.082258 33.692312 
L 94.734672 32.855634 
L 94.433972 32.000986 
L 94.186552 31.129419 
L 93.998669 30.243109 
L 93.876279 29.345408 
L 93.824869 28.440863 
L 93.849254 27.535186 
L 93.95338 26.635184 
L 94.140124 25.748634 
L 94.411111 24.884104 
L 94.766568 24.05074 
L 95.205209 23.257998 
L 95.724184 22.515361 
L 96.319083 21.83203 
L 96.984008 21.216628 
L 97.711705 20.676903 
L 98.493761 20.219483 
L 99.320851 19.849661 
L 100.183017 19.571245 
L 101.069981 19.386475 
L 101.971457 19.296 
L 102.877458 19.298926 
L 103.778573 19.392923 
L 104.66622 19.574386 
L 105.532836 19.838626 
L 106.372029 20.180094 
L 107.178671 20.592615 
L 107.948939 21.069619 
L 108.68031 21.604354 
L 109.371511 22.19009 
L 110.022443 22.820275 
L 110.634073 23.488672 
L 111.208316 24.18945 
L 111.747903 24.917249 
L 112.256251 25.667201 
L 112.737338 26.434925 
L 113.195574 27.216504 
L 113.635694 28.008425 
L 114.062651 28.80752 
L 114.481522 29.610884 
L 114.897419 30.415791 
L 115.315411 31.219612 
L 115.740443 32.019732 
L 116.177269 32.813476 
L 116.630375 33.598039 
L 117.10391 34.370445 
L 117.601618 35.1275 
L 118.126767 35.865784 
L 118.682089 36.581649 
L 119.269719 37.271241 
L 119.891141 37.930544 
L 120.547155 38.555436 
L 121.237847 39.141772 
L 121.962582 39.685467 
L 122.720018 40.182596 
L 123.508132 40.629498 
L 124.324282 41.022874 
L 125.165275 41.359884 
L 126.027463 41.638232 
L 126.90685 41.856231 
L 127.799215 42.012854 
L 128.700235 42.107764 
L 129.605619 42.141315 
L 130.511228 42.114538 
L 131.413197 42.029107 
L 132.308032 41.88728 
L 133.192705 41.691834 
L 134.064717 41.445988 
L 134.92215 41.153319 
L 135.763691 40.817679 
L 136.588646 40.443119 
L 137.396925 40.033815 
L 138.18902 39.594007 
L 138.965959 39.127949 
L 139.729262 38.639876 
L 140.48087 38.133981 
L 141.223087 37.614405 
L 141.958499 37.08524 
L 142.689898 36.550544 
L 143.420207 36.014359 
L 144.152391 35.480737 
L 144.889378 34.953769 
L 145.633976 34.43761 
L 146.388785 33.936503 
L 147.156117 33.454791 
L 147.937915 32.996928 
L 148.735668 32.56747 
L 149.550345 32.171053 
L 150.382323 31.812364 
L 151.231331 31.496085 
L 152.096402 31.226832 
L 152.975848 31.009073 
L 153.867247 30.847041 
L 154.767446 30.744631 
L 155.672597 30.705305 
L 156.578209 30.731979 
L 157.479224 30.826939 
L 158.370114 30.991745 
L 159.244997 31.227168 
L 160.097774 31.533137 
L 160.922266 31.908715 
L 161.712366 32.352098 
L 162.462185 32.860641 
L 163.166196 33.430916 
L 163.81936 34.058788 
L 164.417238 34.739513 
L 164.956085 35.46786 
L 165.432911 36.238238 
L 165.845524 37.044833 
L 166.192545 37.881745 
L 166.473396 38.743121 
L 166.688268 39.623278 
L 166.838067 40.516813 
L 166.924346 41.418701 
L 166.949229 42.324364 
L 166.915318 43.229734 
L 166.825608 44.131287 
L 166.683397 45.026062 
L 166.492199 45.911663 
L 166.255665 46.786247 
L 165.977514 47.648498 
L 165.661468 48.497592 
L 165.311202 49.333151 
L 164.930305 50.155199 
L 164.522239 50.964104 
L 164.090325 51.760531 
L 163.637718 52.545382 
L 163.167401 53.319752 
L 162.682181 54.084871 
L 162.184685 54.842065 
L 161.677363 55.592711 
L 161.162489 56.338197 
L 160.64217 57.079894 
L 160.118344 57.819118 
L 159.592788 58.557113 
L 159.067119 59.295027 
L 158.542795 60.033897 
L 158.021116 60.774637 
L 157.503223 61.51803 
L 156.990098 62.264722 
L 156.482563 63.015224 
L 155.981273 63.769912 
L 155.486722 64.529032 
L 154.999233 65.292708 
L 154.518965 66.060945 
L 154.04591 66.833644 
L 153.579897 67.610611 
L 153.120593 68.391562 
L 152.667512 69.176141 
L 152.220022 69.963921 
L 151.777352 70.75442 
L 151.338605 71.547104 
L 150.902772 72.341392 
L 150.468743 73.136669 
L 150.035326 73.932279 
L 149.601262 74.727536 
L 149.165245 75.521724 
L 148.725939 76.314097 
L 148.281997 77.103882 
L 147.832083 77.890281 
L 147.37489 78.67247 
L 146.90916 79.449606 
L 146.433701 80.220829 
L 145.947407 80.985266 
L 145.449276 81.742043 
L 144.938421 82.490289 
L 144.414086 83.229151 
L 143.875656 83.957807 
L 143.322668 84.675476 
L 142.754813 85.381441 
L 142.171945 86.075063 
L 141.574077 86.755796 
L 140.961377 87.423213 
L 140.334171 88.077016 
L 139.692929 88.717058 
L 139.038259 89.343358 
L 138.370893 89.956113 
L 137.691681 90.55571 
L 137.001577 91.142737 
L 136.301624 91.717986 
L 135.592949 92.282455 
L 134.876752 92.837349 
L 134.154299 93.384073 
L 133.42692 93.924226 
L 132.696006 94.459586 
L 131.963014 94.992097 
L 131.22947 95.523848 
L 130.496984 96.057054 
L 129.767252 96.594024 
L 129.042081 97.137138 
L 128.323398 97.688808 
L 127.613268 98.251446 
L 126.913914 98.827422 
L 126.227724 99.419022 
L 125.557273 100.028399 
L 124.905322 100.657529 
L 124.274823 101.308157 
L 123.668915 101.981745 
L 123.090909 102.679423 
L 122.544267 103.401938 
L 122.032568 104.149607 
L 121.559466 104.922278 
L 121.128637 105.719292 
L 120.743719 106.539465 
L 120.408238 107.38107 
L 120.12554 108.241841 
L 119.898702 109.11899 
L 119.730463 110.009237 
L 119.623141 110.908863 
L 119.578563 111.813771 
L 119.598011 112.719568 
L 119.682165 113.621656 
L 119.831084 114.515339 
L 120.04418 115.395927 
L 120.320236 116.258851 
L 120.657421 117.099774 
L 121.05334 117.914694 
L 121.505093 118.700037 
L 122.00935 119.452746 
L 122.562433 120.170342 
L 123.160416 120.850976 
L 123.799213 121.493458 
L 124.474675 122.097276 
L 125.182679 122.662587 
L 125.919205 123.1902 
L 126.680406 123.681543 
L 127.462661 124.138623 
L 128.262612 124.563974 
L 129.077188 124.960599 
L 129.903607 125.331917 
L 130.739369 125.681699 
L 131.582229 126.014012 
L 132.430162 126.33316 
L 133.28131 126.643632 
L 134.133926 126.950048 
L 134.986313 127.257103 
L 135.836749 127.569519 
L 136.683424 127.891989 
L 137.524368 128.229121 
L 138.357391 128.585378 
L 139.180021 128.965015 
L 139.989467 129.372007 
L 140.78258 129.809977 
L 141.555838 130.282119 
L 142.305351 130.791114 
L 143.02688 131.339055 
L 143.715885 131.927373 
L 144.367584 132.556765 
L 144.977043 133.227142 
L 145.539279 133.93759 
L 146.049377 134.686352 
L 146.502624 135.470834 
L 146.894638 136.287639 
L 147.221504 137.132627 
L 147.479897 138.001004 
L 147.667195 138.887438 
L 147.781564 139.786195 
L 147.822024 140.691297 
L 147.788484 141.596681 
L 147.68174 142.496376 
L 147.503451 143.384665 
L 147.256076 144.256245 
L 146.942793 145.106362 
L 146.567387 145.930932 
L 146.134139 146.726634 
L 145.647688 147.490971 
L 145.112908 148.222309 
L 144.534781 148.919887 
L 143.918284 149.583797 
L 143.268293 150.214952 
L 142.589506 150.81503 
L 141.886387 151.386405 
L 141.163135 151.932072 
L 140.423675 152.455564 
L 139.671668 152.960867 
L 138.910546 153.452333 
L 138.14356 153.934596 
L 137.37384 154.412484 
L 136.604472 154.890938 
L 135.838571 155.374923 
L 135.079366 155.869344 
L 134.33027 156.378952 
L 133.594956 156.908252 
L 132.87741 157.461401 
L 132.181974 158.042103 
L 131.513366 158.653502 
L 130.876674 159.298071 
L 130.277325 159.977501 
L 129.721025 160.692607 
L 129.213666 161.443228 
L 128.76121 162.228167 
L 128.369539 163.045136 
L 128.044293 163.890749 
L 127.790692 164.760537 
L 127.613347 165.649016 
L 127.51609 166.549786 
L 127.501801 167.455678 
L 127.572282 168.358938 
L 127.72815 169.251434 
L 127.968782 170.1249 
L 128.292309 170.971172 
L 128.695652 171.782442 
L 129.174624 172.551488 
L 129.724055 173.271884 
L 130.33798 173.938173 
L 131.009833 174.546005 
L 131.732669 175.092222 
L 132.499394 175.574901 
L 133.302977 175.99335 
L 134.136658 176.348062 
L 134.994122 176.640638 
L 135.869643 176.873682 
L 136.758191 177.050676 
L 137.655507 177.175854 
L 138.55813 177.25407 
L 139.463395 177.290674 
L 140.3694 177.291403 
L 141.274937 177.262284 
L 142.179407 177.209558 
L 143.082708 177.139616 
L 143.985116 177.05896 
L 144.887145 176.974167 
L 145.789404 176.891865 
L 146.692452 176.818717 
L 147.596641 176.76139 
L 148.501976 176.726535 
L 149.407963 176.720734 
L 150.31348 176.750449 
L 151.216661 176.821933 
L 152.114791 176.941129 
L 153.00424 177.113542 
L 153.880421 177.34409 
L 154.737792 177.636939 
L 155.569901 177.995324 
L 156.369478 178.421379 
L 157.128577 178.915962 
L 157.838773 179.478517 
L 158.491389 180.106957 
L 159.077775 180.797607 
L 159.589599 181.545191 
L 160.019154 182.342893 
L 160.359658 183.182478 
L 160.605528 184.054483 
L 160.752617 184.948468 
L 160.798386 185.853317 
L 160.742023 186.757567 
L 160.58447 187.649768 
L 160.328389 188.518829 
L 159.978038 189.354353 
L 159.539096 190.146928 
L 159.018422 190.888375 
L 158.423778 191.571927 
L 157.763534 192.19235 
L 157.046365 192.745987 
L 156.280958 193.230753 
L 155.475746 193.646058 
L 154.638678 193.992702 
L 153.777031 194.272719 
L 152.897273 194.489218 
L 152.004971 194.646197 
L 151.104745 194.748372 
L 150.200271 194.801011 
L 149.294308 194.809779 
L 148.388772 194.780616 
L 147.484822 194.719626 
L 146.582969 194.632992 
L 145.683194 194.526918 
L 144.785083 194.407578 
L 143.887952 194.281088 
L 142.990977 194.153484 
L 142.09333 194.030705 
L 141.19429 193.918578 
L 140.293362 193.822796 
L 139.390376 193.748893 
L 138.485574 193.70221 
L 137.579683 193.687845 
L 136.673964 193.710602 
L 135.770244 193.774918 
L 134.870926 193.884795 
L 133.978968 194.043714 
L 133.09784 194.254567 
L 132.231459 194.519576 
L 131.384096 194.840235 
L 130.560266 195.21726 
L 129.764597 195.650569 
L 129.001697 196.13927 
L 128.276007 196.681691 
L 127.591666 197.275427 
L 126.952374 197.917417 
L 126.361278 198.60404 
L 125.820874 199.331232 
L 125.332936 200.094621 
L 124.898465 200.889656 
L 124.517673 201.711752 
L 124.189985 202.556421 
L 123.914066 203.419389 
L 123.687869 204.296704 
L 123.5087 205.184816 
L 123.373285 206.080644 
L 123.277848 206.981609 
L 123.21819 207.885648 
L 123.189764 208.791207 
L 123.18774 209.69721 
L 123.207065 210.603009 
L 123.242519 211.50832 
L 123.288755 212.413145 
L 123.340332 213.317681 
L 123.391753 214.222226 
L 123.437482 215.127076 
L 123.471985 216.032424 
L 123.489748 216.938255 
L 123.485323 217.844249 
L 123.453372 218.749691 
L 123.388721 219.653387 
L 123.286431 220.553599 
L 123.141876 221.447998 
L 122.950836 222.333633 
L 122.709589 223.206928 
L 122.41502 224.06371 
L 122.064718 224.899254 
L 121.657071 225.70837 
L 121.191346 226.48551 
L 120.667755 227.2249 
L 120.087485 227.920696 
L 119.452711 228.567153 
L 118.766559 229.158796 
L 118.03305 229.690595 
L 117.256995 230.158124 
L 116.443866 230.557708 
L 115.59964 230.886536 
L 114.730616 231.142744 
L 113.843228 231.325465 
L 112.943848 231.434836 
L 112.038604 231.471973 
L 111.133203 231.438912 
L 110.232777 231.338517 
L 109.341766 231.174371 
L 108.463815 230.950657 
L 107.60172 230.672022 
L 106.757393 230.343454 
L 105.931864 229.970161 
L 105.12531 229.557467 
L 104.337104 229.110727 
L 103.565884 228.635263 
L 102.809642 228.136321 
L 102.065817 227.61905 
L 101.331399 227.088507 
L 100.603043 226.549672 
L 99.877181 226.007482 
L 99.15014 225.466875 
L 98.418262 224.932833 
L 97.678028 224.410436 
L 96.926179 223.904898 
L 96.159847 223.421597 
L 95.376672 222.966094 
L 94.574934 222.54412 
L 93.753663 222.161552 
L 92.912747 221.824349 
L 92.053027 221.53847 
L 91.176365 221.309759 
L 90.285688 221.143806 
L 89.385 221.04579 
L 88.479354 221.020304 
L 87.574778 221.071178 
L 86.678167 221.201312 
L 85.797123 221.412514 
L 84.939757 221.705378 
L 84.114463 222.07919 
L 83.329666 222.531892 
L 82.593556 223.060084 
L 81.913828 223.659096 
L 81.297438 224.323106 
L 80.750383 225.045308 
L 80.277525 225.818128 
L 79.882459 226.633461 
L 79.567442 227.482937 
L 79.333372 228.358184 
L 79.179821 229.251082 
L 79.105117 230.154002 
L 79.106466 231.060007 
L 79.180103 231.963014 
L 79.321459 232.857924 
L 79.525343 233.740691 
L 79.786105 234.608359 
L 80.097802 235.459059 
L 80.454335 236.291963 
L 80.849562 237.107219 
L 81.277379 237.905854 
L 81.731784 238.689666 
L 82.206896 239.461102 
L 82.69696 240.223128 
L 83.196327 240.97909 
L 83.699414 241.732581 
L 84.200662 242.487296 
L 84.694477 243.246896 
L 85.175181 244.01486 
L 85.636971 244.794345 
L 86.073883 245.588041 
L 86.479789 246.398032 
L 86.848409 247.225658 
L 87.173356 248.071385 
L 87.44821 248.934693 
L 87.666629 249.813976 
L 87.822485 250.706475 
L 87.910033 251.60824 
L 87.924099 252.514136 
L 87.860274 253.417891 
L 87.715124 254.312193 
L 87.486377 255.188846 
L 87.173091 256.038962 
L 86.775784 256.853206 
L 86.296522 257.62207 
L 85.738938 258.336175 
L 85.1082 258.986571 
L 84.410905 259.565039 
L 83.654913 260.06436 
L 82.849128 260.478553 
L 82.003228 260.803051 
L 81.12737 261.034824 
L 80.231876 261.17243 
L 79.326919 261.216 
L 78.422231 261.167163 
L 77.526837 261.02891 
L 76.648831 260.805413 
L 75.795205 260.501821 
L 74.971727 260.124024 
L 74.182876 259.678424 
L 73.431821 259.171708 
L 72.720452 258.610638 
L 72.049442 258.001876 
L 71.418344 257.351829 
L 70.825701 256.666541 
L 70.269174 255.951613 
L 69.745671 255.21216 
L 69.25148 254.452805 
L 68.782393 253.67769 
L 68.333823 252.890524 
L 67.900913 252.094638 
L 67.478638 251.293059 
L 67.061892 250.488591 
L 66.645575 249.683901 
L 66.224671 248.881602 
L 65.794321 248.084329 
L 65.349896 247.294815 
L 64.887071 246.515945 
L 64.40189 245.750802 
L 63.890838 245.00269 
L 63.350907 244.275146 
L 62.779659 243.571924 
L 62.175276 242.896967 
L 61.536614 242.254351 
L 60.863227 241.648219 
L 60.155389 241.082701 
L 59.414092 240.561813 
L 58.641024 240.08936 
L 57.838525 239.668835 
L 57.009524 239.30332 
L 56.157453 238.99539 
L 55.286149 238.747046 
L 54.399736 238.559649 
L 53.502502 238.433884 
L 52.59877 238.369741 
L 51.692771 238.366524 
L 50.78852 238.422875 
L 49.889709 238.536821 
L 48.999608 238.705834 
L 48.120988 238.926907 
L 47.256063 239.19663 
L 46.406451 239.511281 
L 45.573155 239.866896 
L 44.756564 240.259355 
L 43.956473 240.684443 
L 43.172116 241.137908 
L 42.402213 241.6155 
L 41.645024 242.113005 
L 40.898419 242.626255 
L 40.159943 243.151134 
L 39.426896 243.68357 
L 38.696412 244.219516 
L 37.965536 244.754928 
L 37.231311 245.285738 
L 36.490859 245.807826 
L 35.741464 246.316995 
L 34.980661 246.808955 
L 34.206313 247.279305 
L 33.416693 247.723541 
L 32.610563 248.137062 
L 31.787243 248.515202 
L 30.946674 248.853269 
L 30.089469 249.146605 
L 29.216953 249.390657 
L 28.331182 249.581063 
L 27.434945 249.713746 
L 26.531747 249.785015 
L 25.625766 249.791668 
L 24.721789 249.731093 
L 23.82512 249.601358 
L 22.941482 249.401288 
L 22.07688 249.130529 
L 21.237475 248.789583 
L 20.429426 248.379824 
L 19.65875 247.90348 
L 18.931172 247.363596 
L 18.251989 246.763965 
L 17.625955 246.109041 
L 17.05717 245.403825 
L 16.549009 244.653746 
L 16.104066 243.864524 
L 15.724127 243.042033 
L 15.410168 242.192165 
L 15.162377 241.320704 
L 14.980197 240.433204 
L 14.86239 239.534891 
L 14.807106 238.630574 
L 14.811972 237.724582 
L 14.874178 236.820715 
L 14.990566 235.922216 
L 15.15772 235.031764 
L 15.372048 234.151475 
L 15.629857 233.282925 
L 15.92742 232.427178 
L 16.26103 231.584831 
L 16.627053 230.756053 
L 17.021959 229.940642 
L 17.442354 229.138075 
L 17.884998 228.347562 
L 18.346822 227.568098 
L 18.82493 226.798515 
L 19.316605 226.037528 
L 19.81931 225.283782 
L 20.330682 224.535889 
L 20.848531 223.792466 
L 21.370836 223.052166 
L 21.895738 222.313707 
L 22.421543 221.575889 
L 22.946712 220.837619 
L 23.469866 220.09792 
L 23.989785 219.355943 
L 24.505406 218.610973 
L 25.015829 217.862431 
L 25.520313 217.109875 
L 26.018285 216.352993 
L 26.509335 215.591603 
L 26.993223 214.825641 
L 27.469873 214.055154 
L 27.939375 213.280291 
L 28.401983 212.501292 
L 28.858105 211.718478 
L 29.308302 210.932241 
L 29.753278 210.143038 
L 30.193867 209.351377 
L 30.631024 208.557816 
L 31.065811 207.762954 
L 31.49938 206.967427 
L 31.93296 206.171906 
L 32.367835 205.377092 
L 32.805328 204.583716 
L 33.246784 203.792539 
L 33.693547 203.004345 
L 34.146939 202.219947 
L 34.608247 201.440178 
L 35.078698 200.66589 
L 35.559442 199.897951 
L 36.051536 199.137235 
L 36.555926 198.384615 
L 37.073436 197.640956 
L 37.604751 196.907096 
L 38.150411 196.18384 
L 38.710804 195.471937 
L 39.286157 194.77207 
L 39.876537 194.084831 
L 40.481852 193.41071 
L 41.101854 192.750072 
L 41.736146 192.103141 
L 42.384186 191.469983 
L 43.045304 190.850493 
L 43.718705 190.244377 
L 44.403488 189.651151 
L 45.098653 189.070125 
L 45.803113 188.500404 
L 46.515703 187.940885 
L 47.23519 187.390264 
L 47.960276 186.847037 
L 48.689601 186.309514 
L 49.42174 185.775831 
L 50.155203 185.24397 
L 50.888425 184.711774 
L 51.619753 184.17698 
L 52.347437 183.637238 
L 53.069613 183.090149 
L 53.784287 182.533295 
L 54.489317 181.96428 
L 55.182399 181.380771 
L 55.861052 180.780541 
L 56.522611 180.161521 
L 57.164217 179.521844 
L 57.782824 178.8599 
L 58.375205 178.174385 
L 58.93797 177.464356 
L 59.467593 176.729275 
L 59.960453 175.969055 
L 60.412877 175.184098 
L 60.8212 174.375322 
L 61.181831 173.544184 
L 61.491324 172.69268 
L 61.746457 171.823339 
L 61.944313 170.939202 
L 62.082355 170.043775 
L 62.1585 169.140975 
L 62.171189 168.235059 
L 62.119435 167.330533 
L 62.002865 166.432058 
L 61.821745 165.544342 
L 61.576977 164.672026 
L 61.270091 163.819579 
L 60.903207 162.991182 
L 60.478979 162.190635 
L 60.000535 161.421261 
L 59.471387 160.685837 
L 58.895351 159.986532 
L 58.276444 159.324867 
L 57.618796 158.701695 
L 56.926552 158.117192 
L 56.203794 157.570871 
L 55.454463 157.061609 
L 54.682298 156.587682 
L 53.890792 156.146814 
L 53.083163 155.736229 
L 52.262336 155.352707 
L 51.43095 154.992649 
L 50.591373 154.652126 
L 49.745735 154.326947 
L 48.895971 154.012707 
L 48.043875 153.704846 
L 47.191161 153.398701 
L 46.339531 153.089555 
L 45.490741 152.772695 
L 44.646672 152.443462 
L 43.809399 152.097314 
L 42.981244 151.729883 
L 42.164835 151.337045 
L 41.363139 150.914992 
L 40.579491 150.460305 
L 39.817596 149.970037 
L 39.081525 149.441791 
L 38.375673 148.873796 
L 37.704712 148.26498 
L 37.073511 147.615034 
L 36.487042 146.924454 
L 35.95027 146.194577 
L 35.468025 145.427579 
L 35.044873 144.626463 
L 34.684978 143.795005 
L 34.391974 142.937687 
L 34.168849 142.059587 
L 34.017838 141.166255 
L 33.940356 140.263569 
L 33.936941 139.357571 
L 34.007237 138.454297 
L 34.150013 137.559612 
L 34.363199 136.679046 
L 34.643966 135.817643 
L 34.988818 134.979835 
L 35.393705 134.169334 
L 35.854153 133.389056 
L 36.365387 132.641068 
L 36.922465 131.926569 
L 37.520395 131.245889 
L 38.154239 130.59852 
L 38.819202 129.983158 
L 39.510697 129.39777 
L 40.22439 128.839659 
L 40.95622 128.305551 
L 41.702396 127.791677 
L 42.459376 127.293856 
L 43.223828 126.807585 
L 43.992567 126.328122 
L 44.762497 125.850572 
L 45.530526 125.369971 
L 46.293492 124.881374 
L 47.048085 124.37994 
L 47.790767 123.86103 
L 48.517717 123.320299 
L 49.224773 122.753804 
L 49.907408 122.158107 
L 50.560717 121.530386 
L 51.179435 120.868546 
L 51.757987 120.17132 
L 52.29056 119.438374 
L 52.771212 118.670376 
L 53.194 117.869068 
L 53.553141 117.037285 
L 53.843184 116.17896 
L 54.059188 115.299081 
L 54.196912 114.403605 
L 54.252981 113.499336 
L 54.225038 112.593762 
L 54.111864 111.694853 
L 53.913457 110.81084 
L 53.631067 109.949967 
L 53.267175 109.120252 
L 52.825429 108.329236 
L 52.310527 107.583769 
L 51.728061 106.889811 
L 51.084322 106.252279 
L 50.386095 105.674937 
L 49.640427 105.160326 
L 48.854407 104.709751 
L 48.034953 104.323304 
L 47.188625 103.999925 
L 46.321459 103.737498 
L 45.438842 103.532965 
L 44.545427 103.38245 
L 43.645076 103.281393 
L 42.740847 103.224679 
L 41.83502 103.206749 
L 40.929138 103.221712 
L 40.024094 103.263426 
L 39.120222 103.325567 
L 38.21742 103.401684 
L 37.315275 103.485234 
L 36.413208 103.569612 
L 35.510615 103.648171 
L 34.607022 103.714242 
L 33.702233 103.761161 
L 32.796474 103.782306 
L 31.890538 103.771145 
L 30.985904 103.721311 
L 30.084854 103.62669 
L 29.190551 103.48154 
L 28.307103 103.280632 
L 27.439575 103.0194 
L 26.593975 102.694123 
L 25.777177 102.302094 
L 24.996811 101.841796 
L 24.261088 101.313064 
L 23.578592 100.717208 
L 22.958023 100.057103 
L 22.407909 99.337228 
L 21.936307 98.563641 
L 21.550499 97.743886 
L 21.256698 96.886841 
L 21.059798 96.00249 
L 20.963157 95.101654 
L 20.968462 94.195664 
L 21.075647 93.296022 
L 21.282901 92.41404 
L 21.586743 91.560503 
L 21.982179 90.74535 
L 22.462908 89.977401 
L 23.021582 89.264149 
L 23.650099 88.611606 
L 24.339896 88.024218 
L 25.08226 87.504852 
L 25.868598 87.054832 
L 26.690694 86.674039 
L 27.540914 86.361034 
L 28.41237 86.113224 
L 29.299037 85.927034 
L 30.195819 85.798084 
L 31.09857 85.721364 
L 32.004079 85.691389 
L 32.910018 85.702341 
L 33.814862 85.748187 
L 34.717792 85.822775 
L 35.618576 85.919903 
L 36.517447 86.033379 
L 37.414971 86.157054 
L 38.311918 86.28485 
L 39.209129 86.410777 
L 40.107394 86.52895 
L 41.007334 86.633607 
L 41.909294 86.71913 
L 42.813247 86.780077 
L 43.718717 86.811222 
L 44.624715 86.807605 
L 45.529699 86.764597 
L 46.431553 86.67797 
L 47.327594 86.543973 
L 48.214601 86.359407 
L 49.088869 86.12171 
L 49.946293 85.829016 
L 50.782464 85.480213 
L 51.592795 85.074985 
L 52.372648 84.613819 
L 53.117483 84.098002 
L 53.82299 83.52958 
L 54.485237 82.911296 
L 55.100786 82.246507 
L 55.666805 81.539069 
L 56.18115 80.793217 
L 56.642431 80.013432 
L 57.050039 79.204296 
L 57.404158 78.370362 
L 57.70575 77.516028 
L 57.95651 76.645416 
L 58.158818 75.762287 
L 58.315667 74.869962 
L 58.430593 73.971276 
L 58.507592 73.068548 
L 58.551046 72.163586 
L 58.565653 71.257698 
L 58.556359 70.351741 
L 58.528308 69.44617 
L 58.486788 68.541117 
L 58.437197 67.63647 
L 58.385008 66.731969 
L 58.385008 66.731969 
L 58.385008 66.731969 
L 58.437197 66.731969 
L 58.486788 66.731969 
L 58.528308 66.731969 
L 58.556359 66.731969 
L 58.565653 66.731969 
L 58.551046 66.731969 
L 58.507592 66.731969 
L 58.430593 66.731969 
L 58.315667 66.731969 
L 58.158818 66.731969 
L 57.95651 66.731969 
L 57.70575 66.731969 
L 57.404158 66.731969 
L 57.050039 66.731969 
L 56.642431 66.731969 
L 56.18115 66.731969 
L 55.666805 66.731969 
L 55.100786 66.731969 
L 54.485237 66.731969 
L 53.82299 66.731969 
L 53.117483 66.731969 
L 52.372648 66.731969 
L 51.592795 66.731969 
L 50.782464 66.731969 
L 49.946293 66.731969 
L 49.088869 66.731969 
L 48.214601 66.731969 
L 47.327594 66.731969 
L 46.431553 66.731969 
L 45.529699 66.731969 
L 44.624715 66.731969 
L 43.718717 66.731969 
L 42.813247 66.731969 
L 41.909294 66.731969 
L 41.007334 66.731969 
L 40.107394 66.731969 
L 39.209129 66.731969 
L 38.311918 66.731969 
L 37.414971 66.731969 
L 36.517447 66.731969 
L 35.618576 66.731969 
L 34.717792 66.731969 
L 33.814862 66.731969 
L 32.910018 66.731969 
L 32.004079 66.731969 
L 31.09857 66.731969 
L 30.195819 66.731969 
L 29.299037 66.731969 
L 28.41237 66.731969 
L 27.540914 66.731969 
L 26.690694 66.731969 
L 25.868598 66.731969 
L 25.08226 66.731969 
L 24.339896 66.731969 
L 23.650099 66.731969 
L 23.021582 66.731969 
L 22.462908 66.731969 
L 21.982179 66.731969 
L 21.586743 66.731969 
L 21.282901 66.731969 
L 21.075647 66.731969 
L 20.968462 66.731969 
L 20.963157 66.731969 
L 21.059798 66.731969 
L 21.256698 66.731969 
L 21.550499 66.731969 
L 21.936307 66.731969 
L 22.407909 66.731969 
L 22.958023 66.731969 
L 23.578592 66.731969 
L 24.261088 66.731969 
L 24.996811 66.731969 
L 25.777177 66.731969 
L 26.593975 66.731969 
L 27.439575 66.731969 
L 28.307103 66.731969 
L 29.190551 66.731969 
L 30.084854 66.731969 
L 30.985904 66.731969 
L 31.890538 66.731969 
L 32.796474 66.731969 
L 33.702233 66.731969 
L 34.607022 66.731969 
L 35.510615 66.731969 
L 36.413208 66.731969 
L 37.315275 66.731969 
L 38.21742 66.731969 
L 39.120222 66.731969 
L 40.024094 66.731969 
L 40.929138 66.731969 
L 41.83502 66.731969 
L 42.740847 66.731969 
L 43.645076 66.731969 
L 44.545427 66.731969 
L 45.438842 66.731969 
L 46.321459 66.731969 
L 47.188625 66.731969 
L 48.034953 66.731969 
L 48.854407 66.731969 
L 49.640427 66.731969 
L 50.386095 66.731969 
L 51.084322 66.731969 
L 51.728061 66.731969 
L 52.310527 66.731969 
L 52.825429 66.731969 
L 53.267175 66.731969 
L 53.631067 66.731969 
L 53.913457 66.731969 
L 54.111864 66.731969 
L 54.225038 66.731969 
L 54.252981 66.731969 
L 54.196912 66.731969 
L 54.059188 66.731969 
L 53.843184 66.731969 
L 53.553141 66.731969 
L 53.194 66.731969 
L 52.771212 66.731969 
L 52.29056 66.731969 
L 51.757987 66.731969 
L 51.179435 66.731969 
L 50.560717 66.731969 
L 49.907408 66.731969 
L 49.224773 66.731969 
L 48.517717 66.731969 
L 47.790767 66.731969 
L 47.048085 66.731969 
L 46.293492 66.731969 
L 45.530526 66.731969 
L 44.762497 66.731969 
L 43.992567 66.731969 
L 43.223828 66.731969 
L 42.459376 66.731969 
L 41.702396 66.731969 
L 40.95622 66.731969 
L 40.22439 66.731969 
L 39.510697 66.731969 
L 38.819202 66.731969 
L 38.154239 66.731969 
L 37.520395 66.731969 
L 36.922465 66.731969 
L 36.365387 66.731969 
L 35.854153 66.731969 
L 35.393705 66.731969 
L 34.988818 66.731969 
L 34.643966 66.731969 
L 34.363199 66.731969 
L 34.150013 66.731969 
L 34.007237 66.731969 
L 33.936941 66.731969 
L 33.940356 66.731969 
L 34.017838 66.731969 
L 34.168849 66.731969 
L 34.391974 66.731969 
L 34.684978 66.731969 
L 35.044873 66.731969 
L 35.468025 66.731969 
L 35.95027 66.731969 
L 36.487042 66.731969 
L 37.073511 66.731969 
L 37.704712 66.731969 
L 38.375673 66.731969 
L 39.081525 66.731969 
L 39.817596 66.731969 
L 40.579491 66.731969 
L 41.363139 66.731969 
L 42.164835 66.731969 
L 42.981244 66.731969 
L 43.809399 66.731969 
L 44.646672 66.731969 
L 45.490741 66.731969 
L 46.339531 66.731969 
L 47.191161 66.731969 
L 48.043875 66.731969 
L 48.895971 66.731969 
L 49.745735 66.731969 
L 50.591373 66.731969 
L 51.43095 66.731969 
L 52.262336 66.731969 
L 53.083163 66.731969 
L 53.890792 66.731969 
L 54.682298 66.731969 
L 55.454463 66.731969 
L 56.203794 66.731969 
L 56.926552 66.731969 
L 57.618796 66.731969 
L 58.276444 66.731969 
L 58.895351 66.731969 
L 59.471387 66.731969 
L 60.000535 66.731969 
L 60.478979 66.731969 
L 60.903207 66.731969 
L 61.270091 66.731969 
L 61.576977 66.731969 
L 61.821745 66.731969 
L 62.002865 66.731969 
L 62.119435 66.731969 
L 62.171189 66.731969 
L 62.1585 66.731969 
L 62.082355 66.731969 
L 61.944313 66.731969 
L 61.746457 66.731969 
L 61.491324 66.731969 
L 61.181831 66.731969 
L 60.8212 66.731969 
L 60.412877 66.731969 
L 59.960453 66.731969 
L 59.467593 66.731969 
L 58.93797 66.731969 
L 58.375205 66.731969 
L 57.782824 66.731969 
L 57.164217 66.731969 
L 56.522611 66.731969 
L 55.861052 66.731969 
L 55.182399 66.731969 
L 54.489317 66.731969 
L 53.784287 66.731969 
L 53.069613 66.731969 
L 52.347437 66.731969 
L 51.619753 66.731969 
L 50.888425 66.731969 
L 50.155203 66.731969 
L 49.42174 66.731969 
L 48.689601 66.731969 
L 47.960276 66.731969 
L 47.23519 66.731969 
L 46.515703 66.731969 
L 45.803113 66.731969 
L 45.098653 66.731969 
L 44.403488 66.731969 
L 43.718705 66.731969 
L 43.045304 66.731969 
L 42.384186 66.731969 
L 41.736146 66.731969 
L 41.101854 66.731969 
L 40.481852 66.731969 
L 39.876537 66.731969 
L 39.286157 66.731969 
L 38.710804 66.731969 
L 38.150411 66.731969 
L 37.604751 66.731969 
L 37.073436 66.731969 
L 36.555926 66.731969 
L 36.051536 66.731969 
L 35.559442 66.731969 
L 35.078698 66.731969 
L 34.608247 66.731969 
L 34.146939 66.731969 
L 33.693547 66.731969 
L 33.246784 66.731969 
L 32.805328 66.731969 
L 32.367835 66.731969 
L 31.93296 66.731969 
L 31.49938 66.731969 
L 31.065811 66.731969 
L 30.631024 66.731969 
L 30.193867 66.731969 
L 29.753278 66.731969 
L 29.308302 66.731969 
L 28.858105 66.731969 
L 28.401983 66.731969 
L 27.939375 66.731969 
L 27.469873 66.731969 
L 26.993223 66.731969 
L 26.509335 66.731969 
L 26.018285 66.731969 
L 25.520313 66.731969 
L 25.015829 66.731969 
L 24.505406 66.731969 
L 23.989785 66.731969 
L 23.469866 66.731969 
L 22.946712 66.731969 
L 22.421543 66.731969 
L 21.895738 66.731969 
L 21.370836 66.731969 
L 20.848531 66.731969 
L 20.330682 66.731969 
L 19.81931 66.731969 
L 19.316605 66.731969 
L 18.82493 66.731969 
L 18.346822 66.731969 
L 17.884998 66.731969 
L 17.442354 66.731969 
L 17.021959 66.731969 
L 16.627053 66.731969 
L 16.26103 66.731969 
L 15.92742 66.731969 
L 15.629857 66.731969 
L 15.372048 66.731969 
L 15.15772 66.731969 
L 14.990566 66.731969 
L 14.874178 66.731969 
L 14.811972 66.731969 
L 14.807106 66.731969 
L 14.86239 66.731969 
L 14.980197 66.731969 
L 15.162377 66.731969 
L 15.410168 66.731969 
L 15.724127 66.731969 
L 16.104066 66.731969 
L 16.549009 66.731969 
L 17.05717 66.731969 
L 17.625955 66.731969 
L 18.251989 66.731969 
L 18.931172 66.731969 
L 19.65875 66.731969 
L 20.429426 66.731969 
L 21.237475 66.731969 
L 22.07688 66.731969 
L 22.941482 66.731969 
L 23.82512 66.731969 
L 24.721789 66.731969 
L 25.625766 66.731969 
L 26.531747 66.731969 
L 27.434945 66.731969 
L 28.331182 66.731969 
L 29.216953 66.731969 
L 30.089469 66.731969 
L 30.946674 66.731969 
L 31.787243 66.731969 
L 32.610563 66.731969 
L 33.416693 66.731969 
L 34.206313 66.731969 
L 34.980661 66.731969 
L 35.741464 66.731969 
L 36.490859 66.731969 
L 37.231311 66.731969 
L 37.965536 66.731969 
L 38.696412 66.731969 
L 39.426896 66.731969 
L 40.159943 66.731969 
L 40.898419 66.731969 
L 41.645024 66.731969 
L 42.402213 66.731969 
L 43.172116 66.731969 
L 43.956473 66.731969 
L 44.756564 66.731969 
L 45.573155 66.731969 
L 46.406451 66.731969 
L 47.256063 66.731969 
L 48.120988 66.731969 
L 48.999608 66.731969 
L 49.889709 66.731969 
L 50.78852 66.731969 
L 51.692771 66.731969 
L 52.59877 66.731969 
L 53.502502 66.731969 
L 54.399736 66.731969 
L 55.286149 66.731969 
L 56.157453 66.731969 
L 57.009524 66.731969 
L 57.838525 66.731969 
L 58.641024 66.731969 
L 59.414092 66.731969 
L 60.155389 66.731969 
L 60.863227 66.731969 
L 61.536614 66.731969 
L 62.175276 66.731969 
L 62.779659 66.731969 
L 63.350907 66.731969 
L 63.890838 66.731969 
L 64.40189 66.731969 
L 64.887071 66.731969 
L 65.349896 66.731969 
L 65.794321 66.731969 
L 66.224671 66.731969 
L 66.645575 66.731969 
L 67.061892 66.731969 
L 67.478638 66.731969 
L 67.900913 66.731969 
L 68.333823 66.731969 
L 68.782393 66.731969 
L 69.25148 66.731969 
L 69.745671 66.731969 
L 70.269174 66.731969 
L 70.825701 66.731969 
L 71.418344 66.731969 
L 72.049442 66.731969 
L 72.720452 66.731969 
L 73.431821 66.731969 
L 74.182876 66.731969 
L 74.971727 66.731969 
L 75.795205 66.731969 
L 76.648831 66.731969 
L 77.526837 66.731969 
L 78.422231 66.731969 
L 79.326919 66.731969 
L 80.231876 66.731969 
L 81.12737 66.731969 
L 82.003228 66.731969 
L 82.849128 66.731969 
L 83.654913 66.731969 
L 84.410905 66.731969 
L 85.1082 66.731969 
L 85.738938 66.731969 
L 86.296522 66.731969 
L 86.775784 66.731969 
L 87.173091 66.731969 
L 87.486377 66.731969 
L 87.715124 66.731969 
L 87.860274 66.731969 
L 87.924099 66.731969 
L 87.910033 66.731969 
L 87.822485 66.731969 
L 87.666629 66.731969 
L 87.44821 66.731969 
L 87.173356 66.731969 
L 86.848409 66.731969 
L 86.479789 66.731969 
L 86.073883 66.731969 
L 85.636971 66.731969 
L 85.175181 66.731969 
L 84.694477 66.731969 
L 84.200662 66.731969 
L 83.699414 66.731969 
L 83.196327 66.731969 
L 82.69696 66.731969 
L 82.206896 66.731969 
L 81.731784 66.731969 
L 81.277379 66.731969 
L 80.849562 66.731969 
L 80.454335 66.731969 
L 80.097802 66.731969 
L 79.786105 66.731969 
L 79.525343 66.731969 
L 79.321459 66.731969 
L 79.180103 66.731969 
L 79.106466 66.731969 
L 79.105117 66.731969 
L 79.179821 66.731969 
L 79.333372 66.731969 
L 79.567442 66.731969 
L 79.882459 66.731969 
L 80.277525 66.731969 
L 80.750383 66.731969 
L 81.297438 66.731969 
L 81.913828 66.731969 
L 82.593556 66.731969 
L 83.329666 66.731969 
L 84.114463 66.731969 
L 84.939757 66.731969 
L 85.797123 66.731969 
L 86.678167 66.731969 
L 87.574778 66.731969 
L 88.479354 66.731969 
L 89.385 66.731969 
L 90.285688 66.731969 
L 91.176365 66.731969 
L 92.053027 66.731969 
L 92.912747 66.731969 
L 93.753663 66.731969 
L 94.574934 66.731969 
L 95.376672 66.731969 
L 96.159847 66.731969 
L 96.926179 66.731969 
L 97.678028 66.731969 
L 98.418262 66.731969 
L 99.15014 66.731969 
L 99.877181 66.731969 
L 100.603043 66.731969 
L 101.331399 66.731969 
L 102.065817 66.731969 
L 102.809642 66.731969 
L 103.565884 66.731969 
L 104.337104 66.731969 
L 105.12531 66.731969 
L 105.931864 66.731969 
L 106.757393 66.731969 
L 107.60172 66.731969 
L 108.463815 66.731969 
L 109.341766 66.731969 
L 110.232777 66.731969 
L 111.133203 66.731969 
L 112.038604 66.731969 
L 112.943848 66.731969 
L 113.843228 66.731969 
L 114.730616 66.731969 
L 115.59964 66.731969 
L 116.443866 66.731969 
L 117.256995 66.731969 
L 118.03305 66.731969 
L 118.766559 66.731969 
L 119.452711 66.731969 
L 120.087485 66.731969 
L 120.667755 66.731969 
L 121.191346 66.731969 
L 121.657071 66.731969 
L 122.064718 66.731969 
L 122.41502 66.731969 
L 122.709589 66.731969 
L 122.950836 66.731969 
L 123.141876 66.731969 
L 123.286431 66.731969 
L 123.388721 66.731969 
L 123.453372 66.731969 
L 123.485323 66.731969 
L 123.489748 66.731969 
L 123.471985 66.731969 
L 123.437482 66.731969 
L 123.391753 66.731969 
L 123.340332 66.731969 
L 123.288755 66.731969 
L 123.242519 66.731969 
L 123.207065 66.731969 
L 123.18774 66.731969 
L 123.189764 66.731969 
L 123.21819 66.731969 
L 123.277848 66.731969 
L 123.373285 66.731969 
L 123.5087 66.731969 
L 123.687869 66.731969 
L 123.914066 66.731969 
L 124.189985 66.731969 
L 124.517673 66.731969 
L 124.898465 66.731969 
L 125.332936 66.731969 
L 125.820874 66.731969 
L 126.361278 66.731969 
L 126.952374 66.731969 
L 127.591666 66.731969 
L 128.276007 66.731969 
L 129.001697 66.731969 
L 129.764597 66.731969 
L 130.560266 66.731969 
L 131.384096 66.731969 
L 132.231459 66.731969 
L 133.09784 66.731969 
L 133.978968 66.731969 
L 134.870926 66.731969 
L 135.770244 66.731969 
L 136.673964 66.731969 
L 137.579683 66.731969 
L 138.485574 66.731969 
L 139.390376 66.731969 
L 140.293362 66.731969 
L 141.19429 66.731969 
L 142.09333 66.731969 
L 142.990977 66.731969 
L 143.887952 66.731969 
L 144.785083 66.731969 
L 145.683194 66.731969 
L 146.582969 66.731969 
L 147.484822 66.731969 
L 148.388772 66.731969 
L 149.294308 66.731969 
L 150.200271 66.731969 
L 151.104745 66.731969 
L 152.004971 66.731969 
L 152.897273 66.731969 
L 153.777031 66.731969 
L 154.638678 66.731969 
L 155.475746 66.731969 
L 156.280958 66.731969 
L 157.046365 66.731969 
L 157.763534 66.731969 
L 158.423778 66.731969 
L 159.018422 66.731969 
L 159.539096 66.731969 
L 159.978038 66.731969 
L 160.328389 66.731969 
L 160.58447 66.731969 
L 160.742023 66.731969 
L 160.798386 66.731969 
L 160.752617 66.731969 
L 160.605528 66.731969 
L 160.359658 66.731969 
L 160.019154 66.731969 
L 159.589599 66.731969 
L 159.077775 66.731969 
L 158.491389 66.731969 
L 157.838773 66.731969 
L 157.128577 66.731969 
L 156.369478 66.731969 
L 155.569901 66.731969 
L 154.737792 66.731969 
L 153.880421 66.731969 
L 153.00424 66.731969 
L 152.114791 66.731969 
L 151.216661 66.731969 
L 150.31348 66.731969 
L 149.407963 66.731969 
L 148.501976 66.731969 
L 147.596641 66.731969 
L 146.692452 66.731969 
L 145.789404 66.731969 
L 144.887145 66.731969 
L 143.985116 66.731969 
L 143.082708 66.731969 
L 142.179407 66.731969 
L 141.274937 66.731969 
L 140.3694 66.731969 
L 139.463395 66.731969 
L 138.55813 66.731969 
L 137.655507 66.731969 
L 136.758191 66.731969 
L 135.869643 66.731969 
L 134.994122 66.731969 
L 134.136658 66.731969 
L 133.302977 66.731969 
L 132.499394 66.731969 
L 131.732669 66.731969 
L 131.009833 66.731969 
L 130.33798 66.731969 
L 129.724055 66.731969 
L 129.174624 66.731969 
L 128.695652 66.731969 
L 128.292309 66.731969 
L 127.968782 66.731969 
L 127.72815 66.731969 
L 127.572282 66.731969 
L 127.501801 66.731969 
L 127.51609 66.731969 
L 127.613347 66.731969 
L 127.790692 66.731969 
L 128.044293 66.731969 
L 128.369539 66.731969 
L 128.76121 66.731969 
L 129.213666 66.731969 
L 129.721025 66.731969 
L 130.277325 66.731969 
L 130.876674 66.731969 
L 131.513366 66.731969 
L 132.181974 66.731969 
L 132.87741 66.731969 
L 133.594956 66.731969 
L 134.33027 66.731969 
L 135.079366 66.731969 
L 135.838571 66.731969 
L 136.604472 66.731969 
L 137.37384 66.731969 
L 138.14356 66.731969 
L 138.910546 66.731969 
L 139.671668 66.731969 
L 140.423675 66.731969 
L 141.163135 66.731969 
L 141.886387 66.731969 
L 142.589506 66.731969 
L 143.268293 66.731969 
L 143.918284 66.731969 
L 144.534781 66.731969 
L 145.112908 66.731969 
L 145.647688 66.731969 
L 146.134139 66.731969 
L 146.567387 66.731969 
L 146.942793 66.731969 
L 147.256076 66.731969 
L 147.503451 66.731969 
L 147.68174 66.731969 
L 147.788484 66.731969 
L 147.822024 66.731969 
L 147.781564 66.731969 
L 147.667195 66.731969 
L 147.479897 66.731969 
L 147.221504 66.731969 
L 146.894638 66.731969 
L 146.502624 66.731969 
L 146.049377 66.731969 
L 145.539279 66.731969 
L 144.977043 66.731969 
L 144.367584 66.731969 
L 143.715885 66.731969 
L 143.02688 66.731969 
L 142.305351 66.731969 
L 141.555838 66.731969 
L 140.78258 66.731969 
L 139.989467 66.731969 
L 139.180021 66.731969 
L 138.357391 66.731969 
L 137.524368 66.731969 
L 136.683424 66.731969 
L 135.836749 66.731969 
L 134.986313 66.731969 
L 134.133926 66.731969 
L 133.28131 66.731969 
L 132.430162 66.731969 
L 131.582229 66.731969 
L 130.739369 66.731969 
L 129.903607 66.731969 
L 129.077188 66.731969 
L 128.262612 66.731969 
L 127.462661 66.731969 
L 126.680406 66.731969 
L 125.919205 66.731969 
L 125.182679 66.731969 
L 124.474675 66.731969 
L 123.799213 66.731969 
L 123.160416 66.731969 
L 122.562433 66.731969 
L 122.00935 66.731969 
L 121.505093 66.731969 
L 121.05334 66.731969 
L 120.657421 66.731969 
L 120.320236 66.731969 
L 120.04418 66.731969 
L 119.831084 66.731969 
L 119.682165 66.731969 
L 119.598011 66.731969 
L 119.578563 66.731969 
L 119.623141 66.731969 
L 119.730463 66.731969 
L 119.898702 66.731969 
L 120.12554 66.731969 
L 120.408238 66.731969 
L 120.743719 66.731969 
L 121.128637 66.731969 
L 121.559466 66.731969 
L 122.032568 66.731969 
L 122.544267 66.731969 
L 123.090909 66.731969 
L 123.668915 66.731969 
L 124.274823 66.731969 
L 124.905322 66.731969 
L 125.557273 66.731969 
L 126.227724 66.731969 
L 126.913914 66.731969 
L 127.613268 66.731969 
L 128.323398 66.731969 
L 129.042081 66.731969 
L 129.767252 66.731969 
L 130.496984 66.731969 
L 131.22947 66.731969 
L 131.963014 66.731969 
L 132.696006 66.731969 
L 133.42692 66.731969 
L 134.154299 66.731969 
L 134.876752 66.731969 
L 135.592949 66.731969 
L 136.301624 66.731969 
L 137.001577 66.731969 
L 137.691681 66.731969 
L 138.370893 66.731969 
L 139.038259 66.731969 
L 139.692929 66.731969 
L 140.334171 66.731969 
L 140.961377 66.731969 
L 141.574077 66.731969 
L 142.171945 66.731969 
L 142.754813 66.731969 
L 143.322668 66.731969 
L 143.875656 66.731969 
L 144.414086 66.731969 
L 144.938421 66.731969 
L 145.449276 66.731969 
L 145.947407 66.731969 
L 146.433701 66.731969 
L 146.90916 66.731969 
L 147.37489 66.731969 
L 147.832083 66.731969 
L 148.281997 66.731969 
L 148.725939 66.731969 
L 149.165245 66.731969 
L 149.601262 66.731969 
L 150.035326 66.731969 
L 150.468743 66.731969 
L 150.902772 66.731969 
L 151.338605 66.731969 
L 151.777352 66.731969 
L 152.220022 66.731969 
L 152.667512 66.731969 
L 153.120593 66.731969 
L 153.579897 66.731969 
L 154.04591 66.731969 
L 154.518965 66.731969 
L 154.999233 66.731969 
L 155.486722 66.731969 
L 155.981273 66.731969 
L 156.482563 66.731969 
L 156.990098 66.731969 
L 157.503223 66.731969 
L 158.021116 66.731969 
L 158.542795 66.731969 
L 159.067119 66.731969 
L 159.592788 66.731969 
L 160.118344 66.731969 
L 160.64217 66.731969 
L 161.162489 66.731969 
L 161.677363 66.731969 
L 162.184685 66.731969 
L 162.682181 66.731969 
L 163.167401 66.731969 
L 163.637718 66.731969 
L 164.090325 66.731969 
L 164.522239 66.731969 
L 164.930305 66.731969 
L 165.311202 66.731969 
L 165.661468 66.731969 
L 165.977514 66.731969 
L 166.255665 66.731969 
L 166.492199 66.731969 
L 166.683397 66.731969 
L 166.825608 66.731969 
L 166.915318 66.731969 
L 166.949229 66.731969 
L 166.924346 66.731969 
L 166.838067 66.731969 
L 166.688268 66.731969 
L 166.473396 66.731969 
L 166.192545 66.731969 
L 165.845524 66.731969 
L 165.432911 66.731969 
L 164.956085 66.731969 
L 164.417238 66.731969 
L 163.81936 66.731969 
L 163.166196 66.731969 
L 162.462185 66.731969 
L 161.712366 66.731969 
L 160.922266 66.731969 
L 160.097774 66.731969 
L 159.244997 66.731969 
L 158.370114 66.731969 
L 157.479224 66.731969 
L 156.578209 66.731969 
L 155.672597 66.731969 
L 154.767446 66.731969 
L 153.867247 66.731969 
L 152.975848 66.731969 
L 152.096402 66.731969 
L 151.231331 66.731969 
L 150.382323 66.731969 
L 149.550345 66.731969 
L 148.735668 66.731969 
L 147.937915 66.731969 
L 147.156117 66.731969 
L 146.388785 66.731969 
L 145.633976 66.731969 
L 144.889378 66.731969 
L 144.152391 66.731969 
L 143.420207 66.731969 
L 142.689898 66.731969 
L 141.958499 66.731969 
L 141.223087 66.731969 
L 140.48087 66.731969 
L 139.729262 66.731969 
L 138.965959 66.731969 
L 138.18902 66.731969 
L 137.396925 66.731969 
L 136.588646 66.731969 
L 135.763691 66.731969 
L 134.92215 66.731969 
L 134.064717 66.731969 
L 133.192705 66.731969 
L 132.308032 66.731969 
L 131.413197 66.731969 
L 130.511228 66.731969 
L 129.605619 66.731969 
L 128.700235 66.731969 
L 127.799215 66.731969 
L 126.90685 66.731969 
L 126.027463 66.731969 
L 125.165275 66.731969 
L 124.324282 66.731969 
L 123.508132 66.731969 
L 122.720018 66.731969 
L 121.962582 66.731969 
L 121.237847 66.731969 
L 120.547155 66.731969 
L 119.891141 66.731969 
L 119.269719 66.731969 
L 118.682089 66.731969 
L 118.126767 66.731969 
L 117.601618 66.731969 
L 117.10391 66.731969 
L 116.630375 66.731969 
L 116.177269 66.731969 
L 115.740443 66.731969 
L 115.315411 66.731969 
L 114.897419 66.731969 
L 114.481522 66.731969 
L 114.062651 66.731969 
L 113.635694 66.731969 
L 113.195574 66.731969 
L 112.737338 66.731969 
L 112.256251 66.731969 
L 111.747903 66.731969 
L 111.208316 66.731969 
L 110.634073 66.731969 
L 110.022443 66.731969 
L 109.371511 66.731969 
L 108.68031 66.731969 
L 107.948939 66.731969 
L 107.178671 66.731969 
L 106.372029 66.731969 
L 105.532836 66.731969 
L 104.66622 66.731969 
L 103.778573 66.731969 
L 102.877458 66.731969 
L 101.971457 66.731969 
L 101.069981 66.731969 
L 100.183017 66.731969 
L 99.320851 66.731969 
L 98.493761 66.731969 
L 97.711705 66.731969 
L 96.984008 66.731969 
L 96.319083 66.731969 
L 95.724184 66.731969 
L 95.205209 66.731969 
L 94.766568 66.731969 
L 94.411111 66.731969 
L 94.140124 66.731969 
L 93.95338 66.731969 
L 93.849254 66.731969 
L 93.824869 66.731969 
L 93.876279 66.731969 
L 93.998669 66.731969 
L 94.186552 66.731969 
L 94.433972 66.731969 
L 94.734672 66.731969 
L 95.082258 66.731969 
L 95.470315 66.731969 
L 95.8925 66.731969 
L 96.342607 66.731969 
L 96.814589 66.731969 
L 97.302565 66.731969 
L 97.8008 66.731969 
L 98.303663 66.731969 
L 98.805585 66.731969 
L 99.301001 66.731969 
L 99.784301 66.731969 
L 100.249787 66.731969 
L 100.691641 66.731969 
L 101.103921 66.731969 
L 101.480567 66.731969 
L 101.81545 66.731969 
L 102.102435 66.731969 
L 102.335486 66.731969 
L 102.508788 66.731969 
L 102.616899 66.731969 
L 102.654916 66.731969 
L 102.618653 66.731969 
L 102.504807 66.731969 
L 102.311131 66.731969 
L 102.036559 66.731969 
L 101.681321 66.731969 
L 101.246992 66.731969 
L 100.736504 66.731969 
L 100.154099 66.731969 
L 99.505227 66.731969 
L 98.796386 66.731969 
L 98.034934 66.731969 
L 97.228843 66.731969 
L 96.386456 66.731969 
L 95.516214 66.731969 
L 94.626399 66.731969 
L 93.724896 66.731969 
L 92.818974 66.731969 
L 91.915112 66.731969 
L 91.018863 66.731969 
L 90.13476 66.731969 
L 89.26627 66.731969 
L 88.415785 66.731969 
L 87.584647 66.731969 
L 86.773212 66.731969 
L 85.980927 66.731969 
L 85.206431 66.731969 
L 84.44767 66.731969 
L 83.702015 66.731969 
L 82.966385 66.731969 
L 82.237377 66.731969 
L 81.511387 66.731969 
L 80.784733 66.731969 
L 80.053781 66.731969 
L 79.315059 66.731969 
L 78.565376 66.731969 
L 77.801934 66.731969 
L 77.022433 66.731969 
L 76.225179 66.731969 
L 75.409168 66.731969 
L 74.574165 66.731969 
L 73.720771 66.731969 
L 72.850453 66.731969 
L 71.965569 66.731969 
L 71.069343 66.731969 
L 70.165828 66.731969 
L 69.259825 66.731969 
L 68.35677 66.731969 
L 67.4626 66.731969 
L 66.583589 66.731969 
L 65.726164 66.731969 
L 64.896715 66.731969 
L 64.101403 66.731969 
L 63.345975 66.731969 
L 62.63559 66.731969 
L 61.974678 66.731969 
L 61.366824 66.731969 
L 60.814683 66.731969 
L 60.319938 66.731969 
L 59.883286 66.731969 
L 59.504459 66.731969 
L 59.182277 66.731969 
L 58.914717 66.731969 
L 58.699004 66.731969 
L 58.531705 66.731969 
L 58.408838 66.731969 
L 58.325967 66.731969 
L 58.2783 66.731969 
L 58.26077 66.731969 
L 58.268115 66.731969 
L 58.294933 66.731969 
L 58.335741 66.731969 
L 58.385008 66.731969 
z
"/>
   </g>
  </g>
 </g>
 <defs>
  <clipPath id="p4c96891d4f">
   <rect height="266.112" width="167.356335" x="7.2" y="7.2"/>
  </clipPath>
 </defs>
</svg>
