<?xml version="1.0" encoding="utf-8" standalone="no"?>
<!DOCTYPE svg PUBLIC "-//W3C//DTD SVG 1.1//EN"
  "http://www.w3.org/Graphics/SVG/1.1/DTD/svg11.dtd">
<svg height="280.512pt" version="1.1" viewBox="0 0 359.364934 280.512" width="359.364934pt" xmlns="http://www.w3.org/2000/svg" xmlns:xlink="http://www.w3.org/1999/xlink">
 <metadata>
  <rdf:RDF xmlns:cc="http://creativecommons.org/ns#" xmlns:dc="http://purl.org/dc/elements/1.1/" xmlns:rdf="http://www.w3.org/1999/02/22-rdf-syntax-ns#">
   <cc:Work>
    <dc:type rdf:resource="http://purl.org/dc/dcmitype/StillImage"/>
    <dc:date>2022-11-22T17:12:25.874110</dc:date>
    <dc:format>image/svg+xml</dc:format>
    <dc:creator>
     <cc:Agent>
      <dc:title>Matplotlib v3.4.2, https://matplotlib.org/</dc:title>
     </cc:Agent>
    </dc:creator>
   </cc:Work>
  </rdf:RDF>
 </metadata>
 <defs>
  <style type="text/css">*{stroke-linecap:butt;stroke-linejoin:round;}</style>
 </defs>
 <g id="figure_1">
  <g id="patch_1">
   <path d="M 0 280.512 
L 359.364934 280.512 
L 359.364934 0 
L 0 0 
z
" style="fill:none;"/>
  </g>
  <g id="axes_1">
   <g id="PolyCollection_1">
    <path clip-path="url(#pc86b15f3e8)" d="M 164.571133 65.952413 
L 164.571133 65.952413 
L 165.724981 65.796817 
L 166.879859 65.649064 
L 168.035855 65.510324 
L 169.193026 65.381758 
L 170.351398 65.264505 
L 171.510961 65.159677 
L 172.671665 65.068347 
L 173.833421 64.991541 
L 174.996097 64.930231 
L 176.159522 64.885323 
L 177.323485 64.857651 
L 178.487736 64.847966 
L 179.651993 64.856933 
L 180.815943 64.88512 
L 181.97925 64.932992 
L 183.141559 65.00091 
L 184.302504 65.089119 
L 185.461717 65.19775 
L 186.618833 65.326816 
L 187.7735 65.476209 
L 188.925389 65.6457 
L 190.074198 65.834941 
L 191.219664 66.043462 
L 192.36157 66.270678 
L 193.499746 66.515893 
L 194.634082 66.778297 
L 195.76453 67.056977 
L 196.891105 67.350922 
L 198.013891 67.659022 
L 199.13304 67.980084 
L 200.248771 68.312829 
L 201.361369 68.655903 
L 202.471182 69.007882 
L 203.578616 69.367278 
L 204.684127 69.732544 
L 205.788218 70.102081 
L 206.891427 70.474246 
L 207.994318 70.84735 
L 209.097473 71.219671 
L 210.20148 71.589459 
L 211.306922 71.954934 
L 212.414365 72.314301 
L 213.524346 72.665751 
L 214.637363 73.007466 
L 215.753861 73.337628 
L 216.874224 73.654427 
L 217.998763 73.956066 
L 219.127709 74.240769 
L 220.261202 74.506792 
L 221.399286 74.752431 
L 222.541905 74.976031 
L 223.688896 75.175998 
L 224.83999 75.350806 
L 225.99481 75.499012 
L 227.152875 75.619263 
L 228.313602 75.710308 
L 229.47631 75.771007 
L 230.640232 75.80034 
L 231.80452 75.797417 
L 232.968256 75.761482 
L 234.130468 75.691924 
L 235.290137 75.588276 
L 236.446215 75.450221 
L 237.597638 75.277594 
L 238.743341 75.07038 
L 239.882276 74.828712 
L 241.013419 74.552868 
L 242.135793 74.243268 
L 243.248473 73.90046 
L 244.350605 73.525119 
L 245.441411 73.118036 
L 246.520202 72.680104 
L 247.586385 72.212312 
L 248.639466 71.71573 
L 249.67906 71.191497 
L 250.704886 70.640811 
L 251.716776 70.064917 
L 252.714667 69.465094 
L 253.698603 68.842643 
L 254.66873 68.198882 
L 255.62529 67.535129 
L 256.568616 66.852699 
L 257.499125 66.152894 
L 258.41731 65.436995 
L 259.323731 64.706258 
L 260.219005 63.961907 
L 261.103801 63.205131 
L 261.978827 62.437078 
L 262.844822 61.658857 
L 263.702547 60.871531 
L 264.552777 60.076117 
L 265.396293 59.273586 
L 266.233871 58.46486 
L 267.06628 57.650815 
L 267.894273 56.832278 
L 268.718579 56.010028 
L 269.539901 55.184798 
L 270.358911 54.357273 
L 271.176246 53.528093 
L 271.992503 52.697853 
L 272.808242 51.867104 
L 273.62398 51.036354 
L 274.440193 50.20607 
L 275.257314 49.376679 
L 276.075735 48.548572 
L 276.89581 47.722103 
L 277.717853 46.897591 
L 278.542146 46.075328 
L 279.368934 45.255574 
L 280.198438 44.438568 
L 281.03085 43.624526 
L 281.866344 42.813647 
L 282.705075 42.006117 
L 283.547188 41.202115 
L 284.39282 40.401814 
L 285.242105 39.60539 
L 286.09518 38.813028 
L 286.952189 38.024923 
L 287.81329 37.241291 
L 288.678656 36.46237 
L 289.548481 35.688433 
L 290.422987 34.919788 
L 291.302423 34.15679 
L 292.187073 33.399843 
L 293.077256 32.64941 
L 293.973329 31.906021 
L 294.87569 31.170276 
L 295.784774 30.442855 
L 296.701059 29.724527 
L 297.625061 29.016152 
L 298.557331 28.318694 
L 299.498452 27.633226 
L 300.449031 26.960935 
L 301.409694 26.303135 
L 302.381076 25.661269 
L 303.363806 25.036917 
L 304.358499 24.431804 
L 305.365732 23.847804 
L 306.386032 23.286945 
L 307.41985 22.751413 
L 308.46754 22.243554 
L 309.529328 21.76587 
L 310.605285 21.321022 
L 311.695299 20.911821 
L 312.799032 20.541216 
L 313.915893 20.212285 
L 315.044997 19.92821 
L 316.18513 19.69226 
L 317.334709 19.507752 
L 318.49175 19.378019 
L 319.653834 19.306361 
L 320.81808 19.296 
L 321.981118 19.350013 
L 323.139078 19.471271 
L 324.28758 19.662364 
L 325.421741 19.925527 
L 326.536185 20.262555 
L 327.625082 20.674718 
L 328.682183 21.162686 
L 329.700887 21.726438 
L 330.674316 22.365195 
L 331.595406 23.077353 
L 332.457014 23.860428 
L 333.252041 24.71102 
L 333.973561 25.624795 
L 334.614959 26.596486 
L 335.170074 27.619922 
L 335.633343 28.688078 
L 335.999929 29.793152 
L 336.265853 30.926668 
L 336.428101 32.0796 
L 336.48471 33.242514 
L 336.434833 34.405737 
L 336.278775 35.559522 
L 336.017998 36.694234 
L 335.655095 37.800523 
L 335.193735 38.869505 
L 334.638575 39.892916 
L 333.995147 40.863265 
L 333.269728 41.773947 
L 332.469186 42.619351 
L 331.600817 43.394921 
L 330.672174 44.0972 
L 329.690903 44.723845 
L 328.66458 45.273604 
L 327.600554 45.746282 
L 326.505818 46.142676 
L 325.386888 46.464498 
L 324.249706 46.714283 
L 323.099571 46.895287 
L 321.941082 47.011388 
L 320.778119 47.06698 
L 319.613827 47.066875 
L 318.450638 47.016217 
L 317.290296 46.920393 
L 316.133907 46.784971 
L 314.981996 46.615637 
L 313.834575 46.418152 
L 312.691225 46.198318 
L 311.551179 45.96195 
L 310.413408 45.714866 
L 309.276713 45.462874 
L 308.139822 45.211768 
L 307.001479 44.967329 
L 305.860539 44.735316 
L 304.716057 44.521459 
L 303.567374 44.331453 
L 302.414201 44.170931 
L 301.256692 44.04544 
L 300.095511 43.960399 
L 298.931884 43.921049 
L 297.767648 43.932395 
L 296.605271 43.999132 
L 295.447865 44.125571 
L 294.299178 44.315551 
L 293.16356 44.572352 
L 292.045916 44.898614 
L 290.951631 45.29625 
L 289.886477 45.766381 
L 288.856506 46.309275 
L 287.867917 46.924309 
L 286.926924 47.609952 
L 286.039607 48.363772 
L 285.211768 49.182464 
L 284.448788 50.061917 
L 283.755494 50.997287 
L 283.136038 51.983111 
L 282.593804 53.01343 
L 282.131328 54.081929 
L 281.75025 55.18209 
L 281.451291 56.307345 
L 281.234255 57.451229 
L 281.098062 58.607527 
L 281.040795 59.770409 
L 281.059771 60.934546 
L 281.15163 62.095209 
L 281.312425 63.248343 
L 281.537724 64.390628 
L 281.822711 65.519503 
L 282.162277 66.633177 
L 282.55111 67.730621 
L 282.983774 68.811535 
L 283.454768 69.876307 
L 283.958576 70.925951 
L 284.489703 71.96204 
L 285.04269 72.986627 
L 285.612128 74.002164 
L 286.192642 75.011411 
L 286.778885 76.01734 
L 287.365509 77.023048 
L 287.947143 78.031649 
L 288.518364 79.046184 
L 289.073674 80.069514 
L 289.607476 81.104227 
L 290.11407 82.152529 
L 290.587649 83.216154 
L 291.022314 84.296265 
L 291.412109 85.393368 
L 291.751067 86.507228 
L 292.033273 87.6368 
L 292.252958 88.780178 
L 292.404588 89.934554 
L 292.482989 91.096203 
L 292.483467 92.260494 
L 292.40194 93.421928 
L 292.235069 94.574199 
L 291.980388 95.710294 
L 291.636412 96.822614 
L 291.202734 97.903122 
L 290.680098 98.94352 
L 290.070436 99.93543 
L 289.376873 100.870601 
L 288.6037 101.741106 
L 287.756305 102.53954 
L 286.841068 103.259204 
L 285.865224 103.894265 
L 284.836701 104.439898 
L 283.763932 104.892381 
L 282.655654 105.249167 
L 281.520706 105.508909 
L 280.367816 105.671454 
L 279.205416 105.737795 
L 278.041457 105.709995 
L 276.883253 105.591084 
L 275.737357 105.384938 
L 274.609453 105.096134 
L 273.504291 104.729811 
L 272.425645 104.291523 
L 271.376297 103.787098 
L 270.358057 103.222509 
L 269.37179 102.603758 
L 268.417476 101.93678 
L 267.494274 101.227363 
L 266.600598 100.481093 
L 265.734206 99.703315 
L 264.892285 98.899111 
L 264.071542 98.073305 
L 263.268292 97.230474 
L 262.478545 96.374977 
L 261.698094 95.510991 
L 260.922594 94.64256 
L 260.147641 93.773639 
L 259.368851 92.908156 
L 258.581936 92.050054 
L 257.782776 91.203343 
L 256.967496 90.372144 
L 256.132534 89.560717 
L 255.274718 88.77349 
L 254.39133 88.01507 
L 253.480182 87.290237 
L 252.539671 86.603932 
L 251.568846 85.961224 
L 250.567452 85.367267 
L 249.535978 84.827234 
L 248.47568 84.346252 
L 247.388603 83.929312 
L 246.277577 83.581181 
L 245.146199 83.306303 
L 243.998798 83.108698 
L 242.840383 82.991868 
L 241.676564 82.958703 
L 240.513466 83.011401 
L 239.357622 83.151397 
L 238.215856 83.379313 
L 237.095158 83.694925 
L 236.002549 84.097145 
L 234.944954 84.58404 
L 233.929066 85.152851 
L 232.961229 85.80005 
L 232.047327 86.521409 
L 231.192685 87.312081 
L 230.401993 88.166703 
L 229.679238 89.079501 
L 229.02767 90.044403 
L 228.449776 91.055152 
L 227.947277 92.105423 
L 227.521144 93.188929 
L 227.171627 94.29952 
L 226.8983 95.431274 
L 226.700118 96.578574 
L 226.575477 97.736175 
L 226.522287 98.899251 
L 226.538042 100.063436 
L 226.619891 101.224847 
L 226.764714 102.380096 
L 226.969188 103.526292 
L 227.229847 104.661031 
L 227.543147 105.782377 
L 227.905511 106.888843 
L 228.313377 107.979357 
L 228.763236 109.053229 
L 229.251663 110.110118 
L 229.775342 111.149991 
L 230.331084 112.173087 
L 230.915843 113.17988 
L 231.526724 114.17104 
L 232.16099 115.147401 
L 232.81606 116.109928 
L 233.489514 117.059684 
L 234.179083 117.997803 
L 234.882654 118.925469 
L 235.598253 119.843887 
L 236.324049 120.754269 
L 237.058341 121.657812 
L 237.799554 122.555686 
L 238.54623 123.449023 
L 239.297023 124.338902 
L 240.050692 125.226346 
L 240.806097 126.112314 
L 241.562187 126.997696 
L 242.318003 127.883313 
L 243.072667 128.769911 
L 243.825378 129.658169 
L 244.57541 130.548689 
L 245.322103 131.442011 
L 246.064863 132.338606 
L 246.803155 133.238884 
L 247.536496 134.143198 
L 248.264457 135.05185 
L 248.986649 135.965093 
L 249.702727 136.883139 
L 250.412377 137.806162 
L 251.115317 138.734305 
L 251.811286 139.667688 
L 252.500041 140.606405 
L 253.181353 141.550539 
L 253.854997 142.500159 
L 254.520749 143.455329 
L 255.178378 144.416109 
L 255.827643 145.382562 
L 256.468284 146.354752 
L 257.100018 147.332753 
L 257.722536 148.316647 
L 258.335492 149.306525 
L 258.938502 150.302494 
L 259.531139 151.304669 
L 260.11293 152.31318 
L 260.683348 153.328167 
L 261.24181 154.349781 
L 261.787677 155.37818 
L 262.320248 156.413527 
L 262.838759 157.455986 
L 263.34238 158.505719 
L 263.830218 159.56288 
L 264.30131 160.627609 
L 264.75463 161.700025 
L 265.189086 162.78022 
L 265.603524 163.868253 
L 265.99673 164.964138 
L 266.367431 166.067839 
L 266.714305 167.179259 
L 267.035981 168.298231 
L 267.331051 169.424512 
L 267.598073 170.55777 
L 267.835582 171.697579 
L 268.042103 172.843408 
L 268.216155 173.994616 
L 268.356272 175.150446 
L 268.461008 176.310017 
L 268.528958 177.472324 
L 268.558769 178.636234 
L 268.549154 179.800485 
L 268.498914 180.963693 
L 268.406947 182.124346 
L 268.272269 183.280822 
L 268.094025 184.431389 
L 267.871506 185.574219 
L 267.604161 186.707401 
L 267.291611 187.828957 
L 266.933656 188.936857 
L 266.530284 190.029041 
L 266.081676 191.103436 
L 265.588211 192.157982 
L 265.050463 193.19065 
L 264.469201 194.199465 
L 263.845382 195.182534 
L 263.180142 196.13806 
L 262.474786 197.064369 
L 261.730773 197.959925 
L 260.949703 198.82335 
L 260.133294 199.653442 
L 259.283368 200.449181 
L 258.401826 201.209746 
L 257.49063 201.934518 
L 256.551777 202.623089 
L 255.587283 203.275259 
L 254.599157 203.891038 
L 253.589386 204.470639 
L 252.559913 205.014477 
L 251.512621 205.523156 
L 250.449319 205.997459 
L 249.371729 206.438337 
L 248.281474 206.846896 
L 247.180075 207.224379 
L 246.068937 207.572155 
L 244.949354 207.8917 
L 243.822502 208.184581 
L 242.689442 208.452442 
L 241.551122 208.696987 
L 240.408381 208.919963 
L 239.261957 209.12315 
L 238.112487 209.30834 
L 236.960525 209.477329 
L 235.806539 209.631901 
L 234.65093 209.773819 
L 233.49403 209.904809 
L 232.336121 210.026556 
L 231.177437 210.140687 
L 230.018174 210.24877 
L 228.858494 210.352299 
L 227.698538 210.452688 
L 226.538428 210.551267 
L 225.378268 210.649274 
L 224.218157 210.747847 
L 223.058183 210.848023 
L 221.898431 210.950732 
L 220.73898 211.056792 
L 219.579908 211.16691 
L 218.421286 211.281675 
L 217.263184 211.401562 
L 216.105661 211.526926 
L 214.948772 211.658006 
L 213.792559 211.794923 
L 212.637053 211.937686 
L 211.482271 212.086189 
L 210.328212 212.240215 
L 209.174861 212.399445 
L 208.022179 212.563454 
L 206.870111 212.731723 
L 205.718581 212.903639 
L 204.567496 213.078503 
L 203.416743 213.255537 
L 202.266193 213.43389 
L 201.115705 213.612643 
L 199.965128 213.790818 
L 198.814302 213.967387 
L 197.663069 214.141274 
L 196.51127 214.311369 
L 195.358753 214.476536 
L 194.20538 214.635614 
L 193.05103 214.787436 
L 191.895602 214.930828 
L 190.739023 215.064624 
L 189.581253 215.187675 
L 188.422281 215.298852 
L 187.262139 215.397063 
L 186.100896 215.481256 
L 184.938661 215.550431 
L 183.775587 215.603649 
L 182.611864 215.640039 
L 181.447724 215.658806 
L 180.283432 215.659242 
L 179.119288 215.64073 
L 177.955616 215.602752 
L 176.792763 215.544895 
L 175.631089 215.466855 
L 174.470964 215.368444 
L 173.312755 215.249589 
L 172.156821 215.110339 
L 171.003503 214.950861 
L 169.853119 214.771444 
L 168.705951 214.572497 
L 167.562241 214.354548 
L 166.422183 214.118238 
L 165.285916 213.864321 
L 164.153522 213.593659 
L 163.025017 213.307214 
L 161.900351 213.006047 
L 160.779407 212.691311 
L 159.661998 212.364243 
L 158.547873 212.02616 
L 157.436715 211.678451 
L 156.328145 211.322574 
L 155.221733 210.960046 
L 154.116997 210.592442 
L 153.013416 210.221382 
L 151.910439 209.848535 
L 150.807489 209.475605 
L 149.703981 209.10433 
L 148.599329 208.736475 
L 147.492955 208.373828 
L 146.384308 208.018193 
L 145.272869 207.671383 
L 144.158164 207.335218 
L 143.039777 207.011511 
L 141.91736 206.702069 
L 140.79064 206.408678 
L 139.659433 206.133099 
L 138.523643 205.877058 
L 137.383278 205.642235 
L 136.238446 205.430257 
L 135.089363 205.242683 
L 133.936353 205.081001 
L 132.779843 204.94661 
L 131.620369 204.840812 
L 130.458561 204.764805 
L 129.295144 204.719669 
L 128.130929 204.706362 
L 126.966798 204.725705 
L 125.803699 204.778384 
L 124.642629 204.864938 
L 123.484623 204.985759 
L 122.33074 205.141089 
L 121.182044 205.331017 
L 120.039595 205.555484 
L 118.904431 205.814283 
L 117.777553 206.107066 
L 116.659915 206.433347 
L 115.552407 206.792513 
L 114.455846 207.18383 
L 113.370967 207.606456 
L 112.298412 208.059446 
L 111.238725 208.541772 
L 110.192346 209.052326 
L 109.159608 209.589938 
L 108.140735 210.153386 
L 107.135844 210.741406 
L 106.144942 211.352707 
L 105.167935 211.985978 
L 104.204628 212.639901 
L 103.254732 213.313156 
L 102.317871 214.004435 
L 101.39359 214.712445 
L 100.481361 215.435918 
L 99.580594 216.173613 
L 98.690645 216.924323 
L 97.810825 217.686878 
L 96.940408 218.460151 
L 96.078644 219.243054 
L 95.224764 220.034549 
L 94.377989 220.83364 
L 93.537539 221.639381 
L 92.70264 222.450873 
L 91.872532 223.267264 
L 91.046472 224.087752 
L 90.223744 224.91158 
L 89.40366 225.738041 
L 88.585565 226.56647 
L 87.768842 227.396252 
L 86.952911 228.226813 
L 86.137234 229.057623 
L 85.321315 229.888196 
L 84.5047 230.718085 
L 83.686976 231.54688 
L 82.867769 232.37421 
L 82.046747 233.199739 
L 81.223612 234.023161 
L 80.398101 234.8442 
L 79.569981 235.662608 
L 78.739046 236.478158 
L 77.905113 237.290643 
L 77.068019 238.09987 
L 76.227614 238.905658 
L 75.383759 239.707832 
L 74.536317 240.506216 
L 73.685155 241.300632 
L 72.830131 242.090891 
L 71.971097 242.876789 
L 71.107886 243.658097 
L 70.240317 244.434562 
L 69.368181 245.205894 
L 68.491243 245.971763 
L 67.609237 246.73179 
L 66.721863 247.485541 
L 65.828782 248.232523 
L 64.929617 248.97217 
L 64.023952 249.703843 
L 63.11133 250.426819 
L 62.191253 251.140285 
L 61.263187 251.843328 
L 60.326567 252.534932 
L 59.380794 253.213968 
L 58.425252 253.879185 
L 57.459309 254.529207 
L 56.482331 255.162523 
L 55.493695 255.77748 
L 54.492801 256.372281 
L 53.479096 256.944973 
L 52.452088 257.493452 
L 51.411371 258.01545 
L 50.356652 258.508545 
L 49.287777 258.970153 
L 48.204764 259.397538 
L 47.107834 259.787818 
L 45.997445 260.137978 
L 44.874332 260.444884 
L 43.73954 260.705309 
L 42.594462 260.915955 
L 41.440877 261.073491 
L 40.280984 261.174596 
L 39.117429 261.216 
L 37.953335 261.194548 
L 36.79232 261.107255 
L 35.63851 260.951383 
L 34.496537 260.724508 
L 33.371533 260.424607 
L 32.269106 260.050135 
L 31.195302 259.600111 
L 30.156555 259.074203 
L 29.159615 258.472801 
L 28.211465 257.797089 
L 27.319224 257.049105 
L 26.490026 256.231789 
L 25.730903 255.349005 
L 25.048642 254.405556 
L 24.449649 253.407167 
L 23.939804 252.360442 
L 23.524323 251.272807 
L 23.207629 250.152414 
L 22.99323 249.008033 
L 22.883624 247.848912 
L 22.880224 246.684626 
L 22.983303 245.524906 
L 23.191974 244.379467 
L 23.504207 243.257823 
L 23.916861 242.169112 
L 24.425761 241.121927 
L 25.025797 240.124164 
L 25.711045 239.182883 
L 26.474915 238.304203 
L 27.310303 237.493215 
L 28.209763 236.753928 
L 29.165675 236.089242 
L 30.170408 235.500951 
L 31.216482 234.989772 
L 32.296709 234.555395 
L 33.404323 234.196554 
L 34.533083 233.911115 
L 35.677361 233.696169 
L 36.832204 233.548135 
L 37.993369 233.462867 
L 39.157344 233.435747 
L 40.321345 233.461789 
L 41.483287 233.535716 
L 42.641752 233.652044 
L 43.795935 233.805138 
L 44.945574 233.989271 
L 46.090883 234.198657 
L 47.232466 234.427485 
L 48.371233 234.669938 
L 49.50831 234.920202 
L 50.644942 235.172474 
L 51.782407 235.420967 
L 52.921916 235.659912 
L 54.064525 235.883561 
L 55.211046 236.086201 
L 56.361964 236.262165 
L 57.517355 236.405857 
L 58.676817 236.511791 
L 59.839412 236.574629 
L 61.003611 236.589239 
L 62.167267 236.550762 
L 63.327588 236.454685 
L 64.481141 236.296923 
L 65.623874 236.073905 
L 66.75115 235.782659 
L 67.857814 235.420902 
L 68.938275 234.987106 
L 69.986606 234.480572 
L 70.996665 233.901473 
L 71.962228 233.250886 
L 72.877129 232.530796 
L 73.735409 231.744075 
L 74.53146 230.89444 
L 75.260161 229.986382 
L 75.917009 229.025068 
L 76.498226 228.016226 
L 77.000843 226.966011 
L 77.422767 225.880859 
L 77.762818 224.767333 
L 78.020735 223.631968 
L 78.19716 222.481121 
L 78.293601 221.320831 
L 78.312367 220.15669 
L 78.256491 218.99374 
L 78.129638 217.83638 
L 77.93601 216.688302 
L 77.680244 215.552451 
L 77.367315 214.431001 
L 77.002442 213.325359 
L 76.591008 212.236187 
L 76.13849 211.163433 
L 75.6504 210.106388 
L 75.132248 209.06375 
L 74.589511 208.033696 
L 74.027625 207.013961 
L 73.45198 206.00193 
L 72.867933 204.994724 
L 72.280831 203.989296 
L 71.696028 202.982529 
L 71.118918 201.971332 
L 70.554959 200.952742 
L 70.009697 199.924022 
L 69.48878 198.882764 
L 68.997961 197.826983 
L 68.543098 196.755221 
L 68.130121 195.666633 
L 67.765 194.561073 
L 67.453686 193.439174 
L 67.202031 192.302405 
L 67.015702 191.15312 
L 66.900066 189.994585 
L 66.860075 188.83098 
L 66.900133 187.667378 
L 67.023966 186.50969 
L 67.234492 185.364591 
L 67.533701 184.239402 
L 67.922548 183.141963 
L 68.400871 182.080463 
L 68.967337 181.063265 
L 69.619414 180.098709 
L 70.353389 179.194908 
L 71.164411 178.359553 
L 72.046582 177.599717 
L 72.993074 176.921686 
L 73.996285 176.330803 
L 75.048009 175.831352 
L 76.139635 175.426474 
L 77.262351 175.118116 
L 78.407347 174.907027 
L 79.56602 174.792777 
L 80.730157 174.773828 
L 81.892108 174.847618 
L 83.044924 175.010678 
L 84.182478 175.258764 
L 85.299544 175.586999 
L 86.391858 175.990019 
L 87.456142 176.462116 
L 88.490102 176.997373 
L 89.492407 177.589792 
L 90.462641 178.233391 
L 91.401246 178.9223 
L 92.309444 179.650827 
L 93.189159 180.413503 
L 94.042932 181.205114 
L 94.873826 182.020706 
L 95.685341 182.855582 
L 96.481325 183.705278 
L 97.265888 184.565532 
L 98.043314 185.43224 
L 98.81799 186.301407 
L 99.594318 187.169099 
L 100.376643 188.031388 
L 101.169179 188.884302 
L 101.975933 189.72378 
L 102.800631 190.545636 
L 103.64665 191.345527 
L 104.516944 192.118938 
L 105.413974 192.861172 
L 106.339643 193.567368 
L 107.295234 194.232515 
L 108.281357 194.851494 
L 109.2979 195.419135 
L 110.343992 195.930277 
L 111.417984 196.37985 
L 112.517438 196.762963 
L 113.639137 197.074999 
L 114.779111 197.311713 
L 115.932684 197.469332 
L 117.094537 197.544649 
L 118.25879 197.535111 
L 119.419099 197.438894 
L 120.56877 197.254963 
L 121.700881 196.983117 
L 122.808409 196.624012 
L 123.884365 196.17916 
L 124.921924 195.650913 
L 125.914554 195.042422 
L 126.856125 194.357573 
L 127.741025 193.600917 
L 128.564235 192.777571 
L 129.321412 191.893118 
L 130.008932 190.953495 
L 130.623926 189.964881 
L 131.16429 188.93358 
L 131.628682 187.865912 
L 132.016495 186.768107 
L 132.327824 185.646212 
L 132.563411 184.506004 
L 132.72459 183.352923 
L 132.813216 182.19201 
L 132.831597 181.027863 
L 132.782421 179.864611 
L 132.66868 178.705888 
L 132.493606 177.554835 
L 132.2606 176.414097 
L 131.973174 175.285841 
L 131.634895 174.171775 
L 131.249338 173.073176 
L 130.820041 171.99092 
L 130.350476 170.925517 
L 129.844016 169.87715 
L 129.303916 168.845711 
L 128.733294 167.830839 
L 128.135122 166.831957 
L 127.512216 165.848309 
L 126.867235 164.878992 
L 126.20268 163.92299 
L 125.520895 162.979197 
L 124.82407 162.046455 
L 124.114247 161.123564 
L 123.393329 160.209315 
L 122.66308 159.302501 
L 121.925139 158.401936 
L 121.181019 157.506469 
L 120.432123 156.614993 
L 119.679743 155.726456 
L 118.925069 154.839865 
L 118.169196 153.954297 
L 117.413128 153.068896 
L 116.657784 152.182877 
L 115.904001 151.295529 
L 115.152543 150.406211 
L 114.404102 149.514353 
L 113.659305 148.61945 
L 112.918716 147.721061 
L 112.182842 146.818806 
L 111.45214 145.912357 
L 110.727018 145.001438 
L 110.007842 144.085818 
L 109.294941 143.165304 
L 108.588612 142.239737 
L 107.889126 141.308987 
L 107.196735 140.372948 
L 106.511673 139.431532 
L 105.834167 138.484663 
L 105.164441 137.532276 
L 104.502721 136.574308 
L 103.849243 135.6107 
L 103.204256 134.641387 
L 102.568032 133.666301 
L 101.940865 132.685364 
L 101.323083 131.698491 
L 100.715049 130.705581 
L 100.117169 129.706524 
L 99.529892 128.701198 
L 98.953719 127.689467 
L 98.389203 126.671186 
L 97.836954 125.6462 
L 97.297644 124.614348 
L 96.772003 123.575465 
L 96.260829 122.529389 
L 95.764984 121.47596 
L 95.285395 120.415032 
L 94.823057 119.346473 
L 94.379028 118.270177 
L 93.954432 117.186067 
L 93.550455 116.094107 
L 93.168339 114.994306 
L 92.809384 113.886729 
L 92.474935 112.771508 
L 92.166383 111.648846 
L 91.885156 110.519029 
L 91.632706 109.382436 
L 91.410506 108.239544 
L 91.220035 107.090938 
L 91.062768 105.937317 
L 90.940163 104.779499 
L 90.853647 103.618426 
L 90.804601 102.455168 
L 90.794348 101.290922 
L 90.824131 100.127011 
L 90.895104 98.964885 
L 91.008311 97.80611 
L 91.164674 96.652366 
L 91.364977 95.505434 
L 91.60985 94.367184 
L 91.899761 93.239564 
L 92.235 92.12458 
L 92.615674 91.024279 
L 93.041699 89.940731 
L 93.512795 88.876004 
L 94.028486 87.832147 
L 94.588099 86.811163 
L 95.19077 85.814989 
L 95.835453 84.845474 
L 96.520924 83.904356 
L 97.2458 82.993241 
L 98.008549 82.113589 
L 98.807511 81.266691 
L 99.640911 80.453661 
L 100.506887 79.675419 
L 101.403504 78.932686 
L 102.32878 78.225976 
L 103.280706 77.555593 
L 104.257266 76.921633 
L 105.25646 76.323983 
L 106.276321 75.762327 
L 107.314935 75.236156 
L 108.370453 74.744773 
L 109.441108 74.287312 
L 110.525227 73.86274 
L 111.621237 73.469883 
L 112.727675 73.107431 
L 113.843189 72.773962 
L 114.966547 72.46795 
L 116.096628 72.187789 
L 117.23243 71.931802 
L 118.373059 71.698262 
L 119.517727 71.485404 
L 120.665749 71.29144 
L 121.816528 71.114574 
L 122.969556 70.953016 
L 124.124399 70.804989 
L 125.280692 70.668749 
L 126.438128 70.542588 
L 127.596451 70.424848 
L 128.755448 70.313932 
L 129.914938 70.208309 
L 131.074772 70.106521 
L 132.234819 70.007198 
L 133.394967 69.909053 
L 134.555113 69.8109 
L 135.715167 69.711648 
L 136.87504 69.610315 
L 138.034652 69.506026 
L 139.193923 69.398018 
L 140.352778 69.285643 
L 141.511149 69.168369 
L 142.668968 69.045781 
L 143.82618 68.917581 
L 144.982736 68.783591 
L 146.138599 68.643744 
L 147.293744 68.498091 
L 148.448163 68.346793 
L 149.601865 68.190118 
L 150.754876 68.02844 
L 151.907242 67.86223 
L 153.05903 67.692055 
L 154.210325 67.518573 
L 155.361229 67.342522 
L 156.511864 67.164717 
L 157.662364 66.986046 
L 158.812877 66.807456 
L 159.963559 66.629953 
L 161.114568 66.454588 
L 162.266065 66.282456 
L 163.418205 66.114681 
L 164.571133 65.952413 
L 164.571133 65.952413 
L 164.571133 65.952413 
L 163.418205 65.952413 
L 162.266065 65.952413 
L 161.114568 65.952413 
L 159.963559 65.952413 
L 158.812877 65.952413 
L 157.662364 65.952413 
L 156.511864 65.952413 
L 155.361229 65.952413 
L 154.210325 65.952413 
L 153.05903 65.952413 
L 151.907242 65.952413 
L 150.754876 65.952413 
L 149.601865 65.952413 
L 148.448163 65.952413 
L 147.293744 65.952413 
L 146.138599 65.952413 
L 144.982736 65.952413 
L 143.82618 65.952413 
L 142.668968 65.952413 
L 141.511149 65.952413 
L 140.352778 65.952413 
L 139.193923 65.952413 
L 138.034652 65.952413 
L 136.87504 65.952413 
L 135.715167 65.952413 
L 134.555113 65.952413 
L 133.394967 65.952413 
L 132.234819 65.952413 
L 131.074772 65.952413 
L 129.914938 65.952413 
L 128.755448 65.952413 
L 127.596451 65.952413 
L 126.438128 65.952413 
L 125.280692 65.952413 
L 124.124399 65.952413 
L 122.969556 65.952413 
L 121.816528 65.952413 
L 120.665749 65.952413 
L 119.517727 65.952413 
L 118.373059 65.952413 
L 117.23243 65.952413 
L 116.096628 65.952413 
L 114.966547 65.952413 
L 113.843189 65.952413 
L 112.727675 65.952413 
L 111.621237 65.952413 
L 110.525227 65.952413 
L 109.441108 65.952413 
L 108.370453 65.952413 
L 107.314935 65.952413 
L 106.276321 65.952413 
L 105.25646 65.952413 
L 104.257266 65.952413 
L 103.280706 65.952413 
L 102.32878 65.952413 
L 101.403504 65.952413 
L 100.506887 65.952413 
L 99.640911 65.952413 
L 98.807511 65.952413 
L 98.008549 65.952413 
L 97.2458 65.952413 
L 96.520924 65.952413 
L 95.835453 65.952413 
L 95.19077 65.952413 
L 94.588099 65.952413 
L 94.028486 65.952413 
L 93.512795 65.952413 
L 93.041699 65.952413 
L 92.615674 65.952413 
L 92.235 65.952413 
L 91.899761 65.952413 
L 91.60985 65.952413 
L 91.364977 65.952413 
L 91.164674 65.952413 
L 91.008311 65.952413 
L 90.895104 65.952413 
L 90.824131 65.952413 
L 90.794348 65.952413 
L 90.804601 65.952413 
L 90.853647 65.952413 
L 90.940163 65.952413 
L 91.062768 65.952413 
L 91.220035 65.952413 
L 91.410506 65.952413 
L 91.632706 65.952413 
L 91.885156 65.952413 
L 92.166383 65.952413 
L 92.474935 65.952413 
L 92.809384 65.952413 
L 93.168339 65.952413 
L 93.550455 65.952413 
L 93.954432 65.952413 
L 94.379028 65.952413 
L 94.823057 65.952413 
L 95.285395 65.952413 
L 95.764984 65.952413 
L 96.260829 65.952413 
L 96.772003 65.952413 
L 97.297644 65.952413 
L 97.836954 65.952413 
L 98.389203 65.952413 
L 98.953719 65.952413 
L 99.529892 65.952413 
L 100.117169 65.952413 
L 100.715049 65.952413 
L 101.323083 65.952413 
L 101.940865 65.952413 
L 102.568032 65.952413 
L 103.204256 65.952413 
L 103.849243 65.952413 
L 104.502721 65.952413 
L 105.164441 65.952413 
L 105.834167 65.952413 
L 106.511673 65.952413 
L 107.196735 65.952413 
L 107.889126 65.952413 
L 108.588612 65.952413 
L 109.294941 65.952413 
L 110.007842 65.952413 
L 110.727018 65.952413 
L 111.45214 65.952413 
L 112.182842 65.952413 
L 112.918716 65.952413 
L 113.659305 65.952413 
L 114.404102 65.952413 
L 115.152543 65.952413 
L 115.904001 65.952413 
L 116.657784 65.952413 
L 117.413128 65.952413 
L 118.169196 65.952413 
L 118.925069 65.952413 
L 119.679743 65.952413 
L 120.432123 65.952413 
L 121.181019 65.952413 
L 121.925139 65.952413 
L 122.66308 65.952413 
L 123.393329 65.952413 
L 124.114247 65.952413 
L 124.82407 65.952413 
L 125.520895 65.952413 
L 126.20268 65.952413 
L 126.867235 65.952413 
L 127.512216 65.952413 
L 128.135122 65.952413 
L 128.733294 65.952413 
L 129.303916 65.952413 
L 129.844016 65.952413 
L 130.350476 65.952413 
L 130.820041 65.952413 
L 131.249338 65.952413 
L 131.634895 65.952413 
L 131.973174 65.952413 
L 132.2606 65.952413 
L 132.493606 65.952413 
L 132.66868 65.952413 
L 132.782421 65.952413 
L 132.831597 65.952413 
L 132.813216 65.952413 
L 132.72459 65.952413 
L 132.563411 65.952413 
L 132.327824 65.952413 
L 132.016495 65.952413 
L 131.628682 65.952413 
L 131.16429 65.952413 
L 130.623926 65.952413 
L 130.008932 65.952413 
L 129.321412 65.952413 
L 128.564235 65.952413 
L 127.741025 65.952413 
L 126.856125 65.952413 
L 125.914554 65.952413 
L 124.921924 65.952413 
L 123.884365 65.952413 
L 122.808409 65.952413 
L 121.700881 65.952413 
L 120.56877 65.952413 
L 119.419099 65.952413 
L 118.25879 65.952413 
L 117.094537 65.952413 
L 115.932684 65.952413 
L 114.779111 65.952413 
L 113.639137 65.952413 
L 112.517438 65.952413 
L 111.417984 65.952413 
L 110.343992 65.952413 
L 109.2979 65.952413 
L 108.281357 65.952413 
L 107.295234 65.952413 
L 106.339643 65.952413 
L 105.413974 65.952413 
L 104.516944 65.952413 
L 103.64665 65.952413 
L 102.800631 65.952413 
L 101.975933 65.952413 
L 101.169179 65.952413 
L 100.376643 65.952413 
L 99.594318 65.952413 
L 98.81799 65.952413 
L 98.043314 65.952413 
L 97.265888 65.952413 
L 96.481325 65.952413 
L 95.685341 65.952413 
L 94.873826 65.952413 
L 94.042932 65.952413 
L 93.189159 65.952413 
L 92.309444 65.952413 
L 91.401246 65.952413 
L 90.462641 65.952413 
L 89.492407 65.952413 
L 88.490102 65.952413 
L 87.456142 65.952413 
L 86.391858 65.952413 
L 85.299544 65.952413 
L 84.182478 65.952413 
L 83.044924 65.952413 
L 81.892108 65.952413 
L 80.730157 65.952413 
L 79.56602 65.952413 
L 78.407347 65.952413 
L 77.262351 65.952413 
L 76.139635 65.952413 
L 75.048009 65.952413 
L 73.996285 65.952413 
L 72.993074 65.952413 
L 72.046582 65.952413 
L 71.164411 65.952413 
L 70.353389 65.952413 
L 69.619414 65.952413 
L 68.967337 65.952413 
L 68.400871 65.952413 
L 67.922548 65.952413 
L 67.533701 65.952413 
L 67.234492 65.952413 
L 67.023966 65.952413 
L 66.900133 65.952413 
L 66.860075 65.952413 
L 66.900066 65.952413 
L 67.015702 65.952413 
L 67.202031 65.952413 
L 67.453686 65.952413 
L 67.765 65.952413 
L 68.130121 65.952413 
L 68.543098 65.952413 
L 68.997961 65.952413 
L 69.48878 65.952413 
L 70.009697 65.952413 
L 70.554959 65.952413 
L 71.118918 65.952413 
L 71.696028 65.952413 
L 72.280831 65.952413 
L 72.867933 65.952413 
L 73.45198 65.952413 
L 74.027625 65.952413 
L 74.589511 65.952413 
L 75.132248 65.952413 
L 75.6504 65.952413 
L 76.13849 65.952413 
L 76.591008 65.952413 
L 77.002442 65.952413 
L 77.367315 65.952413 
L 77.680244 65.952413 
L 77.93601 65.952413 
L 78.129638 65.952413 
L 78.256491 65.952413 
L 78.312367 65.952413 
L 78.293601 65.952413 
L 78.19716 65.952413 
L 78.020735 65.952413 
L 77.762818 65.952413 
L 77.422767 65.952413 
L 77.000843 65.952413 
L 76.498226 65.952413 
L 75.917009 65.952413 
L 75.260161 65.952413 
L 74.53146 65.952413 
L 73.735409 65.952413 
L 72.877129 65.952413 
L 71.962228 65.952413 
L 70.996665 65.952413 
L 69.986606 65.952413 
L 68.938275 65.952413 
L 67.857814 65.952413 
L 66.75115 65.952413 
L 65.623874 65.952413 
L 64.481141 65.952413 
L 63.327588 65.952413 
L 62.167267 65.952413 
L 61.003611 65.952413 
L 59.839412 65.952413 
L 58.676817 65.952413 
L 57.517355 65.952413 
L 56.361964 65.952413 
L 55.211046 65.952413 
L 54.064525 65.952413 
L 52.921916 65.952413 
L 51.782407 65.952413 
L 50.644942 65.952413 
L 49.50831 65.952413 
L 48.371233 65.952413 
L 47.232466 65.952413 
L 46.090883 65.952413 
L 44.945574 65.952413 
L 43.795935 65.952413 
L 42.641752 65.952413 
L 41.483287 65.952413 
L 40.321345 65.952413 
L 39.157344 65.952413 
L 37.993369 65.952413 
L 36.832204 65.952413 
L 35.677361 65.952413 
L 34.533083 65.952413 
L 33.404323 65.952413 
L 32.296709 65.952413 
L 31.216482 65.952413 
L 30.170408 65.952413 
L 29.165675 65.952413 
L 28.209763 65.952413 
L 27.310303 65.952413 
L 26.474915 65.952413 
L 25.711045 65.952413 
L 25.025797 65.952413 
L 24.425761 65.952413 
L 23.916861 65.952413 
L 23.504207 65.952413 
L 23.191974 65.952413 
L 22.983303 65.952413 
L 22.880224 65.952413 
L 22.883624 65.952413 
L 22.99323 65.952413 
L 23.207629 65.952413 
L 23.524323 65.952413 
L 23.939804 65.952413 
L 24.449649 65.952413 
L 25.048642 65.952413 
L 25.730903 65.952413 
L 26.490026 65.952413 
L 27.319224 65.952413 
L 28.211465 65.952413 
L 29.159615 65.952413 
L 30.156555 65.952413 
L 31.195302 65.952413 
L 32.269106 65.952413 
L 33.371533 65.952413 
L 34.496537 65.952413 
L 35.63851 65.952413 
L 36.79232 65.952413 
L 37.953335 65.952413 
L 39.117429 65.952413 
L 40.280984 65.952413 
L 41.440877 65.952413 
L 42.594462 65.952413 
L 43.73954 65.952413 
L 44.874332 65.952413 
L 45.997445 65.952413 
L 47.107834 65.952413 
L 48.204764 65.952413 
L 49.287777 65.952413 
L 50.356652 65.952413 
L 51.411371 65.952413 
L 52.452088 65.952413 
L 53.479096 65.952413 
L 54.492801 65.952413 
L 55.493695 65.952413 
L 56.482331 65.952413 
L 57.459309 65.952413 
L 58.425252 65.952413 
L 59.380794 65.952413 
L 60.326567 65.952413 
L 61.263187 65.952413 
L 62.191253 65.952413 
L 63.11133 65.952413 
L 64.023952 65.952413 
L 64.929617 65.952413 
L 65.828782 65.952413 
L 66.721863 65.952413 
L 67.609237 65.952413 
L 68.491243 65.952413 
L 69.368181 65.952413 
L 70.240317 65.952413 
L 71.107886 65.952413 
L 71.971097 65.952413 
L 72.830131 65.952413 
L 73.685155 65.952413 
L 74.536317 65.952413 
L 75.383759 65.952413 
L 76.227614 65.952413 
L 77.068019 65.952413 
L 77.905113 65.952413 
L 78.739046 65.952413 
L 79.569981 65.952413 
L 80.398101 65.952413 
L 81.223612 65.952413 
L 82.046747 65.952413 
L 82.867769 65.952413 
L 83.686976 65.952413 
L 84.5047 65.952413 
L 85.321315 65.952413 
L 86.137234 65.952413 
L 86.952911 65.952413 
L 87.768842 65.952413 
L 88.585565 65.952413 
L 89.40366 65.952413 
L 90.223744 65.952413 
L 91.046472 65.952413 
L 91.872532 65.952413 
L 92.70264 65.952413 
L 93.537539 65.952413 
L 94.377989 65.952413 
L 95.224764 65.952413 
L 96.078644 65.952413 
L 96.940408 65.952413 
L 97.810825 65.952413 
L 98.690645 65.952413 
L 99.580594 65.952413 
L 100.481361 65.952413 
L 101.39359 65.952413 
L 102.317871 65.952413 
L 103.254732 65.952413 
L 104.204628 65.952413 
L 105.167935 65.952413 
L 106.144942 65.952413 
L 107.135844 65.952413 
L 108.140735 65.952413 
L 109.159608 65.952413 
L 110.192346 65.952413 
L 111.238725 65.952413 
L 112.298412 65.952413 
L 113.370967 65.952413 
L 114.455846 65.952413 
L 115.552407 65.952413 
L 116.659915 65.952413 
L 117.777553 65.952413 
L 118.904431 65.952413 
L 120.039595 65.952413 
L 121.182044 65.952413 
L 122.33074 65.952413 
L 123.484623 65.952413 
L 124.642629 65.952413 
L 125.803699 65.952413 
L 126.966798 65.952413 
L 128.130929 65.952413 
L 129.295144 65.952413 
L 130.458561 65.952413 
L 131.620369 65.952413 
L 132.779843 65.952413 
L 133.936353 65.952413 
L 135.089363 65.952413 
L 136.238446 65.952413 
L 137.383278 65.952413 
L 138.523643 65.952413 
L 139.659433 65.952413 
L 140.79064 65.952413 
L 141.91736 65.952413 
L 143.039777 65.952413 
L 144.158164 65.952413 
L 145.272869 65.952413 
L 146.384308 65.952413 
L 147.492955 65.952413 
L 148.599329 65.952413 
L 149.703981 65.952413 
L 150.807489 65.952413 
L 151.910439 65.952413 
L 153.013416 65.952413 
L 154.116997 65.952413 
L 155.221733 65.952413 
L 156.328145 65.952413 
L 157.436715 65.952413 
L 158.547873 65.952413 
L 159.661998 65.952413 
L 160.779407 65.952413 
L 161.900351 65.952413 
L 163.025017 65.952413 
L 164.153522 65.952413 
L 165.285916 65.952413 
L 166.422183 65.952413 
L 167.562241 65.952413 
L 168.705951 65.952413 
L 169.853119 65.952413 
L 171.003503 65.952413 
L 172.156821 65.952413 
L 173.312755 65.952413 
L 174.470964 65.952413 
L 175.631089 65.952413 
L 176.792763 65.952413 
L 177.955616 65.952413 
L 179.119288 65.952413 
L 180.283432 65.952413 
L 181.447724 65.952413 
L 182.611864 65.952413 
L 183.775587 65.952413 
L 184.938661 65.952413 
L 186.100896 65.952413 
L 187.262139 65.952413 
L 188.422281 65.952413 
L 189.581253 65.952413 
L 190.739023 65.952413 
L 191.895602 65.952413 
L 193.05103 65.952413 
L 194.20538 65.952413 
L 195.358753 65.952413 
L 196.51127 65.952413 
L 197.663069 65.952413 
L 198.814302 65.952413 
L 199.965128 65.952413 
L 201.115705 65.952413 
L 202.266193 65.952413 
L 203.416743 65.952413 
L 204.567496 65.952413 
L 205.718581 65.952413 
L 206.870111 65.952413 
L 208.022179 65.952413 
L 209.174861 65.952413 
L 210.328212 65.952413 
L 211.482271 65.952413 
L 212.637053 65.952413 
L 213.792559 65.952413 
L 214.948772 65.952413 
L 216.105661 65.952413 
L 217.263184 65.952413 
L 218.421286 65.952413 
L 219.579908 65.952413 
L 220.73898 65.952413 
L 221.898431 65.952413 
L 223.058183 65.952413 
L 224.218157 65.952413 
L 225.378268 65.952413 
L 226.538428 65.952413 
L 227.698538 65.952413 
L 228.858494 65.952413 
L 230.018174 65.952413 
L 231.177437 65.952413 
L 232.336121 65.952413 
L 233.49403 65.952413 
L 234.65093 65.952413 
L 235.806539 65.952413 
L 236.960525 65.952413 
L 238.112487 65.952413 
L 239.261957 65.952413 
L 240.408381 65.952413 
L 241.551122 65.952413 
L 242.689442 65.952413 
L 243.822502 65.952413 
L 244.949354 65.952413 
L 246.068937 65.952413 
L 247.180075 65.952413 
L 248.281474 65.952413 
L 249.371729 65.952413 
L 250.449319 65.952413 
L 251.512621 65.952413 
L 252.559913 65.952413 
L 253.589386 65.952413 
L 254.599157 65.952413 
L 255.587283 65.952413 
L 256.551777 65.952413 
L 257.49063 65.952413 
L 258.401826 65.952413 
L 259.283368 65.952413 
L 260.133294 65.952413 
L 260.949703 65.952413 
L 261.730773 65.952413 
L 262.474786 65.952413 
L 263.180142 65.952413 
L 263.845382 65.952413 
L 264.469201 65.952413 
L 265.050463 65.952413 
L 265.588211 65.952413 
L 266.081676 65.952413 
L 266.530284 65.952413 
L 266.933656 65.952413 
L 267.291611 65.952413 
L 267.604161 65.952413 
L 267.871506 65.952413 
L 268.094025 65.952413 
L 268.272269 65.952413 
L 268.406947 65.952413 
L 268.498914 65.952413 
L 268.549154 65.952413 
L 268.558769 65.952413 
L 268.528958 65.952413 
L 268.461008 65.952413 
L 268.356272 65.952413 
L 268.216155 65.952413 
L 268.042103 65.952413 
L 267.835582 65.952413 
L 267.598073 65.952413 
L 267.331051 65.952413 
L 267.035981 65.952413 
L 266.714305 65.952413 
L 266.367431 65.952413 
L 265.99673 65.952413 
L 265.603524 65.952413 
L 265.189086 65.952413 
L 264.75463 65.952413 
L 264.30131 65.952413 
L 263.830218 65.952413 
L 263.34238 65.952413 
L 262.838759 65.952413 
L 262.320248 65.952413 
L 261.787677 65.952413 
L 261.24181 65.952413 
L 260.683348 65.952413 
L 260.11293 65.952413 
L 259.531139 65.952413 
L 258.938502 65.952413 
L 258.335492 65.952413 
L 257.722536 65.952413 
L 257.100018 65.952413 
L 256.468284 65.952413 
L 255.827643 65.952413 
L 255.178378 65.952413 
L 254.520749 65.952413 
L 253.854997 65.952413 
L 253.181353 65.952413 
L 252.500041 65.952413 
L 251.811286 65.952413 
L 251.115317 65.952413 
L 250.412377 65.952413 
L 249.702727 65.952413 
L 248.986649 65.952413 
L 248.264457 65.952413 
L 247.536496 65.952413 
L 246.803155 65.952413 
L 246.064863 65.952413 
L 245.322103 65.952413 
L 244.57541 65.952413 
L 243.825378 65.952413 
L 243.072667 65.952413 
L 242.318003 65.952413 
L 241.562187 65.952413 
L 240.806097 65.952413 
L 240.050692 65.952413 
L 239.297023 65.952413 
L 238.54623 65.952413 
L 237.799554 65.952413 
L 237.058341 65.952413 
L 236.324049 65.952413 
L 235.598253 65.952413 
L 234.882654 65.952413 
L 234.179083 65.952413 
L 233.489514 65.952413 
L 232.81606 65.952413 
L 232.16099 65.952413 
L 231.526724 65.952413 
L 230.915843 65.952413 
L 230.331084 65.952413 
L 229.775342 65.952413 
L 229.251663 65.952413 
L 228.763236 65.952413 
L 228.313377 65.952413 
L 227.905511 65.952413 
L 227.543147 65.952413 
L 227.229847 65.952413 
L 226.969188 65.952413 
L 226.764714 65.952413 
L 226.619891 65.952413 
L 226.538042 65.952413 
L 226.522287 65.952413 
L 226.575477 65.952413 
L 226.700118 65.952413 
L 226.8983 65.952413 
L 227.171627 65.952413 
L 227.521144 65.952413 
L 227.947277 65.952413 
L 228.449776 65.952413 
L 229.02767 65.952413 
L 229.679238 65.952413 
L 230.401993 65.952413 
L 231.192685 65.952413 
L 232.047327 65.952413 
L 232.961229 65.952413 
L 233.929066 65.952413 
L 234.944954 65.952413 
L 236.002549 65.952413 
L 237.095158 65.952413 
L 238.215856 65.952413 
L 239.357622 65.952413 
L 240.513466 65.952413 
L 241.676564 65.952413 
L 242.840383 65.952413 
L 243.998798 65.952413 
L 245.146199 65.952413 
L 246.277577 65.952413 
L 247.388603 65.952413 
L 248.47568 65.952413 
L 249.535978 65.952413 
L 250.567452 65.952413 
L 251.568846 65.952413 
L 252.539671 65.952413 
L 253.480182 65.952413 
L 254.39133 65.952413 
L 255.274718 65.952413 
L 256.132534 65.952413 
L 256.967496 65.952413 
L 257.782776 65.952413 
L 258.581936 65.952413 
L 259.368851 65.952413 
L 260.147641 65.952413 
L 260.922594 65.952413 
L 261.698094 65.952413 
L 262.478545 65.952413 
L 263.268292 65.952413 
L 264.071542 65.952413 
L 264.892285 65.952413 
L 265.734206 65.952413 
L 266.600598 65.952413 
L 267.494274 65.952413 
L 268.417476 65.952413 
L 269.37179 65.952413 
L 270.358057 65.952413 
L 271.376297 65.952413 
L 272.425645 65.952413 
L 273.504291 65.952413 
L 274.609453 65.952413 
L 275.737357 65.952413 
L 276.883253 65.952413 
L 278.041457 65.952413 
L 279.205416 65.952413 
L 280.367816 65.952413 
L 281.520706 65.952413 
L 282.655654 65.952413 
L 283.763932 65.952413 
L 284.836701 65.952413 
L 285.865224 65.952413 
L 286.841068 65.952413 
L 287.756305 65.952413 
L 288.6037 65.952413 
L 289.376873 65.952413 
L 290.070436 65.952413 
L 290.680098 65.952413 
L 291.202734 65.952413 
L 291.636412 65.952413 
L 291.980388 65.952413 
L 292.235069 65.952413 
L 292.40194 65.952413 
L 292.483467 65.952413 
L 292.482989 65.952413 
L 292.404588 65.952413 
L 292.252958 65.952413 
L 292.033273 65.952413 
L 291.751067 65.952413 
L 291.412109 65.952413 
L 291.022314 65.952413 
L 290.587649 65.952413 
L 290.11407 65.952413 
L 289.607476 65.952413 
L 289.073674 65.952413 
L 288.518364 65.952413 
L 287.947143 65.952413 
L 287.365509 65.952413 
L 286.778885 65.952413 
L 286.192642 65.952413 
L 285.612128 65.952413 
L 285.04269 65.952413 
L 284.489703 65.952413 
L 283.958576 65.952413 
L 283.454768 65.952413 
L 282.983774 65.952413 
L 282.55111 65.952413 
L 282.162277 65.952413 
L 281.822711 65.952413 
L 281.537724 65.952413 
L 281.312425 65.952413 
L 281.15163 65.952413 
L 281.059771 65.952413 
L 281.040795 65.952413 
L 281.098062 65.952413 
L 281.234255 65.952413 
L 281.451291 65.952413 
L 281.75025 65.952413 
L 282.131328 65.952413 
L 282.593804 65.952413 
L 283.136038 65.952413 
L 283.755494 65.952413 
L 284.448788 65.952413 
L 285.211768 65.952413 
L 286.039607 65.952413 
L 286.926924 65.952413 
L 287.867917 65.952413 
L 288.856506 65.952413 
L 289.886477 65.952413 
L 290.951631 65.952413 
L 292.045916 65.952413 
L 293.16356 65.952413 
L 294.299178 65.952413 
L 295.447865 65.952413 
L 296.605271 65.952413 
L 297.767648 65.952413 
L 298.931884 65.952413 
L 300.095511 65.952413 
L 301.256692 65.952413 
L 302.414201 65.952413 
L 303.567374 65.952413 
L 304.716057 65.952413 
L 305.860539 65.952413 
L 307.001479 65.952413 
L 308.139822 65.952413 
L 309.276713 65.952413 
L 310.413408 65.952413 
L 311.551179 65.952413 
L 312.691225 65.952413 
L 313.834575 65.952413 
L 314.981996 65.952413 
L 316.133907 65.952413 
L 317.290296 65.952413 
L 318.450638 65.952413 
L 319.613827 65.952413 
L 320.778119 65.952413 
L 321.941082 65.952413 
L 323.099571 65.952413 
L 324.249706 65.952413 
L 325.386888 65.952413 
L 326.505818 65.952413 
L 327.600554 65.952413 
L 328.66458 65.952413 
L 329.690903 65.952413 
L 330.672174 65.952413 
L 331.600817 65.952413 
L 332.469186 65.952413 
L 333.269728 65.952413 
L 333.995147 65.952413 
L 334.638575 65.952413 
L 335.193735 65.952413 
L 335.655095 65.952413 
L 336.017998 65.952413 
L 336.278775 65.952413 
L 336.434833 65.952413 
L 336.48471 65.952413 
L 336.428101 65.952413 
L 336.265853 65.952413 
L 335.999929 65.952413 
L 335.633343 65.952413 
L 335.170074 65.952413 
L 334.614959 65.952413 
L 333.973561 65.952413 
L 333.252041 65.952413 
L 332.457014 65.952413 
L 331.595406 65.952413 
L 330.674316 65.952413 
L 329.700887 65.952413 
L 328.682183 65.952413 
L 327.625082 65.952413 
L 326.536185 65.952413 
L 325.421741 65.952413 
L 324.28758 65.952413 
L 323.139078 65.952413 
L 321.981118 65.952413 
L 320.81808 65.952413 
L 319.653834 65.952413 
L 318.49175 65.952413 
L 317.334709 65.952413 
L 316.18513 65.952413 
L 315.044997 65.952413 
L 313.915893 65.952413 
L 312.799032 65.952413 
L 311.695299 65.952413 
L 310.605285 65.952413 
L 309.529328 65.952413 
L 308.46754 65.952413 
L 307.41985 65.952413 
L 306.386032 65.952413 
L 305.365732 65.952413 
L 304.358499 65.952413 
L 303.363806 65.952413 
L 302.381076 65.952413 
L 301.409694 65.952413 
L 300.449031 65.952413 
L 299.498452 65.952413 
L 298.557331 65.952413 
L 297.625061 65.952413 
L 296.701059 65.952413 
L 295.784774 65.952413 
L 294.87569 65.952413 
L 293.973329 65.952413 
L 293.077256 65.952413 
L 292.187073 65.952413 
L 291.302423 65.952413 
L 290.422987 65.952413 
L 289.548481 65.952413 
L 288.678656 65.952413 
L 287.81329 65.952413 
L 286.952189 65.952413 
L 286.09518 65.952413 
L 285.242105 65.952413 
L 284.39282 65.952413 
L 283.547188 65.952413 
L 282.705075 65.952413 
L 281.866344 65.952413 
L 281.03085 65.952413 
L 280.198438 65.952413 
L 279.368934 65.952413 
L 278.542146 65.952413 
L 277.717853 65.952413 
L 276.89581 65.952413 
L 276.075735 65.952413 
L 275.257314 65.952413 
L 274.440193 65.952413 
L 273.62398 65.952413 
L 272.808242 65.952413 
L 271.992503 65.952413 
L 271.176246 65.952413 
L 270.358911 65.952413 
L 269.539901 65.952413 
L 268.718579 65.952413 
L 267.894273 65.952413 
L 267.06628 65.952413 
L 266.233871 65.952413 
L 265.396293 65.952413 
L 264.552777 65.952413 
L 263.702547 65.952413 
L 262.844822 65.952413 
L 261.978827 65.952413 
L 261.103801 65.952413 
L 260.219005 65.952413 
L 259.323731 65.952413 
L 258.41731 65.952413 
L 257.499125 65.952413 
L 256.568616 65.952413 
L 255.62529 65.952413 
L 254.66873 65.952413 
L 253.698603 65.952413 
L 252.714667 65.952413 
L 251.716776 65.952413 
L 250.704886 65.952413 
L 249.67906 65.952413 
L 248.639466 65.952413 
L 247.586385 65.952413 
L 246.520202 65.952413 
L 245.441411 65.952413 
L 244.350605 65.952413 
L 243.248473 65.952413 
L 242.135793 65.952413 
L 241.013419 65.952413 
L 239.882276 65.952413 
L 238.743341 65.952413 
L 237.597638 65.952413 
L 236.446215 65.952413 
L 235.290137 65.952413 
L 234.130468 65.952413 
L 232.968256 65.952413 
L 231.80452 65.952413 
L 230.640232 65.952413 
L 229.47631 65.952413 
L 228.313602 65.952413 
L 227.152875 65.952413 
L 225.99481 65.952413 
L 224.83999 65.952413 
L 223.688896 65.952413 
L 222.541905 65.952413 
L 221.399286 65.952413 
L 220.261202 65.952413 
L 219.127709 65.952413 
L 217.998763 65.952413 
L 216.874224 65.952413 
L 215.753861 65.952413 
L 214.637363 65.952413 
L 213.524346 65.952413 
L 212.414365 65.952413 
L 211.306922 65.952413 
L 210.20148 65.952413 
L 209.097473 65.952413 
L 207.994318 65.952413 
L 206.891427 65.952413 
L 205.788218 65.952413 
L 204.684127 65.952413 
L 203.578616 65.952413 
L 202.471182 65.952413 
L 201.361369 65.952413 
L 200.248771 65.952413 
L 199.13304 65.952413 
L 198.013891 65.952413 
L 196.891105 65.952413 
L 195.76453 65.952413 
L 194.634082 65.952413 
L 193.499746 65.952413 
L 192.36157 65.952413 
L 191.219664 65.952413 
L 190.074198 65.952413 
L 188.925389 65.952413 
L 187.7735 65.952413 
L 186.618833 65.952413 
L 185.461717 65.952413 
L 184.302504 65.952413 
L 183.141559 65.952413 
L 181.97925 65.952413 
L 180.815943 65.952413 
L 179.651993 65.952413 
L 178.487736 65.952413 
L 177.323485 65.952413 
L 176.159522 65.952413 
L 174.996097 65.952413 
L 173.833421 65.952413 
L 172.671665 65.952413 
L 171.510961 65.952413 
L 170.351398 65.952413 
L 169.193026 65.952413 
L 168.035855 65.952413 
L 166.879859 65.952413 
L 165.724981 65.952413 
L 164.571133 65.952413 
z
"/>
   </g>
  </g>
 </g>
 <defs>
  <clipPath id="pc86b15f3e8">
   <rect height="266.112" width="344.964934" x="7.2" y="7.2"/>
  </clipPath>
 </defs>
</svg>
