<?xml version="1.0" encoding="utf-8" standalone="no"?>
<!DOCTYPE svg PUBLIC "-//W3C//DTD SVG 1.1//EN"
  "http://www.w3.org/Graphics/SVG/1.1/DTD/svg11.dtd">
<svg height="280.512pt" version="1.1" viewBox="0 0 301.348566 280.512" width="301.348566pt" xmlns="http://www.w3.org/2000/svg" xmlns:xlink="http://www.w3.org/1999/xlink">
 <metadata>
  <rdf:RDF xmlns:cc="http://creativecommons.org/ns#" xmlns:dc="http://purl.org/dc/elements/1.1/" xmlns:rdf="http://www.w3.org/1999/02/22-rdf-syntax-ns#">
   <cc:Work>
    <dc:type rdf:resource="http://purl.org/dc/dcmitype/StillImage"/>
    <dc:date>2022-11-22T17:12:27.451610</dc:date>
    <dc:format>image/svg+xml</dc:format>
    <dc:creator>
     <cc:Agent>
      <dc:title>Matplotlib v3.4.2, https://matplotlib.org/</dc:title>
     </cc:Agent>
    </dc:creator>
   </cc:Work>
  </rdf:RDF>
 </metadata>
 <defs>
  <style type="text/css">*{stroke-linecap:butt;stroke-linejoin:round;}</style>
 </defs>
 <g id="figure_1">
  <g id="patch_1">
   <path d="M 0 280.512 
L 301.348566 280.512 
L 301.348566 0 
L 0 0 
z
" style="fill:none;"/>
  </g>
  <g id="axes_1">
   <g id="PolyCollection_1">
    <path clip-path="url(#pa342ff4ee1)" d="M 211.59625 60.821953 
L 211.59625 60.821953 
L 211.306601 59.817281 
L 211.023811 58.810656 
L 210.748966 57.801832 
L 210.483163 56.790589 
L 210.227512 55.776732 
L 209.983141 54.760097 
L 209.751196 53.740555 
L 209.532846 52.718015 
L 209.329286 51.692429 
L 209.141735 50.663795 
L 208.971441 49.632163 
L 208.819682 48.597642 
L 208.687762 47.560405 
L 208.577019 46.520694 
L 208.488814 45.478828 
L 208.424538 44.435213 
L 208.385604 43.390345 
L 208.373446 42.344823 
L 208.389512 41.299354 
L 208.43526 40.254763 
L 208.512148 39.212001 
L 208.621628 38.172156 
L 208.765134 37.136458 
L 208.944071 36.10629 
L 209.159799 35.083194 
L 209.413621 34.068877 
L 209.706763 33.065218 
L 210.040357 32.07427 
L 210.415421 31.098262 
L 210.832836 30.139602 
L 211.293322 29.20087 
L 211.797418 28.284818 
L 212.345452 27.394356 
L 212.93752 26.532544 
L 213.573457 25.702576 
L 214.252817 24.907759 
L 214.974846 24.151493 
L 215.738459 23.437239 
L 216.542227 22.768492 
L 217.384353 22.148744 
L 218.262667 21.581445 
L 219.174612 21.069958 
L 220.117249 20.61752 
L 221.087254 20.227193 
L 222.080929 19.901811 
L 223.094224 19.643942 
L 224.122756 19.45583 
L 225.161842 19.339357 
L 226.206535 19.296 
L 227.251674 19.326789 
L 228.291932 19.43228 
L 229.321871 19.612526 
L 230.336009 19.867062 
L 231.328879 20.194893 
L 232.295098 20.594498 
L 233.229437 21.063832 
L 234.126882 21.600355 
L 234.982702 22.201051 
L 235.792508 22.862473 
L 236.552305 23.580785 
L 237.258544 24.351817 
L 237.908157 25.171126 
L 238.498591 26.034058 
L 239.027828 26.935819 
L 239.494398 27.871541 
L 239.89738 28.836357 
L 240.236395 29.825464 
L 240.511589 30.834192 
L 240.723611 31.858063 
L 240.873579 32.892844 
L 240.963045 33.934602 
L 240.993953 34.979738 
L 240.968591 36.025023 
L 240.889551 37.067624 
L 240.759676 38.10512 
L 240.582019 39.135509 
L 240.359796 40.157214 
L 240.096347 41.169073 
L 239.795098 42.170328 
L 239.459531 43.16061 
L 239.093153 44.139912 
L 238.69948 45.108563 
L 238.282013 46.0672 
L 237.844231 47.016733 
L 237.389584 47.958306 
L 236.921489 48.893266 
L 236.44333 49.82312 
L 235.958466 50.749495 
L 235.470236 51.674101 
L 234.981966 52.598685 
L 234.496981 53.524997 
L 234.018612 54.454743 
L 233.550202 55.389545 
L 233.095117 56.330907 
L 232.656746 57.280167 
L 232.238498 58.238464 
L 231.843806 59.206701 
L 231.476108 60.185507 
L 231.138839 61.175211 
L 230.835411 62.175809 
L 230.569188 63.186941 
L 230.343452 64.207876 
L 230.161376 65.237493 
L 230.025981 66.274283 
L 229.940093 67.316342 
L 229.906305 68.361388 
L 229.926926 69.406778 
L 230.003941 70.44953 
L 230.138971 71.486367 
L 230.333233 72.513755 
L 230.587507 73.527959 
L 230.902116 74.525097 
L 231.276904 75.501211 
L 231.711232 76.452328 
L 232.203978 77.374534 
L 232.753554 78.264046 
L 233.357925 79.117275 
L 234.014647 79.930897 
L 234.720905 80.701911 
L 235.473571 81.427692 
L 236.269256 82.106035 
L 237.104377 82.735191 
L 237.975221 83.313892 
L 238.878013 83.841367 
L 239.808984 84.317347 
L 240.764434 84.742058 
L 241.740791 85.116212 
L 242.734667 85.44098 
L 243.742904 85.71797 
L 244.762609 85.949193 
L 245.791192 86.137025 
L 246.826379 86.284171 
L 247.866227 86.393628 
L 248.909125 86.468645 
L 249.95379 86.51269 
L 250.999249 86.529415 
L 252.044819 86.522629 
L 253.09008 86.496271 
L 254.134833 86.454387 
L 255.179068 86.401112 
L 256.222911 86.340659 
L 257.266582 86.277297 
L 258.310338 86.215349 
L 259.354421 86.159176 
L 260.399001 86.113167 
L 261.444121 86.081727 
L 262.489639 86.06926 
L 263.535175 86.080152 
L 264.580055 86.118744 
L 265.623265 86.1893 
L 266.663401 86.295977 
L 267.698638 86.442774 
L 268.726691 86.633484 
L 269.744801 86.871638 
L 270.749717 87.160439 
L 271.737706 87.502699 
L 272.704563 87.90076 
L 273.645641 88.356431 
L 274.555901 88.870911 
L 275.429971 89.444728 
L 276.262222 90.077676 
L 277.046858 90.76877 
L 277.778021 91.516208 
L 278.449905 92.317355 
L 279.056871 93.16874 
L 279.593575 94.066076 
L 280.055089 95.004303 
L 280.43702 95.977644 
L 280.735618 96.979693 
L 280.947872 98.003516 
L 281.071588 99.041764 
L 281.10545 100.086808 
L 281.049053 101.130878 
L 280.902918 102.166208 
L 280.668475 103.185179 
L 280.348032 104.180458 
L 279.94471 105.145132 
L 279.462366 106.072821 
L 278.905497 106.957785 
L 278.279128 107.794998 
L 277.588695 108.580215 
L 276.839921 109.310011 
L 276.038691 109.981796 
L 275.190932 110.593816 
L 274.302499 111.145133 
L 273.379072 111.635588 
L 272.426063 112.06575 
L 271.448544 112.436855 
L 270.451178 112.750744 
L 269.438182 113.009784 
L 268.413287 113.216799 
L 267.379731 113.374996 
L 266.340252 113.487897 
L 265.297098 113.559273 
L 264.252052 113.593086 
L 263.20646 113.593438 
L 262.161267 113.564526 
L 261.117065 113.510605 
L 260.074141 113.435955 
L 259.032524 113.34486 
L 257.992045 113.241583 
L 256.952385 113.130357 
L 255.913134 113.015369 
L 254.873843 112.90075 
L 253.834072 112.790568 
L 252.793442 112.688815 
L 251.751679 112.599402 
L 250.708656 112.526142 
L 249.664428 112.472736 
L 248.619265 112.44276 
L 247.573677 112.439639 
L 246.528433 112.466628 
L 245.484573 112.526787 
L 244.443411 112.622947 
L 243.406537 112.757691 
L 242.375799 112.933317 
L 241.353291 113.151811 
L 240.341318 113.414825 
L 239.342373 113.723649 
L 238.359087 114.079195 
L 237.394189 114.48198 
L 236.450455 114.932124 
L 235.530654 115.429346 
L 234.637494 115.972972 
L 233.773569 116.561953 
L 232.941305 117.194882 
L 232.142909 117.870033 
L 231.380327 118.585388 
L 230.6552 119.338684 
L 229.968836 120.127461 
L 229.322179 120.949105 
L 228.715794 121.800903 
L 228.149856 122.680095 
L 227.624145 123.583916 
L 227.138053 124.509647 
L 226.690592 125.454657 
L 226.280412 126.416434 
L 225.905819 127.392623 
L 225.564801 128.381041 
L 225.255054 129.379701 
L 224.974011 130.386815 
L 224.718868 131.4008 
L 224.486614 132.420271 
L 224.27406 133.444032 
L 224.077865 134.471052 
L 223.894561 135.500452 
L 223.720576 136.531468 
L 223.55226 137.563424 
L 223.385903 138.595698 
L 223.217761 139.627682 
L 223.044073 140.658748 
L 222.861085 141.688204 
L 222.665072 142.715259 
L 222.452364 143.738988 
L 222.219372 144.758291 
L 221.962616 145.771869 
L 221.678757 146.778193 
L 221.364632 147.775484 
L 221.017291 148.761698 
L 220.634032 149.734517 
L 220.212447 150.69135 
L 219.750457 151.629342 
L 219.246351 152.545389 
L 218.698829 153.436166 
L 218.10703 154.298162 
L 217.470565 155.127727 
L 216.789538 155.921115 
L 216.064559 156.674553 
L 215.296751 157.384297 
L 214.487747 158.046699 
L 213.639672 158.658281 
L 212.755115 159.215796 
L 211.837094 159.716298 
L 210.889006 160.157198 
L 209.914568 160.536322 
L 208.917752 160.85195 
L 207.90271 161.102855 
L 206.873698 161.288322 
L 205.834996 161.408163 
L 204.790827 161.462713 
L 203.745281 161.452818 
L 202.70224 161.379812 
L 201.665312 161.245482 
L 200.637772 161.052029 
L 199.622509 160.802016 
L 198.621993 160.498321 
L 197.638237 160.144079 
L 196.672784 159.742624 
L 195.726699 159.297443 
L 194.800565 158.812119 
L 193.894497 158.29029 
L 193.00816 157.735608 
L 192.140795 157.151706 
L 191.291246 156.542174 
L 190.457997 155.910541 
L 189.639214 155.260265 
L 188.832784 154.594731 
L 188.036359 153.917257 
L 187.247403 153.2311 
L 186.463237 152.539473 
L 185.681087 151.845567 
L 184.898133 151.152568 
L 184.111557 150.463683 
L 183.318593 149.782161 
L 182.516575 149.111318 
L 181.702989 148.454551 
L 180.875525 147.81536 
L 180.032122 147.197349 
L 179.171028 146.604239 
L 178.290838 146.039855 
L 177.390548 145.508119 
L 176.469598 145.013028 
L 175.527908 144.558623 
L 174.565915 144.148948 
L 173.584598 143.788004 
L 172.585494 143.479694 
L 171.570707 143.227758 
L 170.542903 143.035709 
L 169.505292 142.906759 
L 168.4616 142.843751 
L 167.416021 142.84909 
L 166.373164 142.924678 
L 165.337981 143.071855 
L 164.315688 143.291356 
L 163.311672 143.583273 
L 162.331396 143.947035 
L 161.380297 144.381402 
L 160.463684 144.884476 
L 159.586634 145.453729 
L 158.753903 146.086044 
L 157.969829 146.777775 
L 157.238262 147.524818 
L 156.562495 148.322693 
L 155.945218 149.166632 
L 155.388479 150.051677 
L 154.893666 150.972777 
L 154.461507 151.924881 
L 154.092077 152.903035 
L 153.784825 153.902465 
L 153.538611 154.918655 
L 153.351749 155.947415 
L 153.222061 156.984934 
L 153.146934 158.027824 
L 153.123377 159.073151 
L 153.148084 160.118452 
L 153.217487 161.161739 
L 153.327812 162.201495 
L 153.475124 163.236658 
L 153.655374 164.266597 
L 153.86443 165.291077 
L 154.098108 166.310223 
L 154.352194 167.324474 
L 154.62246 168.334533 
L 154.904671 169.341321 
L 155.194595 170.345914 
L 155.488003 171.349496 
L 155.780667 172.353294 
L 156.068359 173.358529 
L 156.346853 174.366351 
L 156.611918 175.377788 
L 156.859327 176.393688 
L 157.084861 177.414667 
L 157.28432 178.441059 
L 157.453542 179.472867 
L 157.588425 180.509723 
L 157.684958 181.55085 
L 157.739256 182.595032 
L 157.747609 183.640591 
L 157.706523 184.685377 
L 157.61278 185.726759 
L 157.463492 186.761639 
L 157.256159 187.786469 
L 156.988732 188.797284 
L 156.659662 189.789744 
L 156.267958 190.759193 
L 155.813225 191.700725 
L 155.295704 192.60926 
L 154.716294 193.479632 
L 154.07656 194.306678 
L 153.378736 195.085334 
L 152.625697 195.810729 
L 151.820937 196.47828 
L 150.968509 197.08378 
L 150.07297 197.623478 
L 149.139305 198.094152 
L 148.172839 198.493161 
L 147.179148 198.818494 
L 146.163957 199.068797 
L 145.133043 199.243383 
L 144.092133 199.34223 
L 143.04681 199.365962 
L 142.00242 199.315816 
L 140.963995 199.193598 
L 139.936177 199.001626 
L 138.923159 198.742667 
L 137.928642 198.419868 
L 136.955793 198.036685 
L 136.00723 197.596809 
L 135.085005 197.104096 
L 134.190614 196.562498 
L 133.325 195.976004 
L 132.488577 195.348579 
L 131.681259 194.684124 
L 130.902489 193.986426 
L 130.151282 193.259136 
L 129.426258 192.50574 
L 128.725691 191.729551 
L 128.047548 190.933695 
L 127.389535 190.121118 
L 126.749132 189.294589 
L 126.123644 188.456718 
L 125.510228 187.609968 
L 124.905941 186.75668 
L 124.307767 185.899095 
L 123.712656 185.039382 
L 123.117555 184.179661 
L 122.51944 183.322035 
L 121.915344 182.468612 
L 121.302388 181.621529 
L 120.677813 180.782977 
L 120.039003 179.955217 
L 119.38352 179.140597 
L 118.709126 178.341563 
L 118.013813 177.560663 
L 117.295832 176.800553 
L 116.553713 176.063991 
L 115.786294 175.353827 
L 114.99274 174.672993 
L 114.17256 174.02448 
L 113.325628 173.411316 
L 112.452189 172.836539 
L 111.55287 172.303163 
L 110.628681 171.814146 
L 109.68101 171.372349 
L 108.711618 170.980503 
L 107.722622 170.641165 
L 106.716474 170.356683 
L 105.695936 170.129162 
L 104.664048 169.960426 
L 103.624093 169.851992 
L 102.579555 169.805043 
L 101.534075 169.820409 
L 100.491407 169.898553 
L 99.455366 170.039562 
L 98.429784 170.243146 
L 97.418461 170.508643 
L 96.425115 170.83503 
L 95.453344 171.220938 
L 94.506581 171.664676 
L 93.588059 172.164257 
L 92.700778 172.717427 
L 91.847482 173.321702 
L 91.030629 173.974401 
L 90.252385 174.672685 
L 89.514605 175.413593 
L 88.818832 176.194083 
L 88.166297 177.011066 
L 87.557917 177.861442 
L 86.994313 178.742131 
L 86.475813 179.650108 
L 86.002474 180.582424 
L 85.574092 181.536234 
L 85.190232 182.508816 
L 84.850237 183.497587 
L 84.553258 184.500117 
L 84.298275 185.514143 
L 84.084116 186.537568 
L 83.909478 187.568474 
L 83.772954 188.605115 
L 83.673045 189.645923 
L 83.608183 190.689502 
L 83.576747 191.734622 
L 83.577079 192.780215 
L 83.607496 193.825365 
L 83.666306 194.869303 
L 83.751814 195.911393 
L 83.862337 196.951128 
L 83.996206 197.988115 
L 84.15178 199.022069 
L 84.327441 200.052801 
L 84.52161 201.080206 
L 84.73274 202.104261 
L 84.959324 203.125008 
L 85.199894 204.142549 
L 85.453021 205.157039 
L 85.717316 206.168678 
L 85.991431 207.177699 
L 86.274052 208.184372 
L 86.563903 209.188986 
L 86.859741 210.191854 
L 87.160353 211.193301 
L 87.464557 212.193664 
L 87.771192 213.193283 
L 88.079124 214.192503 
L 88.387236 215.191669 
L 88.694425 216.191118 
L 88.999602 217.191183 
L 89.301687 218.192187 
L 89.599604 219.19444 
L 89.892278 220.198235 
L 90.178633 221.203852 
L 90.457587 222.211547 
L 90.728049 223.221554 
L 90.988916 224.234082 
L 91.239069 225.249309 
L 91.477372 226.267384 
L 91.702667 227.288416 
L 91.913772 228.312476 
L 92.109482 229.339589 
L 92.288562 230.369732 
L 92.44975 231.402825 
L 92.591755 232.43873 
L 92.713255 233.47724 
L 92.812901 234.518073 
L 92.889317 235.56087 
L 92.9411 236.605179 
L 92.966826 237.650455 
L 92.965054 238.696047 
L 92.934329 239.741188 
L 92.873194 240.784992 
L 92.78019 241.82644 
L 92.653875 242.864375 
L 92.492826 243.89749 
L 92.295661 244.924325 
L 92.061044 245.943255 
L 91.78771 246.952489 
L 91.474477 247.95006 
L 91.120267 248.933828 
L 90.724128 249.901474 
L 90.285257 250.850503 
L 89.803021 251.778249 
L 89.276983 252.681879 
L 88.706929 253.558408 
L 88.092888 254.404705 
L 87.435165 255.217517 
L 86.734356 255.993488 
L 85.991378 256.729184 
L 85.207487 257.421121 
L 84.384292 258.065803 
L 83.523777 258.659754 
L 82.628304 259.199561 
L 81.700621 259.681918 
L 80.743861 260.10367 
L 79.761536 260.461864 
L 78.757523 260.753791 
L 77.736042 260.97704 
L 76.701631 261.129543 
L 75.659109 261.209616 
L 74.613535 261.216 
L 73.570163 261.147899 
L 72.53438 261.005005 
L 71.511656 260.787523 
L 70.507472 260.496182 
L 69.527263 260.13224 
L 68.576342 259.697484 
L 67.659839 259.194207 
L 66.782635 258.625193 
L 65.949297 257.993678 
L 65.164023 257.303309 
L 64.430591 256.558097 
L 63.752313 255.762356 
L 63.132004 254.920644 
L 62.57195 254.037692 
L 62.073897 253.11834 
L 61.63904 252.167465 
L 61.268028 251.18991 
L 60.960974 250.190419 
L 60.717477 249.173575 
L 60.536649 248.143737 
L 60.417152 247.104995 
L 60.357231 246.061121 
L 60.354764 245.015531 
L 60.407306 243.97126 
L 60.512133 242.930935 
L 60.666291 241.896769 
L 60.866642 240.870551 
L 61.109902 239.853649 
L 61.392683 238.847022 
L 61.711529 237.85123 
L 62.06294 236.866459 
L 62.443405 235.892544 
L 62.849412 234.928997 
L 63.277469 233.975042 
L 63.724113 233.029646 
L 64.185909 232.091558 
L 64.659457 231.159348 
L 65.141387 230.231443 
L 65.62835 229.30617 
L 66.117015 228.381794 
L 66.604058 227.456563 
L 67.086153 226.528743 
L 67.559962 225.596665 
L 68.022131 224.658761 
L 68.469284 223.713606 
L 68.898021 222.759956 
L 69.304921 221.796786 
L 69.686546 220.823325 
L 70.039458 219.839091 
L 70.36023 218.843918 
L 70.645472 217.837985 
L 70.891857 216.821836 
L 71.09615 215.796396 
L 71.255252 214.762979 
L 71.366233 213.723292 
L 71.426379 212.679431 
L 71.433232 211.633861 
L 71.38464 210.589398 
L 71.278796 209.549176 
L 71.114275 208.516608 
L 70.890077 207.495335 
L 70.605646 206.489172 
L 70.260898 205.502049 
L 69.85623 204.537939 
L 69.392523 203.600795 
L 68.871134 202.694473 
L 68.29388 201.82267 
L 67.663004 200.988847 
L 66.981142 200.196176 
L 66.251271 199.447476 
L 65.476658 198.745166 
L 64.660797 198.091228 
L 63.807345 197.487172 
L 62.920054 196.934018 
L 62.002704 196.432288 
L 61.059038 195.982002 
L 60.092698 195.582688 
L 59.107171 195.233402 
L 58.105736 194.932749 
L 57.091422 194.678918 
L 56.066973 194.469709 
L 55.034824 194.302577 
L 53.997085 194.174667 
L 52.955531 194.082851 
L 51.911609 194.023765 
L 50.866445 193.993847 
L 49.820862 193.989362 
L 48.775408 194.006434 
L 47.73039 194.041067 
L 46.685904 194.089168 
L 45.641888 194.146563 
L 44.598161 194.209008 
L 43.55448 194.272206 
L 42.510588 194.331813 
L 41.466271 194.383454 
L 40.421417 194.42273 
L 39.376066 194.445233 
L 38.330474 194.446566 
L 37.285162 194.422363 
L 36.240967 194.368316 
L 35.199093 194.28021 
L 34.16115 194.153962 
L 33.12919 193.985668 
L 32.105734 193.771658 
L 31.093784 193.508558 
L 30.096834 193.193351 
L 29.118857 192.823452 
L 28.164283 192.396776 
L 27.237962 191.911809 
L 26.345107 191.367682 
L 25.491231 190.764226 
L 24.682057 190.102032 
L 23.923425 189.382489 
L 23.221183 188.607815 
L 22.581069 187.781063 
L 22.008589 186.906117 
L 21.508895 185.987656 
L 21.086661 185.031109 
L 20.745972 184.042578 
L 20.490219 183.028746 
L 20.322014 181.996772 
L 20.243117 180.95416 
L 20.254391 179.908628 
L 20.35578 178.867963 
L 20.546303 177.839875 
L 20.824087 176.831857 
L 21.186408 175.851047 
L 21.629765 174.904106 
L 22.14997 173.997104 
L 22.742246 173.135436 
L 23.401347 172.32374 
L 24.121679 171.565857 
L 24.897422 170.864796 
L 25.722655 170.222726 
L 26.591474 169.64099 
L 27.4981 169.120131 
L 28.436975 168.659937 
L 29.402848 168.259497 
L 30.390847 167.917264 
L 31.396525 167.631126 
L 32.415906 167.398477 
L 33.445505 167.216293 
L 34.482334 167.081202 
L 35.523902 166.989548 
L 36.568196 166.937459 
L 37.613658 166.920896 
L 38.659145 166.935705 
L 39.703896 166.977655 
L 40.747478 167.042477 
L 41.789738 167.125884 
L 42.830755 167.223602 
L 43.870778 167.33138 
L 44.910178 167.445007 
L 45.949392 167.560323 
L 46.988871 167.673227 
L 48.02903 167.779689 
L 49.0702 167.875754 
L 50.112588 167.957561 
L 51.156233 168.02135 
L 52.200976 168.063479 
L 53.246431 168.080446 
L 54.29196 168.068906 
L 55.33666 168.025701 
L 56.379352 167.947881 
L 57.418585 167.832734 
L 58.452638 167.677818 
L 59.479537 167.480986 
L 60.497078 167.240416 
L 61.502858 166.954635 
L 62.49431 166.62254 
L 63.468747 166.243414 
L 64.423411 165.81694 
L 65.355523 165.343197 
L 66.262336 164.822664 
L 67.141193 164.256207 
L 67.989578 163.645055 
L 68.805169 162.99078 
L 69.585883 162.295259 
L 70.329922 161.560637 
L 71.035809 160.789282 
L 71.702414 159.983738 
L 72.328981 159.146673 
L 72.91514 158.280832 
L 73.460913 157.388982 
L 73.966714 156.47387 
L 74.433344 155.538178 
L 74.861974 154.584479 
L 75.254129 153.615212 
L 75.611664 152.632648 
L 75.936741 151.638873 
L 76.231799 150.635775 
L 76.499528 149.62504 
L 76.742839 148.608151 
L 76.964834 147.586397 
L 77.168782 146.560887 
L 77.358091 145.532575 
L 77.536284 144.502278 
L 77.706974 143.470712 
L 77.873844 142.438521 
L 78.040624 141.406315 
L 78.211068 140.374709 
L 78.388939 139.344356 
L 78.577977 138.315994 
L 78.781882 137.290476 
L 79.00429 136.268812 
L 79.248737 135.252195 
L 79.518638 134.242038 
L 79.817247 133.239991 
L 80.147626 132.247966 
L 80.512605 131.268143 
L 80.914745 130.302976 
L 81.356295 129.35519 
L 81.839155 128.427768 
L 82.364833 127.523929 
L 82.934414 126.647093 
L 83.548528 125.800849 
L 84.207318 124.988901 
L 84.91043 124.215016 
L 85.656996 123.482962 
L 86.445637 122.796442 
L 87.274472 122.159028 
L 88.141139 121.574091 
L 89.04283 121.044735 
L 89.976331 120.573736 
L 90.938076 120.163479 
L 91.924213 119.815919 
L 92.930669 119.532531 
L 93.953232 119.314288 
L 94.987622 119.161643 
L 96.029579 119.074521 
L 97.074936 119.052331 
L 98.119699 119.093977 
L 99.160115 119.197896 
L 100.192735 119.362086 
L 101.214473 119.584161 
L 102.222643 119.861391 
L 103.215002 120.190766 
L 104.189769 120.569042 
L 105.145641 120.992803 
L 106.081794 121.458508 
L 106.997881 121.962541 
L 107.894014 122.501252 
L 108.770744 123.070996 
L 109.629034 123.668158 
L 110.470223 124.289178 
L 111.295991 124.93056 
L 112.108317 125.588884 
L 112.909438 126.260798 
L 113.701802 126.943018 
L 114.488021 127.63231 
L 115.270829 128.325474 
L 116.053027 129.019325 
L 116.837441 129.71067 
L 117.626871 130.396283 
L 118.424037 131.072885 
L 119.231536 131.737121 
L 120.051787 132.385544 
L 120.886981 133.014603 
L 121.739031 133.620635 
L 122.609522 134.199867 
L 123.499663 134.748422 
L 124.410242 135.262339 
L 125.341583 135.737593 
L 126.293512 136.170138 
L 127.265324 136.555943 
L 128.255763 136.891049 
L 129.263007 137.171627 
L 130.28467 137.394041 
L 131.317812 137.554921 
L 132.358959 137.651229 
L 133.404147 137.680334 
L 134.448964 137.640075 
L 135.488621 137.528823 
L 136.518024 137.345537 
L 137.531859 137.089798 
L 138.524689 136.761845 
L 139.491051 136.362584 
L 140.425558 135.893586 
L 141.323006 135.357068 
L 142.178467 134.75586 
L 142.987383 134.093351 
L 143.745652 133.373425 
L 144.449693 132.600386 
L 145.096512 131.778869 
L 145.683735 130.913749 
L 146.209643 130.010043 
L 146.673179 129.072814 
L 147.073943 128.107075 
L 147.412178 127.1177 
L 147.688732 126.109345 
L 147.905028 125.086368 
L 148.063002 124.052778 
L 148.165058 123.012178 
L 148.214005 121.967732 
L 148.212998 120.92214 
L 148.165483 119.877627 
L 148.075137 118.835945 
L 147.945819 117.79838 
L 147.781526 116.765776 
L 147.586352 115.73856 
L 147.36446 114.716784 
L 147.12005 113.700158 
L 146.857345 112.688106 
L 146.580577 111.679808 
L 146.29398 110.67426 
L 146.001786 109.670325 
L 145.708222 108.666789 
L 145.417515 107.662422 
L 145.133894 106.656031 
L 144.861586 105.64652 
L 144.604821 104.632944 
L 144.367823 103.614565 
L 144.154803 102.590902 
L 143.969945 101.56178 
L 143.817385 100.527377 
L 143.701183 99.488262 
L 143.625291 98.445427 
L 143.593514 97.400317 
L 143.60946 96.354846 
L 143.676491 95.311404 
L 143.797669 94.272857 
L 143.975693 93.242531 
L 144.212847 92.224188 
L 144.510936 91.221987 
L 144.871236 90.240433 
L 145.294444 89.284317 
L 145.780642 88.358641 
L 146.329261 87.468539 
L 146.93907 86.619189 
L 147.608169 85.815715 
L 148.334 85.063097 
L 149.113372 84.366073 
L 149.942507 83.729048 
L 150.817088 83.156011 
L 151.732337 82.650458 
L 152.683086 82.215325 
L 153.663873 81.852943 
L 154.669035 81.564997 
L 155.692809 81.352509 
L 156.72943 81.215831 
L 157.773231 81.154658 
L 158.818738 81.168057 
L 159.860752 81.254497 
L 160.894427 81.411911 
L 161.915339 81.637748 
L 162.919537 81.929042 
L 163.903582 82.282481 
L 164.86458 82.694484 
L 165.800195 83.161268 
L 166.708655 83.678922 
L 167.588742 84.243466 
L 168.439781 84.850918 
L 169.26161 85.497339 
L 170.054556 86.178882 
L 170.819396 86.891822 
L 171.557317 87.63259 
L 172.269877 88.397785 
L 172.95896 89.184187 
L 173.626736 89.98876 
L 174.275617 90.808649 
L 174.908215 91.641165 
L 175.527305 92.483776 
L 176.135783 93.33408 
L 176.736634 94.189792 
L 177.332894 95.048709 
L 177.927619 95.908689 
L 178.523852 96.767625 
L 179.124592 97.623414 
L 179.732765 98.473937 
L 180.351194 99.317033 
L 180.98257 100.150476 
L 181.629423 100.971966 
L 182.294096 101.779105 
L 182.978714 102.569397 
L 183.685159 103.340241 
L 184.415044 104.088927 
L 185.169688 104.812652 
L 185.950091 105.508522 
L 186.756919 106.173572 
L 187.590482 106.804791 
L 188.450722 107.39914 
L 189.337204 107.95359 
L 190.249108 108.465152 
L 191.185235 108.930909 
L 192.144009 109.348062 
L 193.123489 109.713962 
L 194.121388 110.026151 
L 195.135094 110.282399 
L 196.161703 110.480737 
L 197.198049 110.619491 
L 198.240741 110.697309 
L 199.286214 110.713181 
L 200.330762 110.666461 
L 201.370596 110.556872 
L 202.401885 110.384516 
L 203.420808 110.149869 
L 204.423601 109.853777 
L 205.4066 109.497438 
L 206.366284 109.082384 
L 207.299317 108.610459 
L 208.202578 108.083786 
L 209.073192 107.50474 
L 209.908557 106.875907 
L 210.706356 106.200052 
L 211.464581 105.48008 
L 212.18153 104.718997 
L 212.855819 103.919873 
L 213.486372 103.085807 
L 214.072423 102.219892 
L 214.613498 101.325185 
L 215.109409 100.404676 
L 215.560229 99.461264 
L 215.966281 98.497736 
L 216.328114 97.516747 
L 216.646483 96.520802 
L 216.922326 95.512252 
L 217.156743 94.493275 
L 217.350971 93.465881 
L 217.50637 92.4319 
L 217.624395 91.39299 
L 217.706581 90.350633 
L 217.754524 89.30614 
L 217.769867 88.26066 
L 217.754281 87.215183 
L 217.709456 86.170552 
L 217.637086 85.127467 
L 217.538861 84.086498 
L 217.416458 83.048095 
L 217.271532 82.012594 
L 217.105715 80.980234 
L 216.920604 79.951158 
L 216.717764 78.925429 
L 216.498721 77.903037 
L 216.264963 76.883909 
L 216.017939 75.867916 
L 215.759056 74.854879 
L 215.489685 73.84458 
L 215.211155 72.836768 
L 214.924761 71.831163 
L 214.631763 70.827461 
L 214.333389 69.825345 
L 214.030835 68.824483 
L 213.725272 67.824535 
L 213.417848 66.825159 
L 213.109687 65.826008 
L 212.8019 64.826743 
L 212.495581 63.827027 
L 212.191815 62.826532 
L 211.89168 61.824941 
L 211.59625 60.821953 
L 211.59625 60.821953 
L 211.59625 60.821953 
L 211.89168 60.821953 
L 212.191815 60.821953 
L 212.495581 60.821953 
L 212.8019 60.821953 
L 213.109687 60.821953 
L 213.417848 60.821953 
L 213.725272 60.821953 
L 214.030835 60.821953 
L 214.333389 60.821953 
L 214.631763 60.821953 
L 214.924761 60.821953 
L 215.211155 60.821953 
L 215.489685 60.821953 
L 215.759056 60.821953 
L 216.017939 60.821953 
L 216.264963 60.821953 
L 216.498721 60.821953 
L 216.717764 60.821953 
L 216.920604 60.821953 
L 217.105715 60.821953 
L 217.271532 60.821953 
L 217.416458 60.821953 
L 217.538861 60.821953 
L 217.637086 60.821953 
L 217.709456 60.821953 
L 217.754281 60.821953 
L 217.769867 60.821953 
L 217.754524 60.821953 
L 217.706581 60.821953 
L 217.624395 60.821953 
L 217.50637 60.821953 
L 217.350971 60.821953 
L 217.156743 60.821953 
L 216.922326 60.821953 
L 216.646483 60.821953 
L 216.328114 60.821953 
L 215.966281 60.821953 
L 215.560229 60.821953 
L 215.109409 60.821953 
L 214.613498 60.821953 
L 214.072423 60.821953 
L 213.486372 60.821953 
L 212.855819 60.821953 
L 212.18153 60.821953 
L 211.464581 60.821953 
L 210.706356 60.821953 
L 209.908557 60.821953 
L 209.073192 60.821953 
L 208.202578 60.821953 
L 207.299317 60.821953 
L 206.366284 60.821953 
L 205.4066 60.821953 
L 204.423601 60.821953 
L 203.420808 60.821953 
L 202.401885 60.821953 
L 201.370596 60.821953 
L 200.330762 60.821953 
L 199.286214 60.821953 
L 198.240741 60.821953 
L 197.198049 60.821953 
L 196.161703 60.821953 
L 195.135094 60.821953 
L 194.121388 60.821953 
L 193.123489 60.821953 
L 192.144009 60.821953 
L 191.185235 60.821953 
L 190.249108 60.821953 
L 189.337204 60.821953 
L 188.450722 60.821953 
L 187.590482 60.821953 
L 186.756919 60.821953 
L 185.950091 60.821953 
L 185.169688 60.821953 
L 184.415044 60.821953 
L 183.685159 60.821953 
L 182.978714 60.821953 
L 182.294096 60.821953 
L 181.629423 60.821953 
L 180.98257 60.821953 
L 180.351194 60.821953 
L 179.732765 60.821953 
L 179.124592 60.821953 
L 178.523852 60.821953 
L 177.927619 60.821953 
L 177.332894 60.821953 
L 176.736634 60.821953 
L 176.135783 60.821953 
L 175.527305 60.821953 
L 174.908215 60.821953 
L 174.275617 60.821953 
L 173.626736 60.821953 
L 172.95896 60.821953 
L 172.269877 60.821953 
L 171.557317 60.821953 
L 170.819396 60.821953 
L 170.054556 60.821953 
L 169.26161 60.821953 
L 168.439781 60.821953 
L 167.588742 60.821953 
L 166.708655 60.821953 
L 165.800195 60.821953 
L 164.86458 60.821953 
L 163.903582 60.821953 
L 162.919537 60.821953 
L 161.915339 60.821953 
L 160.894427 60.821953 
L 159.860752 60.821953 
L 158.818738 60.821953 
L 157.773231 60.821953 
L 156.72943 60.821953 
L 155.692809 60.821953 
L 154.669035 60.821953 
L 153.663873 60.821953 
L 152.683086 60.821953 
L 151.732337 60.821953 
L 150.817088 60.821953 
L 149.942507 60.821953 
L 149.113372 60.821953 
L 148.334 60.821953 
L 147.608169 60.821953 
L 146.93907 60.821953 
L 146.329261 60.821953 
L 145.780642 60.821953 
L 145.294444 60.821953 
L 144.871236 60.821953 
L 144.510936 60.821953 
L 144.212847 60.821953 
L 143.975693 60.821953 
L 143.797669 60.821953 
L 143.676491 60.821953 
L 143.60946 60.821953 
L 143.593514 60.821953 
L 143.625291 60.821953 
L 143.701183 60.821953 
L 143.817385 60.821953 
L 143.969945 60.821953 
L 144.154803 60.821953 
L 144.367823 60.821953 
L 144.604821 60.821953 
L 144.861586 60.821953 
L 145.133894 60.821953 
L 145.417515 60.821953 
L 145.708222 60.821953 
L 146.001786 60.821953 
L 146.29398 60.821953 
L 146.580577 60.821953 
L 146.857345 60.821953 
L 147.12005 60.821953 
L 147.36446 60.821953 
L 147.586352 60.821953 
L 147.781526 60.821953 
L 147.945819 60.821953 
L 148.075137 60.821953 
L 148.165483 60.821953 
L 148.212998 60.821953 
L 148.214005 60.821953 
L 148.165058 60.821953 
L 148.063002 60.821953 
L 147.905028 60.821953 
L 147.688732 60.821953 
L 147.412178 60.821953 
L 147.073943 60.821953 
L 146.673179 60.821953 
L 146.209643 60.821953 
L 145.683735 60.821953 
L 145.096512 60.821953 
L 144.449693 60.821953 
L 143.745652 60.821953 
L 142.987383 60.821953 
L 142.178467 60.821953 
L 141.323006 60.821953 
L 140.425558 60.821953 
L 139.491051 60.821953 
L 138.524689 60.821953 
L 137.531859 60.821953 
L 136.518024 60.821953 
L 135.488621 60.821953 
L 134.448964 60.821953 
L 133.404147 60.821953 
L 132.358959 60.821953 
L 131.317812 60.821953 
L 130.28467 60.821953 
L 129.263007 60.821953 
L 128.255763 60.821953 
L 127.265324 60.821953 
L 126.293512 60.821953 
L 125.341583 60.821953 
L 124.410242 60.821953 
L 123.499663 60.821953 
L 122.609522 60.821953 
L 121.739031 60.821953 
L 120.886981 60.821953 
L 120.051787 60.821953 
L 119.231536 60.821953 
L 118.424037 60.821953 
L 117.626871 60.821953 
L 116.837441 60.821953 
L 116.053027 60.821953 
L 115.270829 60.821953 
L 114.488021 60.821953 
L 113.701802 60.821953 
L 112.909438 60.821953 
L 112.108317 60.821953 
L 111.295991 60.821953 
L 110.470223 60.821953 
L 109.629034 60.821953 
L 108.770744 60.821953 
L 107.894014 60.821953 
L 106.997881 60.821953 
L 106.081794 60.821953 
L 105.145641 60.821953 
L 104.189769 60.821953 
L 103.215002 60.821953 
L 102.222643 60.821953 
L 101.214473 60.821953 
L 100.192735 60.821953 
L 99.160115 60.821953 
L 98.119699 60.821953 
L 97.074936 60.821953 
L 96.029579 60.821953 
L 94.987622 60.821953 
L 93.953232 60.821953 
L 92.930669 60.821953 
L 91.924213 60.821953 
L 90.938076 60.821953 
L 89.976331 60.821953 
L 89.04283 60.821953 
L 88.141139 60.821953 
L 87.274472 60.821953 
L 86.445637 60.821953 
L 85.656996 60.821953 
L 84.91043 60.821953 
L 84.207318 60.821953 
L 83.548528 60.821953 
L 82.934414 60.821953 
L 82.364833 60.821953 
L 81.839155 60.821953 
L 81.356295 60.821953 
L 80.914745 60.821953 
L 80.512605 60.821953 
L 80.147626 60.821953 
L 79.817247 60.821953 
L 79.518638 60.821953 
L 79.248737 60.821953 
L 79.00429 60.821953 
L 78.781882 60.821953 
L 78.577977 60.821953 
L 78.388939 60.821953 
L 78.211068 60.821953 
L 78.040624 60.821953 
L 77.873844 60.821953 
L 77.706974 60.821953 
L 77.536284 60.821953 
L 77.358091 60.821953 
L 77.168782 60.821953 
L 76.964834 60.821953 
L 76.742839 60.821953 
L 76.499528 60.821953 
L 76.231799 60.821953 
L 75.936741 60.821953 
L 75.611664 60.821953 
L 75.254129 60.821953 
L 74.861974 60.821953 
L 74.433344 60.821953 
L 73.966714 60.821953 
L 73.460913 60.821953 
L 72.91514 60.821953 
L 72.328981 60.821953 
L 71.702414 60.821953 
L 71.035809 60.821953 
L 70.329922 60.821953 
L 69.585883 60.821953 
L 68.805169 60.821953 
L 67.989578 60.821953 
L 67.141193 60.821953 
L 66.262336 60.821953 
L 65.355523 60.821953 
L 64.423411 60.821953 
L 63.468747 60.821953 
L 62.49431 60.821953 
L 61.502858 60.821953 
L 60.497078 60.821953 
L 59.479537 60.821953 
L 58.452638 60.821953 
L 57.418585 60.821953 
L 56.379352 60.821953 
L 55.33666 60.821953 
L 54.29196 60.821953 
L 53.246431 60.821953 
L 52.200976 60.821953 
L 51.156233 60.821953 
L 50.112588 60.821953 
L 49.0702 60.821953 
L 48.02903 60.821953 
L 46.988871 60.821953 
L 45.949392 60.821953 
L 44.910178 60.821953 
L 43.870778 60.821953 
L 42.830755 60.821953 
L 41.789738 60.821953 
L 40.747478 60.821953 
L 39.703896 60.821953 
L 38.659145 60.821953 
L 37.613658 60.821953 
L 36.568196 60.821953 
L 35.523902 60.821953 
L 34.482334 60.821953 
L 33.445505 60.821953 
L 32.415906 60.821953 
L 31.396525 60.821953 
L 30.390847 60.821953 
L 29.402848 60.821953 
L 28.436975 60.821953 
L 27.4981 60.821953 
L 26.591474 60.821953 
L 25.722655 60.821953 
L 24.897422 60.821953 
L 24.121679 60.821953 
L 23.401347 60.821953 
L 22.742246 60.821953 
L 22.14997 60.821953 
L 21.629765 60.821953 
L 21.186408 60.821953 
L 20.824087 60.821953 
L 20.546303 60.821953 
L 20.35578 60.821953 
L 20.254391 60.821953 
L 20.243117 60.821953 
L 20.322014 60.821953 
L 20.490219 60.821953 
L 20.745972 60.821953 
L 21.086661 60.821953 
L 21.508895 60.821953 
L 22.008589 60.821953 
L 22.581069 60.821953 
L 23.221183 60.821953 
L 23.923425 60.821953 
L 24.682057 60.821953 
L 25.491231 60.821953 
L 26.345107 60.821953 
L 27.237962 60.821953 
L 28.164283 60.821953 
L 29.118857 60.821953 
L 30.096834 60.821953 
L 31.093784 60.821953 
L 32.105734 60.821953 
L 33.12919 60.821953 
L 34.16115 60.821953 
L 35.199093 60.821953 
L 36.240967 60.821953 
L 37.285162 60.821953 
L 38.330474 60.821953 
L 39.376066 60.821953 
L 40.421417 60.821953 
L 41.466271 60.821953 
L 42.510588 60.821953 
L 43.55448 60.821953 
L 44.598161 60.821953 
L 45.641888 60.821953 
L 46.685904 60.821953 
L 47.73039 60.821953 
L 48.775408 60.821953 
L 49.820862 60.821953 
L 50.866445 60.821953 
L 51.911609 60.821953 
L 52.955531 60.821953 
L 53.997085 60.821953 
L 55.034824 60.821953 
L 56.066973 60.821953 
L 57.091422 60.821953 
L 58.105736 60.821953 
L 59.107171 60.821953 
L 60.092698 60.821953 
L 61.059038 60.821953 
L 62.002704 60.821953 
L 62.920054 60.821953 
L 63.807345 60.821953 
L 64.660797 60.821953 
L 65.476658 60.821953 
L 66.251271 60.821953 
L 66.981142 60.821953 
L 67.663004 60.821953 
L 68.29388 60.821953 
L 68.871134 60.821953 
L 69.392523 60.821953 
L 69.85623 60.821953 
L 70.260898 60.821953 
L 70.605646 60.821953 
L 70.890077 60.821953 
L 71.114275 60.821953 
L 71.278796 60.821953 
L 71.38464 60.821953 
L 71.433232 60.821953 
L 71.426379 60.821953 
L 71.366233 60.821953 
L 71.255252 60.821953 
L 71.09615 60.821953 
L 70.891857 60.821953 
L 70.645472 60.821953 
L 70.36023 60.821953 
L 70.039458 60.821953 
L 69.686546 60.821953 
L 69.304921 60.821953 
L 68.898021 60.821953 
L 68.469284 60.821953 
L 68.022131 60.821953 
L 67.559962 60.821953 
L 67.086153 60.821953 
L 66.604058 60.821953 
L 66.117015 60.821953 
L 65.62835 60.821953 
L 65.141387 60.821953 
L 64.659457 60.821953 
L 64.185909 60.821953 
L 63.724113 60.821953 
L 63.277469 60.821953 
L 62.849412 60.821953 
L 62.443405 60.821953 
L 62.06294 60.821953 
L 61.711529 60.821953 
L 61.392683 60.821953 
L 61.109902 60.821953 
L 60.866642 60.821953 
L 60.666291 60.821953 
L 60.512133 60.821953 
L 60.407306 60.821953 
L 60.354764 60.821953 
L 60.357231 60.821953 
L 60.417152 60.821953 
L 60.536649 60.821953 
L 60.717477 60.821953 
L 60.960974 60.821953 
L 61.268028 60.821953 
L 61.63904 60.821953 
L 62.073897 60.821953 
L 62.57195 60.821953 
L 63.132004 60.821953 
L 63.752313 60.821953 
L 64.430591 60.821953 
L 65.164023 60.821953 
L 65.949297 60.821953 
L 66.782635 60.821953 
L 67.659839 60.821953 
L 68.576342 60.821953 
L 69.527263 60.821953 
L 70.507472 60.821953 
L 71.511656 60.821953 
L 72.53438 60.821953 
L 73.570163 60.821953 
L 74.613535 60.821953 
L 75.659109 60.821953 
L 76.701631 60.821953 
L 77.736042 60.821953 
L 78.757523 60.821953 
L 79.761536 60.821953 
L 80.743861 60.821953 
L 81.700621 60.821953 
L 82.628304 60.821953 
L 83.523777 60.821953 
L 84.384292 60.821953 
L 85.207487 60.821953 
L 85.991378 60.821953 
L 86.734356 60.821953 
L 87.435165 60.821953 
L 88.092888 60.821953 
L 88.706929 60.821953 
L 89.276983 60.821953 
L 89.803021 60.821953 
L 90.285257 60.821953 
L 90.724128 60.821953 
L 91.120267 60.821953 
L 91.474477 60.821953 
L 91.78771 60.821953 
L 92.061044 60.821953 
L 92.295661 60.821953 
L 92.492826 60.821953 
L 92.653875 60.821953 
L 92.78019 60.821953 
L 92.873194 60.821953 
L 92.934329 60.821953 
L 92.965054 60.821953 
L 92.966826 60.821953 
L 92.9411 60.821953 
L 92.889317 60.821953 
L 92.812901 60.821953 
L 92.713255 60.821953 
L 92.591755 60.821953 
L 92.44975 60.821953 
L 92.288562 60.821953 
L 92.109482 60.821953 
L 91.913772 60.821953 
L 91.702667 60.821953 
L 91.477372 60.821953 
L 91.239069 60.821953 
L 90.988916 60.821953 
L 90.728049 60.821953 
L 90.457587 60.821953 
L 90.178633 60.821953 
L 89.892278 60.821953 
L 89.599604 60.821953 
L 89.301687 60.821953 
L 88.999602 60.821953 
L 88.694425 60.821953 
L 88.387236 60.821953 
L 88.079124 60.821953 
L 87.771192 60.821953 
L 87.464557 60.821953 
L 87.160353 60.821953 
L 86.859741 60.821953 
L 86.563903 60.821953 
L 86.274052 60.821953 
L 85.991431 60.821953 
L 85.717316 60.821953 
L 85.453021 60.821953 
L 85.199894 60.821953 
L 84.959324 60.821953 
L 84.73274 60.821953 
L 84.52161 60.821953 
L 84.327441 60.821953 
L 84.15178 60.821953 
L 83.996206 60.821953 
L 83.862337 60.821953 
L 83.751814 60.821953 
L 83.666306 60.821953 
L 83.607496 60.821953 
L 83.577079 60.821953 
L 83.576747 60.821953 
L 83.608183 60.821953 
L 83.673045 60.821953 
L 83.772954 60.821953 
L 83.909478 60.821953 
L 84.084116 60.821953 
L 84.298275 60.821953 
L 84.553258 60.821953 
L 84.850237 60.821953 
L 85.190232 60.821953 
L 85.574092 60.821953 
L 86.002474 60.821953 
L 86.475813 60.821953 
L 86.994313 60.821953 
L 87.557917 60.821953 
L 88.166297 60.821953 
L 88.818832 60.821953 
L 89.514605 60.821953 
L 90.252385 60.821953 
L 91.030629 60.821953 
L 91.847482 60.821953 
L 92.700778 60.821953 
L 93.588059 60.821953 
L 94.506581 60.821953 
L 95.453344 60.821953 
L 96.425115 60.821953 
L 97.418461 60.821953 
L 98.429784 60.821953 
L 99.455366 60.821953 
L 100.491407 60.821953 
L 101.534075 60.821953 
L 102.579555 60.821953 
L 103.624093 60.821953 
L 104.664048 60.821953 
L 105.695936 60.821953 
L 106.716474 60.821953 
L 107.722622 60.821953 
L 108.711618 60.821953 
L 109.68101 60.821953 
L 110.628681 60.821953 
L 111.55287 60.821953 
L 112.452189 60.821953 
L 113.325628 60.821953 
L 114.17256 60.821953 
L 114.99274 60.821953 
L 115.786294 60.821953 
L 116.553713 60.821953 
L 117.295832 60.821953 
L 118.013813 60.821953 
L 118.709126 60.821953 
L 119.38352 60.821953 
L 120.039003 60.821953 
L 120.677813 60.821953 
L 121.302388 60.821953 
L 121.915344 60.821953 
L 122.51944 60.821953 
L 123.117555 60.821953 
L 123.712656 60.821953 
L 124.307767 60.821953 
L 124.905941 60.821953 
L 125.510228 60.821953 
L 126.123644 60.821953 
L 126.749132 60.821953 
L 127.389535 60.821953 
L 128.047548 60.821953 
L 128.725691 60.821953 
L 129.426258 60.821953 
L 130.151282 60.821953 
L 130.902489 60.821953 
L 131.681259 60.821953 
L 132.488577 60.821953 
L 133.325 60.821953 
L 134.190614 60.821953 
L 135.085005 60.821953 
L 136.00723 60.821953 
L 136.955793 60.821953 
L 137.928642 60.821953 
L 138.923159 60.821953 
L 139.936177 60.821953 
L 140.963995 60.821953 
L 142.00242 60.821953 
L 143.04681 60.821953 
L 144.092133 60.821953 
L 145.133043 60.821953 
L 146.163957 60.821953 
L 147.179148 60.821953 
L 148.172839 60.821953 
L 149.139305 60.821953 
L 150.07297 60.821953 
L 150.968509 60.821953 
L 151.820937 60.821953 
L 152.625697 60.821953 
L 153.378736 60.821953 
L 154.07656 60.821953 
L 154.716294 60.821953 
L 155.295704 60.821953 
L 155.813225 60.821953 
L 156.267958 60.821953 
L 156.659662 60.821953 
L 156.988732 60.821953 
L 157.256159 60.821953 
L 157.463492 60.821953 
L 157.61278 60.821953 
L 157.706523 60.821953 
L 157.747609 60.821953 
L 157.739256 60.821953 
L 157.684958 60.821953 
L 157.588425 60.821953 
L 157.453542 60.821953 
L 157.28432 60.821953 
L 157.084861 60.821953 
L 156.859327 60.821953 
L 156.611918 60.821953 
L 156.346853 60.821953 
L 156.068359 60.821953 
L 155.780667 60.821953 
L 155.488003 60.821953 
L 155.194595 60.821953 
L 154.904671 60.821953 
L 154.62246 60.821953 
L 154.352194 60.821953 
L 154.098108 60.821953 
L 153.86443 60.821953 
L 153.655374 60.821953 
L 153.475124 60.821953 
L 153.327812 60.821953 
L 153.217487 60.821953 
L 153.148084 60.821953 
L 153.123377 60.821953 
L 153.146934 60.821953 
L 153.222061 60.821953 
L 153.351749 60.821953 
L 153.538611 60.821953 
L 153.784825 60.821953 
L 154.092077 60.821953 
L 154.461507 60.821953 
L 154.893666 60.821953 
L 155.388479 60.821953 
L 155.945218 60.821953 
L 156.562495 60.821953 
L 157.238262 60.821953 
L 157.969829 60.821953 
L 158.753903 60.821953 
L 159.586634 60.821953 
L 160.463684 60.821953 
L 161.380297 60.821953 
L 162.331396 60.821953 
L 163.311672 60.821953 
L 164.315688 60.821953 
L 165.337981 60.821953 
L 166.373164 60.821953 
L 167.416021 60.821953 
L 168.4616 60.821953 
L 169.505292 60.821953 
L 170.542903 60.821953 
L 171.570707 60.821953 
L 172.585494 60.821953 
L 173.584598 60.821953 
L 174.565915 60.821953 
L 175.527908 60.821953 
L 176.469598 60.821953 
L 177.390548 60.821953 
L 178.290838 60.821953 
L 179.171028 60.821953 
L 180.032122 60.821953 
L 180.875525 60.821953 
L 181.702989 60.821953 
L 182.516575 60.821953 
L 183.318593 60.821953 
L 184.111557 60.821953 
L 184.898133 60.821953 
L 185.681087 60.821953 
L 186.463237 60.821953 
L 187.247403 60.821953 
L 188.036359 60.821953 
L 188.832784 60.821953 
L 189.639214 60.821953 
L 190.457997 60.821953 
L 191.291246 60.821953 
L 192.140795 60.821953 
L 193.00816 60.821953 
L 193.894497 60.821953 
L 194.800565 60.821953 
L 195.726699 60.821953 
L 196.672784 60.821953 
L 197.638237 60.821953 
L 198.621993 60.821953 
L 199.622509 60.821953 
L 200.637772 60.821953 
L 201.665312 60.821953 
L 202.70224 60.821953 
L 203.745281 60.821953 
L 204.790827 60.821953 
L 205.834996 60.821953 
L 206.873698 60.821953 
L 207.90271 60.821953 
L 208.917752 60.821953 
L 209.914568 60.821953 
L 210.889006 60.821953 
L 211.837094 60.821953 
L 212.755115 60.821953 
L 213.639672 60.821953 
L 214.487747 60.821953 
L 215.296751 60.821953 
L 216.064559 60.821953 
L 216.789538 60.821953 
L 217.470565 60.821953 
L 218.10703 60.821953 
L 218.698829 60.821953 
L 219.246351 60.821953 
L 219.750457 60.821953 
L 220.212447 60.821953 
L 220.634032 60.821953 
L 221.017291 60.821953 
L 221.364632 60.821953 
L 221.678757 60.821953 
L 221.962616 60.821953 
L 222.219372 60.821953 
L 222.452364 60.821953 
L 222.665072 60.821953 
L 222.861085 60.821953 
L 223.044073 60.821953 
L 223.217761 60.821953 
L 223.385903 60.821953 
L 223.55226 60.821953 
L 223.720576 60.821953 
L 223.894561 60.821953 
L 224.077865 60.821953 
L 224.27406 60.821953 
L 224.486614 60.821953 
L 224.718868 60.821953 
L 224.974011 60.821953 
L 225.255054 60.821953 
L 225.564801 60.821953 
L 225.905819 60.821953 
L 226.280412 60.821953 
L 226.690592 60.821953 
L 227.138053 60.821953 
L 227.624145 60.821953 
L 228.149856 60.821953 
L 228.715794 60.821953 
L 229.322179 60.821953 
L 229.968836 60.821953 
L 230.6552 60.821953 
L 231.380327 60.821953 
L 232.142909 60.821953 
L 232.941305 60.821953 
L 233.773569 60.821953 
L 234.637494 60.821953 
L 235.530654 60.821953 
L 236.450455 60.821953 
L 237.394189 60.821953 
L 238.359087 60.821953 
L 239.342373 60.821953 
L 240.341318 60.821953 
L 241.353291 60.821953 
L 242.375799 60.821953 
L 243.406537 60.821953 
L 244.443411 60.821953 
L 245.484573 60.821953 
L 246.528433 60.821953 
L 247.573677 60.821953 
L 248.619265 60.821953 
L 249.664428 60.821953 
L 250.708656 60.821953 
L 251.751679 60.821953 
L 252.793442 60.821953 
L 253.834072 60.821953 
L 254.873843 60.821953 
L 255.913134 60.821953 
L 256.952385 60.821953 
L 257.992045 60.821953 
L 259.032524 60.821953 
L 260.074141 60.821953 
L 261.117065 60.821953 
L 262.161267 60.821953 
L 263.20646 60.821953 
L 264.252052 60.821953 
L 265.297098 60.821953 
L 266.340252 60.821953 
L 267.379731 60.821953 
L 268.413287 60.821953 
L 269.438182 60.821953 
L 270.451178 60.821953 
L 271.448544 60.821953 
L 272.426063 60.821953 
L 273.379072 60.821953 
L 274.302499 60.821953 
L 275.190932 60.821953 
L 276.038691 60.821953 
L 276.839921 60.821953 
L 277.588695 60.821953 
L 278.279128 60.821953 
L 278.905497 60.821953 
L 279.462366 60.821953 
L 279.94471 60.821953 
L 280.348032 60.821953 
L 280.668475 60.821953 
L 280.902918 60.821953 
L 281.049053 60.821953 
L 281.10545 60.821953 
L 281.071588 60.821953 
L 280.947872 60.821953 
L 280.735618 60.821953 
L 280.43702 60.821953 
L 280.055089 60.821953 
L 279.593575 60.821953 
L 279.056871 60.821953 
L 278.449905 60.821953 
L 277.778021 60.821953 
L 277.046858 60.821953 
L 276.262222 60.821953 
L 275.429971 60.821953 
L 274.555901 60.821953 
L 273.645641 60.821953 
L 272.704563 60.821953 
L 271.737706 60.821953 
L 270.749717 60.821953 
L 269.744801 60.821953 
L 268.726691 60.821953 
L 267.698638 60.821953 
L 266.663401 60.821953 
L 265.623265 60.821953 
L 264.580055 60.821953 
L 263.535175 60.821953 
L 262.489639 60.821953 
L 261.444121 60.821953 
L 260.399001 60.821953 
L 259.354421 60.821953 
L 258.310338 60.821953 
L 257.266582 60.821953 
L 256.222911 60.821953 
L 255.179068 60.821953 
L 254.134833 60.821953 
L 253.09008 60.821953 
L 252.044819 60.821953 
L 250.999249 60.821953 
L 249.95379 60.821953 
L 248.909125 60.821953 
L 247.866227 60.821953 
L 246.826379 60.821953 
L 245.791192 60.821953 
L 244.762609 60.821953 
L 243.742904 60.821953 
L 242.734667 60.821953 
L 241.740791 60.821953 
L 240.764434 60.821953 
L 239.808984 60.821953 
L 238.878013 60.821953 
L 237.975221 60.821953 
L 237.104377 60.821953 
L 236.269256 60.821953 
L 235.473571 60.821953 
L 234.720905 60.821953 
L 234.014647 60.821953 
L 233.357925 60.821953 
L 232.753554 60.821953 
L 232.203978 60.821953 
L 231.711232 60.821953 
L 231.276904 60.821953 
L 230.902116 60.821953 
L 230.587507 60.821953 
L 230.333233 60.821953 
L 230.138971 60.821953 
L 230.003941 60.821953 
L 229.926926 60.821953 
L 229.906305 60.821953 
L 229.940093 60.821953 
L 230.025981 60.821953 
L 230.161376 60.821953 
L 230.343452 60.821953 
L 230.569188 60.821953 
L 230.835411 60.821953 
L 231.138839 60.821953 
L 231.476108 60.821953 
L 231.843806 60.821953 
L 232.238498 60.821953 
L 232.656746 60.821953 
L 233.095117 60.821953 
L 233.550202 60.821953 
L 234.018612 60.821953 
L 234.496981 60.821953 
L 234.981966 60.821953 
L 235.470236 60.821953 
L 235.958466 60.821953 
L 236.44333 60.821953 
L 236.921489 60.821953 
L 237.389584 60.821953 
L 237.844231 60.821953 
L 238.282013 60.821953 
L 238.69948 60.821953 
L 239.093153 60.821953 
L 239.459531 60.821953 
L 239.795098 60.821953 
L 240.096347 60.821953 
L 240.359796 60.821953 
L 240.582019 60.821953 
L 240.759676 60.821953 
L 240.889551 60.821953 
L 240.968591 60.821953 
L 240.993953 60.821953 
L 240.963045 60.821953 
L 240.873579 60.821953 
L 240.723611 60.821953 
L 240.511589 60.821953 
L 240.236395 60.821953 
L 239.89738 60.821953 
L 239.494398 60.821953 
L 239.027828 60.821953 
L 238.498591 60.821953 
L 237.908157 60.821953 
L 237.258544 60.821953 
L 236.552305 60.821953 
L 235.792508 60.821953 
L 234.982702 60.821953 
L 234.126882 60.821953 
L 233.229437 60.821953 
L 232.295098 60.821953 
L 231.328879 60.821953 
L 230.336009 60.821953 
L 229.321871 60.821953 
L 228.291932 60.821953 
L 227.251674 60.821953 
L 226.206535 60.821953 
L 225.161842 60.821953 
L 224.122756 60.821953 
L 223.094224 60.821953 
L 222.080929 60.821953 
L 221.087254 60.821953 
L 220.117249 60.821953 
L 219.174612 60.821953 
L 218.262667 60.821953 
L 217.384353 60.821953 
L 216.542227 60.821953 
L 215.738459 60.821953 
L 214.974846 60.821953 
L 214.252817 60.821953 
L 213.573457 60.821953 
L 212.93752 60.821953 
L 212.345452 60.821953 
L 211.797418 60.821953 
L 211.293322 60.821953 
L 210.832836 60.821953 
L 210.415421 60.821953 
L 210.040357 60.821953 
L 209.706763 60.821953 
L 209.413621 60.821953 
L 209.159799 60.821953 
L 208.944071 60.821953 
L 208.765134 60.821953 
L 208.621628 60.821953 
L 208.512148 60.821953 
L 208.43526 60.821953 
L 208.389512 60.821953 
L 208.373446 60.821953 
L 208.385604 60.821953 
L 208.424538 60.821953 
L 208.488814 60.821953 
L 208.577019 60.821953 
L 208.687762 60.821953 
L 208.819682 60.821953 
L 208.971441 60.821953 
L 209.141735 60.821953 
L 209.329286 60.821953 
L 209.532846 60.821953 
L 209.751196 60.821953 
L 209.983141 60.821953 
L 210.227512 60.821953 
L 210.483163 60.821953 
L 210.748966 60.821953 
L 211.023811 60.821953 
L 211.306601 60.821953 
L 211.59625 60.821953 
z
"/>
   </g>
  </g>
 </g>
 <defs>
  <clipPath id="pa342ff4ee1">
   <rect height="266.112" width="286.948566" x="7.2" y="7.2"/>
  </clipPath>
 </defs>
</svg>
