<?xml version="1.0" encoding="utf-8" standalone="no"?>
<!DOCTYPE svg PUBLIC "-//W3C//DTD SVG 1.1//EN"
  "http://www.w3.org/Graphics/SVG/1.1/DTD/svg11.dtd">
<svg height="259.819509pt" version="1.1" viewBox="0 0 371.52 259.819509" width="371.52pt" xmlns="http://www.w3.org/2000/svg" xmlns:xlink="http://www.w3.org/1999/xlink">
 <metadata>
  <rdf:RDF xmlns:cc="http://creativecommons.org/ns#" xmlns:dc="http://purl.org/dc/elements/1.1/" xmlns:rdf="http://www.w3.org/1999/02/22-rdf-syntax-ns#">
   <cc:Work>
    <dc:type rdf:resource="http://purl.org/dc/dcmitype/StillImage"/>
    <dc:date>2022-11-22T17:12:34.123539</dc:date>
    <dc:format>image/svg+xml</dc:format>
    <dc:creator>
     <cc:Agent>
      <dc:title>Matplotlib v3.4.2, https://matplotlib.org/</dc:title>
     </cc:Agent>
    </dc:creator>
   </cc:Work>
  </rdf:RDF>
 </metadata>
 <defs>
  <style type="text/css">*{stroke-linecap:butt;stroke-linejoin:round;}</style>
 </defs>
 <g id="figure_1">
  <g id="patch_1">
   <path d="M 0 259.819509 
L 371.52 259.819509 
L 371.52 0 
L 0 0 
z
" style="fill:none;"/>
  </g>
  <g id="axes_1">
   <g id="PolyCollection_1">
    <path clip-path="url(#pcbb0ed4c51)" d="M 308.993968 69.319701 
L 308.993968 69.319701 
L 307.290243 69.637463 
L 305.586135 69.953165 
L 303.884912 70.284065 
L 302.190281 70.647217 
L 300.50687 71.059259 
L 298.840677 71.536181 
L 297.199463 72.093021 
L 295.593061 72.7435 
L 294.033579 73.499589 
L 292.535483 74.371002 
L 291.115517 75.364657 
L 289.792461 76.48411 
L 288.586696 77.729013 
L 287.519592 79.094642 
L 286.612717 80.571541 
L 285.886906 82.145343 
L 285.361225 83.7968 
L 285.051903 85.502079 
L 284.971294 87.233308 
L 285.126948 88.959409 
L 285.520883 90.64715 
L 286.149098 92.262389 
L 287.001417 93.77143 
L 288.061652 95.142399 
L 289.308117 96.34655 
L 290.714447 97.35941 
L 292.250677 98.16169 
L 293.88449 98.739884 
L 295.582569 99.086553 
L 297.31194 99.200264 
L 299.041223 99.085225 
L 300.741726 98.750649 
L 302.38832 98.209926 
L 303.960059 97.479659 
L 305.440549 96.578659 
L 306.818071 95.526952 
L 308.085477 94.344863 
L 309.239928 93.052231 
L 310.282488 91.667774 
L 311.217642 90.208617 
L 312.05278 88.69 
L 312.797678 87.125142 
L 313.464003 85.525247 
L 314.064876 83.899638 
L 314.614481 82.255987 
L 315.127737 80.600626 
L 315.62002 78.938907 
L 316.106927 77.275604 
L 316.604061 75.61533 
L 317.126833 73.962949 
L 317.690243 72.323979 
L 318.308648 70.704959 
L 318.99549 69.113764 
L 319.762981 67.559862 
L 320.621739 66.054476 
L 321.580392 64.610648 
L 322.645143 63.243184 
L 323.819344 61.968466 
L 325.103071 60.804122 
L 326.492768 59.768557 
L 327.980974 58.88036 
L 329.556173 58.157586 
L 331.202805 57.616977 
L 332.901459 57.273135 
L 334.629265 57.137712 
L 336.360478 57.218668 
L 338.067246 57.519658 
L 339.720526 58.039581 
L 341.291095 58.772359 
L 342.750619 59.706941 
L 344.072684 60.827565 
L 345.233756 62.114252 
L 346.213993 63.543514 
L 346.997864 65.089218 
L 347.574543 66.723566 
L 347.938071 68.418116 
L 348.087273 70.144787 
L 348.025459 71.876789 
L 347.75995 73.589436 
L 347.301459 75.260794 
L 346.663387 76.872165 
L 345.861076 78.408378 
L 344.911071 79.857911 
L 343.830437 81.212858 
L 342.636138 82.468765 
L 341.344532 83.624364 
L 339.97097 84.681237 
L 338.529511 85.643446 
L 337.032744 86.517141 
L 335.491724 87.31018 
L 333.915983 88.03177 
L 332.313623 88.692145 
L 330.691465 89.302274 
L 329.055243 89.873615 
L 327.409825 90.417905 
L 325.759449 90.946975 
L 324.107972 91.472594 
L 322.459101 92.006334 
L 320.816622 92.559431 
L 319.184601 93.142663 
L 317.567558 93.76622 
L 315.970607 94.439571 
L 314.399558 95.17132 
L 312.860969 95.969065 
L 311.362159 96.839251 
L 309.911167 97.787025 
L 308.516662 98.816107 
L 307.187811 99.928674 
L 305.934101 101.125279 
L 304.765128 102.404793 
L 303.690362 103.7644 
L 302.718894 105.199636 
L 301.85918 106.704477 
L 301.118796 108.271475 
L 300.504216 109.891952 
L 300.020618 111.556219 
L 299.671738 113.253846 
L 299.459773 114.97394 
L 299.385334 116.705445 
L 299.44746 118.437437 
L 299.643676 120.159398 
L 299.970105 121.861485 
L 300.421617 123.534742 
L 300.992013 125.171293 
L 301.67422 126.764481 
L 302.460504 128.308958 
L 303.342683 129.800741 
L 304.312322 131.237213 
L 305.360925 132.617099 
L 306.480089 133.940399 
L 307.661641 135.208306 
L 308.897744 136.423091 
L 310.180969 137.587989 
L 311.504341 138.707069 
L 312.861358 139.785103 
L 314.245987 140.827435 
L 315.652633 141.839858 
L 317.076098 142.828493 
L 318.511531 143.79967 
L 319.954357 144.75983 
L 321.400214 145.715419 
L 322.844888 146.672796 
L 324.284243 147.63815 
L 325.714169 148.617419 
L 327.130527 149.616209 
L 328.529117 150.639732 
L 329.905645 151.692739 
L 331.255716 152.779459 
L 332.574832 153.903553 
L 333.858407 155.068065 
L 335.101794 156.275393 
L 336.300327 157.52726 
L 337.449366 158.824704 
L 338.544359 160.168075 
L 339.580901 161.557044 
L 340.5548 162.990631 
L 341.462145 164.467242 
L 342.299366 165.984711 
L 343.063294 167.540368 
L 343.75121 169.131099 
L 344.360885 170.753427 
L 344.890609 172.403592 
L 345.339215 174.077631 
L 345.706075 175.771463 
L 345.991105 177.480969 
L 346.194739 179.202069 
L 346.317905 180.930792 
L 346.361989 182.663337 
L 346.328789 184.396124 
L 346.220467 186.12584 
L 346.039494 187.84947 
L 345.788597 189.564319 
L 345.4707 191.268019 
L 345.08887 192.958539 
L 344.646264 194.634174 
L 344.146078 196.293532 
L 343.591503 197.935512 
L 342.985679 199.559282 
L 342.33166 201.164247 
L 341.632379 202.750015 
L 340.890624 204.316365 
L 340.109008 205.86321 
L 339.289954 207.390562 
L 338.435676 208.898495 
L 337.548168 210.387112 
L 336.629194 211.856514 
L 335.680285 213.306764 
L 334.702733 214.737863 
L 333.69759 216.14972 
L 332.665676 217.542131 
L 331.607578 218.914749 
L 330.523661 220.267072 
L 329.41408 221.598418 
L 328.278789 222.907909 
L 327.117565 224.194459 
L 325.930021 225.456756 
L 324.715634 226.69325 
L 323.473771 227.902146 
L 322.20372 229.081393 
L 320.904722 230.228675 
L 319.576012 231.341412 
L 318.21686 232.416754 
L 316.826616 233.451584 
L 315.404756 234.442527 
L 313.950935 235.385955 
L 312.465036 236.278008 
L 310.947227 237.114614 
L 309.39801 237.891516 
L 307.818272 238.604314 
L 306.209336 239.248502 
L 304.573003 239.819525 
L 302.911588 240.312834 
L 301.227952 240.723959 
L 299.52552 241.048576 
L 297.808286 241.282591 
L 296.080815 241.422221 
L 294.348216 241.464077 
L 292.616109 241.40525 
L 290.890579 241.24339 
L 289.178103 240.976782 
L 287.485475 240.60441 
L 285.819705 240.126011 
L 284.187922 239.542115 
L 282.597249 238.854064 
L 281.054692 238.064019 
L 279.56701 237.174944 
L 278.140598 236.190565 
L 276.781368 235.115323 
L 275.494643 233.954292 
L 274.285064 232.713094 
L 273.156507 231.397795 
L 272.112021 230.01479 
L 271.153785 228.570686 
L 270.283087 227.072174 
L 269.500311 225.525916 
L 268.80496 223.938421 
L 268.195679 222.315944 
L 267.670307 220.664388 
L 267.225926 218.989223 
L 266.858935 217.29542 
L 266.565115 215.587402 
L 266.339712 213.869018 
L 266.177506 212.14352 
L 266.072888 210.413575 
L 266.019932 208.68128 
L 266.012454 206.948191 
L 266.044075 205.215374 
L 266.108273 203.483459 
L 266.198422 201.7527 
L 266.307838 200.023052 
L 266.429808 198.294244 
L 266.55762 196.565858 
L 266.684589 194.837411 
L 266.804085 193.10843 
L 266.909552 191.378537 
L 266.994539 189.647517 
L 267.052727 187.915389 
L 267.077962 186.182468 
L 267.064289 184.449417 
L 267.005996 182.717292 
L 266.897656 180.987577 
L 266.734175 179.2622 
L 266.510846 177.543544 
L 266.223396 175.834443 
L 265.868041 174.13816 
L 265.441533 172.458355 
L 264.941208 170.79904 
L 264.365018 169.164519 
L 263.711567 167.559323 
L 262.980128 165.988129 
L 262.17065 164.455681 
L 261.283754 162.966698 
L 260.320717 161.525791 
L 259.28344 160.137372 
L 258.174403 158.805572 
L 256.996613 157.53417 
L 255.753538 156.32652 
L 254.449035 155.185501 
L 253.087271 154.11347 
L 251.672642 153.112232 
L 250.20969 152.183025 
L 248.703025 151.326513 
L 247.157243 150.542797 
L 245.576859 149.831431 
L 243.966243 149.191456 
L 242.329561 148.621434 
L 240.670732 148.119498 
L 238.993393 147.683393 
L 237.30087 147.31054 
L 235.596164 146.998082 
L 233.881942 146.742942 
L 232.16054 146.541878 
L 230.433968 146.391534 
L 228.703929 146.288491 
L 226.971835 146.229311 
L 225.238831 146.210582 
L 223.505823 146.228955 
L 221.773505 146.281182 
L 220.042387 146.364144 
L 218.312824 146.474884 
L 216.585043 146.610629 
L 214.859172 146.768808 
L 213.13526 146.947081 
L 211.413303 147.143343 
L 209.693263 147.355747 
L 207.975084 147.58271 
L 206.258707 147.822924 
L 204.544085 148.07536 
L 202.831192 148.339275 
L 201.120033 148.614212 
L 199.410654 148.9 
L 197.703143 149.19675 
L 195.997645 149.504852 
L 194.294359 149.824965 
L 192.593554 150.158006 
L 190.89557 150.50514 
L 189.200826 150.867763 
L 187.509831 151.247483 
L 185.82319 151.6461 
L 184.141617 152.065582 
L 182.465943 152.508041 
L 180.797127 152.975703 
L 179.136266 153.470874 
L 177.484605 153.995915 
L 175.843542 154.553198 
L 174.214635 155.145074 
L 172.599608 155.773833 
L 171.000341 156.441666 
L 169.418875 157.150622 
L 167.857395 157.902573 
L 166.318213 158.699175 
L 164.803754 159.541829 
L 163.31652 160.431653 
L 161.859059 161.369449 
L 160.433929 162.355682 
L 159.043648 163.390464 
L 157.690651 164.473539 
L 156.377231 165.604282 
L 155.10549 166.781707 
L 153.877283 168.004475 
L 152.694162 169.270917 
L 151.557324 170.579066 
L 150.467564 171.926684 
L 149.42523 173.311312 
L 148.43019 174.730308 
L 147.481795 176.180894 
L 146.578863 177.660207 
L 145.719664 179.165341 
L 144.901911 180.69339 
L 144.122768 182.241482 
L 143.378854 183.806808 
L 142.666269 185.386642 
L 141.980607 186.978346 
L 141.316996 188.579368 
L 140.670125 190.187228 
L 140.034291 191.799483 
L 139.403437 193.413694 
L 138.771209 195.027367 
L 138.131006 196.637893 
L 137.476047 198.242474 
L 136.799438 199.838047 
L 136.094252 201.421198 
L 135.353617 202.988078 
L 134.570818 204.534324 
L 133.739406 206.054985 
L 132.85333 207.544455 
L 131.907066 208.996432 
L 130.895773 210.40389 
L 129.815447 211.759084 
L 128.663082 213.053575 
L 127.436835 214.278308 
L 126.136177 215.423708 
L 124.762038 216.479831 
L 123.316921 217.436539 
L 121.804993 218.283726 
L 120.232126 219.01156 
L 118.605897 219.610755 
L 116.935533 220.072856 
L 115.231789 220.390516 
L 113.506774 220.557773 
L 111.773714 220.570287 
L 110.046664 220.425537 
L 108.340174 220.122974 
L 106.668923 219.664093 
L 105.047337 219.052446 
L 103.489208 218.293574 
L 102.007327 217.394862 
L 100.613151 216.365334 
L 99.316521 215.215377 
L 98.125429 213.956427 
L 97.045868 212.600625 
L 96.081735 211.160451 
L 95.234821 209.64837 
L 94.50485 208.076493 
L 93.889588 206.456276 
L 93.38499 204.798254 
L 92.985383 203.111848 
L 92.68367 201.405207 
L 92.471534 199.685134 
L 92.339648 197.957054 
L 92.277865 196.225051 
L 92.275379 194.491948 
L 92.320877 192.75944 
L 92.402647 191.028265 
L 92.508668 189.298406 
L 92.626677 187.569323 
L 92.744216 185.840209 
L 92.848678 184.110255 
L 92.927348 182.378936 
L 92.967455 180.646295 
L 92.956254 178.913226 
L 92.881131 177.18175 
L 92.729752 175.455269 
L 92.490261 173.738791 
L 92.151524 172.039111 
L 91.703429 170.364936 
L 91.137218 168.726931 
L 90.44587 167.137689 
L 89.624485 165.61159 
L 88.670671 164.164561 
L 87.584907 162.813721 
L 86.370833 161.576919 
L 85.035467 160.472179 
L 83.589299 159.517062 
L 82.046243 158.727991 
L 80.423449 158.119557 
L 78.740936 157.703862 
L 77.021086 157.489927 
L 75.287994 157.48322 
L 73.566714 157.685332 
L 71.882437 158.093823 
L 70.259647 158.702269 
L 68.721306 159.500492 
L 67.288111 160.474968 
L 65.977869 161.609392 
L 64.805023 162.885357 
L 63.780339 164.283097 
L 62.910778 165.782268 
L 62.199524 167.362702 
L 61.646176 169.005096 
L 61.247054 170.691618 
L 60.995598 172.406384 
L 60.882821 174.135816 
L 60.897777 175.868856 
L 61.028022 177.59706 
L 61.260026 179.314566 
L 61.579528 181.017966 
L 61.97182 182.70609 
L 62.421947 184.37972 
L 62.914836 186.041259 
L 63.435349 187.694353 
L 63.968282 189.343485 
L 64.498325 190.993548 
L 65.009999 192.649399 
L 65.487592 194.315399 
L 65.915125 195.994944 
L 66.276358 197.689984 
L 66.554878 199.400563 
L 66.734268 201.124359 
L 66.798392 202.856277 
L 66.731796 204.588102 
L 66.520228 206.308246 
L 66.151279 208.001624 
L 65.615101 209.649703 
L 64.905194 211.230743 
L 64.019194 212.720258 
L 62.959605 214.091726 
L 61.734413 215.317515 
L 60.357507 216.370028 
L 58.848834 217.222998 
L 57.234242 217.852875 
L 55.544974 218.240209 
L 53.816806 218.37093 
L 52.088851 218.237425 
L 50.402092 217.839309 
L 48.797728 217.183817 
L 47.315442 216.285773 
L 45.991717 215.167111 
L 44.858313 213.855986 
L 43.941027 212.385531 
L 43.258811 210.792347 
L 42.823305 209.114853 
L 42.638795 207.391597 
L 42.702584 205.659666 
L 43.005707 203.953276 
L 43.533928 202.302629 
L 44.268909 200.733089 
L 45.189466 199.264678 
L 46.272809 197.911896 
L 47.495698 196.683809 
L 48.835442 195.584383 
L 50.270715 194.612969 
L 51.782149 193.764901 
L 53.352726 193.032138 
L 54.967957 192.403902 
L 56.615891 191.867275 
L 58.28696 191.407731 
L 59.973712 191.009584 
L 61.670439 190.656357 
L 63.372745 190.331075 
L 65.077063 190.016507 
L 66.780153 189.695355 
L 68.478589 189.35044 
L 70.168265 188.964888 
L 71.843918 188.522353 
L 73.498715 188.007279 
L 75.123891 187.405236 
L 76.708494 186.70332 
L 78.239237 185.890622 
L 79.700496 184.958756 
L 81.074467 183.902414 
L 82.341504 182.719929 
L 83.480642 181.413783 
L 84.470305 179.991032 
L 85.289166 178.463577 
L 85.917144 176.848245 
L 86.336455 175.166629 
L 86.532684 173.444669 
L 86.495774 171.711957 
L 86.220864 170.000795 
L 85.708903 168.345032 
L 84.96698 166.778762 
L 84.00832 165.334939 
L 82.851945 164.044029 
L 81.521998 162.93277 
L 80.046795 162.02314 
L 78.457639 161.331592 
L 76.787519 160.868611 
L 75.069744 160.638606 
L 73.33664 160.640126 
L 71.618365 160.866368 
L 69.941925 161.305915 
L 68.33042 161.943648 
L 66.802548 162.761731 
L 65.372367 163.740627 
L 64.049287 164.860052 
L 62.838258 166.099835 
L 61.740111 167.440628 
L 60.752009 168.864463 
L 59.867948 170.35513 
L 59.079281 171.898393 
L 58.375229 173.482048 
L 57.743344 175.095855 
L 57.169931 176.731352 
L 56.6404 178.381579 
L 56.139572 180.040743 
L 55.651932 181.703831 
L 55.161854 183.366202 
L 54.653807 185.023169 
L 54.112557 186.66959 
L 53.523394 188.299479 
L 52.872381 189.905666 
L 52.14665 191.479505 
L 51.334738 193.010665 
L 50.426971 194.487015 
L 49.415876 195.894616 
L 48.296623 197.217842 
L 47.06745 198.439638 
L 45.730054 199.54192 
L 44.289918 200.506109 
L 42.756521 201.313789 
L 41.143413 201.947459 
L 39.468117 202.391343 
L 37.751832 202.632218 
L 36.018953 202.66019 
L 34.296383 202.469385 
L 32.612693 202.058482 
L 30.997146 201.431058 
L 29.478654 200.595693 
L 28.084717 199.565842 
L 26.84042 198.359451 
L 25.767543 196.998353 
L 24.883835 195.507476 
L 24.202511 193.913911 
L 23.731965 192.245906 
L 23.475743 190.531846 
L 23.432727 188.799275 
L 23.597532 187.074023 
L 23.961056 185.379472 
L 24.511151 183.735986 
L 25.233353 182.160525 
L 26.111626 180.66644 
L 27.129086 179.263433 
L 28.268646 177.957655 
L 29.513588 176.751931 
L 30.848015 175.646056 
L 32.257194 174.637162 
L 33.727786 173.720095 
L 35.247965 172.887803 
L 36.807444 172.13171 
L 38.397424 171.442059 
L 40.010462 170.808214 
L 41.640309 170.218933 
L 43.281693 169.662595 
L 44.93009 169.127394 
L 46.581484 168.601511 
L 48.232121 168.073259 
L 49.878282 167.53122 
L 51.516065 166.96437 
L 53.141197 166.362207 
L 54.748875 165.714885 
L 56.333647 165.013352 
L 57.889334 164.249486 
L 59.408994 163.416248 
L 60.884942 162.507825 
L 62.308809 161.519768 
L 63.671657 160.449116 
L 64.964136 159.294494 
L 66.176676 158.056188 
L 67.299711 156.736171 
L 68.32393 155.338091 
L 69.240529 153.867207 
L 70.041461 152.330275 
L 70.719675 150.735383 
L 71.269324 149.091748 
L 71.685936 147.409461 
L 71.966534 145.699222 
L 72.109713 143.972042 
L 72.115652 142.238947 
L 71.986082 140.510692 
L 71.724193 138.797488 
L 71.334509 137.108761 
L 70.822721 135.452945 
L 70.195489 133.837324 
L 69.460244 132.267907 
L 68.62497 130.749365 
L 67.697998 129.284996 
L 66.687817 127.876739 
L 65.602895 126.525223 
L 64.451534 125.229838 
L 63.241751 123.988839 
L 61.981186 122.799457 
L 60.677046 121.658024 
L 59.336068 120.560103 
L 57.964519 119.500619 
L 56.568208 118.473988 
L 55.152526 117.47424 
L 53.722489 116.495134 
L 52.282803 115.530273 
L 50.837927 114.573202 
L 49.392141 113.617505 
L 47.949612 112.656899 
L 46.514457 111.685311 
L 45.090795 110.696959 
L 43.682791 109.686427 
L 42.294689 108.648724 
L 40.930833 107.579355 
L 39.595671 106.474368 
L 38.293748 105.330406 
L 37.029684 104.144744 
L 35.808141 102.915319 
L 34.633779 101.64075 
L 33.511201 100.320343 
L 32.444895 98.954091 
L 31.439167 97.542651 
L 30.498076 96.087316 
L 29.625371 94.589972 
L 28.824427 93.053046 
L 28.098195 91.479439 
L 27.449153 89.872455 
L 26.879273 88.235723 
L 26.389996 86.573116 
L 25.982219 84.888667 
L 25.656296 83.186484 
L 25.41205 81.470676 
L 25.248795 79.745277 
L 25.16537 78.014181 
L 25.160177 76.281084 
L 25.231229 74.549436 
L 25.376203 72.822405 
L 25.592493 71.102849 
L 25.877265 69.3933 
L 26.227519 67.695957 
L 26.640135 66.012686 
L 27.111931 64.345034 
L 27.639708 62.694245 
L 28.220296 61.061281 
L 28.850592 59.446853 
L 29.527601 57.851449 
L 30.248456 56.275372 
L 31.010457 54.71877 
L 31.811082 53.181678 
L 32.648011 51.664048 
L 33.51914 50.165786 
L 34.422587 48.686787 
L 35.356704 47.226966 
L 36.320082 45.786287 
L 37.311546 44.364791 
L 38.330162 42.962623 
L 39.375227 41.580056 
L 40.446267 40.217511 
L 41.543023 38.87558 
L 42.665442 37.555039 
L 43.813661 36.256869 
L 44.987987 34.982267 
L 46.18888 33.732663 
L 47.41692 32.509727 
L 48.672784 31.315383 
L 49.957212 30.151813 
L 51.270972 29.021464 
L 52.614815 27.927051 
L 53.989438 26.871559 
L 55.395435 25.858234 
L 56.833246 24.890581 
L 58.303107 23.972344 
L 59.805002 23.107493 
L 61.338601 22.300197 
L 62.903216 21.554789 
L 64.497747 20.875728 
L 66.120638 20.267553 
L 67.769835 19.734821 
L 69.442753 19.282053 
L 71.13625 18.913654 
L 72.846619 18.633843 
L 74.569576 18.446571 
L 76.300283 18.355432 
L 78.033369 18.363587 
L 79.762974 18.473675 
L 81.482808 18.687737 
L 83.186226 19.007146 
L 84.866311 19.432547 
L 86.515981 19.963811 
L 88.128095 20.600004 
L 89.695573 21.339373 
L 91.211518 22.179352 
L 92.669337 23.116591 
L 94.062862 24.146998 
L 95.386465 25.265806 
L 96.63515 26.467653 
L 97.804652 27.746683 
L 98.891502 29.096651 
L 99.893079 30.511039 
L 100.807651 31.983185 
L 101.634381 33.506395 
L 102.373327 35.074072 
L 103.025422 36.67982 
L 103.592429 38.317549 
L 104.076897 39.981563 
L 104.482093 41.666636 
L 104.811936 43.368063 
L 105.070922 45.081708 
L 105.264048 46.804019 
L 105.396737 48.532038 
L 105.474766 50.263385 
L 105.504197 51.99624 
L 105.491318 53.729298 
L 105.442585 55.461717 
L 105.36458 57.193066 
L 105.263959 58.923248 
L 105.147426 60.65243 
L 105.021698 62.380969 
L 104.893474 64.109324 
L 104.769416 65.837983 
L 104.656122 67.567381 
L 104.560096 69.297824 
L 104.487728 71.029417 
L 104.445259 72.762002 
L 104.438748 74.495095 
L 104.474033 76.227841 
L 104.556691 77.958973 
L 104.691987 79.686789 
L 104.88483 81.409132 
L 105.139715 83.123392 
L 105.460677 84.826517 
L 105.851238 86.515042 
L 106.314359 88.185123 
L 106.852401 89.832595 
L 107.467088 91.453031 
L 108.159484 93.041817 
L 108.929979 94.594232 
L 109.778285 96.105532 
L 110.703451 97.571043 
L 111.703883 98.986242 
L 112.777385 100.346848 
L 113.921204 101.648896 
L 115.132096 102.888813 
L 116.406389 104.063475 
L 117.740059 105.170261 
L 119.128817 106.207086 
L 120.568181 107.172428 
L 122.053567 108.065334 
L 123.580361 108.885426 
L 125.144001 109.632879 
L 126.740035 110.308399 
L 128.364191 110.913189 
L 130.012419 111.448909 
L 131.680939 111.917626 
L 133.366265 112.321764 
L 135.065234 112.664048 
L 136.775011 112.947451 
L 138.493094 113.175139 
L 140.217313 113.350419 
L 141.945812 113.476682 
L 143.677038 113.557365 
L 145.409715 113.595896 
L 147.14282 113.595661 
L 148.875557 113.559962 
L 150.607329 113.491987 
L 152.337705 113.394777 
L 154.066399 113.2712 
L 155.793236 113.123931 
L 157.51813 112.955427 
L 159.241061 112.767912 
L 160.962053 112.563365 
L 162.681155 112.3435 
L 164.398426 112.109766 
L 166.113921 111.86333 
L 167.827677 111.605079 
L 169.539706 111.335614 
L 171.249983 111.055248 
L 172.958442 110.76401 
L 174.664968 110.46165 
L 176.369389 110.147641 
L 178.071472 109.821195 
L 179.770914 109.481268 
L 181.467336 109.126577 
L 183.160275 108.755619 
L 184.849176 108.366687 
L 186.533379 107.957893 
L 188.212114 107.527194 
L 189.884487 107.072418 
L 191.549471 106.591294 
L 193.205897 106.081484 
L 194.852444 105.540618 
L 196.487634 104.96633 
L 198.109827 104.356293 
L 199.717219 103.708264 
L 201.30785 103.020116 
L 202.879605 102.289883 
L 204.430232 101.515798 
L 205.957361 100.696329 
L 207.458525 99.83021 
L 208.931192 98.91648 
L 210.372806 97.954502 
L 211.780822 96.943985 
L 213.152758 95.885002 
L 214.486243 94.777992 
L 215.779072 93.623762 
L 217.029259 92.423477 
L 218.235097 91.178644 
L 219.395202 89.891085 
L 220.508573 88.562907 
L 221.574634 87.196463 
L 222.593273 85.794312 
L 223.564877 84.359168 
L 224.490358 82.893856 
L 225.371173 81.401269 
L 226.209328 79.884315 
L 227.007388 78.345889 
L 227.768461 76.788834 
L 228.49619 75.215919 
L 229.194733 73.629826 
L 229.868732 72.033148 
L 230.523284 70.428401 
L 231.1639 68.818039 
L 231.796468 67.204499 
L 232.427198 65.59024 
L 233.062575 63.977805 
L 233.709299 62.369886 
L 234.374217 60.769406 
L 235.06425 59.179592 
L 235.786309 57.604066 
L 236.547201 56.046922 
L 237.353522 54.51281 
L 238.211539 53.007002 
L 239.127058 51.535445 
L 240.10528 50.104804 
L 241.150647 48.722465 
L 242.266686 47.396527 
L 243.45584 46.135748 
L 244.719315 44.949457 
L 246.056926 43.847436 
L 247.466969 42.83975 
L 248.946118 41.93655 
L 250.489357 41.147838 
L 252.089957 40.483208 
L 253.739505 39.951566 
L 255.427994 39.560848 
L 257.143963 39.31774 
L 258.874713 39.227422 
L 260.606564 39.293345 
L 262.325169 39.51706 
L 264.015868 39.898098 
L 265.664059 40.433933 
L 267.255587 41.120005 
L 268.777114 41.949828 
L 270.21648 42.915168 
L 271.563002 44.006282 
L 272.80774 45.212218 
L 273.943686 46.521141 
L 274.965888 47.920696 
L 275.871504 49.398367 
L 276.659787 50.941826 
L 277.332007 52.539253 
L 277.891325 54.179623 
L 278.342624 55.852938 
L 278.692316 57.550398 
L 278.948134 59.264519 
L 279.118923 60.989188 
L 279.214444 62.719658 
L 279.245193 64.452491 
L 279.222245 66.185444 
L 279.157126 67.917325 
L 279.061712 69.647802 
L 278.948151 71.377182 
L 278.82881 73.106173 
L 278.716225 74.835618 
L 278.623065 76.566217 
L 278.56208 78.298249 
L 278.546039 80.03128 
L 278.587637 81.763885 
L 278.699372 83.493385 
L 278.893363 85.215598 
L 279.181142 86.924644 
L 279.57337 88.612782 
L 280.079528 90.270328 
L 280.707553 91.885641 
L 281.463455 93.445213 
L 282.350927 94.933852 
L 283.370967 96.334984 
L 284.521548 97.631061 
L 285.797362 98.804072 
L 287.189657 99.836141 
L 288.686217 100.710189 
L 290.271475 101.410625 
L 291.926793 101.924022 
L 293.630896 102.239752 
L 295.360458 102.35052 
L 297.090804 102.252766 
L 298.796706 101.946908 
L 300.453223 101.437394 
L 302.036533 100.732566 
L 303.524721 99.844338 
L 304.898465 98.787701 
L 306.14159 97.580102 
L 307.241464 96.240726 
L 308.189217 94.78972 
L 308.979793 93.247436 
L 309.611831 91.633688 
L 310.087415 89.967113 
L 310.411722 88.264621 
L 310.592581 86.540979 
L 310.64002 84.808523 
L 310.565786 83.077008 
L 310.382918 81.353578 
L 310.105349 79.642845 
L 309.747594 77.947066 
L 309.324505 76.266397 
L 308.851108 74.599199 
L 308.342512 72.9424 
L 307.813883 71.291884 
L 307.280472 69.642907 
L 306.757666 67.990537 
L 306.261051 66.330107 
L 305.806474 64.65768 
L 305.410047 62.970523 
L 305.088113 61.267581 
L 304.857116 59.549939 
L 304.733374 57.821257 
L 304.73274 56.088152 
L 304.870139 54.360502 
L 305.158989 52.651638 
L 305.610512 50.978383 
L 306.232982 49.360921 
L 307.030928 47.822436 
L 308.004366 46.388536 
L 309.148117 45.086427 
L 310.45128 43.943877 
L 311.896939 42.98799 
L 313.462156 42.243847 
L 315.118299 41.733118 
L 316.831729 41.472713 
L 318.564834 41.473591 
L 320.277368 41.739826 
L 321.928025 42.268014 
L 323.476149 43.047096 
L 324.883452 44.058605 
L 326.115639 45.277361 
L 327.143797 46.672547 
L 327.945466 48.209096 
L 328.505318 49.849284 
L 328.815412 51.554422 
L 328.875023 53.286501 
L 328.690091 55.009712 
L 328.272355 56.691719 
L 327.638254 58.304657 
L 326.807708 59.825791 
L 325.802856 61.237855 
L 324.646848 62.529094 
L 323.362764 63.693044 
L 321.9727 64.728117 
L 320.497066 65.637049 
L 318.954089 66.426274 
L 317.359535 67.10528 
L 315.726612 67.685984 
L 314.066055 68.182171 
L 312.386331 68.608999 
L 310.693971 68.982589 
L 308.993968 69.319701 
L 308.993968 69.319701 
L 308.993968 69.319701 
L 310.693971 69.319701 
L 312.386331 69.319701 
L 314.066055 69.319701 
L 315.726612 69.319701 
L 317.359535 69.319701 
L 318.954089 69.319701 
L 320.497066 69.319701 
L 321.9727 69.319701 
L 323.362764 69.319701 
L 324.646848 69.319701 
L 325.802856 69.319701 
L 326.807708 69.319701 
L 327.638254 69.319701 
L 328.272355 69.319701 
L 328.690091 69.319701 
L 328.875023 69.319701 
L 328.815412 69.319701 
L 328.505318 69.319701 
L 327.945466 69.319701 
L 327.143797 69.319701 
L 326.115639 69.319701 
L 324.883452 69.319701 
L 323.476149 69.319701 
L 321.928025 69.319701 
L 320.277368 69.319701 
L 318.564834 69.319701 
L 316.831729 69.319701 
L 315.118299 69.319701 
L 313.462156 69.319701 
L 311.896939 69.319701 
L 310.45128 69.319701 
L 309.148117 69.319701 
L 308.004366 69.319701 
L 307.030928 69.319701 
L 306.232982 69.319701 
L 305.610512 69.319701 
L 305.158989 69.319701 
L 304.870139 69.319701 
L 304.73274 69.319701 
L 304.733374 69.319701 
L 304.857116 69.319701 
L 305.088113 69.319701 
L 305.410047 69.319701 
L 305.806474 69.319701 
L 306.261051 69.319701 
L 306.757666 69.319701 
L 307.280472 69.319701 
L 307.813883 69.319701 
L 308.342512 69.319701 
L 308.851108 69.319701 
L 309.324505 69.319701 
L 309.747594 69.319701 
L 310.105349 69.319701 
L 310.382918 69.319701 
L 310.565786 69.319701 
L 310.64002 69.319701 
L 310.592581 69.319701 
L 310.411722 69.319701 
L 310.087415 69.319701 
L 309.611831 69.319701 
L 308.979793 69.319701 
L 308.189217 69.319701 
L 307.241464 69.319701 
L 306.14159 69.319701 
L 304.898465 69.319701 
L 303.524721 69.319701 
L 302.036533 69.319701 
L 300.453223 69.319701 
L 298.796706 69.319701 
L 297.090804 69.319701 
L 295.360458 69.319701 
L 293.630896 69.319701 
L 291.926793 69.319701 
L 290.271475 69.319701 
L 288.686217 69.319701 
L 287.189657 69.319701 
L 285.797362 69.319701 
L 284.521548 69.319701 
L 283.370967 69.319701 
L 282.350927 69.319701 
L 281.463455 69.319701 
L 280.707553 69.319701 
L 280.079528 69.319701 
L 279.57337 69.319701 
L 279.181142 69.319701 
L 278.893363 69.319701 
L 278.699372 69.319701 
L 278.587637 69.319701 
L 278.546039 69.319701 
L 278.56208 69.319701 
L 278.623065 69.319701 
L 278.716225 69.319701 
L 278.82881 69.319701 
L 278.948151 69.319701 
L 279.061712 69.319701 
L 279.157126 69.319701 
L 279.222245 69.319701 
L 279.245193 69.319701 
L 279.214444 69.319701 
L 279.118923 69.319701 
L 278.948134 69.319701 
L 278.692316 69.319701 
L 278.342624 69.319701 
L 277.891325 69.319701 
L 277.332007 69.319701 
L 276.659787 69.319701 
L 275.871504 69.319701 
L 274.965888 69.319701 
L 273.943686 69.319701 
L 272.80774 69.319701 
L 271.563002 69.319701 
L 270.21648 69.319701 
L 268.777114 69.319701 
L 267.255587 69.319701 
L 265.664059 69.319701 
L 264.015868 69.319701 
L 262.325169 69.319701 
L 260.606564 69.319701 
L 258.874713 69.319701 
L 257.143963 69.319701 
L 255.427994 69.319701 
L 253.739505 69.319701 
L 252.089957 69.319701 
L 250.489357 69.319701 
L 248.946118 69.319701 
L 247.466969 69.319701 
L 246.056926 69.319701 
L 244.719315 69.319701 
L 243.45584 69.319701 
L 242.266686 69.319701 
L 241.150647 69.319701 
L 240.10528 69.319701 
L 239.127058 69.319701 
L 238.211539 69.319701 
L 237.353522 69.319701 
L 236.547201 69.319701 
L 235.786309 69.319701 
L 235.06425 69.319701 
L 234.374217 69.319701 
L 233.709299 69.319701 
L 233.062575 69.319701 
L 232.427198 69.319701 
L 231.796468 69.319701 
L 231.1639 69.319701 
L 230.523284 69.319701 
L 229.868732 69.319701 
L 229.194733 69.319701 
L 228.49619 69.319701 
L 227.768461 69.319701 
L 227.007388 69.319701 
L 226.209328 69.319701 
L 225.371173 69.319701 
L 224.490358 69.319701 
L 223.564877 69.319701 
L 222.593273 69.319701 
L 221.574634 69.319701 
L 220.508573 69.319701 
L 219.395202 69.319701 
L 218.235097 69.319701 
L 217.029259 69.319701 
L 215.779072 69.319701 
L 214.486243 69.319701 
L 213.152758 69.319701 
L 211.780822 69.319701 
L 210.372806 69.319701 
L 208.931192 69.319701 
L 207.458525 69.319701 
L 205.957361 69.319701 
L 204.430232 69.319701 
L 202.879605 69.319701 
L 201.30785 69.319701 
L 199.717219 69.319701 
L 198.109827 69.319701 
L 196.487634 69.319701 
L 194.852444 69.319701 
L 193.205897 69.319701 
L 191.549471 69.319701 
L 189.884487 69.319701 
L 188.212114 69.319701 
L 186.533379 69.319701 
L 184.849176 69.319701 
L 183.160275 69.319701 
L 181.467336 69.319701 
L 179.770914 69.319701 
L 178.071472 69.319701 
L 176.369389 69.319701 
L 174.664968 69.319701 
L 172.958442 69.319701 
L 171.249983 69.319701 
L 169.539706 69.319701 
L 167.827677 69.319701 
L 166.113921 69.319701 
L 164.398426 69.319701 
L 162.681155 69.319701 
L 160.962053 69.319701 
L 159.241061 69.319701 
L 157.51813 69.319701 
L 155.793236 69.319701 
L 154.066399 69.319701 
L 152.337705 69.319701 
L 150.607329 69.319701 
L 148.875557 69.319701 
L 147.14282 69.319701 
L 145.409715 69.319701 
L 143.677038 69.319701 
L 141.945812 69.319701 
L 140.217313 69.319701 
L 138.493094 69.319701 
L 136.775011 69.319701 
L 135.065234 69.319701 
L 133.366265 69.319701 
L 131.680939 69.319701 
L 130.012419 69.319701 
L 128.364191 69.319701 
L 126.740035 69.319701 
L 125.144001 69.319701 
L 123.580361 69.319701 
L 122.053567 69.319701 
L 120.568181 69.319701 
L 119.128817 69.319701 
L 117.740059 69.319701 
L 116.406389 69.319701 
L 115.132096 69.319701 
L 113.921204 69.319701 
L 112.777385 69.319701 
L 111.703883 69.319701 
L 110.703451 69.319701 
L 109.778285 69.319701 
L 108.929979 69.319701 
L 108.159484 69.319701 
L 107.467088 69.319701 
L 106.852401 69.319701 
L 106.314359 69.319701 
L 105.851238 69.319701 
L 105.460677 69.319701 
L 105.139715 69.319701 
L 104.88483 69.319701 
L 104.691987 69.319701 
L 104.556691 69.319701 
L 104.474033 69.319701 
L 104.438748 69.319701 
L 104.445259 69.319701 
L 104.487728 69.319701 
L 104.560096 69.319701 
L 104.656122 69.319701 
L 104.769416 69.319701 
L 104.893474 69.319701 
L 105.021698 69.319701 
L 105.147426 69.319701 
L 105.263959 69.319701 
L 105.36458 69.319701 
L 105.442585 69.319701 
L 105.491318 69.319701 
L 105.504197 69.319701 
L 105.474766 69.319701 
L 105.396737 69.319701 
L 105.264048 69.319701 
L 105.070922 69.319701 
L 104.811936 69.319701 
L 104.482093 69.319701 
L 104.076897 69.319701 
L 103.592429 69.319701 
L 103.025422 69.319701 
L 102.373327 69.319701 
L 101.634381 69.319701 
L 100.807651 69.319701 
L 99.893079 69.319701 
L 98.891502 69.319701 
L 97.804652 69.319701 
L 96.63515 69.319701 
L 95.386465 69.319701 
L 94.062862 69.319701 
L 92.669337 69.319701 
L 91.211518 69.319701 
L 89.695573 69.319701 
L 88.128095 69.319701 
L 86.515981 69.319701 
L 84.866311 69.319701 
L 83.186226 69.319701 
L 81.482808 69.319701 
L 79.762974 69.319701 
L 78.033369 69.319701 
L 76.300283 69.319701 
L 74.569576 69.319701 
L 72.846619 69.319701 
L 71.13625 69.319701 
L 69.442753 69.319701 
L 67.769835 69.319701 
L 66.120638 69.319701 
L 64.497747 69.319701 
L 62.903216 69.319701 
L 61.338601 69.319701 
L 59.805002 69.319701 
L 58.303107 69.319701 
L 56.833246 69.319701 
L 55.395435 69.319701 
L 53.989438 69.319701 
L 52.614815 69.319701 
L 51.270972 69.319701 
L 49.957212 69.319701 
L 48.672784 69.319701 
L 47.41692 69.319701 
L 46.18888 69.319701 
L 44.987987 69.319701 
L 43.813661 69.319701 
L 42.665442 69.319701 
L 41.543023 69.319701 
L 40.446267 69.319701 
L 39.375227 69.319701 
L 38.330162 69.319701 
L 37.311546 69.319701 
L 36.320082 69.319701 
L 35.356704 69.319701 
L 34.422587 69.319701 
L 33.51914 69.319701 
L 32.648011 69.319701 
L 31.811082 69.319701 
L 31.010457 69.319701 
L 30.248456 69.319701 
L 29.527601 69.319701 
L 28.850592 69.319701 
L 28.220296 69.319701 
L 27.639708 69.319701 
L 27.111931 69.319701 
L 26.640135 69.319701 
L 26.227519 69.319701 
L 25.877265 69.319701 
L 25.592493 69.319701 
L 25.376203 69.319701 
L 25.231229 69.319701 
L 25.160177 69.319701 
L 25.16537 69.319701 
L 25.248795 69.319701 
L 25.41205 69.319701 
L 25.656296 69.319701 
L 25.982219 69.319701 
L 26.389996 69.319701 
L 26.879273 69.319701 
L 27.449153 69.319701 
L 28.098195 69.319701 
L 28.824427 69.319701 
L 29.625371 69.319701 
L 30.498076 69.319701 
L 31.439167 69.319701 
L 32.444895 69.319701 
L 33.511201 69.319701 
L 34.633779 69.319701 
L 35.808141 69.319701 
L 37.029684 69.319701 
L 38.293748 69.319701 
L 39.595671 69.319701 
L 40.930833 69.319701 
L 42.294689 69.319701 
L 43.682791 69.319701 
L 45.090795 69.319701 
L 46.514457 69.319701 
L 47.949612 69.319701 
L 49.392141 69.319701 
L 50.837927 69.319701 
L 52.282803 69.319701 
L 53.722489 69.319701 
L 55.152526 69.319701 
L 56.568208 69.319701 
L 57.964519 69.319701 
L 59.336068 69.319701 
L 60.677046 69.319701 
L 61.981186 69.319701 
L 63.241751 69.319701 
L 64.451534 69.319701 
L 65.602895 69.319701 
L 66.687817 69.319701 
L 67.697998 69.319701 
L 68.62497 69.319701 
L 69.460244 69.319701 
L 70.195489 69.319701 
L 70.822721 69.319701 
L 71.334509 69.319701 
L 71.724193 69.319701 
L 71.986082 69.319701 
L 72.115652 69.319701 
L 72.109713 69.319701 
L 71.966534 69.319701 
L 71.685936 69.319701 
L 71.269324 69.319701 
L 70.719675 69.319701 
L 70.041461 69.319701 
L 69.240529 69.319701 
L 68.32393 69.319701 
L 67.299711 69.319701 
L 66.176676 69.319701 
L 64.964136 69.319701 
L 63.671657 69.319701 
L 62.308809 69.319701 
L 60.884942 69.319701 
L 59.408994 69.319701 
L 57.889334 69.319701 
L 56.333647 69.319701 
L 54.748875 69.319701 
L 53.141197 69.319701 
L 51.516065 69.319701 
L 49.878282 69.319701 
L 48.232121 69.319701 
L 46.581484 69.319701 
L 44.93009 69.319701 
L 43.281693 69.319701 
L 41.640309 69.319701 
L 40.010462 69.319701 
L 38.397424 69.319701 
L 36.807444 69.319701 
L 35.247965 69.319701 
L 33.727786 69.319701 
L 32.257194 69.319701 
L 30.848015 69.319701 
L 29.513588 69.319701 
L 28.268646 69.319701 
L 27.129086 69.319701 
L 26.111626 69.319701 
L 25.233353 69.319701 
L 24.511151 69.319701 
L 23.961056 69.319701 
L 23.597532 69.319701 
L 23.432727 69.319701 
L 23.475743 69.319701 
L 23.731965 69.319701 
L 24.202511 69.319701 
L 24.883835 69.319701 
L 25.767543 69.319701 
L 26.84042 69.319701 
L 28.084717 69.319701 
L 29.478654 69.319701 
L 30.997146 69.319701 
L 32.612693 69.319701 
L 34.296383 69.319701 
L 36.018953 69.319701 
L 37.751832 69.319701 
L 39.468117 69.319701 
L 41.143413 69.319701 
L 42.756521 69.319701 
L 44.289918 69.319701 
L 45.730054 69.319701 
L 47.06745 69.319701 
L 48.296623 69.319701 
L 49.415876 69.319701 
L 50.426971 69.319701 
L 51.334738 69.319701 
L 52.14665 69.319701 
L 52.872381 69.319701 
L 53.523394 69.319701 
L 54.112557 69.319701 
L 54.653807 69.319701 
L 55.161854 69.319701 
L 55.651932 69.319701 
L 56.139572 69.319701 
L 56.6404 69.319701 
L 57.169931 69.319701 
L 57.743344 69.319701 
L 58.375229 69.319701 
L 59.079281 69.319701 
L 59.867948 69.319701 
L 60.752009 69.319701 
L 61.740111 69.319701 
L 62.838258 69.319701 
L 64.049287 69.319701 
L 65.372367 69.319701 
L 66.802548 69.319701 
L 68.33042 69.319701 
L 69.941925 69.319701 
L 71.618365 69.319701 
L 73.33664 69.319701 
L 75.069744 69.319701 
L 76.787519 69.319701 
L 78.457639 69.319701 
L 80.046795 69.319701 
L 81.521998 69.319701 
L 82.851945 69.319701 
L 84.00832 69.319701 
L 84.96698 69.319701 
L 85.708903 69.319701 
L 86.220864 69.319701 
L 86.495774 69.319701 
L 86.532684 69.319701 
L 86.336455 69.319701 
L 85.917144 69.319701 
L 85.289166 69.319701 
L 84.470305 69.319701 
L 83.480642 69.319701 
L 82.341504 69.319701 
L 81.074467 69.319701 
L 79.700496 69.319701 
L 78.239237 69.319701 
L 76.708494 69.319701 
L 75.123891 69.319701 
L 73.498715 69.319701 
L 71.843918 69.319701 
L 70.168265 69.319701 
L 68.478589 69.319701 
L 66.780153 69.319701 
L 65.077063 69.319701 
L 63.372745 69.319701 
L 61.670439 69.319701 
L 59.973712 69.319701 
L 58.28696 69.319701 
L 56.615891 69.319701 
L 54.967957 69.319701 
L 53.352726 69.319701 
L 51.782149 69.319701 
L 50.270715 69.319701 
L 48.835442 69.319701 
L 47.495698 69.319701 
L 46.272809 69.319701 
L 45.189466 69.319701 
L 44.268909 69.319701 
L 43.533928 69.319701 
L 43.005707 69.319701 
L 42.702584 69.319701 
L 42.638795 69.319701 
L 42.823305 69.319701 
L 43.258811 69.319701 
L 43.941027 69.319701 
L 44.858313 69.319701 
L 45.991717 69.319701 
L 47.315442 69.319701 
L 48.797728 69.319701 
L 50.402092 69.319701 
L 52.088851 69.319701 
L 53.816806 69.319701 
L 55.544974 69.319701 
L 57.234242 69.319701 
L 58.848834 69.319701 
L 60.357507 69.319701 
L 61.734413 69.319701 
L 62.959605 69.319701 
L 64.019194 69.319701 
L 64.905194 69.319701 
L 65.615101 69.319701 
L 66.151279 69.319701 
L 66.520228 69.319701 
L 66.731796 69.319701 
L 66.798392 69.319701 
L 66.734268 69.319701 
L 66.554878 69.319701 
L 66.276358 69.319701 
L 65.915125 69.319701 
L 65.487592 69.319701 
L 65.009999 69.319701 
L 64.498325 69.319701 
L 63.968282 69.319701 
L 63.435349 69.319701 
L 62.914836 69.319701 
L 62.421947 69.319701 
L 61.97182 69.319701 
L 61.579528 69.319701 
L 61.260026 69.319701 
L 61.028022 69.319701 
L 60.897777 69.319701 
L 60.882821 69.319701 
L 60.995598 69.319701 
L 61.247054 69.319701 
L 61.646176 69.319701 
L 62.199524 69.319701 
L 62.910778 69.319701 
L 63.780339 69.319701 
L 64.805023 69.319701 
L 65.977869 69.319701 
L 67.288111 69.319701 
L 68.721306 69.319701 
L 70.259647 69.319701 
L 71.882437 69.319701 
L 73.566714 69.319701 
L 75.287994 69.319701 
L 77.021086 69.319701 
L 78.740936 69.319701 
L 80.423449 69.319701 
L 82.046243 69.319701 
L 83.589299 69.319701 
L 85.035467 69.319701 
L 86.370833 69.319701 
L 87.584907 69.319701 
L 88.670671 69.319701 
L 89.624485 69.319701 
L 90.44587 69.319701 
L 91.137218 69.319701 
L 91.703429 69.319701 
L 92.151524 69.319701 
L 92.490261 69.319701 
L 92.729752 69.319701 
L 92.881131 69.319701 
L 92.956254 69.319701 
L 92.967455 69.319701 
L 92.927348 69.319701 
L 92.848678 69.319701 
L 92.744216 69.319701 
L 92.626677 69.319701 
L 92.508668 69.319701 
L 92.402647 69.319701 
L 92.320877 69.319701 
L 92.275379 69.319701 
L 92.277865 69.319701 
L 92.339648 69.319701 
L 92.471534 69.319701 
L 92.68367 69.319701 
L 92.985383 69.319701 
L 93.38499 69.319701 
L 93.889588 69.319701 
L 94.50485 69.319701 
L 95.234821 69.319701 
L 96.081735 69.319701 
L 97.045868 69.319701 
L 98.125429 69.319701 
L 99.316521 69.319701 
L 100.613151 69.319701 
L 102.007327 69.319701 
L 103.489208 69.319701 
L 105.047337 69.319701 
L 106.668923 69.319701 
L 108.340174 69.319701 
L 110.046664 69.319701 
L 111.773714 69.319701 
L 113.506774 69.319701 
L 115.231789 69.319701 
L 116.935533 69.319701 
L 118.605897 69.319701 
L 120.232126 69.319701 
L 121.804993 69.319701 
L 123.316921 69.319701 
L 124.762038 69.319701 
L 126.136177 69.319701 
L 127.436835 69.319701 
L 128.663082 69.319701 
L 129.815447 69.319701 
L 130.895773 69.319701 
L 131.907066 69.319701 
L 132.85333 69.319701 
L 133.739406 69.319701 
L 134.570818 69.319701 
L 135.353617 69.319701 
L 136.094252 69.319701 
L 136.799438 69.319701 
L 137.476047 69.319701 
L 138.131006 69.319701 
L 138.771209 69.319701 
L 139.403437 69.319701 
L 140.034291 69.319701 
L 140.670125 69.319701 
L 141.316996 69.319701 
L 141.980607 69.319701 
L 142.666269 69.319701 
L 143.378854 69.319701 
L 144.122768 69.319701 
L 144.901911 69.319701 
L 145.719664 69.319701 
L 146.578863 69.319701 
L 147.481795 69.319701 
L 148.43019 69.319701 
L 149.42523 69.319701 
L 150.467564 69.319701 
L 151.557324 69.319701 
L 152.694162 69.319701 
L 153.877283 69.319701 
L 155.10549 69.319701 
L 156.377231 69.319701 
L 157.690651 69.319701 
L 159.043648 69.319701 
L 160.433929 69.319701 
L 161.859059 69.319701 
L 163.31652 69.319701 
L 164.803754 69.319701 
L 166.318213 69.319701 
L 167.857395 69.319701 
L 169.418875 69.319701 
L 171.000341 69.319701 
L 172.599608 69.319701 
L 174.214635 69.319701 
L 175.843542 69.319701 
L 177.484605 69.319701 
L 179.136266 69.319701 
L 180.797127 69.319701 
L 182.465943 69.319701 
L 184.141617 69.319701 
L 185.82319 69.319701 
L 187.509831 69.319701 
L 189.200826 69.319701 
L 190.89557 69.319701 
L 192.593554 69.319701 
L 194.294359 69.319701 
L 195.997645 69.319701 
L 197.703143 69.319701 
L 199.410654 69.319701 
L 201.120033 69.319701 
L 202.831192 69.319701 
L 204.544085 69.319701 
L 206.258707 69.319701 
L 207.975084 69.319701 
L 209.693263 69.319701 
L 211.413303 69.319701 
L 213.13526 69.319701 
L 214.859172 69.319701 
L 216.585043 69.319701 
L 218.312824 69.319701 
L 220.042387 69.319701 
L 221.773505 69.319701 
L 223.505823 69.319701 
L 225.238831 69.319701 
L 226.971835 69.319701 
L 228.703929 69.319701 
L 230.433968 69.319701 
L 232.16054 69.319701 
L 233.881942 69.319701 
L 235.596164 69.319701 
L 237.30087 69.319701 
L 238.993393 69.319701 
L 240.670732 69.319701 
L 242.329561 69.319701 
L 243.966243 69.319701 
L 245.576859 69.319701 
L 247.157243 69.319701 
L 248.703025 69.319701 
L 250.20969 69.319701 
L 251.672642 69.319701 
L 253.087271 69.319701 
L 254.449035 69.319701 
L 255.753538 69.319701 
L 256.996613 69.319701 
L 258.174403 69.319701 
L 259.28344 69.319701 
L 260.320717 69.319701 
L 261.283754 69.319701 
L 262.17065 69.319701 
L 262.980128 69.319701 
L 263.711567 69.319701 
L 264.365018 69.319701 
L 264.941208 69.319701 
L 265.441533 69.319701 
L 265.868041 69.319701 
L 266.223396 69.319701 
L 266.510846 69.319701 
L 266.734175 69.319701 
L 266.897656 69.319701 
L 267.005996 69.319701 
L 267.064289 69.319701 
L 267.077962 69.319701 
L 267.052727 69.319701 
L 266.994539 69.319701 
L 266.909552 69.319701 
L 266.804085 69.319701 
L 266.684589 69.319701 
L 266.55762 69.319701 
L 266.429808 69.319701 
L 266.307838 69.319701 
L 266.198422 69.319701 
L 266.108273 69.319701 
L 266.044075 69.319701 
L 266.012454 69.319701 
L 266.019932 69.319701 
L 266.072888 69.319701 
L 266.177506 69.319701 
L 266.339712 69.319701 
L 266.565115 69.319701 
L 266.858935 69.319701 
L 267.225926 69.319701 
L 267.670307 69.319701 
L 268.195679 69.319701 
L 268.80496 69.319701 
L 269.500311 69.319701 
L 270.283087 69.319701 
L 271.153785 69.319701 
L 272.112021 69.319701 
L 273.156507 69.319701 
L 274.285064 69.319701 
L 275.494643 69.319701 
L 276.781368 69.319701 
L 278.140598 69.319701 
L 279.56701 69.319701 
L 281.054692 69.319701 
L 282.597249 69.319701 
L 284.187922 69.319701 
L 285.819705 69.319701 
L 287.485475 69.319701 
L 289.178103 69.319701 
L 290.890579 69.319701 
L 292.616109 69.319701 
L 294.348216 69.319701 
L 296.080815 69.319701 
L 297.808286 69.319701 
L 299.52552 69.319701 
L 301.227952 69.319701 
L 302.911588 69.319701 
L 304.573003 69.319701 
L 306.209336 69.319701 
L 307.818272 69.319701 
L 309.39801 69.319701 
L 310.947227 69.319701 
L 312.465036 69.319701 
L 313.950935 69.319701 
L 315.404756 69.319701 
L 316.826616 69.319701 
L 318.21686 69.319701 
L 319.576012 69.319701 
L 320.904722 69.319701 
L 322.20372 69.319701 
L 323.473771 69.319701 
L 324.715634 69.319701 
L 325.930021 69.319701 
L 327.117565 69.319701 
L 328.278789 69.319701 
L 329.41408 69.319701 
L 330.523661 69.319701 
L 331.607578 69.319701 
L 332.665676 69.319701 
L 333.69759 69.319701 
L 334.702733 69.319701 
L 335.680285 69.319701 
L 336.629194 69.319701 
L 337.548168 69.319701 
L 338.435676 69.319701 
L 339.289954 69.319701 
L 340.109008 69.319701 
L 340.890624 69.319701 
L 341.632379 69.319701 
L 342.33166 69.319701 
L 342.985679 69.319701 
L 343.591503 69.319701 
L 344.146078 69.319701 
L 344.646264 69.319701 
L 345.08887 69.319701 
L 345.4707 69.319701 
L 345.788597 69.319701 
L 346.039494 69.319701 
L 346.220467 69.319701 
L 346.328789 69.319701 
L 346.361989 69.319701 
L 346.317905 69.319701 
L 346.194739 69.319701 
L 345.991105 69.319701 
L 345.706075 69.319701 
L 345.339215 69.319701 
L 344.890609 69.319701 
L 344.360885 69.319701 
L 343.75121 69.319701 
L 343.063294 69.319701 
L 342.299366 69.319701 
L 341.462145 69.319701 
L 340.5548 69.319701 
L 339.580901 69.319701 
L 338.544359 69.319701 
L 337.449366 69.319701 
L 336.300327 69.319701 
L 335.101794 69.319701 
L 333.858407 69.319701 
L 332.574832 69.319701 
L 331.255716 69.319701 
L 329.905645 69.319701 
L 328.529117 69.319701 
L 327.130527 69.319701 
L 325.714169 69.319701 
L 324.284243 69.319701 
L 322.844888 69.319701 
L 321.400214 69.319701 
L 319.954357 69.319701 
L 318.511531 69.319701 
L 317.076098 69.319701 
L 315.652633 69.319701 
L 314.245987 69.319701 
L 312.861358 69.319701 
L 311.504341 69.319701 
L 310.180969 69.319701 
L 308.897744 69.319701 
L 307.661641 69.319701 
L 306.480089 69.319701 
L 305.360925 69.319701 
L 304.312322 69.319701 
L 303.342683 69.319701 
L 302.460504 69.319701 
L 301.67422 69.319701 
L 300.992013 69.319701 
L 300.421617 69.319701 
L 299.970105 69.319701 
L 299.643676 69.319701 
L 299.44746 69.319701 
L 299.385334 69.319701 
L 299.459773 69.319701 
L 299.671738 69.319701 
L 300.020618 69.319701 
L 300.504216 69.319701 
L 301.118796 69.319701 
L 301.85918 69.319701 
L 302.718894 69.319701 
L 303.690362 69.319701 
L 304.765128 69.319701 
L 305.934101 69.319701 
L 307.187811 69.319701 
L 308.516662 69.319701 
L 309.911167 69.319701 
L 311.362159 69.319701 
L 312.860969 69.319701 
L 314.399558 69.319701 
L 315.970607 69.319701 
L 317.567558 69.319701 
L 319.184601 69.319701 
L 320.816622 69.319701 
L 322.459101 69.319701 
L 324.107972 69.319701 
L 325.759449 69.319701 
L 327.409825 69.319701 
L 329.055243 69.319701 
L 330.691465 69.319701 
L 332.313623 69.319701 
L 333.915983 69.319701 
L 335.491724 69.319701 
L 337.032744 69.319701 
L 338.529511 69.319701 
L 339.97097 69.319701 
L 341.344532 69.319701 
L 342.636138 69.319701 
L 343.830437 69.319701 
L 344.911071 69.319701 
L 345.861076 69.319701 
L 346.663387 69.319701 
L 347.301459 69.319701 
L 347.75995 69.319701 
L 348.025459 69.319701 
L 348.087273 69.319701 
L 347.938071 69.319701 
L 347.574543 69.319701 
L 346.997864 69.319701 
L 346.213993 69.319701 
L 345.233756 69.319701 
L 344.072684 69.319701 
L 342.750619 69.319701 
L 341.291095 69.319701 
L 339.720526 69.319701 
L 338.067246 69.319701 
L 336.360478 69.319701 
L 334.629265 69.319701 
L 332.901459 69.319701 
L 331.202805 69.319701 
L 329.556173 69.319701 
L 327.980974 69.319701 
L 326.492768 69.319701 
L 325.103071 69.319701 
L 323.819344 69.319701 
L 322.645143 69.319701 
L 321.580392 69.319701 
L 320.621739 69.319701 
L 319.762981 69.319701 
L 318.99549 69.319701 
L 318.308648 69.319701 
L 317.690243 69.319701 
L 317.126833 69.319701 
L 316.604061 69.319701 
L 316.106927 69.319701 
L 315.62002 69.319701 
L 315.127737 69.319701 
L 314.614481 69.319701 
L 314.064876 69.319701 
L 313.464003 69.319701 
L 312.797678 69.319701 
L 312.05278 69.319701 
L 311.217642 69.319701 
L 310.282488 69.319701 
L 309.239928 69.319701 
L 308.085477 69.319701 
L 306.818071 69.319701 
L 305.440549 69.319701 
L 303.960059 69.319701 
L 302.38832 69.319701 
L 300.741726 69.319701 
L 299.041223 69.319701 
L 297.31194 69.319701 
L 295.582569 69.319701 
L 293.88449 69.319701 
L 292.250677 69.319701 
L 290.714447 69.319701 
L 289.308117 69.319701 
L 288.061652 69.319701 
L 287.001417 69.319701 
L 286.149098 69.319701 
L 285.520883 69.319701 
L 285.126948 69.319701 
L 284.971294 69.319701 
L 285.051903 69.319701 
L 285.361225 69.319701 
L 285.886906 69.319701 
L 286.612717 69.319701 
L 287.519592 69.319701 
L 288.586696 69.319701 
L 289.792461 69.319701 
L 291.115517 69.319701 
L 292.535483 69.319701 
L 294.033579 69.319701 
L 295.593061 69.319701 
L 297.199463 69.319701 
L 298.840677 69.319701 
L 300.50687 69.319701 
L 302.190281 69.319701 
L 303.884912 69.319701 
L 305.586135 69.319701 
L 307.290243 69.319701 
L 308.993968 69.319701 
z
"/>
   </g>
  </g>
 </g>
 <defs>
  <clipPath id="pcbb0ed4c51">
   <rect height="245.419509" width="357.12" x="7.2" y="7.2"/>
  </clipPath>
 </defs>
</svg>
